<svg width="30" height="30" viewBox="0 0 30 30" fill="none" xmlns="http://www.w3.org/2000/svg">
<path d="M21.25 1.5625C25.2195 1.5625 28.4375 4.78045 28.4375 8.75V21.25C28.4375 25.2195 25.2195 28.4375 21.25 28.4375H8.75C4.78045 28.4375 1.5625 25.2195 1.5625 21.25V8.75C1.5625 4.78045 4.78045 1.5625 8.75 1.5625H21.25ZM20.0381 11.2119C19.6949 10.8687 19.1514 10.8472 18.7832 11.1475L18.7119 11.2119L14.375 15.5488L12.5381 13.7119L12.4668 13.6475C12.0986 13.3474 11.555 13.3688 11.2119 13.7119C10.8688 14.055 10.8474 14.5986 11.1475 14.9668L11.2119 15.0381L13.7119 17.5381C14.0551 17.8813 14.5986 17.9028 14.9668 17.6025L15.0381 17.5381L20.0381 12.5381L20.1025 12.4668C20.4028 12.0986 20.3813 11.5551 20.0381 11.2119Z" fill="#28A745"/>
</svg>
