<svg width="18" height="22" viewBox="0 0 18 22" fill="none" xmlns="http://www.w3.org/2000/svg">
<path fill-rule="evenodd" clip-rule="evenodd" d="M13.9557 10.735L13.9986 10.7503C13.7486 10.6253 13.7486 10.6253 13.8058 10.6547C13.8629 10.684 13.9771 10.7426 13.9557 10.735Z" fill="#28A745"/>
<path fill-rule="evenodd" clip-rule="evenodd" d="M11.013 0.317627C11.0755 0.317627 11.1378 0.319755 11.1997 0.323967V5.06763C12.5 7.81735 15.8445 7.14577 17.6997 7.81735C15.6997 7.24441 13.3809 5.81331 13.9511 5.81331C14.7943 7.03883 17.6997 7.81735 17.6997 7.81735V17.0676C17.6997 19.691 15.5731 21.8176 12.9497 21.8176H4.94971C2.32635 21.8176 0.199707 19.691 0.199707 17.0676V5.06763C0.199707 2.44425 2.32635 0.317627 4.94971 0.317627H11.013ZM3.92746 11.5992C5.01975 12.7881 6.88429 14.8176 7.19971 14.8176L14.1997 8.81763C14.6139 8.81763 15.6997 9.40341 15.6997 9.81763C15.6997 10.2318 7.11392 17.8176 6.69971 17.8176L2.69971 12.8176C1.64691 11.7648 2.31827 11.4087 2.81215 11.1467C3.02194 11.0354 3.19971 10.9411 3.19971 10.8176C3.31896 10.9369 3.58536 11.2268 3.92746 11.5992Z" fill="#28A745"/>
<path d="M17.3626 5.45958C17.4387 5.55088 17.5084 5.64658 17.5715 5.74598L13.9511 5.81331C13.2607 5.81331 13 5.18634 13 4.49598V0.323966C13.155 0.444317 13.298 0.581955 13.4259 0.735442L17.3626 5.45958Z" fill="#28A745"/>
</svg>
