<svg width="30" height="30" viewBox="0 0 30 30" fill="none" xmlns="http://www.w3.org/2000/svg">
<path fill-rule="evenodd" clip-rule="evenodd" d="M8.02447 6.5625C5.4917 6.5625 4.04595 9.45401 5.56561 11.4802C6.21421 12.345 6.56482 13.3969 6.56482 14.4778V22.5C6.56482 25.7792 9.22313 28.4375 12.5023 28.4375H17.5023C20.7815 28.4375 23.4398 25.7792 23.4398 22.5V14.4778C23.4398 13.3969 23.7904 12.345 24.439 11.4802C25.9587 9.45401 24.5129 6.5625 21.9802 6.5625H8.02447ZM18.4385 21.25C18.4385 21.7678 18.0187 22.1875 17.501 22.1875C16.9832 22.1875 16.5635 21.7678 16.5635 21.25V13.75C16.5635 13.2322 16.9832 12.8125 17.501 12.8125C18.0187 12.8125 18.4385 13.2322 18.4385 13.75V21.25ZM12.501 22.1875C13.0187 22.1875 13.4385 21.7678 13.4385 21.25V13.75C13.4385 13.2322 13.0187 12.8125 12.501 12.8125C11.9832 12.8125 11.5635 13.2322 11.5635 13.75L11.5635 21.25C11.5635 21.7678 11.9832 22.1875 12.501 22.1875Z" fill="#DC3545"/>
<path d="M20 7.5L19.3198 5.45943C18.9795 4.43858 18.0242 3.75 16.9481 3.75H13.0519C11.9758 3.75 11.0205 4.43857 10.6802 5.45943L10 7.5" stroke="#DC3545" stroke-width="1.875" stroke-linecap="round"/>
</svg>
