<svg width="31" height="30" viewBox="0 0 31 30" fill="none" xmlns="http://www.w3.org/2000/svg">
<path fill-rule="evenodd" clip-rule="evenodd" d="M0.0625 7.5C0.0625 4.22081 2.72081 1.5625 6 1.5625H16C19.2792 1.5625 21.9375 4.22081 21.9375 7.5V22.5C21.9375 25.7792 19.2792 28.4375 16 28.4375H6C2.72081 28.4375 0.0625 25.7792 0.0625 22.5V7.5ZM6 7.8125C5.48223 7.8125 5.0625 8.23223 5.0625 8.75C5.0625 9.26777 5.48223 9.6875 6 9.6875H16C16.5178 9.6875 16.9375 9.26777 16.9375 8.75C16.9375 8.23223 16.5178 7.8125 16 7.8125H6ZM5.0625 15C5.0625 14.4822 5.48223 14.0625 6 14.0625H16C16.5178 14.0625 16.9375 14.4822 16.9375 15C16.9375 15.5178 16.5178 15.9375 16 15.9375H6C5.48223 15.9375 5.0625 15.5178 5.0625 15ZM6 20.3125C5.48223 20.3125 5.0625 20.7322 5.0625 21.25C5.0625 21.7678 5.48223 22.1875 6 22.1875H11C11.5178 22.1875 11.9375 21.7678 11.9375 21.25C11.9375 20.7322 11.5178 20.3125 11 20.3125H6Z" fill="#1E3F8A"/>
</svg>
