<svg width="25" height="24" viewBox="0 0 25 24" fill="none" xmlns="http://www.w3.org/2000/svg">
<path fill-rule="evenodd" clip-rule="evenodd" d="M0.25 6C0.25 3.37665 2.37665 1.25 5 1.25H13C15.6234 1.25 17.75 3.37665 17.75 6V18C17.75 20.6234 15.6234 22.75 13 22.75H5C2.37665 22.75 0.25 20.6234 0.25 18V6ZM5 6.25C4.58579 6.25 4.25 6.58579 4.25 7C4.25 7.41421 4.58579 7.75 5 7.75H13C13.4142 7.75 13.75 7.41421 13.75 7C13.75 6.58579 13.4142 6.25 13 6.25H5ZM4.25 12C4.25 11.5858 4.58579 11.25 5 11.25H13C13.4142 11.25 13.75 11.5858 13.75 12C13.75 12.4142 13.4142 12.75 13 12.75H5C4.58579 12.75 4.25 12.4142 4.25 12ZM5 16.25C4.58579 16.25 4.25 16.5858 4.25 17C4.25 17.4142 4.58579 17.75 5 17.75H9C9.41421 17.75 9.75 17.4142 9.75 17C9.75 16.5858 9.41421 16.25 9 16.25H5Z" fill="white"/>
</svg>
