<svg width="30" height="30" viewBox="0 0 30 30" fill="none" xmlns="http://www.w3.org/2000/svg">
<path d="M20.9375 1.25C24.907 1.25 28.125 4.46795 28.125 8.4375V20.9375C28.125 24.907 24.907 28.125 20.9375 28.125H8.4375C4.46795 28.125 1.25 24.907 1.25 20.9375V8.4375C1.25 4.46795 4.46795 1.25 8.4375 1.25H20.9375ZM9.4541 15.8643C9.08913 16.2298 8.87428 16.719 8.85254 17.2354L8.75293 19.6094C8.72843 20.1953 9.19625 20.6834 9.78223 20.6836H12.1201C12.6757 20.6836 13.2077 20.4595 13.5957 20.0615L18.7158 14.8086L14.6084 10.7021L9.4541 15.8643ZM18.7119 8.53711C18.175 8.00061 17.3049 8.00092 16.7686 8.53809L15.3369 9.97168L19.4355 14.0703L20.8613 12.6074C21.3868 12.0683 21.3809 11.2061 20.8486 10.6738L18.7119 8.53711Z" fill="#FFC107"/>
</svg>
