<svg width="25" height="25" viewBox="0 0 25 25" fill="none" xmlns="http://www.w3.org/2000/svg">
<path d="M3.25 11.6884C3.25 10.4642 3.81058 9.30744 4.77142 8.54888L10.2714 4.20677C11.7247 3.05948 13.7753 3.05948 15.2286 4.20677L20.7286 8.54888C21.6894 9.30744 22.25 10.4642 22.25 11.6884V18.25C22.25 20.4591 20.4591 22.25 18.25 22.25H16.75C16.1977 22.25 15.75 21.8023 15.75 21.25V18.25C15.75 17.1454 14.8546 16.25 13.75 16.25H11.75C10.6454 16.25 9.75 17.1454 9.75 18.25V21.25C9.75 21.8023 9.30228 22.25 8.75 22.25H7.25C5.04086 22.25 3.25 20.4591 3.25 18.25L3.25 11.6884Z" fill="white" stroke="white" stroke-width="1.5"/>
</svg>
