<svg width="24" height="24" viewBox="0 0 24 24" fill="none" xmlns="http://www.w3.org/2000/svg">
<path fill-rule="evenodd" clip-rule="evenodd" d="M1.25 12C1.25 6.06294 6.06294 1.25 12 1.25C17.9371 1.25 22.75 6.06294 22.75 12C22.75 17.9371 17.9371 22.75 12 22.75C6.06294 22.75 1.25 17.9371 1.25 12ZM12.5 18.25C13.1904 18.25 13.75 17.6904 13.75 17V11C13.75 10.3096 13.1904 9.75 12.5 9.75H10.5L10.3721 9.75684C9.74183 9.82092 9.25 10.3528 9.25 11C9.25 11.6472 9.74183 12.1791 10.3721 12.2432L10.5 12.25H11.25V17C11.25 17.6904 11.8096 18.25 12.5 18.25ZM13.9922 8.15332L14 8V7C14 6.17157 13.3284 5.5 12.5 5.5C11.6716 5.5 11 6.17157 11 7V8L11.0078 8.15332C11.0846 8.90972 11.7233 9.5 12.5 9.5C13.2767 9.5 13.9154 8.90972 13.9922 8.15332Z" fill="#FFC107"/>
</svg>
