<svg width="25" height="25" viewBox="0 0 25 25" fill="none" xmlns="http://www.w3.org/2000/svg">
<path d="M15.3698 2.68606C13.7417 1.77131 11.7583 1.77131 10.1302 2.68606L4.09356 6.07762C2.63548 6.89682 2.63548 9.00428 4.09356 9.82348L10.1302 13.215C11.7583 14.1298 13.7417 14.1298 15.3698 13.215L21.4064 9.82348C22.8645 9.00428 22.8645 6.89682 21.4064 6.07762L15.3698 2.68606Z" fill="white"/>
<path d="M3.72517 16.0869C2.64805 17.0269 2.77084 18.8302 4.09356 19.5734L10.1302 22.9649C11.7583 23.8797 13.7417 23.8797 15.3698 22.9649L21.4064 19.5734C22.7292 18.8302 22.852 17.0269 21.7748 16.0869L16.1045 19.2727C14.0201 20.4438 11.4799 20.4438 9.39545 19.2727L3.72517 16.0869Z" fill="white"/>
<path d="M3.56218 11.2454C2.66468 12.2173 2.8418 13.8701 4.09356 14.5734L10.1302 17.9649C11.7583 18.8797 13.7417 18.8797 15.3698 17.9649L21.4064 14.5734C22.6582 13.8701 22.8353 12.2173 21.9378 11.2454L16.1045 14.5227C14.0201 15.6938 11.4799 15.6938 9.39545 14.5227L3.56218 11.2454Z" fill="white"/>
</svg>
