<svg width="1613" height="1499" viewBox="0 0 1613 1499" fill="none" xmlns="http://www.w3.org/2000/svg">
<mask id="mask0_5830_7893" style="mask-type:luminance" maskUnits="userSpaceOnUse" x="217" y="-1" width="1396" height="1500">
<path d="M1184.17 -0.000488281L1612.98 366.269L645.816 1498.59L217 1132.32L1184.17 -0.000488281Z" fill="white"/>
</mask>
<g mask="url(#mask0_5830_7893)">
<path d="M1460.55 544.833C1523.88 470.688 1542.03 373.172 1517.63 285.828L1391.64 433.331C1342.98 490.303 1256.56 497.106 1199.6 448.454L1168.18 421.612C1111.21 372.955 1104.42 286.538 1153.08 229.567L1279.07 82.0636C1188.99 71.6276 1095.51 104.796 1032.18 178.941C954.548 269.829 944.808 395.83 998.09 495.164L408.307 1149.13C408.307 1149.13 333.673 1232.98 431.184 1316.27C528.701 1399.56 599.851 1312.73 599.851 1312.73L1153.55 627.949C1259.96 665.014 1382.89 635.687 1460.52 544.799L1460.55 544.833Z" fill="#F99D1C"/>
</g>
<path d="M1087.8 1332.17C1131.05 1376.72 1199.87 1378.83 1240.68 1336.79C1281.48 1294.75 1279.44 1223.86 1236.19 1179.3L429.036 347.81C385.784 303.253 316.968 301.151 276.165 343.191C235.355 385.225 237.396 456.116 280.648 500.673L1087.8 1332.17Z" fill="#F99D1C"/>
<path d="M795.513 152.11C795.513 152.11 572.934 37.4641 387.454 228.538L127.777 496.047C127.777 496.047 90.6789 457.836 53.5804 496.047L16.4882 534.265C16.4882 534.265 -20.6103 572.482 16.4882 610.693L164.87 763.556C164.87 763.556 201.968 801.774 239.067 763.556L276.165 725.339C276.165 725.339 313.257 687.128 276.165 648.91L273.27 645.928C301.835 617.537 344.604 588.609 387.454 610.693L535.836 457.836C535.836 457.836 498.744 343.19 572.934 266.756C647.125 190.327 684.224 190.327 758.421 190.327C832.611 190.327 795.513 152.11 795.513 152.11Z" fill="#F99D1C"/>
</svg>
