<svg width="28" height="28" viewBox="0 0 28 28" fill="none" xmlns="http://www.w3.org/2000/svg">
<path fill-rule="evenodd" clip-rule="evenodd" d="M7.75 0.5625C3.78045 0.5625 0.5625 3.78045 0.5625 7.75V20.25C0.5625 24.2195 3.78045 27.4375 7.75 27.4375H20.25C24.2195 27.4375 27.4375 24.2195 27.4375 20.25V7.75C27.4375 3.78045 24.2195 0.5625 20.25 0.5625H7.75ZM12.012 17.3158C11.6458 17.6819 11.0522 17.6819 10.6861 17.3158C10.32 16.9497 10.32 16.3561 10.6861 15.99L12.6752 14.001L10.6861 12.012C10.32 11.6458 10.32 11.0522 10.6861 10.6861C11.0522 10.32 11.6458 10.32 12.012 10.6861L14.001 12.6752L15.9894 10.6867C16.3555 10.3206 16.9491 10.3206 17.3153 10.6867C17.6814 11.0528 17.6814 11.6464 17.3153 12.0125L15.3268 14.001L17.3153 15.9894C17.6814 16.3555 17.6814 16.9491 17.3153 17.3153C16.9491 17.6814 16.3555 17.6814 15.9894 17.3153L14.001 15.3268L12.012 17.3158Z" fill="#DC3545"/>
</svg>
