<svg width="25" height="25" viewBox="0 0 25 25" fill="none" xmlns="http://www.w3.org/2000/svg">
<path d="M12.7505 2C13.6621 2.00004 14.5482 2.11383 15.395 2.32812C16.0861 2.50302 16.4432 3.09957 16.5581 3.5957C16.6941 4.18348 17.0631 4.7134 17.6255 5.03809C18.1425 5.33645 18.7271 5.40639 19.2661 5.2793C19.7616 5.16254 20.4536 5.21852 20.9165 5.75879C21.7773 6.76342 22.4563 7.92979 22.9019 9.20605C23.1676 9.9679 22.7559 10.6542 22.3208 11.0127C21.8185 11.4266 21.5005 12.0506 21.5005 12.75C21.5005 13.4494 21.8185 14.0734 22.3208 14.4873C22.7559 14.8458 23.1676 15.5321 22.9019 16.2939C22.4563 17.5701 21.7772 18.7366 20.9165 19.7412C20.4535 20.2815 19.7616 20.3366 19.2661 20.2197C18.727 20.0926 18.1425 20.1635 17.6255 20.4619C17.0631 20.7866 16.6941 21.3164 16.5581 21.9043C16.4433 22.4004 16.086 22.9969 15.395 23.1719C14.5483 23.3861 13.662 23.5 12.7505 23.5C11.8388 23.5 10.9519 23.3862 10.105 23.1719C9.4141 22.9969 9.05674 22.4004 8.9419 21.9043C8.80597 21.3166 8.4377 20.7867 7.87549 20.4619C7.35838 20.1634 6.7731 20.0925 6.23389 20.2197C5.73837 20.3366 5.04653 20.2815 4.5835 19.7412C3.72277 18.7366 3.04367 17.5701 2.59815 16.2939C2.3324 15.5321 2.74412 14.8458 3.17921 14.4873C3.68152 14.0734 4.00049 13.4494 4.00049 12.75C4.00049 12.0506 3.68152 11.4266 3.17921 11.0127C2.74412 10.6542 2.33241 9.96787 2.59815 9.20605C3.04369 7.92981 3.72271 6.76341 4.5835 5.75879C5.04642 5.21855 5.73838 5.16256 6.23389 5.2793C6.77306 5.40644 7.35842 5.33662 7.87549 5.03809C8.43772 4.71338 8.80592 4.18339 8.9419 3.5957C9.05675 3.0996 9.41406 2.50309 10.105 2.32812C10.9519 2.11383 11.8388 2 12.7505 2ZM12.7505 9.75C11.0936 9.75 9.75049 11.0931 9.75049 12.75C9.75049 14.4069 11.0936 15.75 12.7505 15.75C14.4071 15.7497 15.7505 14.4067 15.7505 12.75C15.7505 11.0933 14.4071 9.75026 12.7505 9.75Z" fill="white"/>
</svg>
