<svg width="25" height="25" viewBox="0 0 25 25" fill="none" xmlns="http://www.w3.org/2000/svg">
<path d="M17.75 2C20.9256 2 23.5 4.57436 23.5 7.75V17.75C23.5 20.9256 20.9256 23.5 17.75 23.5H7.75C4.57436 23.5 2 20.9256 2 17.75V7.75C2 4.57436 4.57436 2 7.75 2H17.75ZM12.75 7C12.3358 7 12 7.33579 12 7.75V12.5C12 12.8934 12.1852 13.2639 12.5 13.5L16.2998 16.3496L16.3633 16.3926C16.6888 16.589 17.1165 16.5107 17.3496 16.2002C17.5826 15.8895 17.5384 15.4569 17.2588 15.1992L17.2002 15.1504L13.5 12.374V7.75C13.5 7.33579 13.1642 7 12.75 7Z" fill="white"/>
</svg>
