<svg width="25" height="25" viewBox="0 0 25 25" fill="none" xmlns="http://www.w3.org/2000/svg">
<path d="M19.519 14.3838C20.4952 14.483 21.4623 14.6949 22.3989 15.0234C23.2091 15.3077 23.7505 16.0612 23.7505 16.9062V17.8076C23.7505 18.9892 22.6845 19.8976 21.4937 19.7305L21.2202 19.6914C21.165 19.6837 21.1095 19.6782 21.0542 19.6709C21.1284 19.37 21.1704 19.0552 21.1704 18.7295V17.6094C21.1704 16.3091 20.5371 15.1197 19.519 14.3838ZM18.2505 6.75C20.1315 6.75025 21.6566 8.24805 21.6567 10.0957C21.6567 11.9435 20.1316 13.4421 18.2505 13.4424C17.7824 13.4424 17.3362 13.3485 16.9302 13.1807C17.9708 12.1552 18.6167 10.7307 18.6167 9.1543C18.6167 8.29545 18.4241 7.48197 18.0815 6.75293C18.1373 6.75026 18.194 6.75 18.2505 6.75Z" fill="white"/>
<path d="M6.36182 14.3838C5.38569 14.483 4.41856 14.6949 3.48193 15.0234C2.67176 15.3077 2.13037 16.0612 2.13037 16.9062V17.8076C2.13037 18.9892 3.19638 19.8976 4.38721 19.7305L4.66064 19.6914C4.71587 19.6837 4.77139 19.6782 4.82666 19.6709C4.75243 19.37 4.71049 19.0552 4.71045 18.7295V17.6094C4.71047 16.3091 5.34375 15.1197 6.36182 14.3838ZM7.63037 6.75C5.74938 6.75025 4.2243 8.24805 4.22412 10.0957C4.22412 11.9435 5.74927 13.4421 7.63037 13.4424C8.09849 13.4424 8.54468 13.3485 8.95068 13.1807C7.91006 12.1552 7.26417 10.7307 7.26416 9.1543C7.26416 8.29545 7.45671 7.48197 7.79932 6.75293C7.74352 6.75026 7.68684 6.75 7.63037 6.75Z" fill="white"/>
<path fill-rule="evenodd" clip-rule="evenodd" d="M17.1171 9.15426C17.1171 6.85992 15.2571 5 12.9628 5C10.6685 5 8.80856 6.85992 8.80856 9.15426C8.80856 11.4486 10.6685 13.3085 12.9628 13.3085C15.2571 13.3085 17.1171 11.4486 17.1171 9.15426Z" fill="white"/>
<path fill-rule="evenodd" clip-rule="evenodd" d="M7.90298 15.2715C11.175 14.1029 14.7506 14.1029 18.0227 15.2715C19.0107 15.6243 19.6703 16.5603 19.6703 17.6094V18.729C19.6703 20.196 18.371 21.3229 16.9187 21.1154L16.5851 21.0678C14.1825 20.7245 11.7432 20.7245 9.34049 21.0678L9.00693 21.1154C7.55468 21.3229 6.25537 20.196 6.25537 18.729V17.6094C6.25537 16.5603 6.91492 15.6243 7.90298 15.2715Z" fill="white"/>
</svg>
