<svg width="30" height="30" viewBox="0 0 30 30" fill="none" xmlns="http://www.w3.org/2000/svg">
<path fill-rule="evenodd" clip-rule="evenodd" d="M5 8.03711C3.61929 8.03711 2.5 9.1564 2.5 10.5371V12.6056C2.5 13.7096 3.22417 14.6829 4.28163 15.0001L13.5633 17.7846C14.5005 18.0658 15.4995 18.0658 16.4367 17.7846L25.7184 15.0001C26.7758 14.6829 27.5 13.7096 27.5 12.6056V10.5371C27.5 9.1564 26.3807 8.03711 25 8.03711H5ZM15.9326 14.5625L15.9375 14.4668V12.3242C15.9375 11.8065 15.5178 11.3867 15 11.3867C14.4822 11.3867 14.0625 11.8065 14.0625 12.3242V14.4668L14.0674 14.5625C14.1152 15.0354 14.5145 15.4043 15 15.4043C15.4855 15.4043 15.8848 15.0354 15.9326 14.5625Z" fill="#F99D1C"/>
<path fill-rule="evenodd" clip-rule="evenodd" d="M2.60352 16.2685V21.2531C2.60352 24.5323 5.26183 27.1906 8.54102 27.1906H21.4577C24.7369 27.1906 27.3952 24.5323 27.3952 21.2531V16.268C27.0493 16.4945 26.6671 16.6744 26.2562 16.7977L16.9745 19.5821C15.6859 19.9687 14.3122 19.9687 13.0235 19.5821L3.74188 16.7977C3.33121 16.6745 2.94926 16.4947 2.60352 16.2685ZM2.68061 13.543L14.9993 15.6283L27.3174 13.5431C27.0391 14.2318 26.4606 14.7788 25.7174 15.0017L16.4358 17.7862C15.4986 18.0674 14.4995 18.0674 13.5623 17.7862L4.28066 15.0017C3.53743 14.7788 2.95885 14.2317 2.68061 13.543ZM14.9985 17.5031L14.9992 17.5033L14.9991 17.5033L14.9985 17.5031Z" fill="#F99D1C"/>
<path d="M19.1673 8.03569V6.25C19.1673 4.86929 18.048 3.75 16.6673 3.75H13.334C11.9533 3.75 10.834 4.86929 10.834 6.25L10.834 8.03569" stroke="#F99D1C" stroke-width="1.875"/>
</svg>
