<svg width="22" height="28" viewBox="0 0 22 28" fill="none" xmlns="http://www.w3.org/2000/svg">
<path fill-rule="evenodd" clip-rule="evenodd" d="M0.0625 6.5C0.0625 3.22081 2.72081 0.5625 6 0.5625H16C19.2792 0.5625 21.9375 3.22081 21.9375 6.5V21.5C21.9375 24.7792 19.2792 27.4375 16 27.4375H6C2.72081 27.4375 0.0625 24.7792 0.0625 21.5V6.5ZM6 6.8125C5.48223 6.8125 5.0625 7.23223 5.0625 7.75C5.0625 8.26777 5.48223 8.6875 6 8.6875H16C16.5178 8.6875 16.9375 8.26777 16.9375 7.75C16.9375 7.23223 16.5178 6.8125 16 6.8125H6ZM5.0625 14C5.0625 13.4822 5.48223 13.0625 6 13.0625H16C16.5178 13.0625 16.9375 13.4822 16.9375 14C16.9375 14.5178 16.5178 14.9375 16 14.9375H6C5.48223 14.9375 5.0625 14.5178 5.0625 14ZM6 19.3125C5.48223 19.3125 5.0625 19.7322 5.0625 20.25C5.0625 20.7678 5.48223 21.1875 6 21.1875H11C11.5178 21.1875 11.9375 20.7678 11.9375 20.25C11.9375 19.7322 11.5178 19.3125 11 19.3125H6Z" fill="#1E3F8A"/>
</svg>
