<svg width="28" height="28" viewBox="0 0 28 28" fill="none" xmlns="http://www.w3.org/2000/svg">
<path fill-rule="evenodd" clip-rule="evenodd" d="M0.25 7.4375C0.25 3.46795 3.46795 0.25 7.4375 0.25H19.9375C23.907 0.25 27.125 3.46795 27.125 7.4375V19.9375C27.125 23.907 23.907 27.125 19.9375 27.125H7.4375C3.46795 27.125 0.25 23.907 0.25 19.9375V7.4375ZM15.7666 7.53732C16.3031 7.00002 17.1733 6.99969 17.7102 7.53659L19.8468 9.67323C20.3791 10.2055 20.3847 11.0673 19.8592 11.6064L18.4333 13.0694L14.335 8.97114L15.7666 7.53732ZM13.6063 9.7009L17.7134 13.808L12.5939 19.0607C12.2059 19.4588 11.6737 19.6833 11.1181 19.6832L8.78039 19.6831C8.19416 19.6831 7.72598 19.1944 7.75064 18.6082L7.85048 16.2346C7.8722 15.7182 8.08682 15.2288 8.45188 14.8632L13.6063 9.7009Z" fill="#FFC107"/>
</svg>
