<svg width="22" height="27" viewBox="0 0 22 27" fill="none" xmlns="http://www.w3.org/2000/svg">
<path fill-rule="evenodd" clip-rule="evenodd" d="M4.02447 4.5625C1.4917 4.5625 0.0459485 7.45401 1.56561 9.48022C2.21421 10.345 2.56482 11.3969 2.56482 12.4778V20.5C2.56482 23.7792 5.22313 26.4375 8.50232 26.4375H13.5023C16.7815 26.4375 19.4398 23.7792 19.4398 20.5V12.4778C19.4398 11.3969 19.7904 10.345 20.439 9.48022C21.9587 7.45401 20.5129 4.5625 17.9802 4.5625H4.02447ZM14.4385 19.25C14.4385 19.7678 14.0187 20.1875 13.501 20.1875C12.9832 20.1875 12.5635 19.7678 12.5635 19.25V11.75C12.5635 11.2322 12.9832 10.8125 13.501 10.8125C14.0187 10.8125 14.4385 11.2322 14.4385 11.75V19.25ZM8.50098 20.1875C9.01874 20.1875 9.43848 19.7678 9.43848 19.25V11.75C9.43848 11.2322 9.01874 10.8125 8.50098 10.8125C7.98321 10.8125 7.56348 11.2322 7.56348 11.75L7.56348 19.25C7.56348 19.7678 7.98321 20.1875 8.50098 20.1875Z" fill="#DC3545"/>
<path d="M16 5.5L15.3198 3.45943C14.9795 2.43858 14.0242 1.75 12.9481 1.75H9.0519C7.97582 1.75 7.02048 2.43857 6.68019 3.45943L6 5.5" stroke="#DC3545" stroke-width="1.875" stroke-linecap="round"/>
</svg>
