<svg width="777" height="809" viewBox="0 0 777 809" fill="none" xmlns="http://www.w3.org/2000/svg">
<path d="M20.0701 248.886V597.251C20.0701 625.909 40.6745 649.344 66.5227 650.083C181.326 653.364 582.851 661.32 692.136 659.534C710.919 659.227 726.135 642.568 726.677 621.756C728.784 540.826 732.207 346.217 719.541 255.867C716.874 236.84 702.383 222.613 685.02 221.997C588.829 218.586 163.186 207.757 53.952 210.476C35.1131 210.945 20.0701 228.001 20.0701 248.886Z" fill="#772710"/>
<path d="M39.7935 247.19V578.161C39.7935 594.893 51.9118 608.526 67.0065 608.776L676.414 617.121C691.38 617.369 703.647 604.024 703.703 587.436L704.722 259.422C704.762 247.561 696.236 237.842 685.537 237.554L61.6167 223.583C49.6509 223.261 39.7935 233.924 39.7935 247.19Z" fill="#FCD58B"/>
<path d="M62.2551 258.474V558.247C62.2551 573.401 73.6374 585.75 87.8152 585.977L660.206 593.535C674.263 593.759 685.784 581.673 685.837 566.648L686.794 269.554C686.832 258.811 678.824 250.008 668.775 249.747L82.7526 237.094C71.5139 236.801 62.2551 246.459 62.2551 258.474Z" fill="#FEEBC7"/>
<path d="M708.289 630.596C708.289 630.596 708.279 630.596 708.273 630.596L39.7759 617.971C39.3087 617.962 38.9367 617.576 38.9455 617.108C38.9545 616.641 39.3324 616.3 39.8084 616.278L708.305 628.902C708.773 628.911 709.145 629.298 709.136 629.765C709.127 630.227 708.75 630.596 708.289 630.596Z" fill="#FCD58B"/>
<path d="M128.024 674.524C171.101 661.054 197.217 592.977 178.926 566.054C166.567 547.863 141.949 560.258 123.889 540.46C100.83 515.183 127.406 480.12 115.357 426.311C105.103 380.52 69.4249 332.535 42.8752 336.313C15.0841 340.267 -10.2431 402.011 5.24266 444.675C15.3132 472.421 37.4006 477.652 38.0519 501.895C38.8078 530.026 9.46103 537.535 4.60126 563.806C-4.1274 610.995 71.0371 692.343 128.024 674.524Z" fill="#FBBA4E"/>
<path d="M103.529 688.766C103.764 688.808 104.012 688.799 104.257 688.73C105.124 688.485 105.629 687.585 105.385 686.719C72.4359 569.731 79.4899 442.126 79.565 440.851C79.6181 439.952 78.9312 439.18 78.0335 439.128C77.1349 439.075 76.3629 439.761 76.3103 440.659C76.2349 441.94 69.1505 570.093 102.246 687.602C102.421 688.224 102.934 688.659 103.529 688.766Z" fill="#F99D1C"/>
<path d="M32.8647 465.86C33.0292 465.89 33.2051 465.866 33.3649 465.783C33.7457 465.582 33.8915 465.111 33.6913 464.73C20.9959 440.614 8.4194 405.547 20.6029 375.437C27.8585 357.506 40.6261 349.763 40.7544 349.687C41.124 349.467 41.2459 348.989 41.0264 348.619C40.8064 348.249 40.328 348.127 39.9587 348.348C39.4172 348.669 26.6099 356.439 19.1588 374.853C12.3105 391.778 9.03362 421.235 32.3124 465.456C32.4287 465.677 32.6364 465.819 32.8647 465.86Z" fill="#F0F0F0"/>
<path d="M133.261 665.762C133.506 665.806 133.767 665.732 133.954 665.543C165.916 633.104 179.676 606.08 174.849 585.221C170.558 566.676 152.507 560.134 152.325 560.069C151.918 559.929 151.475 560.14 151.332 560.546C151.189 560.951 151.402 561.396 151.808 561.539C151.982 561.601 169.249 567.883 173.336 585.592C178.02 605.895 164.397 632.426 132.844 664.448C132.542 664.755 132.546 665.248 132.852 665.55C132.969 665.665 133.112 665.735 133.261 665.762Z" fill="#F0F0F0"/>
<path d="M304.44 361.32L304.44 357.028H304.44V361.32ZM349.224 435.056L353.516 435.056V435.056H349.224ZM333.585 453.357L334.175 457.609L333.585 453.357ZM304.44 455.867V460.159V455.867ZM275.294 453.357L274.705 457.609H274.705L275.294 453.357ZM259.656 435.056H255.364V435.056L259.656 435.056ZM346.555 425.339L350.241 423.141L346.555 425.339ZM304.44 361.32L304.44 365.612C321.307 365.612 334.98 379.286 334.98 396.153H339.272H343.564C343.564 374.546 326.048 357.029 304.44 357.028L304.44 361.32ZM339.272 396.153H334.98V408.127H339.272H343.564V396.153H339.272ZM346.555 425.339L342.868 427.538C344.178 429.734 344.932 432.3 344.932 435.056H349.224H353.516C353.516 430.71 352.322 426.63 350.241 423.141L346.555 425.339ZM349.224 435.056L344.932 435.056C344.932 442.187 339.86 448.154 332.996 449.106L333.585 453.357L334.175 457.609C345.481 456.041 353.516 446.27 353.516 435.056L349.224 435.056ZM333.585 453.357L332.996 449.106C324.008 450.353 312.977 451.575 304.44 451.575V455.867V460.159C313.6 460.159 325.117 458.865 334.175 457.609L333.585 453.357ZM304.44 455.867V451.575C295.902 451.575 284.871 450.353 275.884 449.106L275.294 453.357L274.705 457.609C283.762 458.865 295.28 460.159 304.44 460.159V455.867ZM275.294 453.357L275.884 449.106C269.019 448.154 263.947 442.187 263.947 435.056L259.656 435.056L255.364 435.056C255.364 446.27 263.398 456.041 274.705 457.609L275.294 453.357ZM259.656 435.056H263.947C263.947 432.3 264.701 429.734 266.011 427.537L262.325 425.339L258.638 423.141C256.558 426.631 255.364 430.71 255.364 435.056H259.656ZM269.607 408.128H273.899V396.153H269.607H265.315V408.128H269.607ZM269.607 396.153H273.899C273.899 379.286 287.573 365.612 304.44 365.612V361.32V357.028C282.832 357.028 265.315 374.546 265.315 396.153H269.607ZM262.325 425.339L266.011 427.537C267.468 425.094 269.504 422.011 271.015 418.983C272.582 415.843 273.899 412.207 273.899 408.128H269.607H265.315C265.315 410.345 264.602 412.611 263.335 415.15C262.011 417.802 260.406 420.177 258.638 423.141L262.325 425.339ZM339.272 408.127H334.98C334.98 412.207 336.296 415.843 337.864 418.983C339.375 422.011 341.411 425.094 342.868 427.538L346.555 425.339L350.241 423.141C348.473 420.177 346.868 417.802 345.544 415.15C344.276 412.61 343.564 410.345 343.564 408.127H339.272Z" fill="#F37E0D"/>
<path d="M316.88 469.098C314.206 473.12 309.633 475.771 304.44 475.771C299.248 475.771 294.675 473.12 292 469.098" stroke="#F37E0D" stroke-width="8.58372" stroke-linecap="round"/>
<path d="M772.195 388.786C773.596 454.867 778.137 682.803 775.969 763.577C775.739 772.134 769.876 779.002 762.561 779.282C726.383 780.667 593.759 784.178 534.585 781.273C522.26 780.668 512.459 768.989 512.203 754.561C510.973 685.201 508.26 490.118 514.708 400.751C515.481 390.043 522.665 381.516 531.805 380.446C571.204 375.836 704.399 364.565 755.522 368.446C764.741 369.146 771.966 377.981 772.195 388.786Z" fill="#772710"/>
<path d="M756.053 409.06C758.001 462.397 764.143 639.836 762.194 705.448C761.909 715.039 755.448 722.793 747.259 723.354C713.543 725.662 598.514 730.752 549.062 726.119C540.157 725.285 533.169 716.86 532.689 706.424C530.183 652.01 522.987 486.789 524.856 421.912C525.155 411.562 532.007 403.11 540.824 402.183C577.299 398.352 699.531 389.237 741.554 391.919C749.442 392.422 755.717 399.826 756.053 409.06Z" fill="#FCD58B"/>
<g opacity="0.3">
<path d="M741.254 417.999C742.979 465.231 748.418 622.361 746.692 680.464C746.439 688.957 740.718 695.823 733.466 696.32C703.609 698.364 601.746 702.871 557.954 698.768C550.068 698.03 543.88 690.569 543.455 681.328C541.236 633.142 534.864 486.832 536.519 429.38C536.783 420.215 542.851 412.73 550.659 411.909C582.959 408.517 691.201 400.445 728.414 402.82C735.4 403.266 740.956 409.822 741.254 417.999Z" fill="white"/>
</g>
<path opacity="0.5" d="M682.787 379.992C682.787 382.019 681.436 383.692 679.705 383.798C671.16 384.321 647.089 385.802 636.331 386.532C634.21 386.676 632.546 384.446 632.947 382.005L633.016 381.589C633.291 379.924 634.471 378.67 635.915 378.515C643.186 377.736 665.129 375.574 679.666 376.181C681.413 376.255 682.787 377.947 682.787 379.992Z" fill="white"/>
<path d="M685.579 607.177H685.578L685.314 607.175L597.134 605.305C590.349 605.161 584.947 599.525 585.091 592.74L586.453 528.485C586.595 521.844 592.112 516.44 598.753 516.44L599.018 516.443L687.198 518.312C693.983 518.457 699.385 524.093 699.24 530.877L697.878 595.132C697.737 601.774 692.22 607.177 685.579 607.177ZM598.835 524.975C596.725 524.975 595.042 526.632 594.998 528.661L593.636 592.919C593.592 594.991 595.243 596.715 597.316 596.759L685.579 598.63C687.606 598.63 689.29 596.98 689.334 594.95L690.696 530.696C690.74 528.623 689.089 526.895 687.016 526.851L598.836 524.975L598.835 524.975Z" fill="#F37E0D"/>
<path d="M642.228 564.256C641.332 564.256 640.437 563.975 639.682 563.415L591.039 527.346C589.144 525.94 588.746 523.264 590.152 521.368C591.559 519.473 594.235 519.075 596.13 520.481L642.337 554.744L689.333 522.84C691.286 521.512 693.943 522.023 695.269 523.975C696.594 525.928 696.086 528.586 694.134 529.911L644.628 563.518C643.902 564.01 643.065 564.256 642.228 564.256Z" fill="#F37E0D"/>
<path d="M592.578 603.24L591.486 594.763L591.993 599.007L588.458 596.609C589.425 595.123 607.884 564.37 620.055 544.061C621.268 542.037 623.892 541.379 625.917 542.592C627.941 543.806 628.599 546.43 627.386 548.454C627.386 548.454 619.484 561.639 611.567 574.826C607.607 581.42 603.645 588.015 600.664 592.963C594.643 602.954 594.643 602.954 592.578 603.24Z" fill="#F37E0D"/>
<path d="M689.7 605.299C687.656 604.922 687.656 604.922 682.066 594.689C679.297 589.62 675.617 582.862 671.941 576.106C664.59 562.596 657.254 549.088 657.254 549.088C656.128 547.015 656.896 544.42 658.97 543.294C661.045 542.165 663.638 542.936 664.764 545.01C676.063 565.815 693.201 597.323 694.105 598.849L690.473 601.095L689.7 605.299Z" fill="#F37E0D"/>
<path d="M127.655 286.049C127.77 286.005 189.561 177.795 197.91 167.612C199.315 165.899 201.489 165.027 203.688 165.289L220.935 167.344L241.196 211.177L207.442 191.518C210.782 214.618 167.419 248.947 152.548 261.474C151.039 262.746 150.915 265.022 152.278 266.449L158.215 272.664C148.468 282.545 137.22 288.888 124.525 291.823L127.655 286.049Z" fill="url(#paint0_linear_4112_3845)"/>
<path d="M154.78 269.309C154.78 269.309 158.57 270.533 159.853 273.907C160.466 275.522 159.805 277.351 158.401 278.357C152.161 282.827 131.58 297.259 122.082 300.085C121.304 300.317 120.563 299.613 120.738 298.82C121.226 296.613 122.802 292.207 127.881 285.757L127.426 286.679C126.849 287.846 128.119 289.06 129.252 288.42C135.605 284.835 148.544 276.986 154.78 269.309Z" fill="#F99D1C"/>
<path d="M151.723 312.604C151.826 312.538 161.096 290.202 161.2 290.136C169.7 238.384 190.439 194.063 196.555 182.4C197.584 180.439 199.536 179.144 201.743 178.956L219.049 177.479L247.762 216.304L210.727 203.883C218.673 225.829 183.155 268.224 171.127 283.501C169.906 285.051 170.246 287.306 171.869 288.427L178.941 293.312C171.395 304.961 161.664 313.45 149.827 318.892L151.723 312.604Z" fill="url(#paint1_linear_4112_3845)"/>
<path d="M174.899 290.723C174.899 290.723 178.857 291.155 180.797 294.2C181.725 295.657 181.447 297.583 180.276 298.852C175.07 304.492 157.835 322.79 149.106 327.481C148.391 327.865 147.523 327.326 147.534 326.513C147.564 324.254 148.217 319.62 151.886 312.276L151.626 313.27C151.297 314.529 152.787 315.462 153.767 314.606C159.263 309.808 170.345 299.504 174.899 290.723Z" fill="#F99D1C"/>
<path d="M300.056 169.302C300.056 169.302 315.711 192.587 316.996 203.209C318.28 213.831 312.667 217.504 296.281 218.858C247.519 222.889 223.482 208.276 223.482 208.276C220.146 187.008 217.773 181.597 189.914 170.033C189.914 170.033 225.15 172.831 232.242 170.079C239.333 167.326 300.056 169.302 300.056 169.302Z" fill="#F99D1C"/>
<path d="M232.191 66.315C223.309 66.2413 214.064 68.572 210.277 63.2751C204.708 55.4842 213.184 34.3251 227.389 28.8163C242.219 23.0659 252.533 38.5432 268.382 32.8684C280.763 28.4356 279.808 17.0791 291.348 8.50939C310.494 -5.70788 348.695 -0.866821 362.979 18.0738C386.331 49.0371 346.247 118.318 315.871 119.154C288.926 119.894 273.915 66.6598 232.191 66.315Z" fill="#772710"/>
<path d="M257.716 166.219C257.716 166.219 239.486 148.86 230.512 137.362C225.661 131.147 224.137 122.965 226.381 115.407C230.478 101.603 237.759 87.3069 238.423 85.0817C239.441 81.671 259.882 81.8133 259.882 81.8133C259.882 81.8133 300.107 107.919 315.911 152.141L298.162 157.667C298.162 157.667 287.659 140.047 277.282 128.844C277.282 128.844 295.238 152.565 295.87 162.276L257.716 166.219Z" fill="#F37E0D"/>
<path d="M222.982 173.071L236.68 158.167L252.501 162.427C252.501 162.427 270.945 165.285 281.501 162.427C292.058 159.57 292.058 159.57 292.058 159.57L315.913 152.143L319.659 162.731C320.611 165.419 319.655 168.404 317.33 170.056C315.266 171.522 312.848 173.134 311.306 173.809C308.164 175.183 238.938 174.243 238.938 174.243L222.982 173.071Z" fill="url(#paint2_linear_4112_3845)"/>
<path d="M245.833 57.2357L259.572 82.7835C258.665 88.3601 244.619 88.5176 242.449 85.1872C242.229 84.8486 242.102 84.4567 242.019 84.0608L233.8 66.9909C233.447 65.3262 238.01 59.7175 239.512 58.918L244.973 56.0114C247.076 54.8919 238.302 54.8036 245.833 57.2357Z" fill="url(#paint3_linear_4112_3845)"/>
<path d="M218.03 51.242C218.03 51.242 216.479 59.8733 223.263 70.8476C230.047 81.8219 236.803 81.3266 240.235 77.4127C243.667 73.4991 247.778 66.9808 245.907 56.0351C244.037 45.0894 220.373 40.2352 218.03 51.242Z" fill="url(#paint4_linear_4112_3845)"/>
<path d="M237.694 57.2227C237.694 57.2227 226.709 42.7939 218.275 55.3722L218.418 59.7171C218.418 59.7171 212.115 63.1891 213.305 53.0806C214.494 42.9724 218.783 32.0823 231.196 35.5357C243.608 38.9893 250.861 42.9225 252.263 51.5407C253.665 60.1586 246.628 58.7504 246.628 58.7504C246.628 58.7504 243.94 52.8039 240.695 52.3977C237.449 51.9919 238.622 56.6956 238.622 56.6956L237.694 57.2227Z" fill="#772710"/>
<path d="M240.216 56.8393C240.216 56.8393 234.526 49.4552 239.706 47.9228C244.885 46.3902 244.692 55.1582 244.354 58.4199L240.216 56.8393Z" fill="url(#paint5_linear_4112_3845)"/>
<path d="M268.326 178.97C268.278 178.972 268.23 178.974 268.181 178.973L205.174 178.904C203.616 178.903 202.355 177.639 202.357 176.082C202.358 174.523 203.627 173.236 205.181 173.265L268.188 173.333C269.745 173.334 271.007 174.599 271.005 176.156C271.003 177.665 269.816 178.896 268.326 178.97Z" fill="#772710"/>
<path d="M148.533 121.761H201.006C204.877 121.761 208.4 123.995 210.051 127.496L234.31 178.934H169.1C166.605 178.934 164.364 177.41 163.447 175.09L144.636 127.492C143.549 124.742 145.576 121.761 148.533 121.761Z" fill="#772710"/>
<path opacity="0.39" d="M285.771 58.5993C285.603 58.5993 285.436 58.5973 285.269 58.5923C278.716 58.3957 271.992 55.2152 264.711 48.8684C253.373 38.9835 249.055 37.3614 240.097 37.3614C239.836 37.3614 239.572 37.3629 239.303 37.3658L239.3 37.0008C239.553 36.9988 239.804 36.9973 240.05 36.9973C249.014 36.9973 253.595 38.6924 264.95 48.5934C272.164 54.8824 278.815 58.0339 285.28 58.2274C292.253 58.4334 299.522 54.1516 305.193 46.4685C307.666 43.1174 309.735 39.4104 311.736 35.8244C313.611 32.4642 315.55 28.9892 317.823 25.8038C319.479 23.4831 322.1 20.1934 325.734 18.4261C329.352 16.6643 333.472 16.8338 336.229 18.853L336.014 19.1478C333.364 17.2061 329.393 17.0521 325.894 18.7534C322.335 20.485 319.753 23.7271 318.12 26.0157C315.859 29.1841 313.925 32.6509 312.055 36.0026C310.048 39.5977 307.973 43.3155 305.487 46.685C299.879 54.2831 292.721 58.5993 285.771 58.5993Z" fill="white"/>
<path opacity="0.39" d="M287.872 67.788C287.185 67.788 286.507 67.7494 285.84 67.6717C281.577 67.177 276.608 64.5728 275.116 59.8706L275.464 59.7607C276.907 64.3072 281.736 66.8287 285.882 67.31C291.245 67.9318 297.291 65.9848 302.916 61.8287C306.625 59.0901 309.884 55.6963 313.037 52.4142C314.081 51.3277 315.162 50.2033 316.243 49.1189C320.999 44.348 326.183 39.9382 331.651 36.0106C335.272 33.4093 339.211 31.0176 343.533 31.0176C343.678 31.0176 343.822 31.0205 343.968 31.0255C346.559 31.1222 349.265 32.5365 350.86 34.6273C352.091 36.24 352.544 38.0935 352.134 39.8482L351.779 39.7652C352.164 38.1189 351.734 36.3724 350.571 34.8485C349.038 32.8407 346.441 31.4834 343.954 31.3901C339.558 31.2294 335.553 33.6568 331.863 36.3066C326.412 40.2222 321.243 44.62 316.501 49.3766C315.423 50.4584 314.344 51.5814 313.301 52.6669C310.138 55.9596 306.867 59.3647 303.133 62.1217C298.13 65.8176 292.788 67.788 287.872 67.788Z" fill="white"/>
<path opacity="0.39" d="M292.177 73.2869C290.509 73.2869 288.821 72.9588 287.203 72.1411L287.367 71.815C293.17 74.7468 300.12 70.9933 302.838 69.243C305.887 67.2805 308.749 64.8896 311.516 62.5776C316.09 58.7552 320.82 54.8034 326.489 52.7243C329.39 51.6589 332.052 51.3117 334.401 51.689C337.297 52.1553 339.742 53.7809 340.942 56.0391L340.62 56.2098C339.473 54.0524 337.126 52.4972 334.342 52.0493C332.061 51.6828 329.457 52.0238 326.614 53.0662C321.005 55.1239 316.3 59.0553 311.75 62.8576C308.974 65.1769 306.103 67.575 303.037 69.5495C300.561 71.1424 296.437 73.2869 292.177 73.2869Z" fill="white"/>
<path d="M355.826 293.507C355.826 392.51 439.119 472.768 541.866 472.768C644.613 472.768 732.508 389.003 732.508 290C732.508 190.997 644.613 114.246 541.866 114.246C439.119 114.246 355.826 194.504 355.826 293.507Z" fill="#772710"/>
<path d="M717.9 249.919C718.011 249.919 718.121 249.907 718.232 249.878C718.918 249.702 719.326 249.024 719.144 248.362C717.142 241.119 714.585 233.933 711.543 227.007C711.265 226.378 710.508 226.091 709.859 226.349C709.205 226.617 708.9 227.342 709.177 227.974C712.172 234.791 714.69 241.866 716.66 249C716.813 249.554 717.333 249.919 717.9 249.919Z" fill="#F99D1C"/>
<path d="M689.471 193.899C689.739 193.899 690.011 193.817 690.244 193.65C690.81 193.239 690.922 192.461 690.496 191.917C656.027 147.874 600.506 121.582 541.976 121.582C516.979 121.582 492.802 126.466 470.117 136.093C469.468 136.369 469.173 137.101 469.459 137.725C469.744 138.351 470.503 138.634 471.153 138.361C493.509 128.869 517.338 124.058 541.975 124.058C599.704 124.058 654.457 149.982 688.443 193.406C688.697 193.73 689.081 193.899 689.471 193.899Z" fill="#F37E0D"/>
<path d="M381.137 293.508C381.137 379.206 453.237 448.678 542.176 448.678C631.114 448.678 707.197 376.171 707.197 290.473C707.197 204.775 631.114 138.338 542.176 138.338C453.237 138.338 381.137 207.81 381.137 293.508Z" fill="#FEEBC7"/>
<path opacity="0.78" d="M666.042 285.459C666.44 292.046 672.304 297.075 679.14 296.691C685.975 296.308 691.194 290.658 690.796 284.071C690.398 277.485 684.534 272.455 677.699 272.839C670.863 273.222 665.644 278.873 666.042 285.459Z" fill="#441104"/>
<path opacity="0.78" d="M398.188 300.481C398.585 307.068 404.45 312.096 411.285 311.713C418.121 311.329 423.34 305.679 422.942 299.092C422.544 292.506 416.68 287.477 409.845 287.86C403.009 288.244 397.79 293.894 398.188 300.481Z" fill="#441104"/>
<path opacity="0.78" d="M566.369 407.688C559.632 408.873 555.17 415.096 556.4 421.586C557.63 428.077 564.088 432.378 570.824 431.192C577.56 430.006 582.023 423.784 580.793 417.294C579.562 410.803 573.105 406.502 566.369 407.688Z" fill="#441104"/>
<path opacity="0.78" d="M518.16 153.361C511.424 154.546 506.961 160.769 508.192 167.259C509.422 173.75 515.879 178.05 522.616 176.864C529.351 175.679 533.815 169.456 532.585 162.966C531.354 156.476 524.896 152.175 518.16 153.361Z" fill="#441104"/>
<path opacity="0.78" d="M478.225 414.515C476.965 417.578 477.28 420.446 478.928 420.921C480.576 421.395 482.934 419.297 484.194 416.235C485.454 413.172 485.139 410.303 483.491 409.828C481.842 409.354 479.485 411.452 478.225 414.515Z" fill="#441104"/>
<path opacity="0.78" d="M585.983 173.287C584.723 176.35 585.038 179.218 586.686 179.693C588.335 180.168 590.692 178.07 591.952 175.008C593.212 171.945 592.898 169.076 591.249 168.601C589.601 168.127 587.243 170.224 585.983 173.287Z" fill="#441104"/>
<path opacity="0.78" d="M421.961 368.659C419.234 370.647 417.957 373.256 419.11 374.486C420.263 375.717 423.408 375.103 426.136 373.116C428.863 371.128 430.139 368.52 428.987 367.29C427.833 366.059 424.688 366.672 421.961 368.659Z" fill="#441104"/>
<path opacity="0.78" d="M644.042 216.408C641.315 218.396 640.038 221.005 641.191 222.235C642.343 223.466 645.489 222.852 648.216 220.865C650.944 218.878 652.22 216.269 651.067 215.038C649.914 213.808 646.769 214.422 644.042 216.408Z" fill="#441104"/>
<path opacity="0.78" d="M414.893 232.072C411.806 230.656 408.815 230.767 408.213 232.32C407.611 233.873 409.625 236.28 412.713 237.696C415.8 239.113 418.791 239.002 419.393 237.449C419.995 235.896 417.981 233.489 414.893 232.072Z" fill="#441104"/>
<path opacity="0.78" d="M657.465 351.825C654.378 350.409 651.387 350.519 650.784 352.072C650.182 353.625 652.197 356.033 655.284 357.449C658.371 358.865 661.362 358.754 661.964 357.202C662.567 355.649 660.552 353.242 657.465 351.825Z" fill="#441104"/>
<path opacity="0.78" d="M466.146 181.05C464.271 178.295 461.655 176.893 460.304 177.919C458.952 178.945 459.377 182.01 461.252 184.766C463.127 187.521 465.744 188.922 467.094 187.897C468.446 186.87 468.021 183.805 466.146 181.05Z" fill="#441104"/>
<path opacity="0.78" d="M608.926 404.757C607.051 402.002 604.435 400.6 603.084 401.626C601.732 402.651 602.157 405.717 604.032 408.472C605.907 411.227 608.523 412.629 609.875 411.603C611.226 410.577 610.801 407.512 608.926 404.757Z" fill="#441104"/>
<path d="M547.19 288.7L646.788 336.563C648.718 337.49 650.976 336.098 650.911 334.021L650.52 321.667C650.444 319.265 653.381 317.933 655.254 319.522L727.267 380.616C729.47 382.486 727.658 385.956 724.787 385.365L632.038 366.282C629.819 365.826 629.016 363.175 630.632 361.64L641.49 351.323C642.832 350.047 642.544 347.89 640.91 346.985L544.496 293.54C543.154 292.796 542.673 291.155 543.415 289.844C544.149 288.546 545.817 288.04 547.19 288.7Z" fill="#F99D1C"/>
<path d="M716.068 380.331C716.994 380.331 717.832 379.833 718.255 378.994C718.761 377.99 718.501 376.842 717.609 376.131L701.851 363.579C701.304 363.144 700.493 363.219 700.042 363.746C699.59 364.273 699.667 365.051 700.214 365.489L715.973 378.042C694.976 373.421 645.798 363.095 644.779 362.996C644.09 362.919 643.442 363.42 643.37 364.101C643.299 364.773 643.799 365.373 644.489 365.455C645.963 365.682 683.65 373.573 715.524 380.273C715.707 380.311 715.888 380.331 716.068 380.331Z" fill="#F99D1C"/>
<path d="M536.802 283.984L536.999 190.15C536.967 188.072 534.644 186.781 532.761 187.792L521.557 193.81C519.378 194.98 516.8 193.079 517.402 190.746L540.575 101.031C541.283 98.2868 545.315 98.2401 546.091 100.968L571.171 189.099C571.771 191.207 569.698 193.114 567.54 192.437L553.037 187.894C551.245 187.332 549.391 188.571 549.308 190.385L542.501 284.063C542.433 285.554 541.141 286.72 539.592 286.689C538.059 286.657 536.825 285.462 536.802 283.984Z" fill="#F99D1C"/>
<path d="M563.475 180.497C563.632 180.497 563.79 180.47 563.944 180.412C564.597 180.166 564.922 179.462 564.681 178.831C564.214 177.472 554.15 141.596 545.659 111.24C545.358 110.167 544.411 109.461 543.226 109.488C542.069 109.516 541.128 110.268 540.883 111.359L536.565 130.615C536.416 131.283 536.856 131.943 537.55 132.085C538.236 132.233 538.925 131.807 539.077 131.138L543.395 111.881C548.797 131.972 561.905 178.79 562.28 179.711C562.478 180.199 562.962 180.497 563.475 180.497Z" fill="#F99D1C"/>
<path d="M543.007 301.775C550.32 301.775 556.248 296.063 556.248 289.016C556.248 281.969 550.32 276.257 543.007 276.257C535.694 276.257 529.766 281.969 529.766 289.016C529.766 296.063 535.694 301.775 543.007 301.775Z" fill="#F99D1C"/>
<path d="M455.288 116.71C455.66 116.71 456.038 116.625 456.392 116.447C542.79 73.0413 617 115.927 617.739 116.364C618.912 117.057 620.421 116.671 621.115 115.502C621.809 114.333 621.424 112.822 620.255 112.127C619.474 111.663 600.782 100.698 570.855 95.1118C543.259 89.9586 500.614 88.7138 454.18 112.044C452.964 112.655 452.473 114.136 453.085 115.351C453.517 116.213 454.386 116.71 455.288 116.71Z" fill="#F37E0D"/>
<path d="M456.93 95.357C457.302 95.357 457.68 95.2719 458.034 95.094C544.432 51.6883 618.642 94.5736 619.381 95.0113C620.554 95.7036 622.063 95.3184 622.757 94.149C623.451 92.9795 623.066 91.4685 621.897 90.7739C621.116 90.3096 602.424 79.345 572.498 73.7587C544.902 68.6056 502.256 67.3608 455.823 90.6907C454.607 91.302 454.116 92.7826 454.727 93.9982C455.159 94.8596 456.028 95.357 456.93 95.357Z" fill="#F37E0D"/>
<path d="M749.626 270.739C749.514 271.094 749.48 271.48 749.543 271.871C764.793 367.349 701.476 425.119 700.835 425.69C699.82 426.6 699.731 428.154 700.636 429.169C701.54 430.185 703.097 430.274 704.113 429.37C704.792 428.766 720.895 414.265 735.269 387.428C748.525 362.682 762.606 322.409 754.409 271.094C754.194 269.751 752.931 268.835 751.587 269.05C750.636 269.201 749.898 269.88 749.626 270.739Z" fill="#F37E0D"/>
<path d="M769.483 278.76C769.371 279.115 769.337 279.501 769.4 279.892C784.649 375.37 721.332 433.14 720.692 433.711C719.677 434.62 719.588 436.175 720.493 437.19C721.397 438.205 722.954 438.295 723.97 437.391C724.648 436.786 740.752 422.285 755.125 395.449C768.382 370.703 782.463 330.43 774.266 279.115C774.051 277.771 772.788 276.856 771.444 277.071C770.492 277.222 769.755 277.901 769.483 278.76Z" fill="#F37E0D"/>
<path d="M149.322 488.163C149.135 488.518 137.345 497.194 137.345 497.194C137.345 497.194 139.949 515.82 150.521 523.175C162.145 531.262 178.561 516.514 178.561 516.514C178.561 516.514 191.625 519.62 198.573 492.425C200.167 486.186 190.966 485.659 179.861 486.808C165.542 488.289 149.322 488.163 149.322 488.163Z" fill="#772710"/>
<path d="M127.284 551.71C131.896 548.539 136.995 546.148 142.402 544.677C144.432 544.124 155.396 547.311 162.174 547.155C171.478 546.941 180.948 542.707 188.617 544.618C196.235 546.517 202.47 548.996 206.07 551.557C216.845 559.221 223.172 573.511 227.027 587.667C219.727 595.161 210.54 598.491 210.54 598.491L208.842 667.298L168.156 688.114L121.717 664.8L123.381 597.56C123.381 597.56 108.634 590.692 107.552 588.194C106.47 585.696 114.273 560.655 127.284 551.71Z" fill="#F37E0D"/>
<path d="M108.239 587.896C108.239 587.896 88.478 642.682 133.541 665.198C142.897 663.955 139.299 648.416 139.299 648.416C139.299 648.416 119.718 644.083 125.599 598.381C120.185 593.927 108.239 587.896 108.239 587.896Z" fill="url(#paint6_linear_4112_3845)"/>
<path d="M226.079 587.896C226.079 587.896 239.677 645.085 200.777 665.198C191.421 663.955 195.019 648.416 195.019 648.416C195.019 648.416 210.8 640.645 208.719 598.381C214.133 593.927 226.079 587.896 226.079 587.896Z" fill="url(#paint7_linear_4112_3845)"/>
<path d="M209.217 669.046H122.367C121.715 669.046 121.182 668.512 121.182 667.861V609.976C121.182 609.325 121.715 608.792 122.367 608.792H209.217C209.869 608.792 210.402 609.325 210.402 609.976V667.861C210.402 668.512 209.869 669.046 209.217 669.046Z" fill="#772710"/>
<path d="M249.536 686.908C239.326 684.564 215.727 685.824 215.727 685.824L214.767 688.424L213.177 701.344C213.177 701.344 235.651 705.395 246.729 705.385C247.859 705.384 248.893 705.214 249.837 704.921C250.175 704.617 250.505 704.303 250.817 703.962C255.517 698.829 254.16 691.289 249.536 686.908Z" fill="#772710"/>
<path d="M250.548 687.164C250.228 687.074 249.89 686.989 249.536 686.908C254.16 691.289 255.517 698.83 250.817 703.963C250.505 704.304 250.175 704.618 249.837 704.921C258.148 702.334 259.132 689.579 250.548 687.164Z" fill="#F99D1C"/>
<path d="M208.945 685.098L212.941 685.268C215.088 685.36 217.112 686.406 218.555 688.171C219.999 689.935 220.741 692.271 220.615 694.649C220.514 696.546 219.736 698.32 218.453 699.578C217.169 700.836 215.487 701.475 213.777 701.354L207.663 700.919L208.945 685.098Z" fill="url(#paint8_linear_4112_3845)"/>
<path d="M74.5767 685.666C84.8418 683.636 108.4 685.62 108.4 685.62L109.295 688.248L110.561 701.212C110.561 701.212 87.9951 704.572 76.9214 704.222C75.7917 704.187 74.7626 703.985 73.826 703.662C73.4959 703.349 73.1738 703.025 72.8702 702.674C68.3003 697.399 69.8455 689.903 74.5767 685.666Z" fill="#772710"/>
<path d="M73.5591 685.891C73.8811 685.81 74.2215 685.736 74.5769 685.666C69.8454 689.903 68.3005 697.399 72.8707 702.674C73.1743 703.024 73.4963 703.349 73.8265 703.662C65.5838 700.821 64.9184 688.041 73.5591 685.891Z" fill="#F99D1C"/>
<path d="M115.196 685.101L111.197 685.149C109.049 685.174 107 686.158 105.513 687.878C104.026 689.598 103.226 691.909 103.292 694.291C103.346 696.19 104.079 697.987 105.331 699.284C106.583 700.582 108.249 701.272 109.961 701.203L116.084 700.956L115.196 685.101Z" fill="url(#paint9_linear_4112_3845)"/>
<path d="M252.392 646.403C247.761 635.746 236.436 634.016 226.797 638.999C226.629 639.22 165.582 670.507 111.747 684.219C113.288 689.16 114.08 694.417 114.253 699.585C114.284 700.736 114.265 701.871 114.198 702.992C155.482 700.871 200.288 687.103 238.789 675.003C250.728 671.153 257.524 658.215 252.392 646.403Z" fill="#F99D1C"/>
<path d="M209.24 700.395C209.078 694.438 210.236 688.893 212.714 683.76C212.784 683.525 212.869 683.299 212.944 683.067C209.87 682.115 205.898 680.825 200.681 679.055C162.453 665.972 133.289 652.762 105.455 637.555C94.6418 631.648 82.3473 635.607 78.8858 648.401C75.7959 659.823 82.5814 669.575 92.8801 673.002C123.691 683.254 107.649 680.407 117.711 683.645C144.736 692.002 178.364 699.613 209.304 701.692C209.281 701.259 209.254 700.826 209.24 700.395Z" fill="#F99D1C"/>
<path d="M142.403 544.677C142.403 544.677 146.514 562.494 166.475 562.124C186.806 561.754 188.618 544.619 188.618 544.619L175.337 541.777L174.228 526.979L154.251 528.459L153.881 542.517L142.403 544.677Z" fill="url(#paint10_linear_4112_3845)"/>
<path d="M157.054 485.053C157.054 485.053 134.161 529.4 161.318 540.159C180.473 547.747 192.483 510.709 188.901 500.677C183.362 485.166 179.715 487.007 179.715 487.007L157.054 485.053Z" fill="url(#paint11_linear_4112_3845)"/>
<path d="M194.41 481.018C205.72 484.126 196.054 508.655 179.027 502.854C161.999 497.054 155.308 497.138 152.654 501.814C150.001 506.49 149.431 523.094 143.674 514.887C137.361 505.89 133.842 487.829 141.581 482.007C148.497 476.804 150.112 468.737 158.407 469.017C169.418 469.388 177.934 464.507 182.904 468.027C188.612 472.07 186.088 478.73 194.41 481.018Z" fill="#772710"/>
<path d="M151.607 505.627C151.607 505.627 146.724 500.373 145.943 506.705C145.161 513.037 147.67 521.192 150.61 516.722C153.55 512.252 151.607 505.627 151.607 505.627Z" fill="url(#paint12_linear_4112_3845)"/>
<path d="M171.054 625.11C171.528 628.306 169.815 631.208 166.618 631.681C163.421 632.154 160.447 629.946 159.974 626.749C159.5 623.553 160.964 620.378 164.16 619.905C167.357 619.432 170.581 621.913 171.054 625.11Z" fill="#7D97F4"/>
<path d="M437.081 516.977C437.081 516.977 437.081 561.825 456.743 558.169C468.756 555.935 475.869 507.622 475.869 507.622C475.869 507.622 463.44 479.937 462.052 488.999C451.962 554.876 444.446 504.456 437.081 516.977Z" fill="url(#paint13_linear_4112_3845)"/>
<path d="M489.889 783.179C489.889 783.179 491.374 791.584 492.102 799.904C492.386 803.155 489.88 805.979 486.618 806.115C475.538 806.576 451.838 807.473 443.333 807.094C442.055 807.037 441.219 805.728 441.692 804.539C442.089 803.542 442.854 802.737 443.828 802.289L482.977 784.296L489.889 783.179Z" fill="#772710"/>
<path d="M491.105 778.24L489.912 788.294C489.912 788.294 483.054 791.486 478.371 787.891L481.211 776.688L491.105 778.24Z" fill="url(#paint14_linear_4112_3845)"/>
<path d="M490.209 589.232C490.724 591.857 492.975 720.246 479.251 777.782C479.027 778.721 479.503 779.689 480.397 780.054C482.502 780.914 486.628 782.159 491.574 782.325C493.105 782.377 494.478 781.381 494.91 779.911C498.833 766.562 517.631 699.679 520.083 635.788C522.824 564.395 520.083 633.357 520.083 633.357L518.476 589.227L490.209 589.232Z" fill="#F99D1C"/>
<path d="M534.923 787.562C534.923 787.562 537.287 791.806 539.574 803.081C539.987 805.117 538.565 807.066 536.497 807.269C532.838 807.629 527.206 808.092 522.695 808.06C520.615 808.046 518.992 806.235 519.242 804.171C519.742 800.055 521.299 793.303 526.108 788.04L534.923 787.562Z" fill="#772710"/>
<path d="M536.999 774.633L534.212 789.836C534.212 789.836 531.456 791.886 526.005 790.4L527.335 774.042L536.999 774.633Z" fill="url(#paint15_linear_4112_3845)"/>
<path d="M544.529 593.172C555.754 660.911 542.094 760.595 537.488 780.106C537.206 781.3 536.241 782.215 535.031 782.416C532.975 782.757 529.589 783.035 526.252 782.065C525.102 781.732 524.294 780.694 524.247 779.498C523.629 763.724 524.742 666.889 514.283 628.619C513.753 626.679 512.569 624.988 510.93 623.823L490.631 609.392L489.075 586.066L544.529 593.172Z" fill="#F99D1C"/>
<path d="M471.771 467.376C512.755 463.278 543.759 473.65 543.759 473.65C553.786 532.154 545.513 599.635 545.513 599.635C519.472 606.464 490.096 595.459 490.096 595.459C485.768 571.006 467.733 514.541 467.733 514.541C459.516 513.521 451.804 517.672 453.577 506.265C455.35 494.858 466.609 467.893 471.771 467.376Z" fill="#F37E0D"/>
<path d="M530.857 506.22L543.759 473.649C543.759 473.649 575.178 494.997 580.345 522.064C574.408 522.501 563.606 524.045 553.032 529.384C550.708 516.604 530.857 506.22 530.857 506.22Z" fill="#F37E0D"/>
<path d="M500.668 536.868C500.668 536.868 535.944 556.804 547.846 539.781C550.317 536.246 553.64 532.733 553.032 529.384C563.606 524.045 573.677 522.501 579.614 522.063C581.172 530.223 578.347 538.902 573.552 547.673C552.703 585.812 496 545.565 496 545.565L500.668 536.868Z" fill="url(#paint16_linear_4112_3845)"/>
<path d="M494.198 550.393L482.624 509.976C482.493 509.517 482.102 509.183 481.628 509.128C479.531 508.883 473.455 508.196 466.44 507.603C457.99 506.888 448.177 506.309 442.313 506.802C441.479 506.871 440.975 507.753 441.346 508.503C444.68 515.25 458.397 542.692 465.266 551.682C465.494 551.98 465.845 552.154 466.22 552.15L493.072 551.9C493.853 551.894 494.413 551.144 494.198 550.393Z" fill="#772710"/>
<path d="M500.256 545.844C500.256 545.844 502.938 534.817 501.856 530.905C500.775 526.992 498.678 521.962 491.692 523.08C484.706 524.197 476.464 527.141 476.464 527.141C476.464 527.141 476.881 532.237 482.191 530.592L478.898 533.14C478.898 533.14 479.369 537.221 483.854 535.041L480.791 538.419C480.791 538.419 482.717 541.771 486.017 539.622C489.316 537.472 490.898 547.173 500.256 545.844Z" fill="url(#paint17_linear_4112_3845)"/>
<path d="M446.373 528.785C446.373 528.785 438.243 520.867 437.081 516.977C435.919 513.088 435.023 507.713 441.536 504.948C448.049 502.184 456.595 500.3 456.595 500.3C456.595 500.3 458.949 504.838 453.577 506.266L457.72 506.676C457.72 506.676 459.489 510.383 454.531 510.918L458.92 512.154C458.92 512.154 459.069 516.017 455.131 515.948C451.194 515.88 455.007 524.939 446.373 528.785Z" fill="url(#paint18_linear_4112_3845)"/>
<path d="M505.59 441.686L516.293 472.638C516.47 473.151 516.259 473.719 515.785 473.981C512.867 475.594 502.356 480.256 489.689 472.225C488.37 471.389 487.472 470.024 487.271 468.475L483.805 441.686L505.59 441.686Z" fill="url(#paint19_linear_4112_3845)"/>
<path d="M473.631 434.027C473.631 434.027 477.09 458.838 483.552 465.192C490.014 471.547 501.435 462.483 507.478 449.144L500.665 424.583L473.631 434.027Z" fill="url(#paint20_linear_4112_3845)"/>
<path d="M500.142 439.972C499.589 440.089 499.064 439.689 499.037 439.124C498.956 437.407 498.664 433.995 497.613 431.584C497.613 431.584 498.531 429.248 491.413 432.19C484.295 435.131 473.616 439.43 467.975 435.643C462.474 431.952 458.176 415.763 473.254 420.222C473.827 420.392 474.412 419.981 474.429 419.383C474.502 416.802 475.359 410.935 481.521 409.653C487.286 408.455 490.086 411.288 491.19 412.939C491.515 413.424 492.204 413.485 492.604 413.06C494.501 411.048 499.519 406.863 505.906 410.494C511.167 413.486 511.677 416.966 511.37 419.072C511.27 419.754 511.918 420.289 512.57 420.066C514.337 419.461 517.092 419.335 519.358 422.858C522.492 427.729 516.957 431.109 515.312 431.975C515.042 432.117 514.857 432.379 514.824 432.682C514.57 435.022 513.161 445.2 507.452 450.438C506.958 450.892 506.153 450.662 505.958 450.02L502.976 440.224C502.838 439.77 502.374 439.496 501.909 439.595L500.142 439.972Z" fill="#772710"/>
<path d="M499.864 441.872C499.864 441.872 503.273 432.313 506.604 435.871C509.936 439.428 504.61 445.963 500.284 446.87L499.864 441.872Z" fill="url(#paint21_linear_4112_3845)"/>
<defs>
<linearGradient id="paint0_linear_4112_3845" x1="112.845" y1="195.401" x2="210.261" y2="251.005" gradientUnits="userSpaceOnUse">
<stop stop-color="#FEBBBA"/>
<stop offset="1" stop-color="#FF928E"/>
</linearGradient>
<linearGradient id="paint1_linear_4112_3845" x1="122.268" y1="209.266" x2="-211.044" y2="0.60758" gradientUnits="userSpaceOnUse">
<stop stop-color="#FEBBBA"/>
<stop offset="1" stop-color="#FF928E"/>
</linearGradient>
<linearGradient id="paint2_linear_4112_3845" x1="283.466" y1="163.35" x2="380.508" y2="163.35" gradientUnits="userSpaceOnUse">
<stop stop-color="#FEBBBA"/>
<stop offset="1" stop-color="#FF928E"/>
</linearGradient>
<linearGradient id="paint3_linear_4112_3845" x1="243.968" y1="116.967" x2="246.211" y2="82.0131" gradientUnits="userSpaceOnUse">
<stop stop-color="#FEBBBA"/>
<stop offset="1" stop-color="#FF928E"/>
</linearGradient>
<linearGradient id="paint4_linear_4112_3845" x1="247.273" y1="87.3945" x2="205.047" y2="6.58368" gradientUnits="userSpaceOnUse">
<stop stop-color="#FEBBBA"/>
<stop offset="1" stop-color="#FF928E"/>
</linearGradient>
<linearGradient id="paint5_linear_4112_3845" x1="256.938" y1="82.343" x2="214.712" y2="1.53306" gradientUnits="userSpaceOnUse">
<stop stop-color="#FEBBBA"/>
<stop offset="1" stop-color="#FF928E"/>
</linearGradient>
<linearGradient id="paint6_linear_4112_3845" x1="98.1423" y1="573.165" x2="175.458" y2="759.927" gradientUnits="userSpaceOnUse">
<stop stop-color="#A22B25"/>
<stop offset="1" stop-color="#C0423C"/>
</linearGradient>
<linearGradient id="paint7_linear_4112_3845" x1="235.206" y1="572.764" x2="157.89" y2="759.526" gradientUnits="userSpaceOnUse">
<stop stop-color="#A22B25"/>
<stop offset="1" stop-color="#C0423C"/>
</linearGradient>
<linearGradient id="paint8_linear_4112_3845" x1="241.11" y1="619.063" x2="196.513" y2="739.861" gradientUnits="userSpaceOnUse">
<stop stop-color="#FEBBBA"/>
<stop offset="1" stop-color="#FF928E"/>
</linearGradient>
<linearGradient id="paint9_linear_4112_3845" x1="151.757" y1="582.66" x2="107.136" y2="703.522" gradientUnits="userSpaceOnUse">
<stop stop-color="#FEBBBA"/>
<stop offset="1" stop-color="#FF928E"/>
</linearGradient>
<linearGradient id="paint10_linear_4112_3845" x1="161.831" y1="558.546" x2="185.692" y2="470.011" gradientUnits="userSpaceOnUse">
<stop stop-color="#A22B25"/>
<stop offset="1" stop-color="#C0423C"/>
</linearGradient>
<linearGradient id="paint11_linear_4112_3845" x1="175.39" y1="466.543" x2="167.855" y2="517.403" gradientUnits="userSpaceOnUse">
<stop stop-color="#A22B25"/>
<stop offset="1" stop-color="#C0423C"/>
</linearGradient>
<linearGradient id="paint12_linear_4112_3845" x1="155.83" y1="463.644" x2="148.296" y2="514.504" gradientUnits="userSpaceOnUse">
<stop stop-color="#A22B25"/>
<stop offset="1" stop-color="#C0423C"/>
</linearGradient>
<linearGradient id="paint13_linear_4112_3845" x1="475.869" y1="522.779" x2="437.081" y2="522.779" gradientUnits="userSpaceOnUse">
<stop stop-color="#FEBBBA"/>
<stop offset="1" stop-color="#FF928E"/>
</linearGradient>
<linearGradient id="paint14_linear_4112_3845" x1="491.105" y1="783.144" x2="478.371" y2="783.144" gradientUnits="userSpaceOnUse">
<stop stop-color="#FEBBBA"/>
<stop offset="1" stop-color="#FF928E"/>
</linearGradient>
<linearGradient id="paint15_linear_4112_3845" x1="536.999" y1="782.491" x2="526.005" y2="782.491" gradientUnits="userSpaceOnUse">
<stop stop-color="#FEBBBA"/>
<stop offset="1" stop-color="#FF928E"/>
</linearGradient>
<linearGradient id="paint16_linear_4112_3845" x1="580.044" y1="543.079" x2="496" y2="543.079" gradientUnits="userSpaceOnUse">
<stop stop-color="#FEBBBA"/>
<stop offset="1" stop-color="#FF928E"/>
</linearGradient>
<linearGradient id="paint17_linear_4112_3845" x1="491.275" y1="529.907" x2="474.322" y2="568.21" gradientUnits="userSpaceOnUse">
<stop stop-color="#FEBBBA"/>
<stop offset="1" stop-color="#FF928E"/>
</linearGradient>
<linearGradient id="paint18_linear_4112_3845" x1="435.439" y1="529.439" x2="484.416" y2="457.857" gradientUnits="userSpaceOnUse">
<stop stop-color="#FEBBBA"/>
<stop offset="1" stop-color="#FF928E"/>
</linearGradient>
<linearGradient id="paint19_linear_4112_3845" x1="508.883" y1="517.54" x2="498.836" y2="450.982" gradientUnits="userSpaceOnUse">
<stop stop-color="#FEBBBA"/>
<stop offset="1" stop-color="#FF928E"/>
</linearGradient>
<linearGradient id="paint20_linear_4112_3845" x1="483.542" y1="458.347" x2="499.722" y2="419.674" gradientUnits="userSpaceOnUse">
<stop stop-color="#FEBBBA"/>
<stop offset="1" stop-color="#FF928E"/>
</linearGradient>
<linearGradient id="paint21_linear_4112_3845" x1="495.931" y1="459.426" x2="510.488" y2="424.632" gradientUnits="userSpaceOnUse">
<stop stop-color="#FEBBBA"/>
<stop offset="1" stop-color="#FF928E"/>
</linearGradient>
</defs>
</svg>
