<svg width="857" height="654" viewBox="0 0 857 654" fill="none" xmlns="http://www.w3.org/2000/svg">
<g opacity="0.26">
<path d="M671.956 100.489C671.525 100.299 671.243 99.821 671.294 99.2985C671.356 98.6673 671.428 98.0366 671.508 97.4226C671.591 96.79 672.136 96.3499 672.726 96.4386C673.315 96.5287 673.727 97.1124 673.644 97.7445C673.567 98.3316 673.498 98.9357 673.438 99.5398C673.377 100.175 672.846 100.636 672.254 100.569C672.149 100.557 672.049 100.529 671.956 100.489Z" fill="#D75B08"/>
<path d="M673.206 92.9702C672.718 92.7549 672.439 92.1811 672.573 91.6164C672.85 90.4465 673.169 89.2696 673.52 88.1178C673.705 87.5108 674.314 87.1798 674.88 87.3785C675.451 87.5772 675.754 88.2302 675.569 88.8371C675.233 89.9401 674.927 91.0668 674.662 92.1864C674.516 92.8057 673.929 93.1798 673.352 93.0224C673.302 93.0081 673.253 92.9906 673.206 92.9702ZM676.09 84.1483C676.078 84.1431 676.067 84.1379 676.055 84.1322C675.513 83.8695 675.271 83.1842 675.517 82.6024C675.761 82.0229 676.018 81.4392 676.281 80.8678C676.519 80.3514 676.764 79.8407 677.015 79.3357C677.295 78.7719 677.946 78.5618 678.473 78.8591C678.999 79.1598 679.197 79.8597 678.917 80.4235C678.677 80.9076 678.442 81.3965 678.215 81.8921C677.962 82.4398 677.716 82.9988 677.482 83.5546C677.241 84.1241 676.624 84.384 676.09 84.1483ZM680.35 75.996C680.282 75.9656 680.215 75.9277 680.152 75.8812C679.66 75.5218 679.533 74.8024 679.869 74.2746C680.504 73.2755 681.178 72.2868 681.874 71.336C682.241 70.8334 682.92 70.7457 683.387 71.1402C683.855 71.5343 683.938 72.2612 683.57 72.7638C682.904 73.6743 682.258 74.6208 681.65 75.5772C681.358 76.0362 680.812 76.1989 680.35 75.996ZM685.873 68.764C685.748 68.709 685.631 68.6279 685.529 68.5208C685.104 68.0741 685.097 67.3419 685.513 66.8857C686.303 66.0208 687.13 65.1734 687.973 64.3678C688.417 63.9424 689.099 63.9846 689.495 64.4612C689.891 64.9377 689.852 65.6685 689.408 66.0938C688.602 66.8649 687.81 67.6757 687.054 68.5037C686.737 68.8503 686.267 68.938 685.873 68.764ZM692.5 62.6863C692.319 62.6061 692.155 62.4719 692.033 62.2879C691.688 61.7677 691.8 61.046 692.285 60.6752C693.203 59.9739 694.156 59.2963 695.117 58.6613C695.624 58.3265 696.288 58.4958 696.6 59.0397C696.913 59.5836 696.755 60.2959 696.248 60.6306C695.327 61.2385 694.415 61.8873 693.536 62.5587C693.224 62.7982 692.831 62.8323 692.5 62.6863ZM700.017 57.951C699.778 57.8457 699.573 57.648 699.453 57.3777C699.198 56.8006 699.427 56.1111 699.964 55.837C700.982 55.3187 702.03 54.8298 703.079 54.3845C703.633 54.1493 704.259 54.4405 704.478 55.0342C704.697 55.6284 704.426 56.2998 703.872 56.535C702.868 56.9613 701.864 57.4293 700.89 57.9263C700.604 58.0719 700.288 58.0705 700.017 57.951ZM708.186 54.6928C707.888 54.5614 707.648 54.2892 707.556 53.9298C707.397 53.3143 707.735 52.6774 708.309 52.5082C709.394 52.1876 710.504 51.9017 711.609 51.6589C712.193 51.5308 712.763 51.9344 712.882 52.5594C713.002 53.1848 712.626 53.7961 712.043 53.9246C710.984 54.1574 709.92 54.431 708.881 54.7383C708.642 54.8085 708.399 54.7867 708.186 54.6928ZM716.756 53.008C716.397 52.8501 716.13 52.4892 716.091 52.0463C716.035 51.4104 716.471 50.8466 717.063 50.7868C718.184 50.674 719.324 50.6 720.45 50.5678C721.046 50.5516 721.541 51.0548 721.557 51.6925C721.573 52.3308 721.103 52.8624 720.508 52.8795C719.429 52.9103 718.339 52.9809 717.265 53.0891C717.085 53.1075 716.912 53.0767 716.756 53.008ZM758.753 70.9908C758.604 70.9249 758.466 70.8215 758.352 70.6821C757.642 69.8106 756.895 68.9532 756.132 68.1338C755.711 67.6824 755.711 66.9502 756.132 66.4988C756.553 66.0474 757.236 66.0478 757.657 66.4993C758.454 67.3552 759.234 68.2505 759.975 69.1614C760.367 69.6422 760.321 70.373 759.872 70.7931C759.555 71.0904 759.119 71.152 758.753 70.9908ZM725.462 52.9539C725.039 52.7675 724.759 52.3038 724.798 51.7888C724.847 51.1524 725.368 50.6792 725.961 50.7318C727.086 50.8319 728.221 50.9737 729.334 51.1543C729.923 51.2501 730.328 51.8395 730.239 52.4702C730.15 53.1019 729.6 53.5362 729.012 53.4404C727.946 53.2678 726.86 53.1317 725.783 53.0359C725.67 53.0269 725.562 52.998 725.462 52.9539ZM752.464 64.5204C752.371 64.4797 752.282 64.4237 752.199 64.3526C751.358 63.6294 750.482 62.9262 749.595 62.2633C749.106 61.8981 748.986 61.1774 749.327 60.6534C749.668 60.1299 750.339 60.0019 750.828 60.366C751.754 61.0588 752.67 61.7934 753.548 62.5488C754.012 62.9485 754.087 63.6759 753.714 64.1743C753.408 64.584 752.895 64.7106 752.464 64.5204ZM734.048 54.5448C733.555 54.3276 733.276 53.7463 733.417 53.1787C733.57 52.5617 734.16 52.1942 734.736 52.3578C735.823 52.668 736.916 53.0217 737.985 53.4101C738.546 53.6154 738.852 54.2712 738.661 54.8763C738.47 55.4809 737.858 55.8052 737.294 55.6004C736.27 55.2286 735.223 54.8896 734.182 54.5932C734.136 54.5799 734.091 54.5638 734.048 54.5448ZM745.212 59.3351C745.175 59.319 745.139 59.3005 745.103 59.2797C744.506 58.9297 743.894 58.5883 743.285 58.2649C742.923 58.0733 742.561 57.8874 742.198 57.7063C741.658 57.4369 741.424 56.7498 741.674 56.1704C741.925 55.5909 742.565 55.3434 743.106 55.6084C743.485 55.7972 743.863 55.9916 744.24 56.1912C744.876 56.5284 745.515 56.885 746.137 57.2501C746.66 57.5564 746.852 58.2592 746.566 58.8197C746.3 59.3418 745.713 59.5561 745.212 59.3351Z" fill="#D75B08"/>
<path d="M763.054 77.1151C762.857 77.0283 762.682 76.879 762.559 76.6732C762.258 76.1724 761.941 75.6669 761.62 75.1709C761.28 74.6469 761.4 73.9262 761.889 73.5615C762.378 73.1968 763.05 73.3268 763.389 73.8503C763.725 74.3681 764.055 74.8964 764.37 75.4194C764.693 75.9562 764.549 76.6717 764.049 77.0179C763.74 77.2308 763.369 77.2541 763.054 77.1151Z" fill="#D75B08"/>
</g>
<path d="M769.781 117.869C769.302 117.658 769.022 117.102 769.141 116.543C769.266 115.955 769.383 115.36 769.488 114.773C769.6 114.146 770.165 113.734 770.749 113.855C771.334 113.976 771.717 114.581 771.605 115.208C771.495 115.821 771.373 116.444 771.242 117.058C771.11 117.68 770.531 118.07 769.951 117.927C769.892 117.913 769.835 117.893 769.781 117.869Z" fill="white"/>
<path d="M705.161 156.398C704.636 156.167 704.365 155.534 704.553 154.951C704.748 154.348 705.362 154.028 705.925 154.237C707.008 154.639 708.118 155.005 709.224 155.323C709.804 155.487 710.141 156.122 709.987 156.739C709.832 157.356 709.241 157.722 708.666 157.556C707.511 157.224 706.351 156.842 705.219 156.422C705.2 156.415 705.181 156.407 705.161 156.398ZM699.862 154.057C699.843 154.048 699.824 154.039 699.804 154.029C699.632 153.94 699.461 153.851 699.289 153.76C698.383 153.279 697.482 152.766 696.611 152.234C696.094 151.917 695.913 151.211 696.208 150.656C696.502 150.102 697.16 149.904 697.678 150.224C698.513 150.735 699.376 151.226 700.244 151.686C700.408 151.774 700.573 151.86 700.739 151.945C701.275 152.222 701.501 152.913 701.243 153.488C700.994 154.043 700.386 154.288 699.862 154.057ZM714.149 158.755C713.702 158.558 713.419 158.054 713.493 157.518C713.579 156.886 714.127 156.449 714.716 156.542C715.847 156.72 717 156.857 718.143 156.948C718.736 156.995 719.182 157.549 719.138 158.186C719.094 158.823 718.577 159.301 717.983 159.254C716.79 159.158 715.585 159.016 714.403 158.829C714.313 158.815 714.228 158.79 714.149 158.755ZM691.924 148.952C691.844 148.917 691.767 148.871 691.695 148.814C690.73 148.055 689.778 147.247 688.865 146.415C688.411 146.002 688.356 145.272 688.742 144.785C689.127 144.299 689.808 144.24 690.261 144.653C691.136 145.45 692.047 146.223 692.97 146.95C693.451 147.328 693.554 148.052 693.202 148.566C692.903 149.003 692.371 149.149 691.924 148.952ZM723.382 159.271C723.004 159.104 722.732 158.714 722.714 158.249C722.689 157.611 723.151 157.072 723.746 157.045C724.89 156.994 726.048 156.898 727.186 156.759C727.779 156.688 728.312 157.144 728.379 157.778C728.445 158.413 728.02 158.986 727.429 159.057C726.24 159.201 725.031 159.302 723.836 159.356C723.675 159.363 723.521 159.332 723.382 159.271ZM685.008 142.354C684.868 142.292 684.738 142.198 684.629 142.072C683.814 141.133 683.019 140.149 682.267 139.148C681.894 138.651 681.967 137.923 682.43 137.522C682.894 137.122 683.572 137.199 683.946 137.697C684.666 138.656 685.426 139.597 686.207 140.497C686.613 140.964 686.588 141.696 686.153 142.131C685.834 142.448 685.385 142.52 685.008 142.354ZM732.547 157.936C732.235 157.798 731.988 157.507 731.906 157.127C731.771 156.505 732.132 155.884 732.712 155.74C733.829 155.461 734.951 155.138 736.046 154.776C736.615 154.588 737.218 154.93 737.393 155.541C737.568 156.151 737.249 156.798 736.68 156.986C735.537 157.363 734.366 157.702 733.199 157.992C732.973 158.049 732.747 158.024 732.547 157.936ZM741.327 154.808C741.078 154.698 740.866 154.488 740.749 154.203C740.51 153.618 740.758 152.936 741.303 152.679C742.354 152.185 743.401 151.644 744.415 151.072C744.942 150.775 745.594 150.992 745.871 151.557C746.148 152.123 745.945 152.822 745.418 153.119C744.359 153.716 743.266 154.281 742.169 154.798C741.891 154.928 741.588 154.923 741.327 154.808ZM749.419 149.993C749.231 149.91 749.063 149.769 748.939 149.576C748.603 149.049 748.729 148.33 749.22 147.969C750.168 147.275 751.103 146.535 752.001 145.77C752.468 145.373 753.146 145.457 753.516 145.957C753.886 146.457 753.808 147.185 753.342 147.582C752.404 148.38 751.427 149.153 750.438 149.879C750.127 150.106 749.743 150.135 749.419 149.993ZM756.539 143.646C756.412 143.59 756.292 143.507 756.189 143.397C755.767 142.946 755.765 142.214 756.185 141.762C756.995 140.889 757.785 139.975 758.532 139.047C758.921 138.563 759.602 138.51 760.053 138.926C760.503 139.344 760.553 140.073 760.165 140.557C759.384 141.528 758.56 142.482 757.713 143.393C757.396 143.734 756.93 143.819 756.539 143.646ZM762.426 135.991C762.358 135.961 762.292 135.924 762.229 135.878C761.736 135.52 761.608 134.801 761.942 134.272C762.585 133.255 763.202 132.2 763.777 131.136C764.075 130.583 764.734 130.393 765.25 130.715C765.765 131.035 765.941 131.742 765.642 132.295C765.043 133.406 764.398 134.508 763.726 135.57C763.436 136.031 762.888 136.194 762.426 135.991ZM766.887 127.297C766.88 127.294 766.872 127.291 766.865 127.287C766.319 127.032 766.07 126.351 766.308 125.765C766.448 125.421 766.584 125.076 766.716 124.73C767.02 123.938 767.309 123.127 767.576 122.319C767.775 121.717 768.392 121.402 768.953 121.615C769.512 121.835 769.807 122.49 769.609 123.092C769.33 123.935 769.028 124.782 768.711 125.609C768.572 125.97 768.43 126.33 768.285 126.689C768.05 127.267 767.427 127.535 766.887 127.297Z" fill="white"/>
<path d="M679.343 134.453C679.142 134.365 678.965 134.212 678.84 134C678.532 133.473 678.225 132.93 677.929 132.385C677.629 131.833 677.804 131.125 678.318 130.804C678.833 130.483 679.492 130.669 679.792 131.221C680.076 131.743 680.37 132.265 680.665 132.769C680.982 133.309 680.831 134.023 680.327 134.363C680.02 134.57 679.653 134.59 679.343 134.453Z" fill="white"/>
<path d="M686.649 120.959C686.723 121.22 686.943 121.402 687.197 121.412L694.446 121.704C696.143 124.849 698.319 127.726 700.937 130.194L699.791 137.871C699.751 138.141 699.874 138.408 700.098 138.536L707.771 142.935C707.996 143.064 708.271 143.025 708.458 142.84L713.772 137.552C717.141 138.516 720.58 138.858 723.96 138.625L728.214 144.927C728.363 145.148 728.626 145.243 728.87 145.164L737.195 142.455C737.439 142.376 737.608 142.139 737.618 141.867L737.89 134.093C740.822 132.273 743.505 129.938 745.806 127.13L752.964 128.359C753.215 128.402 753.464 128.27 753.583 128.03L757.685 119.8C757.805 119.559 757.769 119.263 757.596 119.064L752.666 113.363C753.565 109.751 753.884 106.062 753.666 102.436L759.542 97.8739C759.748 97.7141 759.837 97.4314 759.763 97.1706L757.237 88.2406C757.163 87.9793 756.943 87.7977 756.689 87.7873L749.441 87.4952C747.744 84.3503 745.568 81.4734 742.949 79.0052L744.095 71.328C744.136 71.0587 744.012 70.7917 743.788 70.6632L736.114 66.2641C735.89 66.1356 735.615 66.174 735.428 66.3594L730.114 71.6471C726.745 70.6831 723.306 70.3407 719.925 70.5745L715.672 64.2725C715.523 64.0515 715.26 63.9562 715.017 64.0354L706.691 66.7444C706.448 66.8236 706.278 67.0598 706.268 67.332L705.996 75.1064C703.064 76.9263 700.382 79.2608 698.08 82.0694L690.923 80.8399C690.672 80.7967 690.423 80.929 690.303 81.1699L686.202 89.4C686.082 89.6404 686.117 89.9358 686.29 90.136L691.22 95.8362C690.321 99.4487 690.002 103.138 690.22 106.764L684.344 111.326C684.138 111.486 684.049 111.768 684.123 112.029L686.649 120.959Z" fill="url(#paint0_linear_4112_3665)"/>
<path d="M718.662 113.114C716.968 112.367 715.547 111.063 714.586 109.35C713.403 107.241 713.056 104.766 713.609 102.378C714.163 99.9895 715.55 97.9761 717.515 96.7071C719.481 95.4382 721.789 95.0664 724.015 95.6601C726.242 96.2528 728.119 97.7413 729.302 99.8491C730.485 101.957 730.832 104.433 730.278 106.821C729.725 109.209 728.338 111.223 726.373 112.492C724.407 113.761 722.099 114.132 719.872 113.539C719.456 113.428 719.052 113.285 718.662 113.114ZM724.567 97.7954C724.255 97.6579 723.932 97.5446 723.599 97.4554C721.82 96.9812 719.975 97.2785 718.405 98.2924C716.834 99.3067 715.725 100.916 715.283 102.824C714.841 104.732 715.118 106.711 716.064 108.396C717.009 110.081 718.51 111.27 720.289 111.744C722.068 112.218 723.913 111.921 725.484 110.907C727.054 109.893 728.163 108.284 728.605 106.375C729.047 104.467 728.77 102.489 727.824 100.804C727.056 99.4338 725.92 98.3919 724.567 97.7954Z" fill="white"/>
<path d="M713.985 125.791C713.32 125.497 712.663 125.166 712.015 124.795C710.667 124.022 709.398 123.097 708.242 122.046C708.095 121.913 708.052 121.699 708.121 121.518C708.138 121.474 708.162 121.433 708.192 121.394C708.346 121.199 708.617 121.175 708.799 121.341C709.909 122.35 711.128 123.237 712.422 123.979C722.421 129.715 734.905 125.65 740.25 114.925C740.585 114.252 740.886 113.567 741.152 112.871C742.945 108.191 743.181 103.033 741.793 98.1254C740.199 92.4877 736.653 87.8539 731.809 85.0765C721.811 79.3407 709.326 83.4055 703.981 94.1308C703.651 94.7918 703.354 95.4685 703.09 96.1575C701.946 99.1435 701.425 102.365 701.573 105.592C701.576 105.662 701.565 105.729 701.541 105.79C701.48 105.951 701.336 106.067 701.164 106.077C700.926 106.089 700.724 105.893 700.712 105.638C700.557 102.275 701.101 98.9182 702.293 95.8071C702.568 95.0891 702.877 94.384 703.22 93.695C708.79 82.5197 721.798 78.2913 732.216 84.2609C741.986 89.8626 746.064 102.479 741.942 113.244C741.668 113.959 741.358 114.665 741.011 115.361C735.788 125.841 724.022 130.215 713.985 125.791Z" fill="white"/>
<path d="M785.843 82.7722L789.904 82.5901C790.982 84.2654 792.316 85.7691 793.881 87.0229L793.559 91.3655C793.547 91.5178 793.628 91.661 793.758 91.7221L798.226 93.8138C798.357 93.875 798.509 93.8404 798.605 93.728L801.355 90.5215C803.276 90.8994 805.211 90.9269 807.089 90.6353L809.726 93.9527C809.818 94.0689 809.969 94.1097 810.102 94.0537L814.64 92.1442C814.773 92.0882 814.858 91.9483 814.852 91.7956L814.682 87.4406C816.244 86.2845 817.646 84.853 818.815 83.1748L822.864 83.5205C823.006 83.5328 823.139 83.447 823.196 83.3066L825.146 78.5144C825.203 78.3745 825.171 78.2109 825.066 78.1075L822.077 75.1585C822.429 73.0982 822.455 71.0221 822.183 69.0078L825.276 66.1797C825.384 66.0806 825.422 65.9184 825.37 65.7766L823.589 60.909C823.538 60.7667 823.407 60.6757 823.265 60.6819L819.204 60.8639C818.126 59.1881 816.791 57.685 815.227 56.4312L815.549 52.0885C815.56 51.9363 815.48 51.7931 815.35 51.7319L810.882 49.6402C810.751 49.5791 810.599 49.6137 810.502 49.7261L807.753 52.9326C805.832 52.5546 803.896 52.5271 802.018 52.8188L799.382 49.5013C799.289 49.3851 799.138 49.3444 799.005 49.4003L794.467 51.3099C794.335 51.3658 794.25 51.5057 794.255 51.6584L794.425 56.0134C792.863 57.1695 791.461 58.6011 790.292 60.2793L786.244 59.9336C786.102 59.9212 785.968 60.0071 785.911 60.1474L783.961 64.9396C783.904 65.0795 783.936 65.2431 784.041 65.3465L787.03 68.2955C786.678 70.3559 786.652 72.4319 786.924 74.4463L783.831 77.2744C783.723 77.3735 783.685 77.5357 783.737 77.6779L785.518 82.5455C785.571 82.6873 785.701 82.7784 785.843 82.7722Z" fill="url(#paint1_linear_4112_3665)"/>
<path d="M802.744 76.4504C800.738 75.5665 799.489 73.2827 799.858 70.8928C800.066 69.5475 800.75 68.3696 801.783 67.5758C802.817 66.7825 804.077 66.4681 805.332 66.691C807.921 67.1505 809.679 69.7851 809.249 72.5624C809.041 73.9077 808.357 75.0856 807.324 75.8794C806.29 76.6732 805.03 76.9871 803.775 76.7643C803.415 76.7002 803.069 76.5936 802.744 76.4504ZM806.042 67.8627C805.772 67.7432 805.487 67.6564 805.191 67.6038C804.164 67.4212 803.132 67.6787 802.285 68.3284C801.439 68.978 800.879 69.9425 800.709 71.0445C800.357 73.3183 801.796 75.4759 803.917 75.8519C806.037 76.2289 808.047 74.6854 808.399 72.4112C808.569 71.3096 808.329 70.2028 807.723 69.2952C807.292 68.6484 806.712 68.1576 806.042 67.8627Z" fill="white"/>
<g opacity="0.26">
<path d="M778.476 78.0988C778.151 77.9556 777.898 77.6451 777.826 77.2477C777.713 76.6179 777.619 75.9783 777.545 75.3447C777.472 74.7107 777.892 74.1332 778.483 74.0549C779.074 73.9757 779.612 74.4262 779.685 75.0597C779.752 75.6421 779.84 76.231 779.943 76.81C780.056 77.4369 779.673 78.0434 779.089 78.1643C778.875 78.2084 778.663 78.1814 778.476 78.0988Z" fill="#D75B08"/>
<path d="M778.124 70.1739C777.697 69.9856 777.415 69.5143 777.461 68.995C777.521 68.3174 777.605 67.6312 777.709 66.955C777.804 66.3452 777.917 65.7331 778.045 65.1356C778.179 64.513 778.758 64.1255 779.338 64.2692C779.92 64.4129 780.28 65.0336 780.146 65.6558C780.027 66.2063 779.923 66.771 779.836 67.333C779.74 67.9565 779.663 68.5891 779.608 69.2132C779.552 69.8491 779.026 70.3152 778.433 70.255C778.324 70.2441 778.22 70.2161 778.124 70.1739ZM780.559 60.709C780.541 60.7009 780.522 60.6919 780.504 60.6824C779.966 60.4074 779.739 59.7169 779.995 59.1408C780.518 57.9657 781.121 56.8187 781.786 55.7304C782.113 55.1964 782.782 55.0466 783.279 55.398C783.776 55.7479 783.915 56.4649 783.589 56.9989C782.977 58.0004 782.422 59.0559 781.941 60.1371C781.693 60.6938 781.085 60.9404 780.559 60.709ZM785.895 52.7302C785.762 52.6718 785.639 52.5841 785.533 52.4675C785.117 52.0103 785.126 51.2782 785.553 50.8324C786.421 49.9253 787.356 49.0718 788.329 48.2969C788.808 47.9157 789.482 48.0228 789.837 48.5364C790.192 49.049 790.092 49.7736 789.614 50.1539C788.717 50.8675 787.857 51.6533 787.057 52.4893C786.74 52.8207 786.28 52.8999 785.895 52.7302ZM793.464 47.2105C793.218 47.102 793.009 46.8957 792.89 46.6145C792.647 46.0317 792.89 45.3474 793.433 45.0862C794.539 44.5536 795.689 44.0965 796.851 43.7281C797.422 43.5469 798.021 43.8964 798.19 44.5086C798.359 45.1208 798.034 45.7643 797.463 45.9454C796.393 46.2849 795.335 46.7055 794.315 47.1963C794.035 47.3315 793.728 47.3272 793.464 47.2105ZM802.342 44.8277C801.974 44.6655 801.705 44.2905 801.676 43.8367C801.635 43.1993 802.084 42.6478 802.678 42.6042C803.885 42.516 805.112 42.5146 806.324 42.6009C806.918 42.6441 807.368 43.1941 807.328 43.831C807.289 44.4683 806.775 44.9505 806.182 44.9083C805.065 44.8291 803.936 44.8301 802.825 44.9112C802.654 44.924 802.49 44.8932 802.342 44.8277ZM811.441 45.879C810.939 45.6576 810.662 45.061 810.816 44.4887C810.982 43.8751 811.58 43.5218 812.151 43.6991C813.318 44.0614 814.475 44.5124 815.579 45.0368C816.124 45.2953 816.37 45.9781 816.129 46.5618C815.888 47.146 815.251 47.4092 814.707 47.1513C813.69 46.6685 812.626 46.2536 811.552 45.9203C811.514 45.9089 811.477 45.8951 811.441 45.879Z" fill="#D75B08"/>
<path d="M821.021 51.392C820.919 51.3474 820.822 51.2848 820.733 51.2042C820.315 50.8239 819.879 50.4536 819.438 50.1036C818.959 49.7238 818.858 48.9997 819.212 48.4866C819.567 47.9731 820.242 47.8631 820.72 48.2448C821.199 48.6251 821.673 49.0272 822.127 49.4402C822.581 49.8532 822.638 50.5826 822.253 51.07C821.943 51.4617 821.441 51.5774 821.021 51.392Z" fill="#D75B08"/>
</g>
<g opacity="0.26">
<path d="M830.262 71.6859C829.884 71.519 829.611 71.1278 829.594 70.6607C829.572 70.0732 829.533 69.4785 829.475 68.8924C829.412 68.257 829.842 67.688 830.434 67.6211C831.025 67.5547 831.557 68.0147 831.619 68.6501C831.682 69.287 831.726 69.9333 831.749 70.5716C831.772 71.2098 831.308 71.7471 830.713 71.7717C830.553 71.7779 830.4 71.7471 830.262 71.6859Z" fill="#D75B08"/>
<path d="M794.187 98.72C793.548 98.4388 792.913 98.1272 792.298 97.7953C791.767 97.5079 791.552 96.8128 791.82 96.2423C792.088 95.6728 792.733 95.4457 793.268 95.7302C794.245 96.2579 795.27 96.7236 796.31 97.1105C796.868 97.3197 797.17 97.9788 796.974 98.582C796.779 99.1851 796.165 99.5047 795.603 99.2952C795.127 99.1178 794.65 98.9243 794.187 98.72ZM800.994 100.624C800.556 100.431 800.274 99.9424 800.334 99.4142C800.407 98.7802 800.944 98.3292 801.535 98.407C802.628 98.5507 803.737 98.6171 804.832 98.6052C805.426 98.5986 805.915 99.1112 805.921 99.7499C805.927 100.388 805.449 100.911 804.853 100.917C803.664 100.93 802.46 100.858 801.273 100.702C801.175 100.689 801.081 100.662 800.994 100.624ZM809.986 100.126C809.674 99.9884 809.426 99.6954 809.345 99.3155C809.211 98.6934 809.574 98.0727 810.154 97.9299C811.223 97.6663 812.286 97.3235 813.315 96.9109C813.872 96.6871 814.493 96.9901 814.703 97.5885C814.911 98.1865 814.629 98.8527 814.071 99.077C812.954 99.5256 811.798 99.8983 810.637 100.184C810.411 100.239 810.186 100.214 809.986 100.126ZM818.278 96.3732C818.081 96.2864 817.906 96.1366 817.782 95.9298C817.459 95.3925 817.604 94.6775 818.105 94.3318C819.029 93.694 819.922 92.9846 820.76 92.223C821.214 91.81 821.894 91.8702 822.279 92.3577C822.664 92.8447 822.608 93.5745 822.154 93.9875C821.244 94.8145 820.274 95.5846 819.272 96.2764C818.964 96.4889 818.593 96.5121 818.278 96.3732ZM824.905 89.8321C824.818 89.7942 824.735 89.7435 824.658 89.6799C824.185 89.2916 824.096 88.5656 824.458 88.0587C825.126 87.1231 825.743 86.1311 826.29 85.1096C826.586 84.5563 827.242 84.3623 827.761 84.6829C828.278 85.0006 828.456 85.7076 828.159 86.2615C827.565 87.3711 826.896 88.4484 826.17 89.4651C825.867 89.889 825.344 90.0256 824.905 89.8321ZM829.059 81.2606C828.547 81.0344 828.272 80.4213 828.442 79.8442C828.772 78.7237 829.036 77.5647 829.227 76.4011C829.331 75.7718 829.89 75.3521 830.476 75.4631C831.064 75.576 831.453 76.1739 831.35 76.8027C831.143 78.0655 830.856 79.3226 830.499 80.5394C830.319 81.1487 829.714 81.4863 829.146 81.2947C829.117 81.2843 829.088 81.2729 829.059 81.2606Z" fill="#D75B08"/>
<path d="M787.662 94.5554C787.566 94.5132 787.475 94.4558 787.39 94.3823C786.929 93.9797 786.474 93.5544 786.036 93.1181C785.601 92.6833 785.576 91.9516 785.981 91.484C786.387 91.0165 787.069 90.9899 787.505 91.4248C787.907 91.8264 788.327 92.2176 788.751 92.5884C789.213 92.9915 789.283 93.7199 788.907 94.2154C788.6 94.6204 788.09 94.7441 787.662 94.5554Z" fill="#D75B08"/>
</g>
<path d="M799.925 83.8275C799.842 83.7905 799.759 83.753 799.676 83.7146C798.878 83.341 798.119 82.8777 797.419 82.3376C797.254 82.21 797.198 81.98 797.272 81.7866C797.285 81.7538 797.301 81.7221 797.321 81.6922C797.46 81.485 797.731 81.439 797.923 81.5869C798.573 82.0886 799.279 82.5192 800.02 82.8663C802.793 84.1684 805.874 84.2272 808.692 83.0418C811.51 81.8563 813.728 79.5645 814.939 76.5889C814.972 76.5059 815.006 76.423 815.037 76.34C816.152 73.4298 816.177 70.2267 815.102 67.2885C813.997 64.2665 811.86 61.8865 809.086 60.5882C803.36 57.8886 796.668 60.7238 794.168 66.8656C794.135 66.9466 794.103 67.0277 794.071 67.1088C793.323 69.062 793.06 71.1878 793.312 73.2738C793.322 73.3563 793.311 73.4369 793.283 73.5086C793.226 73.657 793.099 73.7694 792.94 73.7916C792.703 73.8244 792.487 73.6456 792.456 73.3924C792.186 71.1466 792.468 68.8591 793.273 66.7574C793.307 66.6697 793.342 66.5825 793.377 66.4952C796.067 59.8854 803.269 56.8582 809.431 59.7398C812.416 61.1373 814.715 63.6984 815.904 66.9504C817.061 70.1124 817.034 73.5598 815.835 76.6909C815.8 76.7805 815.765 76.8701 815.729 76.9588C814.426 80.1605 812.039 82.6268 809.006 83.9029C806.059 85.1429 802.845 85.114 799.925 83.8275Z" fill="white"/>
<g opacity="0.26">
<path d="M745.765 66.0083C745.592 65.9324 745.48 65.7413 745.5 65.5322C745.538 65.1396 745.59 64.7436 745.654 64.3557C745.695 64.1039 745.919 63.9361 746.153 63.9802C746.388 64.0238 746.544 64.2642 746.503 64.5155C746.443 64.8826 746.394 65.2567 746.358 65.6285C746.333 65.8827 746.121 66.0671 745.884 66.0401C745.842 66.0358 745.802 66.0249 745.765 66.0083Z" fill="#D75B08"/>
<path d="M746.428 62.6342C746.222 62.5431 746.112 62.2961 746.182 62.0647C746.311 61.6346 746.458 61.204 746.618 60.7848C746.735 60.4785 746.862 60.1745 746.997 59.872C747.101 59.642 747.36 59.5481 747.573 59.6553C747.788 59.7658 747.878 60.0422 747.775 60.2727C747.647 60.5586 747.527 60.8469 747.416 61.1367C747.264 61.5336 747.125 61.9409 747.003 62.3482C746.93 62.591 746.688 62.7252 746.461 62.647C746.449 62.6432 746.439 62.6389 746.428 62.6342ZM748.276 58.5011C748.25 58.4897 748.226 58.4764 748.202 58.4594C748.003 58.319 747.948 58.0321 748.079 57.8187C748.482 57.1625 748.93 56.5308 749.412 55.9409C749.569 55.7489 749.841 55.7299 750.021 55.8978C750.2 56.0661 750.218 56.3582 750.061 56.5507C749.605 57.1089 749.181 57.7064 748.8 58.3275C748.684 58.5153 748.463 58.5836 748.276 58.5011ZM751.092 55.0532C751.032 55.0267 750.976 54.985 750.93 54.9281C750.774 54.7351 750.794 54.4429 750.974 54.2756C751.526 53.763 752.118 53.2854 752.733 52.8563C752.933 52.7169 753.2 52.7766 753.33 52.9919C753.459 53.2058 753.403 53.4927 753.203 53.6316C752.621 54.0375 752.061 54.4894 751.538 54.975C751.411 55.0935 751.238 55.1173 751.092 55.0532ZM754.676 52.5547C754.58 52.5125 754.498 52.4328 754.45 52.3238C754.348 52.0924 754.441 51.8173 754.657 51.7083C755.318 51.3749 756.008 51.0866 756.706 50.8509C756.933 50.7741 757.175 50.9097 757.247 51.1535C757.318 51.3972 757.192 51.6566 756.965 51.7334C756.303 51.9563 755.65 52.2294 755.024 52.5452C754.909 52.6031 754.784 52.6021 754.676 52.5547ZM758.754 51.1843C758.621 51.1255 758.518 50.997 758.492 50.8334C758.452 50.5816 758.611 50.3426 758.846 50.2999C759.568 50.1686 760.304 50.0898 761.034 50.0657C761.272 50.0576 761.471 50.2577 761.478 50.5133C761.486 50.7684 761.299 50.9823 761.06 50.9899C760.369 51.0131 759.673 51.0875 758.989 51.2118C758.907 51.2274 758.826 51.2161 758.754 51.1843ZM772.495 55.9267C772.443 55.9039 772.394 55.8698 772.353 55.8243C771.865 55.297 771.339 54.8005 770.788 54.3495C770.599 54.1945 770.563 53.9043 770.707 53.7013C770.852 53.4988 771.123 53.4609 771.312 53.6145C771.894 54.0916 772.45 54.6156 772.965 55.1732C773.133 55.3544 773.132 55.6474 772.962 55.8271C772.835 55.9623 772.65 55.9955 772.495 55.9267ZM763.022 51.042C762.849 50.9662 762.737 50.7746 762.757 50.565C762.783 50.3108 762.995 50.1268 763.232 50.1543C763.959 50.2378 764.689 50.3758 765.398 50.5655C765.628 50.6271 765.77 50.878 765.713 51.126C765.655 51.374 765.421 51.5248 765.19 51.4631C764.518 51.2839 763.829 51.153 763.14 51.0743C763.099 51.0691 763.059 51.0581 763.022 51.042ZM769.099 53.1441C769.082 53.1365 769.066 53.128 769.049 53.1185C768.797 52.9649 768.539 52.8179 768.275 52.6785C767.956 52.5092 767.628 52.3503 767.301 52.2062L767.171 52.1497C766.945 52.0374 766.843 51.7856 766.931 51.5485C767.02 51.3114 767.271 51.1961 767.492 51.291L767.629 51.3507C767.974 51.5029 768.32 51.6703 768.657 51.8491C768.936 51.9966 769.208 52.1516 769.475 52.3138C769.682 52.44 769.754 52.7221 769.637 52.9445C769.529 53.1493 769.296 53.2314 769.099 53.1441Z" fill="#F37E0D"/>
<path d="M774.521 58.6319C774.443 58.5973 774.373 58.5375 774.323 58.455C774.135 58.142 773.934 57.8319 773.725 57.5327C773.583 57.3278 773.622 57.0381 773.813 56.8854C774.003 56.7327 774.274 56.7745 774.416 56.9788C774.636 57.2951 774.849 57.6228 775.048 57.9538C775.177 58.1681 775.119 58.4545 774.919 58.593C774.796 58.6783 774.648 58.6874 774.521 58.6319Z" fill="#D75B08"/>
</g>
<g opacity="0.26">
<path d="M776.516 72.0499C776.319 71.9631 776.208 71.7307 776.264 71.5041C776.353 71.1446 776.431 70.7757 776.498 70.4082C776.542 70.1574 776.769 69.9933 777.003 70.0417C777.236 70.0896 777.389 70.3323 777.344 70.5832C777.275 70.9716 777.192 71.3613 777.098 71.7412C777.037 71.9882 776.801 72.1352 776.571 72.0698C776.552 72.0641 776.533 72.0575 776.516 72.0499Z" fill="#D75B08"/>
<path d="M754.749 83.0071C754.743 83.0042 754.737 83.0014 754.73 82.9985C754.615 82.9411 754.501 82.8819 754.387 82.8217C753.853 82.539 753.331 82.2227 752.833 81.8813C752.632 81.7438 752.573 81.4579 752.702 81.2426C752.83 81.0273 753.098 80.9642 753.297 81.1017C753.768 81.4247 754.263 81.7244 754.768 81.9918C754.876 82.0492 754.985 82.1051 755.094 82.1592C755.31 82.2673 755.403 82.5424 755.302 82.7738C755.206 82.9995 754.961 83.1005 754.749 83.0071ZM756.712 83.8217C756.508 83.7316 756.398 83.4869 756.465 83.2565C756.535 83.0128 756.777 82.8762 757.005 82.9525C757.656 83.1702 758.326 83.3418 758.997 83.4628C759.231 83.5035 759.39 83.7435 759.35 83.9958C759.311 84.2476 759.088 84.4173 758.853 84.3751C758.145 84.2471 757.436 84.0659 756.748 83.8359C756.736 83.8317 756.724 83.8269 756.712 83.8217ZM751.206 80.5778C751.166 80.5598 751.127 80.5346 751.091 80.5024C750.542 80.0026 750.02 79.4577 749.539 78.8835C749.38 78.6933 749.395 78.4012 749.572 78.2305C749.749 78.0593 750.022 78.0759 750.181 78.2656C750.636 78.809 751.13 79.3245 751.65 79.7972C751.831 79.9627 751.854 80.2544 751.7 80.4493C751.575 80.6057 751.374 80.6517 751.206 80.5778ZM760.858 84.57C760.697 84.4989 760.585 84.3258 760.591 84.1276C760.598 83.872 760.797 83.6719 761.036 83.6795C761.716 83.7027 762.404 83.6757 763.081 83.6003C763.318 83.5728 763.53 83.7582 763.555 84.0128C763.579 84.267 763.407 84.4941 763.17 84.5207C762.454 84.6003 761.727 84.6283 761.009 84.6046C760.955 84.6027 760.904 84.5909 760.858 84.57ZM765.037 84.1053C764.914 84.0508 764.816 83.936 764.782 83.7862C764.726 83.5382 764.868 83.2878 765.1 83.228C765.761 83.0564 766.419 82.8349 767.054 82.5699C767.276 82.4769 767.526 82.595 767.612 82.833C767.698 83.0711 767.589 83.339 767.367 83.4315C766.696 83.7112 766.001 83.9455 765.302 84.1266C765.21 84.1508 765.118 84.1413 765.037 84.1053ZM768.954 82.4703C768.867 82.4314 768.79 82.3622 768.741 82.2659C768.626 82.0421 768.701 81.7614 768.91 81.6376C769.506 81.2843 770.085 80.8841 770.632 80.4478C770.823 80.2956 771.094 80.3378 771.235 80.5427C771.378 80.7475 771.338 81.0373 771.147 81.1895C770.569 81.6504 769.957 82.0734 769.327 82.447C769.208 82.5177 769.071 82.5215 768.954 82.4703ZM772.327 79.7783C772.275 79.755 772.226 79.7204 772.183 79.674C772.017 79.4914 772.02 79.1988 772.19 79.0196C772.677 78.5079 773.136 77.956 773.554 77.3789C773.699 77.1773 773.969 77.1408 774.159 77.2973C774.347 77.4543 774.381 77.7445 774.235 77.9465C773.793 78.5563 773.308 79.14 772.794 79.6811C772.666 79.8138 772.482 79.8466 772.327 79.7783ZM774.908 76.2171C774.89 76.209 774.872 76.2 774.855 76.1891C774.649 76.0611 774.578 75.778 774.698 75.557C774.87 75.2388 775.035 74.9097 775.187 74.5787C775.336 74.2558 775.478 73.922 775.607 73.5877C775.698 73.352 775.95 73.2401 776.169 73.3373L776.171 73.3378C776.391 73.4359 776.495 73.7062 776.404 73.9424C776.267 74.2956 776.118 74.648 775.961 74.9889C775.8 75.3384 775.626 75.6864 775.444 76.0222C775.334 76.2232 775.104 76.3034 774.908 76.2171Z" fill="#D75B08"/>
<path d="M748.387 77.2089C748.312 77.1757 748.244 77.1188 748.195 77.0406C747.989 76.7148 747.791 76.3763 747.605 76.0353C747.486 75.8143 747.555 75.5312 747.761 75.4027C747.967 75.2747 748.231 75.3501 748.351 75.5701C748.526 75.8931 748.714 76.2131 748.909 76.5218C749.043 76.7333 748.991 77.0212 748.794 77.1644C748.67 77.2545 748.517 77.2663 748.387 77.2089Z" fill="#D75B08"/>
</g>
<path d="M750.438 72.3824C750.461 72.465 750.53 72.5223 750.61 72.5256L752.899 72.6176C753.434 73.6101 754.121 74.5187 754.948 75.2978L754.586 77.7214C754.573 77.8063 754.613 77.8907 754.683 77.9315L757.106 79.3199C757.177 79.3607 757.264 79.3484 757.322 79.29L759 77.6209C760.064 77.9253 761.149 78.0334 762.217 77.9594L763.559 79.9487C763.607 80.0184 763.69 80.0487 763.766 80.0236L766.394 79.1686C766.471 79.1435 766.525 79.0691 766.528 78.9832L766.614 76.5288C767.539 75.9546 768.386 75.2177 769.112 74.3309L771.372 74.7193C771.451 74.733 771.53 74.6913 771.568 74.615L772.863 72.0168C772.901 71.941 772.889 71.8476 772.835 71.7845L771.279 69.9849C771.563 68.8445 771.663 67.6799 771.594 66.5356L773.45 65.0955C773.515 65.0452 773.542 64.9561 773.519 64.8736L772.722 62.0545C772.698 61.972 772.629 61.9146 772.549 61.9113L770.261 61.8193C769.725 60.8268 769.038 59.9182 768.211 59.1391L768.574 56.7155C768.586 56.6307 768.547 56.5463 768.476 56.5055L766.054 55.117C765.983 55.0767 765.896 55.0886 765.837 55.1469L764.16 56.8161C763.096 56.5116 762.011 56.4035 760.944 56.4775L759.601 54.4883C759.554 54.4185 759.471 54.3887 759.394 54.4133L756.766 55.2683C756.689 55.2934 756.635 55.3679 756.632 55.4537L756.547 57.9081C755.621 58.4824 754.774 59.2193 754.048 60.106L751.788 59.7177C751.709 59.7039 751.63 59.7461 751.592 59.822L750.298 62.4201C750.26 62.496 750.271 62.5894 750.326 62.6525L751.882 64.452C751.598 65.5925 751.497 66.7571 751.566 67.9013L749.712 69.3414C749.647 69.3917 749.619 69.4808 749.642 69.5634L750.438 72.3824Z" fill="url(#paint2_linear_4112_3665)"/>
<path d="M760.486 70.0631C759.192 69.4926 758.446 67.9728 758.794 66.4739C759.176 64.8265 760.736 63.8193 762.271 64.229C763.015 64.4277 763.643 64.9247 764.038 65.6289C764.433 66.333 764.549 67.1605 764.364 67.9586C763.982 69.6055 762.423 70.6126 760.887 70.2034C760.748 70.1669 760.614 70.1195 760.486 70.0631ZM762.346 65.2263C762.255 65.186 762.161 65.1528 762.063 65.1267C760.989 64.8403 759.898 65.5449 759.631 66.6972C759.364 67.8491 760.023 69.0203 761.095 69.3062C762.169 69.5927 763.261 68.888 763.528 67.7357C763.657 67.1776 763.576 66.5991 763.299 66.1059C763.074 65.7052 762.742 65.4008 762.346 65.2263Z" fill="white"/>
<path d="M758.954 74.1982C758.735 74.1015 758.519 73.9924 758.306 73.8701C758.302 73.8677 758.297 73.8653 758.293 73.8625C757.854 73.6093 757.44 73.3072 757.063 72.9649C756.916 72.8321 756.873 72.6173 756.942 72.4366C756.959 72.393 756.983 72.3512 757.013 72.3133C757.167 72.1184 757.438 72.0942 757.621 72.2597C757.955 72.5632 758.322 72.8311 758.712 73.0549C760.817 74.2618 763.289 74.0275 765.136 72.6746C765.906 72.1108 766.567 71.3526 767.048 70.4237C767.065 70.3914 767.081 70.3592 767.097 70.3264C767.198 70.1249 767.288 69.9191 767.369 69.71C767.91 68.2988 767.981 66.7444 767.562 65.2644C767.082 63.5659 766.014 62.1693 764.554 61.3329C763.094 60.4945 761.418 60.319 759.834 60.834C758.251 61.349 756.949 62.4951 756.168 64.0609C756.069 64.2606 755.979 64.464 755.9 64.6717C755.555 65.5712 755.398 66.5419 755.443 67.514C755.446 67.5842 755.434 67.651 755.411 67.7117C755.349 67.8725 755.206 67.9896 755.033 67.9986C754.795 68.0109 754.593 67.8146 754.581 67.5595C754.53 66.4513 754.709 65.3455 755.102 64.3203C755.193 64.0837 755.295 63.8518 755.407 63.6247C757.242 59.9435 761.528 58.5513 764.96 60.5168C766.622 61.4704 767.839 63.0613 768.387 64.996C768.863 66.6818 768.782 68.4529 768.166 70.0604C768.075 70.2985 767.972 70.5327 767.857 70.7627C766.137 74.2153 762.261 75.6559 758.954 74.1982Z" fill="white"/>
<path d="M354.169 324.468C305.135 274.587 222.169 231.439 149.389 231.331L143.129 313.112C145.079 313.05 147.035 313.015 149 313.015C209.597 313.015 268.409 349.667 304.233 396.107C314.157 373.724 334.717 359 344.388 336.249L354.169 324.468Z" fill="url(#paint3_linear_4112_3665)"/>
<path d="M177.679 200.657L59.8657 262.059L76.6184 275.495H182.996L188.036 204.048L177.679 200.657Z" fill="url(#paint4_linear_4112_3665)"/>
<path d="M177.679 200.657L166.38 360.466L50.6176 268.635C49.8369 268.016 49.9496 266.728 50.8245 266.276L177.679 200.657Z" fill="url(#paint5_linear_4112_3665)"/>
<path d="M297.162 437.467C308.121 410.797 328.469 356.98 345.976 335.142C296.151 278.358 216.848 236.35 138.422 236.232L132.162 318.013C134.112 317.951 136.068 317.916 138.032 317.916C201.957 317.917 286.013 366.953 297.162 437.467Z" fill="url(#paint6_linear_4112_3665)"/>
<path d="M330.598 340.276C330.479 340.276 330.361 340.222 330.28 340.116C316.463 322.158 295.593 304.408 269.927 288.787C269.729 288.666 269.659 288.396 269.771 288.184C269.884 287.972 270.134 287.897 270.333 288.018C296.086 303.693 317.035 321.513 330.915 339.554C331.06 339.742 331.035 340.02 330.86 340.176C330.783 340.243 330.69 340.276 330.598 340.276Z" fill="white"/>
<path d="M261.73 283.908C261.665 283.908 261.599 283.892 261.537 283.857C245.804 274.931 229.402 267.326 212.786 261.257C212.57 261.178 212.455 260.927 212.528 260.696C212.602 260.465 212.836 260.341 213.051 260.42C229.708 266.506 246.151 274.128 261.922 283.076C262.123 283.191 262.2 283.458 262.093 283.673C262.02 283.823 261.877 283.908 261.73 283.908Z" fill="white"/>
<path d="M203.072 257.879C203.033 257.879 202.992 257.873 202.953 257.86C192.921 254.597 183.177 252.054 173.99 250.303C173.766 250.261 173.617 250.031 173.657 249.791C173.697 249.55 173.911 249.391 174.135 249.433C183.354 251.19 193.13 253.741 203.192 257.014C203.41 257.085 203.533 257.332 203.467 257.565C203.412 257.756 203.249 257.879 203.072 257.879Z" fill="white"/>
<path d="M359.63 2.16429L345.932 0.692871L349.171 7.86411L286.014 124.83H399.211L424.013 132.642L434.822 126.169L359.63 2.16429Z" fill="url(#paint7_linear_4112_3665)"/>
<path d="M322.771 114.226V264.658C335.129 275.486 336.652 317.957 347.899 331.163C360.382 318.119 384.149 290.559 399.802 280.561V114.226H322.771Z" fill="url(#paint8_linear_4112_3665)"/>
<path d="M277.028 132.782H424.013L346.604 0.679028C346.446 0.410634 346.08 0.417751 345.932 0.691835L275.812 130.52C275.269 131.524 275.945 132.782 277.028 132.782Z" fill="url(#paint9_linear_4112_3665)"/>
<path d="M308.765 122.178V299.831C322.771 310.66 333.405 326.159 344.652 339.365C357.135 326.321 371.791 299.57 387.032 289.251V122.178H308.765Z" fill="url(#paint10_linear_4112_3665)"/>
<path d="M309.589 129.248H284.929C284.455 129.248 284.03 128.987 283.791 128.549C283.552 128.111 283.547 127.585 283.779 127.142L343.743 12.4969C343.854 12.284 344.105 12.2081 344.304 12.3276C344.503 12.4471 344.573 12.7164 344.462 12.9289L284.497 127.575C284.372 127.814 284.459 128.023 284.502 128.103C284.545 128.181 284.673 128.365 284.929 128.365H309.59C309.817 128.365 310.002 128.563 310.002 128.807C310.001 129.051 309.817 129.248 309.589 129.248Z" fill="white"/>
<path opacity="0.47" d="M191.381 330.145C191.773 334.245 192.852 338.368 194.319 342.219C195.834 346.071 197.652 349.769 199.831 353.22C204.185 360.126 209.797 366.039 216.006 371.057C219.072 373.656 222.424 375.756 225.765 378.013L230.914 381.397C232.611 382.559 234.267 383.795 235.945 384.992C242.568 389.92 248.909 395.338 254.68 401.43C260.384 407.591 265.545 414.335 269.975 421.604L273.112 427.178C273.664 428.089 274.078 429.082 274.547 430.043L275.919 432.943L277.29 435.843L278.464 438.839C279.227 440.844 280.052 442.823 280.762 444.847L282.676 451.001C282.973 452.034 283.363 453.037 283.583 454.093L284.331 457.231C284.819 459.326 285.349 461.41 285.761 463.52L286.805 469.889L287.326 473.071L287.657 476.28L288.306 482.694C288.438 483.76 288.481 484.834 288.521 485.908L288.643 489.127L288.881 495.56C288.896 495.972 288.598 496.318 288.214 496.334C287.842 496.35 287.527 496.049 287.495 495.656L287.491 495.61L286.979 489.247L286.725 486.069C286.653 485.009 286.576 483.95 286.411 482.901L285.568 476.595L285.142 473.445L284.527 470.333L283.301 464.115C282.834 462.059 282.233 460.039 281.728 457.997L280.938 454.941C280.704 453.912 280.302 452.942 279.993 451.94L278.011 445.974C277.281 444.016 276.438 442.107 275.659 440.173L274.463 437.284L273.076 434.497L271.69 431.711C271.218 430.788 270.8 429.833 270.246 428.962L267.102 423.628C262.682 416.68 257.674 410.177 252.077 404.274C246.407 398.452 240.271 393.155 233.782 388.375C232.138 387.211 230.52 386.008 228.857 384.876L223.805 381.576C220.413 379.264 216.901 376.991 213.725 374.255C207.3 368.903 201.556 362.458 197.293 354.96C196.288 353.047 195.248 351.163 194.436 349.147C193.997 348.158 193.562 347.169 193.223 346.133C192.886 345.098 192.468 344.1 192.202 343.04C191.592 340.953 191.077 338.837 190.723 336.685C190.334 334.535 190.16 332.375 190.197 330.133C190.202 329.783 190.471 329.505 190.798 329.51C191.1 329.516 191.345 329.764 191.375 330.079L191.381 330.145Z" fill="white"/>
<path d="M573.6 233.922C460.642 234.087 363.925 302.003 322.104 409.369H322.102C322.102 409.369 322.101 409.398 322.101 409.4C322.063 409.494 322.024 409.6 321.986 409.695L322.037 409.703C300.09 461.412 313.25 548.935 314.979 638.676L390.209 638.68H393.421C396.869 638.68 399.61 635.576 399.424 631.884C396.005 563.857 393.062 495.418 402.043 438.271C404.885 420.188 412.219 403.209 423.3 389.073C459.124 343.371 513.326 314.237 573.989 314.237C575.954 314.237 577.91 314.214 579.861 314.275L573.6 233.922Z" fill="url(#paint11_linear_4112_3665)"/>
<path d="M557.612 228.257C557.533 227.223 556.723 226.425 555.756 226.432C443.535 227.29 347.584 295.94 305.975 405.161H305.974C305.974 405.161 305.973 405.164 305.972 405.166C305.934 405.262 305.895 405.356 305.857 405.452L305.908 405.454C284.302 457.308 296.723 544.521 298.762 634.438C298.816 636.798 300.609 638.684 302.81 638.684H382.287C383.346 638.684 384.189 637.728 384.134 636.594C380.53 562.248 376.38 496.865 385.834 435.072C388.704 416.312 396.158 398.675 407.474 384.042C443.299 337.715 497.368 308.205 557.86 308.205C559.145 308.205 560.426 308.201 561.704 308.215C562.792 308.227 563.653 307.234 563.564 306.072L557.612 228.257Z" fill="url(#paint12_linear_4112_3665)"/>
<path d="M649.809 274.677L650.1 274.446L647.308 257.908L647.044 257.772L646.994 257.468L646.719 257.604L532.837 198.695L540.692 309.791L538.707 310.768L529.513 350.662L541.22 360.76L544.132 358.451L544.136 358.504L649.706 274.758L649.809 274.677Z" fill="url(#paint13_linear_4112_3665)"/>
<path d="M518.215 190.854L529.514 350.663L646.995 257.469L518.215 190.854Z" fill="url(#paint14_linear_4112_3665)"/>
<path d="M848.347 322.533C842.223 312.692 835.031 309.416 824.374 310.737C801.976 313.512 780.719 325.272 758.983 331.264C744.182 335.344 728.608 338.004 713.354 335.543C708.397 334.688 703.456 333.915 698.55 333.217C698.436 333.199 698.325 333.182 698.212 333.166C641.486 325.133 589.423 327.112 569.164 328.386C563.74 328.727 558.391 329.844 553.263 331.749C497.629 352.426 446.261 379.925 412.675 363.65C404.889 374.734 407.445 396.933 401.984 435.685C463.121 484.491 532.594 439.712 557.737 433.682C552.234 477.485 551.383 542.876 566.967 633.85C567.329 635.961 568.404 637.873 570.019 639.141C590.127 654.922 660.666 661.465 706.695 639.095C709.433 637.765 711.258 634.921 711.498 631.708C714.572 590.575 723.706 518.264 741.087 465.137C756.859 457.628 771.577 448.388 786.733 439.787C802.281 430.963 816.594 419.626 829.017 406.267C841.167 393.201 851.805 377.503 854.91 359.351C857.045 346.882 854.959 333.157 848.347 322.533Z" fill="url(#paint15_linear_4112_3665)"/>
<path d="M241.308 217.882C241.308 217.882 292.532 230 323.687 245.429C329.875 248.493 334.811 253.851 337.622 260.455C346.94 282.348 371.938 341.589 426.003 367.787C418.217 378.872 408.56 397.585 403.099 436.337C370.627 410.415 342.594 367.123 329.135 296.123C329.135 296.123 318.886 302.099 306.101 295.439C299.346 291.92 291.547 286.929 285.692 283.004C279.859 279.093 275.514 273.014 273.827 265.913C271.598 256.538 272.911 248.293 272.911 239.448L246.582 230.699C246.582 230.699 238.666 227.494 241.308 217.882Z" fill="url(#paint16_linear_4112_3665)"/>
<path d="M315.471 287.614C315.352 287.614 315.233 287.558 315.151 287.451C314.965 287.205 296.459 262.841 290.157 259.022C286.998 257.107 285.221 255.084 284.727 252.838C284.327 251.024 284.784 249.106 286.121 246.976C286.214 246.828 286.38 246.755 286.544 246.79L308.904 251.596C308.973 251.611 309.038 251.645 309.091 251.694L320.979 262.637C321.152 262.796 321.172 263.075 321.023 263.26C320.876 263.445 320.615 263.466 320.443 263.308L308.637 252.44L286.655 247.715C285.568 249.529 285.2 251.141 285.529 252.636C285.961 254.601 287.655 256.491 290.562 258.253C296.999 262.154 315.026 285.886 315.791 286.895C315.934 287.084 315.907 287.362 315.731 287.516C315.655 287.582 315.563 287.614 315.471 287.614Z" fill="#F8A570"/>
<path d="M694.038 257.622C694.038 257.622 699.025 318.528 703.949 337.286C704.696 340.132 699.925 345.492 697.514 346.969C689.158 352.09 665.074 357.234 644.697 347.293C640.195 345.097 638.813 338.883 639.021 333.628L641.436 272.349L694.038 257.622Z" fill="url(#paint17_linear_4112_3665)"/>
<path d="M640.23 176.495C640.23 176.495 622.345 220.562 621.144 243.692C619.943 266.821 615.296 281.829 640.23 286.487C665.165 291.145 686.169 277.822 697.548 254.783C697.548 254.783 715.378 219.281 711.378 204.742C707.379 190.203 640.23 176.495 640.23 176.495Z" fill="url(#paint18_linear_4112_3665)"/>
<path d="M689.028 238.216L687.609 237.545C685.801 236.69 685.029 234.384 685.937 232.502C689.453 225.216 696.307 208.519 687.453 204.623C676.041 199.603 630.837 189.716 621.085 172.513C611.711 155.978 620.016 134.635 632.498 128.564C633.333 128.158 634.318 128.48 634.747 129.35L635.787 131.461C636.499 132.906 638.489 132.687 638.912 131.117C639.319 129.61 641.188 129.317 641.963 130.648C644.961 135.795 653.055 144.139 674.699 148.424C705.46 154.513 725.797 167.865 726.303 190.663C726.335 192.112 727.772 192.917 728.925 192.163C731.196 190.679 734.831 189.982 739.688 194.363C748.136 201.982 744.679 221.745 726.16 238.003C725.281 238.775 725.288 240.248 726.24 240.913C729.597 243.257 734.602 248.835 721.634 256.27C708.22 263.961 698.204 263.33 694.347 262.647C693.387 262.477 692.769 261.481 692.979 260.462L697.095 240.424C697.328 239.29 696.523 238.216 695.441 238.216H689.028Z" fill="url(#paint19_linear_4112_3665)"/>
<path d="M688.254 242.446C688.254 242.446 695.077 214.296 706.844 222.189C718.61 230.082 700.738 253.729 691.278 254.783L688.254 242.446Z" fill="url(#paint20_linear_4112_3665)"/>
<path d="M721.597 193.279C721.488 193.279 721.397 193.187 721.391 193.069C720.481 172.966 695.14 163.443 672.783 155.042C657.225 149.195 642.529 143.672 638.824 135.364C638.775 135.254 638.818 135.122 638.921 135.07C639.023 135.017 639.146 135.063 639.195 135.173C642.827 143.316 657.444 148.809 672.919 154.625C695.399 163.073 720.879 172.648 721.803 193.048C721.808 193.17 721.72 193.273 721.607 193.279C721.604 193.279 721.6 193.279 721.597 193.279Z" fill="white"/>
<path d="M666.699 188.481L601.677 195.351C601.677 195.351 657.455 212.224 661.548 206.188C661.548 206.188 706.537 234.579 732.411 276.505C751.521 264.259 768.581 247.667 753.857 227.207C731.829 214.868 702.635 192.95 666.699 188.481Z" fill="url(#paint21_linear_4112_3665)"/>
<path d="M663.135 202.386C666.73 202.567 669.395 198.851 668.293 195.177C665.378 185.461 656.27 171.121 627.804 176.04C617.119 177.886 603.545 184.337 592.14 190.669C586.041 194.054 588.479 203.96 595.341 203.68C618.145 202.746 649.577 201.705 663.135 202.386Z" fill="url(#paint22_linear_4112_3665)"/>
<path d="M793.884 381.331C798.057 385.298 802.996 388.243 808.102 390.645C814.543 393.675 821.453 395.91 828.485 395.749C860.123 395.027 859.467 340.78 853.133 317.559C846.338 292.646 827.917 274.043 808.842 259.273C791.892 246.147 773.11 235.838 753.856 227.207C760.507 240.057 748.949 257.634 732.411 276.505C740.971 291.742 748.403 307.659 756.185 323.357C763.902 338.923 773.302 352.783 782.856 367.144C786.198 372.167 789.579 377.237 793.884 381.331Z" fill="url(#paint23_linear_4112_3665)"/>
<path d="M748.566 496.537C748.566 496.537 730.072 520.696 723.268 514.874C716.465 509.052 734.833 477.319 734.833 477.319L748.566 496.537Z" fill="url(#paint24_linear_4112_3665)"/>
<path d="M747.809 653.401C747.808 653.283 747.815 653.163 747.843 653.042C749.514 645.939 757.804 641.516 757.804 641.516L761.089 641.792C762.978 648.052 762.735 651.891 762.432 653.601C762.423 653.649 762.409 653.694 762.397 653.741C759.687 654.001 754.11 654.17 747.809 653.401Z" fill="url(#paint25_linear_4112_3665)"/>
<path d="M762.409 636.543L761.018 643.727C760.916 644.253 760.538 644.648 760.082 644.694C759.522 644.75 758.727 644.783 757.926 644.657C757.209 644.544 756.709 643.762 756.836 642.922L757.803 636.543H762.409Z" fill="url(#paint26_linear_4112_3665)"/>
<path d="M718.71 653.089C718.734 653.034 718.755 652.979 718.789 652.928C720.548 650.291 725.029 645.041 733.883 642.764L738.13 642.62C738.13 642.62 740.021 646.146 740.057 652.677C739.087 653.103 737.21 653.561 733.582 653.67C727.974 653.838 721.322 653.32 718.71 653.089Z" fill="url(#paint27_linear_4112_3665)"/>
<path d="M738.917 635.717C738.87 636.057 738.288 641.218 738.063 643.219C738.009 643.695 737.688 644.063 737.283 644.114C736.56 644.207 735.39 644.291 734.366 644.066C733.814 643.944 733.414 643.375 733.414 642.713V634.612L738.917 635.717Z" fill="url(#paint28_linear_4112_3665)"/>
<path d="M742.325 541.528C742.325 541.528 732.081 583.287 732.266 635.837C732.27 636.794 732.897 637.621 733.771 637.819C735.059 638.11 736.952 638.455 738.52 638.408C739.357 638.383 740.056 637.717 740.197 636.832C741.633 627.797 749.876 576.897 754.573 568.633C754.573 568.633 757.664 613.967 756.676 637.487C756.651 638.071 757.05 638.579 757.593 638.646C758.415 638.748 759.731 638.825 761.405 638.635C762.041 638.562 762.554 638.047 762.644 637.368C763.667 629.721 769.557 584.205 769.306 551.417C769.292 549.568 764.747 541.528 764.747 541.528L742.325 541.528Z" fill="url(#paint29_linear_4112_3665)"/>
<path d="M735.269 477.521C749.368 475.334 764.855 477.341 772.371 478.357C774.805 478.686 777.031 479.973 778.635 481.964C784.995 489.859 798.952 511.473 782.524 533.253C780.422 532.001 777.435 529.994 775.406 527.671C777.224 522.175 777.373 515.153 773.563 506.542C773.433 507.224 773.272 507.9 773.077 508.565C767.827 526.404 767.547 541.248 767.559 544.669C767.56 545.134 767.3 545.552 766.898 545.725C759.989 548.695 746.689 546.927 742.224 546.213C741.405 546.082 740.855 545.265 740.968 544.386C742.539 532.182 737.206 514.336 732.966 502.622C731.29 497.993 734.391 478.819 735.269 477.521Z" fill="url(#paint30_linear_4112_3665)"/>
<path d="M757.741 459.785L759.688 477.043C759.776 477.826 759.327 478.567 758.621 478.788C756.508 479.45 751.986 480.454 747.852 478.63C747.068 478.283 746.635 477.373 746.815 476.484L749.275 464.337L757.741 459.785Z" fill="url(#paint31_linear_4112_3665)"/>
<path d="M743.393 448.579C741.866 448.85 742.189 466.393 744.031 467.448C748.166 468.666 756.637 464.543 758.147 461.305L756.859 448.864C756.859 448.864 747.729 447.81 743.393 448.579Z" fill="url(#paint32_linear_4112_3665)"/>
<path d="M752.006 451.236C752.778 452.314 753.232 453.916 753.481 455.233C753.633 456.041 753.207 457.855 753.898 458.389C754.366 458.751 755.37 458.418 755.885 458.349C756.435 458.275 757.084 458.239 757.444 458.692C757.651 458.951 757.703 459.31 757.741 459.649C757.889 460.962 757.955 462.286 757.938 463.608C757.933 464.039 757.958 464.554 758.301 464.778C758.461 464.883 758.66 464.897 758.847 464.876C759.384 464.818 759.92 464.437 760.042 463.873C760.2 463.143 759.658 462.47 759.476 461.746C759.393 461.414 759.386 461.066 759.38 460.723C759.353 459.23 759.466 458.095 760.122 456.783C760.718 455.589 761.463 454.457 761.774 453.125C762.241 451.12 762.795 449.206 762.041 447.15C761.635 445.845 760.527 444.991 759.516 444.253C758.253 443.331 757.395 442.065 756.407 440.798C755.311 439.39 752.847 439.444 751.317 439.885C750.023 440.258 748.685 441.175 747.313 441.113C746.726 441.086 746.164 440.865 745.595 440.706C743.81 440.208 740.815 440.515 740.304 442.901C740.221 443.287 740.222 443.698 740.064 444.056C739.868 444.5 739.46 444.793 739.211 445.206C738.204 446.876 739.305 448.508 740.637 449.454C742.771 450.967 744.059 450.069 746.348 449.508C747.212 449.297 748.104 449.142 748.98 449.28C750.175 449.468 751.269 450.209 752.006 451.236Z" fill="url(#paint33_linear_4112_3665)"/>
<path d="M754.946 460.378C754.946 460.378 754.179 455.931 755.772 455.15C757.365 454.37 759.415 455.273 758.488 458.237C757.334 461.925 754.946 460.378 754.946 460.378Z" fill="url(#paint34_linear_4112_3665)"/>
<path d="M742.637 449.784C742.631 449.784 742.626 449.783 742.62 449.783C742.604 449.781 741.001 449.586 740.75 447.117C740.59 445.538 741.028 443.835 741.865 442.779C742.364 442.149 742.973 441.797 743.625 441.76C743.722 441.757 743.806 441.835 743.811 441.94C743.817 442.045 743.742 442.134 743.643 442.14C743.091 442.171 742.57 442.478 742.135 443.026C741.37 443.991 740.955 445.618 741.103 447.076C741.322 449.241 742.64 449.402 742.654 449.404C742.751 449.414 742.822 449.507 742.813 449.612C742.805 449.71 742.727 449.784 742.637 449.784Z" fill="white"/>
<path d="M759.925 445.471C759.923 445.471 759.921 445.471 759.919 445.471C759.138 445.444 758.408 445.175 757.863 444.717C757.364 444.296 757.014 443.723 756.677 443.169C756.329 442.598 756 442.06 755.524 441.677C754.574 440.915 753.288 441.019 752.606 441.149C751.996 441.265 751.389 441.473 750.801 441.673C750.394 441.812 749.973 441.955 749.55 442.069C748.237 442.424 747.176 442.388 746.307 441.96C746.218 441.916 746.179 441.803 746.22 441.708C746.26 441.613 746.365 441.57 746.455 441.614C747.247 442.004 748.232 442.032 749.463 441.7C749.876 441.588 750.292 441.447 750.694 441.31C751.292 441.106 751.91 440.895 752.544 440.774C753.818 440.531 754.953 440.743 755.736 441.371C756.263 441.794 756.624 442.386 756.974 442.96C757.311 443.512 757.629 444.034 758.083 444.416C758.568 444.826 759.225 445.065 759.931 445.09C760.029 445.093 760.106 445.181 760.102 445.286C760.099 445.39 760.021 445.471 759.925 445.471Z" fill="white"/>
<path d="M774.26 505.209C777.045 497.034 776.035 487.164 776.024 487.065L775.257 487.159C775.267 487.256 776.256 496.937 773.534 504.924L774.26 505.209Z" fill="url(#paint35_linear_4112_3665)"/>
<path d="M754.949 567.569C755.121 567.569 755.278 567.445 755.323 567.258C756.173 563.744 762.534 559.881 762.598 559.843C762.784 559.731 762.851 559.479 762.746 559.279C762.642 559.08 762.407 559.008 762.22 559.12C761.947 559.285 755.507 563.195 754.575 567.05C754.522 567.272 754.646 567.498 754.852 567.555C754.884 567.564 754.917 567.569 754.949 567.569Z" fill="url(#paint36_linear_4112_3665)"/>
<path d="M775.406 527.671C777.435 529.994 780.422 532.001 782.524 533.253C779.385 537.415 775.137 541.583 769.513 545.662L768.833 547.299C768.25 548.702 766.976 549.632 765.546 549.705C757.687 550.107 755.512 548.319 762.747 542.907C762.747 542.907 772 537.969 775.406 527.671Z" fill="url(#paint37_linear_4112_3665)"/>
<path d="M717.621 491.088C717.621 491.088 727.538 502.146 729.83 506.158C732.121 510.17 729.571 517.475 724.365 515.779C719.16 514.083 713.101 494.896 713.101 494.896L717.621 491.088Z" fill="url(#paint38_linear_4112_3665)"/>
<path d="M734.222 475.384C734.222 475.384 725.506 500.037 722.753 505.166C719.557 511.119 710.222 507.325 710.687 502.343C711.151 497.361 722.057 476.768 722.057 476.768L734.222 475.384Z" fill="url(#paint39_linear_4112_3665)"/>
<path d="M722.446 457.427L668.278 437.282L668.847 491.796L723.926 478.614L722.446 457.427Z" fill="url(#paint40_linear_4112_3665)"/>
<path d="M662.905 464.697C662.905 480.169 665.287 492.711 668.226 492.711C671.165 492.711 673.548 480.169 673.548 464.697C673.548 449.225 671.166 436.683 668.226 436.683C665.287 436.683 662.905 449.225 662.905 464.697Z" fill="url(#paint41_linear_4112_3665)"/>
<path d="M667.822 490.796C668.303 490.271 669.351 488.247 670.25 483.013C671.118 477.955 671.596 471.394 671.596 464.539C671.596 457.684 671.117 451.123 670.25 446.065C669.351 440.831 668.303 438.806 667.822 438.282C667.341 438.807 666.294 440.831 665.395 446.065C664.527 451.123 664.049 457.684 664.049 464.539C664.049 471.394 664.527 477.955 665.395 483.013C666.294 488.247 667.341 490.271 667.822 490.796Z" fill="url(#paint42_linear_4112_3665)"/>
<mask id="mask0_4112_3665" style="mask-type:luminance" maskUnits="userSpaceOnUse" x="657" y="438" width="15" height="53">
<path d="M667.823 490.796C668.304 490.271 669.351 488.247 670.25 483.013C671.118 477.955 671.596 471.394 671.596 464.539C671.596 457.684 671.118 451.123 670.25 446.065C669.351 440.831 668.304 438.806 667.823 438.282C667.342 438.807 666.294 440.831 665.395 446.065C664.527 451.123 657.676 457.684 657.676 464.539C657.676 471.394 664.527 477.955 665.395 483.013C666.294 488.247 667.342 490.271 667.823 490.796Z" fill="white"/>
</mask>
<g mask="url(#mask0_4112_3665)">
<path d="M661.001 464.329C661.001 469.089 663.392 472.948 668.124 472.948C672.855 472.948 676.691 469.089 676.691 464.329C676.691 459.569 672.855 455.71 668.124 455.71C663.392 455.71 661.001 459.569 661.001 464.329Z" fill="url(#paint43_linear_4112_3665)"/>
</g>
<path d="M731.182 456.254C728.634 455.937 724.98 455.822 721.029 456.793C722.331 464.086 722.134 471.687 720.629 479.558H731.772C733.549 479.558 735.064 478.174 735.341 476.292C735.896 472.518 736.575 466.177 735.851 461.084C735.488 458.528 733.576 456.552 731.182 456.254Z" fill="url(#paint44_linear_4112_3665)"/>
<path d="M724.494 461.978H733.176C733.514 461.978 733.824 461.781 733.986 461.462C734.147 461.144 734.133 460.758 733.95 460.453C733.844 460.278 733.626 460.228 733.462 460.341C733.299 460.455 733.252 460.689 733.358 460.864C733.421 460.969 733.384 461.065 733.366 461.101C733.348 461.137 733.292 461.221 733.177 461.221H724.495C724.376 461.221 724.279 461.118 724.279 460.99V460.328C724.279 460.2 724.376 460.096 724.495 460.096H733.241C733.436 460.096 733.594 459.926 733.594 459.717C733.594 459.509 733.436 459.339 733.241 459.339H724.495C723.987 459.339 723.573 459.782 723.573 460.327V460.99C723.573 461.535 723.986 461.978 724.494 461.978Z" fill="white"/>
<path d="M725.269 466.102H733.95C734.288 466.102 734.598 465.905 734.76 465.586C734.921 465.268 734.907 464.882 734.724 464.577C734.618 464.401 734.4 464.352 734.236 464.465C734.073 464.579 734.026 464.812 734.131 464.988C734.194 465.092 734.158 465.188 734.14 465.225C734.121 465.261 734.066 465.345 733.95 465.345H725.268C725.149 465.345 725.052 465.241 725.052 465.114V464.451C725.052 464.323 725.149 464.219 725.268 464.219H734.015C734.209 464.219 734.367 464.05 734.367 463.841C734.367 463.632 734.21 463.462 734.015 463.462H725.268C724.76 463.462 724.347 463.906 724.347 464.451V465.113C724.347 465.658 724.76 466.102 725.269 466.102Z" fill="white"/>
<path d="M714.574 456.09C714.724 456.09 714.862 455.987 714.91 455.826C714.969 455.627 714.867 455.414 714.681 455.351L673.655 441.348C673.469 441.285 673.271 441.395 673.212 441.594C673.153 441.793 673.256 442.005 673.441 442.069L714.467 456.072C714.503 456.084 714.539 456.09 714.574 456.09Z" fill="white"/>
<path d="M720.122 458.522C720.261 458.522 720.393 458.433 720.449 458.287C720.523 458.093 720.436 457.873 720.256 457.794L718.144 456.868C717.964 456.789 717.758 456.882 717.684 457.075C717.61 457.269 717.697 457.49 717.878 457.568L719.989 458.494C720.032 458.513 720.078 458.522 720.122 458.522Z" fill="white"/>
<path d="M724.495 470.932H733.176C733.514 470.932 733.824 470.735 733.985 470.417C734.147 470.099 734.133 469.712 733.95 469.408C733.844 469.232 733.625 469.182 733.462 469.295C733.298 469.409 733.251 469.643 733.357 469.818C733.42 469.923 733.384 470.019 733.366 470.055C733.347 470.092 733.292 470.176 733.176 470.176H724.494C724.375 470.176 724.278 470.072 724.278 469.944V469.282C724.278 469.154 724.375 469.05 724.494 469.05H733.24C733.435 469.05 733.593 468.881 733.593 468.672C733.593 468.463 733.435 468.293 733.24 468.293H724.494C723.986 468.293 723.573 468.737 723.573 469.281V469.944C723.573 470.489 723.986 470.932 724.495 470.932Z" fill="white"/>
<path d="M723.681 476.294H732.363C732.701 476.294 733.011 476.096 733.172 475.778C733.334 475.46 733.32 475.073 733.137 474.769C733.031 474.593 732.813 474.543 732.649 474.656C732.486 474.77 732.439 475.004 732.544 475.179C732.607 475.284 732.571 475.379 732.553 475.416C732.534 475.452 732.479 475.537 732.363 475.537H723.681C723.562 475.537 723.465 475.433 723.465 475.305V474.643C723.465 474.515 723.562 474.412 723.681 474.412H732.428C732.622 474.412 732.78 474.242 732.78 474.033C732.78 473.825 732.623 473.655 732.428 473.655H723.681C723.173 473.655 722.76 474.098 722.76 474.643V475.305C722.76 475.85 723.174 476.294 723.681 476.294Z" fill="white"/>
<path d="M715.926 505.443C716.336 505.443 716.75 505.395 717.163 505.299C718.968 504.877 720.438 503.6 721.196 501.795L728.132 485.267C728.212 485.077 728.133 484.852 727.955 484.767C727.778 484.681 727.569 484.766 727.489 484.957L720.553 501.485C719.888 503.069 718.598 504.19 717.013 504.56C715.456 504.923 713.88 504.492 712.69 503.375C712.625 503.314 712.561 503.252 712.495 503.188C712.352 503.046 712.129 503.057 711.997 503.211C711.866 503.365 711.876 503.605 712.019 503.746C712.089 503.814 712.158 503.88 712.226 503.944C713.27 504.925 714.573 505.443 715.926 505.443Z" fill="white"/>
<path d="M728.836 483.046C728.97 483.046 729.099 482.963 729.158 482.823L729.931 480.979C730.011 480.789 729.932 480.565 729.754 480.479C729.578 480.393 729.368 480.478 729.288 480.669L728.514 482.513C728.434 482.703 728.514 482.928 728.691 483.013C728.738 483.036 728.788 483.046 728.836 483.046Z" fill="white"/>
<path d="M662.27 464.219C662.453 464.219 662.608 464.067 662.622 463.868C662.773 461.579 663.509 459.875 664.807 458.803C667.059 456.946 670.299 457.582 670.332 457.589C670.523 457.628 670.708 457.493 670.745 457.288C670.781 457.084 670.656 456.885 670.465 456.846C670.32 456.816 666.888 456.136 664.382 458.2C662.913 459.41 662.085 461.299 661.918 463.815C661.904 464.023 662.051 464.204 662.245 464.219C662.253 464.219 662.261 464.219 662.27 464.219Z" fill="white"/>
<path d="M721.376 484.734C721.376 484.734 718.55 482.161 716.343 484.734C714.135 487.306 713.698 491.796 714.147 492.015C714.596 492.234 728.249 488.598 721.376 484.734Z" fill="url(#paint45_linear_4112_3665)"/>
<path d="M154.886 634.716H18.1507V440.624C18.1507 430.822 25.5591 422.875 34.6983 422.875H138.339C147.478 422.875 154.887 430.821 154.887 440.624L154.886 634.716Z" fill="url(#paint46_linear_4112_3665)"/>
<path d="M137.237 634.716H0.502075V440.624C0.502075 430.822 7.91044 422.875 17.0497 422.875H120.69C129.829 422.875 137.238 430.821 137.238 440.624L137.237 634.716Z" fill="url(#paint47_linear_4112_3665)"/>
<path d="M129.502 422.962C128.843 422.962 128.309 422.389 128.309 421.683V268.782C128.309 268.076 128.843 267.503 129.502 267.503C130.16 267.503 130.695 268.076 130.695 268.782V421.683C130.695 422.39 130.16 422.962 129.502 422.962Z" fill="url(#paint48_linear_4112_3665)"/>
<path d="M97.1824 422.962C96.5237 422.962 95.9896 422.389 95.9896 421.683V268.782C95.9896 268.076 96.5237 267.503 97.1824 267.503C97.8412 267.503 98.3752 268.076 98.3752 268.782V421.683C98.3748 422.39 97.8412 422.962 97.1824 422.962Z" fill="url(#paint49_linear_4112_3665)"/>
<path d="M17.7774 423.932C17.6218 423.932 17.4635 423.899 17.3114 423.83C16.7053 423.553 16.4228 422.802 16.6805 422.152L77.6682 268.282C77.9259 267.631 78.6271 267.329 79.2323 267.605C79.8385 267.881 80.121 268.632 79.8632 269.283L18.8756 423.153C18.6824 423.639 18.2412 423.932 17.7774 423.932Z" fill="url(#paint50_linear_4112_3665)"/>
<path d="M55.449 423.932C55.2934 423.932 55.1351 423.899 54.9831 423.83C54.3769 423.553 54.0944 422.802 54.3522 422.152L115.34 268.282C115.598 267.631 116.299 267.329 116.904 267.605C117.51 267.881 117.793 268.632 117.535 269.283L56.5468 423.153C56.354 423.639 55.9128 423.932 55.449 423.932Z" fill="url(#paint51_linear_4112_3665)"/>
<path d="M131.353 270.191H75.4872C74.5587 270.191 73.8063 269.384 73.8063 268.388C73.8063 267.392 74.5587 266.585 75.4872 266.585H131.353C132.282 266.585 133.034 267.392 133.034 268.388C133.034 269.383 132.281 270.191 131.353 270.191Z" fill="url(#paint52_linear_4112_3665)"/>
<path d="M107.223 293.589H69.4402C68.7814 293.589 68.2474 293.016 68.2474 292.31C68.2474 291.603 68.7814 291.03 69.4402 291.03H107.223C107.882 291.03 108.416 291.603 108.416 292.31C108.416 293.017 107.882 293.589 107.223 293.589Z" fill="url(#paint53_linear_4112_3665)"/>
<path d="M95.63 320.132H57.8472V322.69H95.63V320.132Z" fill="url(#paint54_linear_4112_3665)"/>
<path d="M84.4062 349.232H46.6234V351.791H84.4062V349.232Z" fill="#772710"/>
<path d="M72.6368 380.893H34.854C34.1953 380.893 33.6617 380.32 33.6617 379.613C33.6617 378.907 34.1953 378.334 34.854 378.334H72.6368C73.2956 378.334 73.8296 378.907 73.8296 379.613C73.8296 380.32 73.2956 380.893 72.6368 380.893Z" fill="#772710"/>
<path d="M61.2581 409.994H23.4753C22.8165 409.994 22.2825 409.421 22.2825 408.715C22.2825 408.008 22.8165 407.436 23.4753 407.436H61.2581C61.9168 407.436 62.4509 408.008 62.4509 408.715C62.4504 409.422 61.9168 409.994 61.2581 409.994Z" fill="#772710"/>
<path d="M121.541 265.558C119.009 265.793 114.615 266.174 111.152 266.338C109.069 266.436 107.87 266.217 107.18 265.921C107.181 266.004 107.184 266.083 107.187 266.157C107.203 266.547 107.499 266.86 107.868 266.883C114.413 267.274 119.619 267.018 121.472 266.897C121.855 266.872 122.083 266.425 121.888 266.075C121.789 265.9 121.671 265.728 121.541 265.558Z" fill="url(#paint55_linear_4112_3665)"/>
<path d="M111.152 266.338C114.616 266.174 119.01 265.793 121.542 265.558C119.053 262.283 111.152 260.075 111.152 260.075H108.92C107.386 262.448 107.164 264.707 107.18 265.921C107.871 266.218 109.069 266.437 111.152 266.338Z" fill="url(#paint56_linear_4112_3665)"/>
<path d="M108.545 256.167L108.753 260.6C108.776 261.08 109.111 261.483 109.559 261.552C110.005 261.62 110.602 261.629 111.235 261.403C111.625 261.264 111.914 260.912 111.986 260.483L112.708 256.168H108.545V256.167Z" fill="url(#paint57_linear_4112_3665)"/>
<path d="M79.5621 266.304C78.4639 266.14 77.9674 265.528 77.7592 264.874C77.7579 264.88 77.7565 264.886 77.7552 264.892C77.5939 265.582 77.9683 266.297 78.7168 266.637C79.6218 267.048 80.6112 267.117 81.3792 267.084C82.2033 267.047 82.9597 266.682 83.3753 266.096L83.3815 266.087C82.5538 266.527 81.3929 266.578 79.5621 266.304Z" fill="url(#paint58_linear_4112_3665)"/>
<path d="M84.7381 256.139H82.8981C80.0951 256.077 78.3347 262.419 77.7586 264.874C77.9668 265.528 78.4638 266.14 79.5615 266.304C81.3927 266.579 82.5537 266.527 83.3809 266.088C84.8951 263.951 85.6462 260.82 86.007 258.993C86.4172 256.915 84.7381 256.139 84.7381 256.139Z" fill="url(#paint59_linear_4112_3665)"/>
<path d="M83.1349 252.025L82.1132 256.385C81.9876 256.919 82.2263 257.472 82.687 257.726C83.2587 258.041 84.0633 258.371 84.8029 258.275C85.1509 258.23 85.4396 257.968 85.5545 257.616L87.0546 253.03L83.1349 252.025Z" fill="url(#paint60_linear_4112_3665)"/>
<path d="M81.9158 253.284C83.1873 254.494 87.3223 254.653 87.3223 254.653C102.218 216.308 108.311 210.86 108.311 210.86C106.16 225.334 107.965 257.376 107.965 257.376C110.423 258.539 113.592 257.376 113.592 257.376C113.791 233.682 117.187 213.017 121.198 196.726C111.131 196.483 105.777 192.788 104.029 191.305C95.6362 205.816 81.9158 253.284 81.9158 253.284Z" fill="#F99D1C"/>
<path d="M106.585 147.208C104.679 157.403 105.363 175.65 105.811 183.973C105.937 186.312 104.414 189.555 103.184 191.768C102.991 192.115 103.11 192.559 103.445 192.744C105.505 193.879 112.485 197.399 120.575 197.837C121.114 197.867 121.596 197.473 121.735 196.913C127.736 172.88 134.706 157.524 134.706 157.524C127.012 144.344 106.585 147.208 106.585 147.208Z" fill="#F37E0D"/>
<path d="M109.327 209.954C109.243 209.954 109.157 209.929 109.079 209.879C108.855 209.732 108.783 209.417 108.92 209.176C109 209.035 110.927 205.694 114.826 203.677C115.063 203.555 115.348 203.661 115.463 203.916C115.578 204.17 115.478 204.476 115.241 204.598C111.606 206.48 109.754 209.677 109.735 209.709C109.645 209.866 109.488 209.954 109.327 209.954Z" fill="url(#paint61_linear_4112_3665)"/>
<path d="M94.6332 176.468C95.2451 181.218 97.0537 186.398 100.671 191.901L102.047 190.698C102.047 190.698 100.459 183.789 101.362 175.949C99.1299 175.483 96.494 175.964 94.6332 176.468Z" fill="#F37E0D"/>
<path d="M108.714 159.789L106.586 147.21C106.586 147.21 92.3649 158.869 94.6329 176.469C96.4941 175.964 99.1296 175.483 101.361 175.95C102.011 170.301 103.953 164.17 108.714 159.789Z" fill="#F37E0D"/>
<path d="M134.707 157.524L129.218 170.204C130.105 177.859 133.939 181.169 138.073 182.439C138.331 178.95 139.153 176.131 139.917 174.181C134.635 168.332 134.707 157.524 134.707 157.524Z" fill="#F37E0D"/>
<path d="M139.917 174.182C139.154 176.132 138.331 178.951 138.074 182.439C149.103 187.029 152.021 178.128 152.021 178.128L149.983 177.742C145.379 178.263 142.164 176.671 139.917 174.182Z" fill="#F37E0D"/>
<path d="M129.649 141.87L126.999 152.319C126.702 153.492 125.518 154.123 124.465 153.672C123.328 153.184 121.886 152.519 120.645 151.8C119.32 151.033 118.906 149.205 119.744 147.864L125.254 139.052L129.649 141.87Z" fill="url(#paint62_linear_4112_3665)"/>
<path d="M157.076 171.137L89.1709 197.645C86.3228 198.757 84.9616 202.235 86.2163 205.194L86.4223 205.68C87.5324 208.298 90.4176 209.447 92.8509 208.239L158.786 175.523L157.076 171.137Z" fill="url(#paint63_linear_4112_3665)"/>
<path d="M188.288 115.907C167.688 115.907 150.988 133.496 150.988 155.192C150.988 176.889 167.688 194.477 188.288 194.477C208.888 194.477 225.588 176.889 225.588 155.192C225.588 133.495 208.888 115.907 188.288 115.907ZM188.288 188.706C170.714 188.706 156.467 173.702 156.467 155.192C156.467 136.682 170.714 121.677 188.288 121.677C205.862 121.677 220.108 136.682 220.108 155.192C220.108 173.702 205.862 188.706 188.288 188.706Z" fill="url(#paint64_linear_4112_3665)"/>
<path d="M153.824 160.114C153.673 160.114 153.543 159.994 153.523 159.83C153.412 158.896 153.334 157.947 153.291 157.009C153.282 156.829 153.411 156.677 153.579 156.668C153.743 156.651 153.888 156.797 153.897 156.977C153.939 157.898 154.016 158.83 154.125 159.747C154.146 159.926 154.029 160.089 153.862 160.111C153.849 160.114 153.837 160.114 153.824 160.114ZM154.08 149.129C154.063 149.129 154.044 149.128 154.026 149.124C153.861 149.092 153.751 148.923 153.781 148.747C154.204 146.216 154.882 143.727 155.796 141.349L155.797 141.348C161.182 127.336 173.935 118.281 188.288 118.281C194.979 118.281 201.486 120.276 207.102 124.048C207.244 124.144 207.287 124.345 207.198 124.497C207.109 124.651 206.922 124.697 206.78 124.6C201.26 120.892 194.865 118.932 188.288 118.932C174.182 118.932 161.649 127.829 156.358 141.596C155.461 143.932 154.794 146.376 154.379 148.862C154.353 149.019 154.225 149.129 154.08 149.129Z" fill="white"/>
<path d="M135.447 133.931C135.471 134.111 133.236 145.855 133.236 145.855L127.011 144.344L127.587 132.875C127.587 132.875 135.043 130.927 135.447 133.931Z" fill="url(#paint65_linear_4112_3665)"/>
<path d="M128.987 135.432L128.243 141.443C128.233 141.521 128.233 141.597 128.244 141.674C128.307 142.145 128.633 143.749 130.144 143.291C131.514 142.874 132.77 142.516 133.638 142.801C134.027 142.929 134.262 143.352 134.181 143.78C133.978 144.847 133.478 147.242 132.748 149.252C132.6 149.66 132.183 149.875 131.792 149.752C130.611 149.383 128.141 148.53 126.305 147.344C126.056 147.183 125.908 146.893 125.92 146.582C125.979 145.064 126.145 140.45 126.005 139.157C125.875 137.943 124.486 137.216 123.882 136.956C123.684 136.87 123.53 136.703 123.451 136.49C123.171 135.739 122.786 134.001 124.828 133.289C125.256 133.14 125.481 132.646 125.329 132.192C125.027 131.289 124.899 129.911 126.479 129.151C128.085 128.379 129.284 129.298 129.931 130.044C130.193 130.345 130.614 130.391 130.938 130.171C131.123 130.046 131.361 130.005 131.649 130.197C132.037 130.456 132.55 130.28 132.751 129.839C133.135 128.993 133.919 128.086 135.491 128.375C138.28 128.887 138.596 132.202 137.861 134.145C137.124 136.088 134.13 135.348 132.627 134.368C131.485 133.624 130.003 134.404 129.359 134.821C129.154 134.953 129.018 135.178 128.987 135.432Z" fill="url(#paint66_linear_4112_3665)"/>
<path d="M126.057 141.472C126.057 141.472 126.901 137.905 125.723 137.061C124.545 136.218 122.8 136.656 123.184 139.151C123.662 142.255 126.057 141.472 126.057 141.472Z" fill="url(#paint67_linear_4112_3665)"/>
<path d="M101.479 190.488L107.899 189.927L110.679 192.676C110.679 192.676 110.021 193.651 107.965 193.09C105.909 192.53 103.092 192.392 103.092 192.392C103.092 192.392 100.253 193.765 100.219 191.197L101.479 190.488Z" fill="url(#paint68_linear_4112_3665)"/>
<path d="M151.203 179.756C151.758 180.221 153.66 179.25 154.824 178.579C155.391 178.252 155.666 177.54 155.471 176.882C155.191 175.934 154.725 174.711 154.149 174.557C153.195 174.301 148.915 177.839 151.203 179.756Z" fill="url(#paint69_linear_4112_3665)"/>
<path d="M90.5103 207.274C90.4776 207.274 90.444 207.268 90.4109 207.257C87.7304 206.262 87.1066 204.558 87.0562 203.304C86.9819 201.472 88.054 199.772 89.7238 199.073L97.8772 195.663C98.0323 195.598 98.2087 195.681 98.2702 195.848C98.3308 196.016 98.2538 196.205 98.0978 196.27L89.9444 199.68C88.5164 200.277 87.6 201.722 87.6627 203.276C87.7246 204.806 88.7163 205.939 90.6098 206.641C90.7681 206.7 90.8521 206.885 90.7973 207.055C90.7539 207.19 90.6363 207.274 90.5103 207.274Z" fill="white"/>
<path d="M100.5 195.244C100.379 195.244 100.264 195.165 100.217 195.036C100.157 194.869 100.234 194.68 100.39 194.615L101.446 194.173C101.602 194.107 101.778 194.191 101.839 194.358C101.9 194.526 101.823 194.714 101.667 194.779L100.61 195.221C100.574 195.237 100.537 195.244 100.5 195.244Z" fill="white"/>
<path d="M170.569 144.472L182.927 154.788L206.649 133.932L212.77 141.427L182.927 174.918L163.805 152.453L170.569 144.472Z" fill="#F99D1C"/>
<defs>
<linearGradient id="paint0_linear_4112_3665" x1="711.809" y1="98.9516" x2="830.444" y2="156.421" gradientUnits="userSpaceOnUse">
<stop stop-color="#FBBA4E"/>
<stop offset="1" stop-color="#D75B08"/>
</linearGradient>
<linearGradient id="paint1_linear_4112_3665" x1="748.842" y1="36.2739" x2="879.157" y2="108.358" gradientUnits="userSpaceOnUse">
<stop stop-color="#FBBA4E"/>
<stop offset="1" stop-color="#D75B08"/>
</linearGradient>
<linearGradient id="paint2_linear_4112_3665" x1="739.498" y1="53.1666" x2="869.812" y2="125.25" gradientUnits="userSpaceOnUse">
<stop stop-color="#FBBA4E"/>
<stop offset="1" stop-color="#D75B08"/>
</linearGradient>
<linearGradient id="paint3_linear_4112_3665" x1="691.847" y1="491.674" x2="125.819" y2="294.167" gradientUnits="userSpaceOnUse">
<stop stop-color="#FBBA4E"/>
<stop offset="1" stop-color="#D75B08"/>
</linearGradient>
<linearGradient id="paint4_linear_4112_3665" x1="700.201" y1="467.73" x2="134.173" y2="270.223" gradientUnits="userSpaceOnUse">
<stop stop-color="#FBBA4E"/>
<stop offset="1" stop-color="#D75B08"/>
</linearGradient>
<linearGradient id="paint5_linear_4112_3665" x1="391.249" y1="425.996" x2="-136.473" y2="121.673" gradientUnits="userSpaceOnUse">
<stop stop-color="#FBBA4E"/>
<stop offset="1" stop-color="#D75B08"/>
</linearGradient>
<linearGradient id="paint6_linear_4112_3665" x1="400.422" y1="432.604" x2="-147.19" y2="116.81" gradientUnits="userSpaceOnUse">
<stop stop-color="#FBBA4E"/>
<stop offset="1" stop-color="#D75B08"/>
</linearGradient>
<linearGradient id="paint7_linear_4112_3665" x1="370.547" y1="779.095" x2="355.65" y2="-56.5011" gradientUnits="userSpaceOnUse">
<stop stop-color="#FBBA4E"/>
<stop offset="1" stop-color="#D75B08"/>
</linearGradient>
<linearGradient id="paint8_linear_4112_3665" x1="372.003" y1="880.908" x2="354.632" y2="-93.4264" gradientUnits="userSpaceOnUse">
<stop stop-color="#FBBA4E"/>
<stop offset="1" stop-color="#D75B08"/>
</linearGradient>
<linearGradient id="paint9_linear_4112_3665" x1="343.663" y1="385.478" x2="364.915" y2="-375.397" gradientUnits="userSpaceOnUse">
<stop stop-color="#FBBA4E"/>
<stop offset="1" stop-color="#D75B08"/>
</linearGradient>
<linearGradient id="paint10_linear_4112_3665" x1="343.512" y1="386.401" x2="364.837" y2="-377.084" gradientUnits="userSpaceOnUse">
<stop stop-color="#FBBA4E"/>
<stop offset="1" stop-color="#D75B08"/>
</linearGradient>
<linearGradient id="paint11_linear_4112_3665" x1="50.7263" y1="912.344" x2="591.411" y2="305.655" gradientUnits="userSpaceOnUse">
<stop stop-color="#FBBA4E"/>
<stop offset="1" stop-color="#D75B08"/>
</linearGradient>
<linearGradient id="paint12_linear_4112_3665" x1="276.641" y1="579.567" x2="875.672" y2="16.1626" gradientUnits="userSpaceOnUse">
<stop stop-color="#FBBA4E"/>
<stop offset="1" stop-color="#D75B08"/>
</linearGradient>
<linearGradient id="paint13_linear_4112_3665" x1="145.345" y1="863.24" x2="735.675" y2="142.434" gradientUnits="userSpaceOnUse">
<stop stop-color="#FBBA4E"/>
<stop offset="1" stop-color="#D75B08"/>
</linearGradient>
<linearGradient id="paint14_linear_4112_3665" x1="264.232" y1="568.644" x2="866.285" y2="2.39725" gradientUnits="userSpaceOnUse">
<stop stop-color="#FBBA4E"/>
<stop offset="1" stop-color="#D75B08"/>
</linearGradient>
<linearGradient id="paint15_linear_4112_3665" x1="314.309" y1="749.134" x2="957.57" y2="185.284" gradientUnits="userSpaceOnUse">
<stop stop-color="#D75B08"/>
<stop offset="1" stop-color="#B33C0A"/>
</linearGradient>
<linearGradient id="paint16_linear_4112_3665" x1="476.088" y1="462.49" x2="181.473" y2="186.095" gradientUnits="userSpaceOnUse">
<stop stop-color="#F9B776"/>
<stop offset="1" stop-color="#F47960"/>
</linearGradient>
<linearGradient id="paint17_linear_4112_3665" x1="684.347" y1="397.588" x2="664.269" y2="299.314" gradientUnits="userSpaceOnUse">
<stop stop-color="#F9B776"/>
<stop offset="1" stop-color="#F47960"/>
</linearGradient>
<linearGradient id="paint18_linear_4112_3665" x1="636.481" y1="215.284" x2="743.912" y2="291.923" gradientUnits="userSpaceOnUse">
<stop stop-color="#F9B776"/>
<stop offset="1" stop-color="#F47960"/>
</linearGradient>
<linearGradient id="paint19_linear_4112_3665" x1="708.456" y1="148.844" x2="604.776" y2="273.299" gradientUnits="userSpaceOnUse">
<stop stop-color="#2B3582"/>
<stop offset="1" stop-color="#150E42"/>
</linearGradient>
<linearGradient id="paint20_linear_4112_3665" x1="649.163" y1="197.506" x2="756.595" y2="274.145" gradientUnits="userSpaceOnUse">
<stop stop-color="#F9B776"/>
<stop offset="1" stop-color="#F47960"/>
</linearGradient>
<linearGradient id="paint21_linear_4112_3665" x1="615.644" y1="338.458" x2="668.273" y2="256.317" gradientUnits="userSpaceOnUse">
<stop stop-color="#F9B776"/>
<stop offset="1" stop-color="#F47960"/>
</linearGradient>
<linearGradient id="paint22_linear_4112_3665" x1="707.991" y1="310.951" x2="647.992" y2="235.429" gradientUnits="userSpaceOnUse">
<stop stop-color="#F9B776"/>
<stop offset="1" stop-color="#F47960"/>
</linearGradient>
<linearGradient id="paint23_linear_4112_3665" x1="336.577" y1="774.536" x2="979.838" y2="210.686" gradientUnits="userSpaceOnUse">
<stop stop-color="#C94F08"/>
<stop offset="1" stop-color="#BD4509"/>
</linearGradient>
<linearGradient id="paint24_linear_4112_3665" x1="775.155" y1="537.606" x2="651.357" y2="440.722" gradientUnits="userSpaceOnUse">
<stop stop-color="#FDF53F"/>
<stop offset="0.7786" stop-color="#E57A58"/>
<stop offset="1" stop-color="#D93C65"/>
</linearGradient>
<linearGradient id="paint25_linear_4112_3665" x1="817.494" y1="647.738" x2="725.279" y2="647.738" gradientUnits="userSpaceOnUse">
<stop stop-color="#CB236D"/>
<stop offset="1" stop-color="#4C246D"/>
</linearGradient>
<linearGradient id="paint26_linear_4112_3665" x1="758.514" y1="629.629" x2="761.767" y2="656.094" gradientUnits="userSpaceOnUse">
<stop stop-color="#F9B776"/>
<stop offset="1" stop-color="#F47960"/>
</linearGradient>
<linearGradient id="paint27_linear_4112_3665" x1="724.298" y1="646.021" x2="747.895" y2="655.143" gradientUnits="userSpaceOnUse">
<stop stop-color="#CB236D"/>
<stop offset="1" stop-color="#4C246D"/>
</linearGradient>
<linearGradient id="paint28_linear_4112_3665" x1="735.44" y1="632.467" x2="738.692" y2="658.932" gradientUnits="userSpaceOnUse">
<stop stop-color="#F9B776"/>
<stop offset="1" stop-color="#F47960"/>
</linearGradient>
<linearGradient id="paint29_linear_4112_3665" x1="770.708" y1="665.606" x2="694.893" y2="427.563" gradientUnits="userSpaceOnUse">
<stop stop-color="#2B3582"/>
<stop offset="1" stop-color="#150E42"/>
</linearGradient>
<linearGradient id="paint30_linear_4112_3665" x1="779.835" y1="531.624" x2="656.036" y2="434.74" gradientUnits="userSpaceOnUse">
<stop stop-color="#FDF53F"/>
<stop offset="0.7786" stop-color="#E57A58"/>
<stop offset="1" stop-color="#D93C65"/>
</linearGradient>
<linearGradient id="paint31_linear_4112_3665" x1="744.092" y1="496.864" x2="762.983" y2="455.937" gradientUnits="userSpaceOnUse">
<stop stop-color="#F9B776"/>
<stop offset="1" stop-color="#F47960"/>
</linearGradient>
<linearGradient id="paint32_linear_4112_3665" x1="740.31" y1="462.157" x2="770.749" y2="445.31" gradientUnits="userSpaceOnUse">
<stop stop-color="#F9B776"/>
<stop offset="1" stop-color="#F47960"/>
</linearGradient>
<linearGradient id="paint33_linear_4112_3665" x1="762.811" y1="454.396" x2="738.499" y2="447.301" gradientUnits="userSpaceOnUse">
<stop stop-color="#2B3582"/>
<stop offset="1" stop-color="#150E42"/>
</linearGradient>
<linearGradient id="paint34_linear_4112_3665" x1="745.559" y1="464.699" x2="768.466" y2="452.021" gradientUnits="userSpaceOnUse">
<stop stop-color="#F9B776"/>
<stop offset="1" stop-color="#F47960"/>
</linearGradient>
<linearGradient id="paint35_linear_4112_3665" x1="799.401" y1="465.854" x2="752.63" y2="515.893" gradientUnits="userSpaceOnUse">
<stop stop-color="#FDF53F"/>
<stop offset="0.7786" stop-color="#E57A58"/>
<stop offset="1" stop-color="#D93C65"/>
</linearGradient>
<linearGradient id="paint36_linear_4112_3665" x1="752.593" y1="551.701" x2="761.028" y2="565.697" gradientUnits="userSpaceOnUse">
<stop stop-color="#2B3582"/>
<stop offset="1" stop-color="#150E42"/>
</linearGradient>
<linearGradient id="paint37_linear_4112_3665" x1="782.524" y1="538.716" x2="758.334" y2="538.716" gradientUnits="userSpaceOnUse">
<stop stop-color="#F9B776"/>
<stop offset="1" stop-color="#F47960"/>
</linearGradient>
<linearGradient id="paint38_linear_4112_3665" x1="725.899" y1="497.159" x2="716.384" y2="510.134" gradientUnits="userSpaceOnUse">
<stop stop-color="#F9B776"/>
<stop offset="1" stop-color="#F47960"/>
</linearGradient>
<linearGradient id="paint39_linear_4112_3665" x1="736.021" y1="509.22" x2="715.23" y2="483.217" gradientUnits="userSpaceOnUse">
<stop stop-color="#2B3582"/>
<stop offset="1" stop-color="#150E42"/>
</linearGradient>
<linearGradient id="paint40_linear_4112_3665" x1="698.918" y1="452.569" x2="660.427" y2="516.483" gradientUnits="userSpaceOnUse">
<stop stop-color="#FBBA4E"/>
<stop offset="1" stop-color="#D75B08"/>
</linearGradient>
<linearGradient id="paint41_linear_4112_3665" x1="638.54" y1="451.43" x2="674.538" y2="465.414" gradientUnits="userSpaceOnUse">
<stop stop-color="#FBBA4E"/>
<stop offset="1" stop-color="#D75B08"/>
</linearGradient>
<linearGradient id="paint42_linear_4112_3665" x1="674.109" y1="465.152" x2="660.086" y2="463.963" gradientUnits="userSpaceOnUse">
<stop stop-color="#2B3582"/>
<stop offset="1" stop-color="#150E42"/>
</linearGradient>
<linearGradient id="paint43_linear_4112_3665" x1="656.436" y1="463.61" x2="694.232" y2="465.632" gradientUnits="userSpaceOnUse">
<stop stop-color="#2B3582"/>
<stop offset="1" stop-color="#150E42"/>
</linearGradient>
<linearGradient id="paint44_linear_4112_3665" x1="728.001" y1="478.007" x2="729.604" y2="440.402" gradientUnits="userSpaceOnUse">
<stop stop-color="#2B3582"/>
<stop offset="1" stop-color="#150E42"/>
</linearGradient>
<linearGradient id="paint45_linear_4112_3665" x1="723.307" y1="487.807" x2="713.988" y2="487.807" gradientUnits="userSpaceOnUse">
<stop stop-color="#F9B776"/>
<stop offset="1" stop-color="#F47960"/>
</linearGradient>
<linearGradient id="paint46_linear_4112_3665" x1="173.754" y1="437.433" x2="30.5547" y2="575.333" gradientUnits="userSpaceOnUse">
<stop stop-color="#FBBA4E"/>
<stop offset="0.6408" stop-color="#F37E0D"/>
<stop offset="1" stop-color="#D75B08"/>
</linearGradient>
<linearGradient id="paint47_linear_4112_3665" x1="158.27" y1="388.582" x2="-182.8" y2="874.207" gradientUnits="userSpaceOnUse">
<stop stop-color="#FBBA4E"/>
<stop offset="1" stop-color="#D75B08"/>
</linearGradient>
<linearGradient id="paint48_linear_4112_3665" x1="167.433" y1="256.37" x2="-70.3535" y2="740.599" gradientUnits="userSpaceOnUse">
<stop stop-color="#CB236D"/>
<stop offset="1" stop-color="#4C246D"/>
</linearGradient>
<linearGradient id="paint49_linear_4112_3665" x1="140.714" y1="243.25" x2="-97.0725" y2="727.479" gradientUnits="userSpaceOnUse">
<stop stop-color="#CB236D"/>
<stop offset="1" stop-color="#4C246D"/>
</linearGradient>
<linearGradient id="paint50_linear_4112_3665" x1="100.45" y1="223.477" x2="-137.337" y2="707.707" gradientUnits="userSpaceOnUse">
<stop stop-color="#CB236D"/>
<stop offset="1" stop-color="#4C246D"/>
</linearGradient>
<linearGradient id="paint51_linear_4112_3665" x1="131.593" y1="238.77" x2="-106.193" y2="723" gradientUnits="userSpaceOnUse">
<stop stop-color="#CB236D"/>
<stop offset="1" stop-color="#4C246D"/>
</linearGradient>
<linearGradient id="paint52_linear_4112_3665" x1="118.753" y1="232.466" x2="-119.034" y2="716.697" gradientUnits="userSpaceOnUse">
<stop stop-color="#CB236D"/>
<stop offset="1" stop-color="#4C246D"/>
</linearGradient>
<linearGradient id="paint53_linear_4112_3665" x1="114.723" y1="230.481" x2="-123.063" y2="714.71" gradientUnits="userSpaceOnUse">
<stop stop-color="#CB236D"/>
<stop offset="1" stop-color="#4C246D"/>
</linearGradient>
<linearGradient id="paint54_linear_4112_3665" x1="115.407" y1="230.823" x2="-122.377" y2="715.05" gradientUnits="userSpaceOnUse">
<stop stop-color="#CB236D"/>
<stop offset="1" stop-color="#4C246D"/>
</linearGradient>
<linearGradient id="paint55_linear_4112_3665" x1="177.127" y1="237.929" x2="113.678" y2="262.956" gradientUnits="userSpaceOnUse">
<stop stop-color="#CB236D"/>
<stop offset="1" stop-color="#4C246D"/>
</linearGradient>
<linearGradient id="paint56_linear_4112_3665" x1="107.179" y1="263.219" x2="121.542" y2="263.219" gradientUnits="userSpaceOnUse">
<stop stop-color="#2B3582"/>
<stop offset="1" stop-color="#150E42"/>
</linearGradient>
<linearGradient id="paint57_linear_4112_3665" x1="108.545" y1="258.881" x2="112.708" y2="258.881" gradientUnits="userSpaceOnUse">
<stop stop-color="#F9B776"/>
<stop offset="1" stop-color="#F47960"/>
</linearGradient>
<linearGradient id="paint58_linear_4112_3665" x1="139.129" y1="239.07" x2="75.6799" y2="264.097" gradientUnits="userSpaceOnUse">
<stop stop-color="#CB236D"/>
<stop offset="1" stop-color="#4C246D"/>
</linearGradient>
<linearGradient id="paint59_linear_4112_3665" x1="77.7587" y1="261.306" x2="86.0716" y2="261.306" gradientUnits="userSpaceOnUse">
<stop stop-color="#2B3582"/>
<stop offset="1" stop-color="#150E42"/>
</linearGradient>
<linearGradient id="paint60_linear_4112_3665" x1="82.0799" y1="255.159" x2="87.055" y2="255.159" gradientUnits="userSpaceOnUse">
<stop stop-color="#F9B776"/>
<stop offset="1" stop-color="#F47960"/>
</linearGradient>
<linearGradient id="paint61_linear_4112_3665" x1="89.1538" y1="221.573" x2="131.824" y2="197.703" gradientUnits="userSpaceOnUse">
<stop stop-color="#CB236D"/>
<stop offset="1" stop-color="#4C246D"/>
</linearGradient>
<linearGradient id="paint62_linear_4112_3665" x1="124.516" y1="138.989" x2="124.341" y2="166.926" gradientUnits="userSpaceOnUse">
<stop stop-color="#F9B776"/>
<stop offset="1" stop-color="#F47960"/>
</linearGradient>
<linearGradient id="paint63_linear_4112_3665" x1="318.339" y1="38.5489" x2="45.777" y2="218.851" gradientUnits="userSpaceOnUse">
<stop stop-color="#2B3582"/>
<stop offset="1" stop-color="#150E42"/>
</linearGradient>
<linearGradient id="paint64_linear_4112_3665" x1="326.114" y1="50.3031" x2="53.552" y2="230.606" gradientUnits="userSpaceOnUse">
<stop stop-color="#2B3582"/>
<stop offset="1" stop-color="#150E42"/>
</linearGradient>
<linearGradient id="paint65_linear_4112_3665" x1="132.967" y1="134.396" x2="121.556" y2="153.688" gradientUnits="userSpaceOnUse">
<stop stop-color="#F9B776"/>
<stop offset="1" stop-color="#F47960"/>
</linearGradient>
<linearGradient id="paint66_linear_4112_3665" x1="123.86" y1="140.239" x2="139.058" y2="138.194" gradientUnits="userSpaceOnUse">
<stop stop-color="#2B3582"/>
<stop offset="1" stop-color="#150E42"/>
</linearGradient>
<linearGradient id="paint67_linear_4112_3665" x1="116.483" y1="151.546" x2="125.909" y2="139.475" gradientUnits="userSpaceOnUse">
<stop stop-color="#F9B776"/>
<stop offset="1" stop-color="#F47960"/>
</linearGradient>
<linearGradient id="paint68_linear_4112_3665" x1="111.867" y1="185.848" x2="93.0768" y2="201.361" gradientUnits="userSpaceOnUse">
<stop stop-color="#F9B776"/>
<stop offset="1" stop-color="#F47960"/>
</linearGradient>
<linearGradient id="paint69_linear_4112_3665" x1="150.539" y1="177.211" x2="155.534" y2="177.211" gradientUnits="userSpaceOnUse">
<stop stop-color="#F9B776"/>
<stop offset="1" stop-color="#F47960"/>
</linearGradient>
</defs>
</svg>
