<svg width="854" height="621" viewBox="0 0 854 621" fill="none" xmlns="http://www.w3.org/2000/svg">
<path d="M768.431 578.77H711.859V579.197H768.431V578.77Z" fill="#EBEBEB"/>
<path d="M565.724 583.405H550.876V583.832H565.724V583.405Z" fill="#EBEBEB"/>
<path d="M710.149 562.909H677.369V563.336H710.149V562.909Z" fill="#EBEBEB"/>
<path d="M163.374 565.778H89.6V566.205H163.374V565.778Z" fill="#EBEBEB"/>
<path d="M189.398 565.778H178.582V566.205H189.398V565.778Z" fill="#EBEBEB"/>
<path d="M384.551 572.991H224.552V573.418H384.551V572.991Z" fill="#EBEBEB"/>
<path d="M854 551.277H0V551.704H854V551.277Z" fill="#EBEBEB"/>
<mask id="mask0_4112_4582" style="mask-type:luminance" maskUnits="userSpaceOnUse" x="120" y="51" width="196" height="197">
<path d="M300.486 247.581H135.256C126.83 247.581 120 240.751 120 232.325V67.0947C120 58.6692 126.83 51.8389 135.256 51.8389H300.486C308.912 51.8389 315.742 58.6692 315.742 67.0947V232.325C315.742 240.751 308.912 247.581 300.486 247.581Z" fill="white"/>
</mask>
<g mask="url(#mask0_4112_4582)">
<path d="M304.683 242.932V396.476H300.375L294.956 242.932H304.683Z" fill="#F99D1C"/>
<path opacity="0.5" d="M304.683 242.932V396.476H300.375L294.956 242.932H304.683Z" fill="black"/>
<path d="M379.684 232.526H44.228V239.475H379.684V232.526Z" fill="#F99D1C"/>
<path d="M137.705 237.512V403.249H133.398L127.978 237.512H137.705Z" fill="#F99D1C"/>
<path d="M358.573 246.911H66.9615L55.716 239.477H369.819L358.573 246.911Z" fill="#F99D1C"/>
<path opacity="0.5" d="M358.573 246.911H66.9615L55.716 239.477H369.819L358.573 246.911Z" fill="black"/>
<path d="M317.474 246.911H127.978L120.605 239.477H317.474V246.911Z" fill="#F99D1C"/>
<path d="M257.738 209.529H131.867C128.417 209.529 125.474 206.733 125.293 203.281L121.158 124.377C120.977 120.927 123.628 118.131 127.078 118.131H252.949C256.399 118.131 259.342 120.929 259.523 124.377L263.658 203.281C263.839 206.733 261.188 209.529 257.738 209.529Z" fill="#F99D1C"/>
<path opacity="0.4" d="M257.738 209.529H131.867C128.417 209.529 125.474 206.733 125.293 203.281L121.158 124.377C120.977 120.927 123.628 118.131 127.078 118.131H252.949C256.399 118.131 259.342 120.929 259.523 124.377L263.658 203.281C263.839 206.733 261.188 209.529 257.738 209.529Z" fill="white"/>
<path d="M204.843 232.627H186.916L190.525 202.752H204.843V232.627Z" fill="#F99D1C"/>
<path opacity="0.4" d="M204.843 232.627H186.916L190.525 202.752H204.843V232.627Z" fill="white"/>
<path d="M220.434 230.121H187.22L186.918 232.627H220.436C221.127 232.627 221.689 232.065 221.689 231.373C221.689 230.681 221.126 230.121 220.434 230.121Z" fill="#F99D1C"/>
<path opacity="0.3" d="M220.434 230.121H187.22L186.918 232.627H220.436C221.127 232.627 221.689 232.065 221.689 231.373C221.689 230.681 221.126 230.121 220.434 230.121Z" fill="white"/>
<path opacity="0.1" d="M188.817 216.887H204.843V208.314H189.854L188.817 216.887Z" fill="black"/>
<path d="M258.802 209.529H132.931C129.481 209.529 126.538 206.733 126.357 203.281L122.222 124.377C122.041 120.927 124.692 118.131 128.142 118.131H254.013C257.463 118.131 260.406 120.929 260.587 124.377L264.722 203.281C264.903 206.733 262.252 209.529 258.802 209.529Z" fill="#F99D1C"/>
<path d="M132.764 206.337H258.635C260.319 206.337 261.617 204.968 261.528 203.284L257.393 124.379C257.304 122.695 255.863 121.325 254.179 121.325H128.309C126.625 121.325 125.327 122.695 125.416 124.379L129.551 203.284C129.638 204.968 131.08 206.337 132.764 206.337Z" fill="#F99D1C"/>
<path opacity="0.4" d="M132.764 206.337H258.635C260.319 206.337 261.617 204.968 261.528 203.284L257.393 124.379C257.304 122.695 255.863 121.325 254.179 121.325H128.309C126.625 121.325 125.327 122.695 125.416 124.379L129.551 203.284C129.638 204.968 131.08 206.337 132.764 206.337Z" fill="black"/>
<path d="M251.14 222.01H175.493L189.162 232.555H264.796L251.14 222.01Z" fill="#F99D1C"/>
<path opacity="0.4" d="M251.14 222.01H175.493L189.162 232.555H264.796L251.14 222.01Z" fill="white"/>
<path d="M177.24 232.555L175.493 222.01L189.162 232.555H177.24Z" fill="#F99D1C"/>
<path opacity="0.5" d="M177.24 232.555L175.493 222.01L189.162 232.555H177.24Z" fill="black"/>
<path d="M294.742 246.424C294.742 246.424 226.83 252.154 228.496 281.646C229.826 305.136 234.581 287.58 226.41 371.012L243.495 371.955C243.495 371.955 260.876 313.239 258.531 289.909C277.674 289.909 321.498 291.59 327.865 274.317C331.027 265.547 332.566 256.274 332.403 246.952L294.742 246.424Z" fill="#F99D1C"/>
<path d="M274.53 246.424C274.082 246.424 198.394 254.214 198.3 279.885C198.138 322.343 186.012 371.012 186.012 371.012L200.971 378.423C200.971 378.423 227.02 325.661 226.627 292.565C247.449 286.591 301.313 296.629 307.68 279.371C312.896 265.255 310.078 246.424 310.078 246.424H274.53Z" fill="#F99D1C"/>
<path d="M300.242 164.514C302.233 168.794 303.873 172.914 305.511 177.194C307.151 181.474 308.599 185.756 309.942 190.146C311.282 194.535 312.447 199.032 313.383 203.693C314.403 208.536 314.912 213.472 314.9 218.42C314.885 221.325 314.451 224.213 313.612 226.996C313.084 228.7 312.324 230.323 311.349 231.819C310.784 232.666 310.135 233.457 309.412 234.176L308.83 234.745C308.505 235.016 308.152 235.314 307.813 235.544C307.241 235.935 306.635 236.272 305.998 236.547C305.058 236.962 304.078 237.276 303.072 237.481C302.281 237.65 301.48 237.766 300.674 237.833C299.297 237.92 297.917 237.92 296.542 237.833C294.098 237.717 291.664 237.445 289.254 237.02C280.262 235.385 271.453 232.863 262.96 229.488L264.924 222.024C273.527 223.054 282.304 224.15 290.583 224.529C292.643 224.529 294.648 224.625 296.517 224.529C297.35 224.485 298.179 224.381 298.997 224.219C299.675 224.097 300.257 223.853 300.054 223.867C299.919 223.913 299.791 223.976 299.675 224.056C299.54 224.138 299.412 224.234 299.296 224.341C299.296 224.341 299.364 224.232 299.417 224.111C299.593 223.723 299.729 223.32 299.823 222.905C300.126 221.417 300.249 219.897 300.189 218.381C299.989 214.5 299.413 210.648 298.469 206.879C297.548 202.814 296.356 198.858 295.055 194.836C293.755 190.812 292.346 186.788 290.802 182.779C289.258 178.769 287.632 174.745 286.033 170.966L300.242 164.514Z" fill="#FFB273"/>
<path d="M268.663 224.053L259.68 219.001L255.169 228.728C255.169 228.728 265.669 233.104 267.877 230.368L268.663 224.053Z" fill="#FFB273"/>
<path d="M252.406 220.844L248.302 227.346L255.169 228.66L259.682 218.933L252.406 220.844Z" fill="#FFB273"/>
<path d="M279.298 172.239C277.578 176.56 275.776 180.692 273.879 184.878C271.983 189.064 270.085 193.182 268.08 197.3C264.044 205.687 259.52 213.829 254.532 221.685C253.178 223.691 251.823 225.682 250.305 227.674C249.547 228.676 248.706 229.665 247.813 230.681C247.325 231.195 246.932 231.67 246.363 232.198L245.55 232.984L245.089 233.418C243.799 234.521 242.283 235.327 240.645 235.775C239.782 236.019 238.904 236.205 238.016 236.33C236.569 236.504 235.111 236.564 233.654 236.506C231.138 236.425 228.631 236.176 226.149 235.761C216.963 234.138 207.967 231.588 199.297 228.147L201.275 220.669C210.041 221.726 218.996 222.85 227.421 223.202C229.408 223.279 231.397 223.252 233.382 223.12C234.182 223.057 234.974 222.93 235.753 222.741C236.007 222.681 236.253 222.591 236.484 222.469C236.566 222.469 236.484 222.374 236.118 222.604C235.985 222.679 235.862 222.77 235.753 222.876C235.753 222.876 235.849 222.755 235.888 222.714L236.267 222.293C236.511 222.049 236.808 221.643 237.094 221.318C237.649 220.614 238.218 219.854 238.788 219.029C239.912 217.417 241.01 215.629 242.093 213.813C244.26 210.182 246.279 206.322 248.257 202.419C250.235 198.518 252.131 194.535 254.001 190.525C257.726 182.531 261.371 174.336 264.838 166.274L279.298 172.239Z" fill="#FFB273"/>
<path d="M205.127 222.622L196.131 217.501L191.62 227.228C191.62 227.228 202.119 231.618 204.341 228.881L205.127 222.622Z" fill="#FFB273"/>
<path d="M188.87 219.424L184.752 225.913L191.62 227.228L196.131 217.499L188.87 219.424Z" fill="#FFB273"/>
<path d="M302.558 124.175L296.814 130.826L288.048 139.894C288.228 140.339 288.47 140.92 288.72 141.537C289.394 143.209 289.794 144.983 289.89 146.784C290.081 150.418 289.732 153.493 284 155.957C284 155.957 277.985 163.814 292.291 161.633C306.597 159.452 308.751 152.027 308.751 152.027C302.409 147.516 302.057 132.518 302.558 124.175Z" fill="#FFB273"/>
<path d="M273.392 116.668C273.392 117.561 272.945 118.321 272.348 118.349C271.752 118.376 271.278 117.67 271.264 116.777C271.25 115.882 271.725 115.124 272.307 115.096C272.89 115.069 273.378 115.775 273.392 116.668Z" fill="#263238"/>
<path d="M276.384 113.336C276.207 113.334 276.045 113.242 275.951 113.091C275.24 111.925 274.029 111.155 272.673 111.006C272.384 110.991 272.157 110.753 272.159 110.465C272.166 110.172 272.408 109.942 272.7 109.95C274.412 110.102 275.951 111.057 276.846 112.524C276.996 112.772 276.924 113.095 276.683 113.255C276.593 113.308 276.49 113.336 276.384 113.336Z" fill="#263238"/>
<path d="M273.066 117.17C272.34 119.611 271.291 121.942 269.95 124.106C271.076 124.741 272.429 124.841 273.635 124.378L273.066 117.17Z" fill="#630F0F"/>
<path d="M303.371 112.157C302.843 123.211 303.086 129.768 297.6 135.622C292.255 141.512 283.148 141.953 277.257 136.609C275.097 134.65 273.583 132.079 272.916 129.24C270.424 119.445 271.723 103.012 282.398 98.0814C289.599 94.5151 298.327 97.4597 301.895 104.661C303.046 106.984 303.557 109.571 303.371 112.157Z" fill="#FFB273"/>
<path d="M308.387 115.844C306.789 120.531 304.363 124.893 301.207 128.714L286.819 131.423C286.819 131.423 275.452 126.668 278.487 118.838C276.564 117.212 277.281 112.187 278.636 109.424C280.803 111.158 284.366 111.308 286.317 109.221C287.888 112.106 292.602 112.512 294.648 109.912C296.992 112.514 301.991 111.714 303.4 108.503C305.134 109.641 307.627 109.479 309.199 108.124C309.267 108.056 309.334 108.003 309.402 107.935C309.634 109.911 309.404 112.497 308.387 115.844Z" fill="#263238"/>
<path opacity="0.1" d="M308.387 115.844C306.789 120.531 304.363 124.893 301.207 128.714L286.819 131.423C286.819 131.423 275.452 126.668 278.487 118.838C276.564 117.212 277.281 112.187 278.636 109.424C280.803 111.158 284.366 111.308 286.317 109.221C287.888 112.106 292.602 112.512 294.648 109.912C296.992 112.514 301.991 111.714 303.4 108.503C305.134 109.641 307.627 109.479 309.199 108.124C309.267 108.056 309.334 108.003 309.402 107.935C309.634 109.911 309.404 112.497 308.387 115.844Z" fill="white"/>
<path d="M310.461 102.445C311.274 104.261 310.826 106.549 309.404 107.931C309.335 107.999 309.269 108.052 309.2 108.121C307.629 109.475 305.135 109.637 303.402 108.5C301.993 111.711 296.993 112.51 294.65 109.909C292.604 112.51 287.89 112.104 286.318 109.217C284.368 111.303 280.805 111.154 278.637 109.42C278.069 108.973 277.594 108.404 277.283 107.742C277.201 107.593 277.148 107.444 277.093 107.294C276.972 107.429 276.849 107.552 276.714 107.66C275.401 108.742 273.327 108.906 271.891 107.945C270.712 107.159 270.061 105.695 270.157 104.3C270.171 104.003 270.225 103.717 270.306 103.432C270.198 103.635 270.061 103.825 269.899 103.987C268.721 105.248 266.229 105.301 265.076 103.866C263.639 102.091 264.452 99.1383 266.417 97.9598C267.202 97.4986 268.07 97.2817 268.963 97.2817C270.345 97.2817 271.754 97.7822 272.851 98.6225C271.672 96.9299 272.092 94.3422 273.744 93.1091C275.397 91.8896 277.997 92.2277 279.271 93.8401C279.095 91.9169 279.732 90.7657 280.721 90.1696C282.591 89.085 285.707 90.021 287.223 91.8366C287.223 91.8366 289.309 86.7963 292.913 87.3651C293.698 87.4744 297.396 89.1124 297.302 90.4412C297.302 90.5351 297.275 90.6171 297.234 90.6991C297.289 90.5915 297.342 90.4958 297.41 90.4019C298.114 89.2917 299.536 88.7349 300.879 88.7622C302.329 88.7759 303.711 89.331 305.052 89.8724C307.856 91.0236 310.837 92.3114 312.463 94.8717C314.078 97.4474 313.373 101.632 310.461 102.445Z" fill="#263238"/>
<path d="M284.839 119.865C284.446 122.596 283.193 125.129 281.263 127.099C278.81 129.442 276.724 127.099 276.697 123.536C276.697 120.311 277.903 115.204 280.762 114.256C283.62 113.308 285.367 116.357 284.839 119.865Z" fill="#FFB273"/>
<path d="M328.162 155.875C327.146 153.166 322.405 150.455 319.493 150.455H317.569C314.21 150.455 310.024 150.727 305.96 151.2C298.216 152.057 290.527 153.35 282.93 155.074C279.435 155.994 276.062 157.159 273.378 158.162C269.964 159.516 267.959 160.425 267.959 160.425C267.959 160.425 271.701 185.331 273.635 210.069C274.711 223.836 274.267 237.508 274.61 246.909H332.402C334.393 235.611 334.079 225.757 334.241 205.355C334.339 193.111 332.349 167.023 328.162 155.875Z" fill="#F99D1C"/>
<path opacity="0.2" d="M272.386 196.243C272.82 201.432 273.267 206.877 273.741 212.324C280.514 202.435 284.267 175.38 284.267 175.38L272.386 196.243Z" fill="black"/>
<path d="M264.693 162.247C256.416 166.908 248.302 190.755 248.302 190.755L267.254 205.056C274.489 198.214 285.068 181.24 286.219 174.452C288.076 164.035 277.956 154.822 264.693 162.247Z" fill="#F99D1C"/>
<path d="M280.412 308.018V167.556C280.412 162.237 282.708 157.178 286.708 153.675L296.718 144.911C300.081 141.966 304.399 140.344 308.871 140.344H345.036L362.709 159.147V308.018H280.412Z" fill="#F99D1C"/>
<path opacity="0.3" d="M362.712 159.154V308.025H213.124C207.745 308.025 203.369 303.663 203.369 298.271C203.369 296.523 203.83 294.802 204.724 293.299C209.289 285.59 217.566 280.849 226.521 280.849H268.075C274.888 280.849 280.412 275.325 280.412 268.512V167.554C280.412 162.244 282.701 157.176 286.711 153.682L296.723 144.916C300.083 141.963 304.404 140.351 308.876 140.351H345.032L362.712 159.154Z" fill="white"/>
<path d="M292.448 308.018V167.556C292.448 162.237 294.744 157.178 298.744 153.675L308.755 144.911C312.118 141.966 316.435 140.344 320.907 140.344H349.094C354.186 140.344 359.05 142.448 362.538 146.158L369.74 153.822C372.957 157.243 374.746 161.76 374.746 166.456V293.954C374.746 301.722 368.449 308.018 360.683 308.018H292.448Z" fill="#F99D1C"/>
<path opacity="0.7" d="M292.448 308.018V167.556C292.448 162.237 294.744 157.178 298.744 153.675L308.755 144.911C312.118 141.966 316.435 140.344 320.907 140.344H349.094C354.186 140.344 359.05 142.448 362.538 146.158L369.74 153.822C372.957 157.243 374.746 161.76 374.746 166.456V293.954C374.746 301.722 368.449 308.018 360.683 308.018H292.448Z" fill="white"/>
<path d="M223.79 199.164H153.198L150.102 154.886H220.693L223.79 199.164Z" fill="#F99D1C"/>
<path opacity="0.5" d="M223.79 199.164H153.198L150.102 154.886H220.693L223.79 199.164Z" fill="black"/>
<path d="M220.893 157.73H150.3L150.102 154.886H220.693L220.893 157.73Z" fill="#F99D1C"/>
<path d="M250.783 174.962H180.19L177.093 130.682H247.687L250.783 174.962Z" fill="#F99D1C"/>
<path opacity="0.8" d="M250.783 174.962H180.19L177.093 130.682H247.687L250.783 174.962Z" fill="white"/>
<path d="M247.885 133.527H177.291L177.093 130.682H247.687L247.885 133.527Z" fill="#F99D1C"/>
</g>
<path d="M228.185 258.042L218.502 247.415L217.24 248.566L227.461 259.783C227.565 259.151 227.816 258.556 228.185 258.042Z" fill="#F99D1C"/>
<path d="M243.984 275.379C243.791 275.946 243.463 276.453 243.034 276.873L263.808 299.67C264.198 299.262 264.695 298.949 265.291 298.76L243.984 275.379Z" fill="#F99D1C"/>
<path d="M239.193 270.122L233.473 263.845C232.998 264.176 232.41 264.39 231.725 264.463L237.686 271.005C238.083 270.605 238.586 270.299 239.193 270.122Z" fill="#F99D1C"/>
<path d="M299.56 336.37L270.128 304.071C269.923 304.63 269.593 305.132 269.156 305.54L298.763 338.03C298.903 337.42 299.162 336.846 299.56 336.37Z" fill="#F99D1C"/>
<path d="M304.901 342.229C304.459 342.59 303.912 342.848 303.262 342.966L331.678 374.15L332.94 372.999L304.901 342.229Z" fill="#F99D1C"/>
<path d="M300.486 247.581H135.256C126.83 247.581 120 240.751 120 232.325V67.0947C120 58.6692 126.83 51.8389 135.256 51.8389H300.486C308.912 51.8389 315.742 58.6692 315.742 67.0947V232.325C315.742 240.751 308.912 247.581 300.486 247.581Z" stroke="#F99D1C" stroke-miterlimit="10"/>
<mask id="mask1_4112_4582" style="mask-type:luminance" maskUnits="userSpaceOnUse" x="345" y="1" width="143" height="142">
<path d="M471.788 142.995H360.304C351.878 142.995 345.048 136.164 345.048 127.739V16.2559C345.048 7.8303 351.878 1 360.304 1H471.788C480.214 1 487.044 7.8303 487.044 16.2559V127.74C487.044 136.164 480.214 142.995 471.788 142.995Z" fill="white"/>
</mask>
<g mask="url(#mask1_4112_4582)">
<path d="M396.279 60.917L385.784 66.3723C385.784 66.3723 384.766 105.726 385.784 111.154C386.802 116.582 392.023 118.253 392.023 118.253L402.618 109.969L396.279 60.917Z" fill="#FF8B7B"/>
<path d="M385.784 66.3721C385.784 66.3721 372.95 88.1679 363.773 118.251C358.437 135.742 389.493 136.848 395.179 130.685C396.594 129.151 407.127 113.212 407.127 113.212L385.784 66.3721Z" fill="#FF8B7B"/>
<path d="M429.409 118.898H393.98C390.621 118.898 388.134 116.174 388.428 112.814L395.172 35.7187C395.466 32.359 398.43 29.6348 401.789 29.6348H437.218C440.578 29.6348 443.065 32.359 442.771 35.7187L436.026 112.814C435.732 116.174 432.769 118.898 429.409 118.898Z" fill="#F99D1C"/>
<path opacity="0.1" d="M429.409 118.898H393.98C390.621 118.898 388.134 116.174 388.428 112.814L395.172 35.7187C395.466 32.359 398.43 29.6348 401.789 29.6348H437.218C440.578 29.6348 443.065 32.359 442.771 35.7187L436.026 112.814C435.732 116.174 432.769 118.898 429.409 118.898Z" fill="black"/>
<g opacity="0.8">
<path d="M411.843 116.313C411.014 116.313 410.261 115.99 409.723 115.402C409.183 114.811 408.925 114.027 408.997 113.195C409.146 111.496 410.649 110.114 412.348 110.114C413.177 110.114 413.93 110.437 414.468 111.025C415.009 111.616 415.265 112.4 415.194 113.231C415.045 114.931 413.54 116.313 411.843 116.313ZM412.348 110.522C410.855 110.522 409.533 111.737 409.404 113.231C409.34 113.949 409.561 114.622 410.024 115.127C410.483 115.628 411.129 115.904 411.843 115.904C413.335 115.904 414.657 114.69 414.787 113.195C414.85 112.478 414.63 111.805 414.167 111.3C413.708 110.799 413.062 110.522 412.348 110.522Z" fill="white"/>
</g>
<g opacity="0.8">
<path d="M424.663 36.7296H413.19C412.845 36.7296 412.531 36.5946 412.307 36.3487C412.082 36.1027 411.974 35.7765 412.005 35.4298L412.029 35.1633C412.09 34.4665 412.707 33.8994 413.404 33.8994H424.875C425.22 33.8994 425.534 34.0343 425.759 34.2803C425.985 34.5262 426.092 34.8542 426.062 35.2009L426.038 35.4656C425.978 36.1625 425.361 36.7296 424.663 36.7296ZM413.404 34.3076C412.912 34.3076 412.478 34.7073 412.435 35.1992L412.413 35.4639C412.393 35.6962 412.463 35.9114 412.611 36.072C412.758 36.2325 412.965 36.3196 413.194 36.3196H424.666C425.158 36.3196 425.592 35.92 425.635 35.4281L425.659 35.1616C425.679 34.931 425.609 34.7141 425.46 34.5536C425.314 34.393 425.107 34.3059 424.878 34.3059L413.404 34.3076Z" fill="white"/>
</g>
<path opacity="0.1" d="M422.378 29.9111L402.619 118.898H414.493L434.055 29.9111H422.378Z" fill="white"/>
<path opacity="0.1" d="M413.139 29.9111L393.381 118.898H399.367L418.927 29.9111H413.139Z" fill="white"/>
<path d="M433.107 106.382H392.301L398.056 40.6152H438.86L433.107 106.382Z" fill="#F99D1C"/>
<path opacity="0.7" d="M433.107 106.382H392.301L398.056 40.6152H438.86L433.107 106.382Z" fill="white"/>
<path d="M433.345 65.0994C433.336 65.2019 433.319 65.3044 433.3 65.4052C433.174 66.0662 432.82 66.664 432.335 67.108C431.777 67.6221 431.039 67.9415 430.253 67.9415H401.291C399.823 67.9415 398.713 66.8313 398.688 65.4052C398.686 65.3061 398.688 65.2036 398.696 65.0994C398.764 64.3172 399.145 63.6049 399.704 63.0942C400.262 62.5801 401 62.2607 401.786 62.2607H430.748C432.321 62.2607 433.481 63.5332 433.345 65.0994Z" fill="#F99D1C"/>
<path opacity="0.8" d="M433.345 65.0994C433.336 65.2019 433.319 65.3044 433.3 65.4052C433.174 66.0662 432.82 66.664 432.335 67.108C431.777 67.6221 431.039 67.9415 430.253 67.9415H401.291C399.823 67.9415 398.713 66.8313 398.688 65.4052C398.686 65.3061 398.688 65.2036 398.696 65.0994C398.764 64.3172 399.145 63.6049 399.704 63.0942C400.262 62.5801 401 62.2607 401.786 62.2607H430.748C432.321 62.2607 433.481 63.5332 433.345 65.0994Z" fill="white"/>
<path d="M398.689 65.4042C398.689 65.4964 398.696 65.5887 398.71 65.6792C398.799 64.9396 399.173 64.2667 399.707 63.7799C400.266 63.2658 401.004 62.9464 401.788 62.9464L432.588 62.9942C432.125 62.5382 431.481 62.2598 430.75 62.2598H401.788C401.002 62.2598 400.266 62.5792 399.707 63.0933C399.149 63.604 398.764 64.3162 398.696 65.0985C398.689 65.2026 398.686 65.3051 398.689 65.4042Z" fill="#F99D1C"/>
<path opacity="0.5" d="M398.689 65.4042C398.689 65.4964 398.696 65.5887 398.71 65.6792C398.799 64.9396 399.173 64.2667 399.707 63.7799C400.266 63.2658 401.004 62.9464 401.788 62.9464L432.588 62.9942C432.125 62.5382 431.481 62.2598 430.75 62.2598H401.788C401.002 62.2598 400.266 62.5792 399.707 63.0933C399.149 63.604 398.764 64.3162 398.696 65.0985C398.689 65.2026 398.686 65.3051 398.689 65.4042Z" fill="white"/>
<path d="M404.392 63.6309L404.273 65.0024L405.658 64.5395L405.844 65.2193L404.462 65.6565L405.193 66.818L404.544 67.2552L403.846 66.0477L402.923 67.2552L402.332 66.818L403.279 65.6565L401.96 65.2193L402.268 64.5361L403.557 65.0177L403.678 63.6326L404.392 63.6309Z" fill="#263238"/>
<path d="M412.314 63.6309L412.194 65.0024L413.58 64.5395L413.766 65.2193L412.382 65.6565L413.113 66.818L412.464 67.2552L411.766 66.0477L410.843 67.2552L410.252 66.818L411.199 65.6565L409.88 65.2193L410.186 64.5361L411.475 65.0177L411.597 63.6326L412.314 63.6309Z" fill="#263238"/>
<path d="M420.234 63.6309L420.114 65.0024L421.5 64.5395L421.686 65.2193L420.302 65.6565L421.033 66.818L420.384 67.2552L419.686 66.0477L418.763 67.2552L418.172 66.818L419.119 65.6565L417.8 65.2193L418.108 64.5361L419.397 65.0177L419.518 63.6326L420.234 63.6309Z" fill="#263238"/>
<path d="M428.156 63.6309L428.036 65.0024L429.421 64.5395L429.608 65.2193L428.226 65.6565L428.957 66.818L428.308 67.2552L427.609 66.0477L426.687 67.2552L426.096 66.818L427.042 65.6565L425.724 65.2193L426.029 64.5361L427.319 65.0177L427.44 63.6326L428.156 63.6309Z" fill="#263238"/>
<path d="M409.591 60.917H408.242V61.2603H409.591V60.917Z" fill="#F99D1C"/>
<path d="M406.842 60.917H402.435V61.2603H406.842V60.917Z" fill="#F99D1C"/>
<path d="M445.027 35.7135L438.289 112.816C437.987 116.177 435.025 118.895 431.666 118.895H429.413C432.766 118.895 435.736 116.177 436.03 112.816L442.768 35.7135C443.061 32.3607 440.581 29.6348 437.22 29.6348H439.48C442.841 29.6348 445.321 32.3607 445.027 35.7135Z" fill="#F99D1C"/>
<path opacity="0.5" d="M445.027 35.7135L438.289 112.816C437.987 116.177 435.025 118.895 431.666 118.895H429.413C432.766 118.895 435.736 116.177 436.03 112.816L442.768 35.7135C443.061 32.3607 440.581 29.6348 437.22 29.6348H439.48C442.841 29.6348 445.321 32.3607 445.027 35.7135Z" fill="white"/>
<path d="M443.304 49.1626L443.089 52.1318L443.704 52.1764L443.919 49.2071L443.304 49.1626Z" fill="#F99D1C"/>
<path d="M444.107 37.9171L443.483 46.5303L444.098 46.5748L444.722 37.9616L444.107 37.9171Z" fill="#F99D1C"/>
<path d="M421.585 93.5942H404.083C401.955 93.5942 400.382 91.8691 400.566 89.7409C400.753 87.6128 402.628 85.8877 404.756 85.8877H422.258C424.386 85.8877 425.961 87.6128 425.775 89.7409C425.589 91.8691 423.713 93.5942 421.585 93.5942Z" fill="#F99D1C"/>
<path opacity="0.4" d="M421.585 93.5942H404.083C401.955 93.5942 400.382 91.8691 400.566 89.7409C400.753 87.6128 402.628 85.8877 404.756 85.8877H422.258C424.386 85.8877 425.961 87.6128 425.775 89.7409C425.589 91.8691 423.713 93.5942 421.585 93.5942Z" fill="black"/>
<path d="M385.784 86.9214L401.63 84.3799L403.827 84.6122C406.145 84.8581 407.651 87.1622 406.958 89.386C406.31 91.463 405.602 93.5109 405.315 93.5109C404.732 93.5109 388.991 106.381 388.991 106.381C388.991 106.381 385.597 109.503 385.784 105.484V86.9214Z" fill="#FF8B7B"/>
<path d="M363.774 118.253L390.146 133.217L377.583 175.623H335.065L363.774 118.253Z" fill="#FF8B7B"/>
</g>
<path d="M471.788 142.995H360.304C351.878 142.995 345.048 136.164 345.048 127.739V16.2559C345.048 7.8303 351.878 1 360.304 1H471.788C480.214 1 487.044 7.8303 487.044 16.2559V127.74C487.044 136.164 480.214 142.995 471.788 142.995Z" stroke="#F99D1C" stroke-miterlimit="10"/>
<path d="M471.788 142.995H360.304C351.878 142.995 345.048 136.164 345.048 127.739V16.2559C345.048 7.8303 351.878 1 360.304 1H471.788C480.214 1 487.044 7.8303 487.044 16.2559V127.74C487.044 136.164 480.214 142.995 471.788 142.995Z" stroke="#F99D1C" stroke-miterlimit="10"/>
<path d="M433.314 166.242C433.84 166.242 434.296 166.343 434.714 166.493L436.749 143.242L435.047 143.094L433.02 166.271C433.119 166.264 433.208 166.242 433.314 166.242Z" fill="#F99D1C"/>
<path d="M433.425 181.227L434.045 174.134C433.811 174.173 433.573 174.205 433.314 174.205C432.962 174.205 432.639 174.161 432.335 174.091L431.742 180.858C432.385 180.866 432.945 181 433.425 181.227Z" fill="#F99D1C"/>
<path d="M429.397 227.264L432.774 188.668C432.439 188.755 432.086 188.817 431.69 188.817C431.462 188.817 431.259 188.782 431.052 188.753L427.758 226.411C428.422 226.555 428.96 226.864 429.397 227.264Z" fill="#F99D1C"/>
<path d="M425.196 257.155C425.787 257.155 426.301 257.272 426.755 257.458L428.83 233.735C428.342 234.026 427.758 234.21 427.071 234.248L425.066 257.167C425.112 257.166 425.15 257.155 425.196 257.155Z" fill="#F99D1C"/>
<path d="M425.196 265.119C424.905 265.119 424.635 265.086 424.378 265.037L416.326 357.072L418.027 357.223L426.092 265.028C425.814 265.088 425.515 265.119 425.196 265.119Z" fill="#F99D1C"/>
<mask id="mask2_4112_4582" style="mask-type:luminance" maskUnits="userSpaceOnUse" x="515" y="77" width="197" height="197">
<path d="M696.25 273.514H531.02C522.594 273.514 515.764 266.684 515.764 258.259V93.0283C515.764 84.6028 522.594 77.7725 531.02 77.7725H696.25C704.676 77.7725 711.506 84.6028 711.506 93.0283V258.259C711.504 266.684 704.674 273.514 696.25 273.514Z" fill="white"/>
</mask>
<g mask="url(#mask2_4112_4582)">
<path d="M521.756 118.89C521.756 118.89 523.033 128.552 540.453 133.98C557.871 139.408 551.863 128.475 551.863 128.475C543.75 123.424 543.919 117.54 546.527 111.752C547.161 110.298 547.883 108.884 548.691 107.519L540.65 94.7214L534.75 85.3428C533.794 95.8418 530.514 114.468 521.756 118.89Z" fill="#F8A570"/>
<path d="M574.176 79.7624C574.897 79.9059 575.344 80.9426 575.158 82.0545C574.972 83.1664 574.248 83.9538 573.51 83.8086C572.772 83.6618 572.359 82.6318 572.528 81.5165C572.714 80.4029 573.455 79.6172 574.176 79.7624Z" fill="#263238"/>
<path d="M570.763 91.0777C572.179 91.8838 573.884 92.0171 575.407 91.438C574.145 88.4866 573.281 85.3815 572.837 82.2012L570.763 91.0777Z" fill="#630F0F"/>
<path d="M539.271 61.1488C545.082 52.8496 556.52 50.8307 564.82 56.6414C577.191 64.8107 575.699 85.539 570.736 97.2764C569.366 100.689 566.992 103.605 563.93 105.639C555.576 111.185 544.308 108.908 538.762 100.554C533.032 92.219 534.578 84.094 536.014 70.2148C536.272 66.9543 537.398 63.8252 539.271 61.1488Z" fill="#F8A570"/>
<path d="M563.798 77.1135C567.182 78.8368 567.716 85.4314 567.105 89.4503C566.396 93.886 563.352 96.4121 560.739 93.0269C558.707 90.2053 557.624 86.8098 557.651 83.3323C557.66 78.859 560.415 75.3901 563.798 77.1135Z" fill="#F8A570"/>
<path d="M570.359 97.7515C569.616 97.7822 568.885 97.5158 568.333 96.9999C567.667 96.3748 567.349 95.4627 567.479 94.5609L567.51 94.3662L568.353 94.4943L568.324 94.6856C568.234 95.3193 568.449 95.9359 568.917 96.3765C569.387 96.8172 570.015 96.9897 570.647 96.8582L570.825 97.6934C570.671 97.7276 570.514 97.7463 570.359 97.7515Z" fill="black"/>
<path d="M578.788 63.9825C577.387 66.3105 575.669 68.5258 573.445 70.0152C573.009 70.3431 572.552 70.6027 572.075 70.8487C569.165 72.3244 565.873 72.736 563.339 70.7018C564.001 72.6865 563.802 74.8112 563.129 76.8198C562.252 79.4809 560.573 81.9507 558.951 83.6638C559.427 81.773 559.585 79.9609 559.045 78.4117C558.703 77.3937 558.046 76.4902 556.973 75.7558C554.681 74.1639 551.465 74.8437 550.09 77.2708C548.937 79.2862 549.319 81.826 549.951 84.0515C550.6 86.2941 551.475 88.5692 551.222 90.8698C550.952 93.1893 549.056 95.5395 546.739 95.2696C546.103 96.8991 544.689 98.0281 543.072 98.5746C541.104 99.2356 538.827 99.0648 537.17 97.8829C536.825 97.654 536.528 97.3705 536.245 97.0511C535.324 98.1391 533.997 98.8667 532.596 99.1366C531.553 99.3603 530.468 99.3142 529.449 99.0051C527.056 98.2621 525.223 95.9973 524.982 93.5155C521.995 94.0723 518.738 92.2175 517.694 89.3566C516.651 86.4957 517.935 82.9772 520.569 81.4724C517.65 80.3793 515.595 77.31 515.696 74.1998C515.797 71.0895 518.056 68.1586 521.033 67.2772C518.218 63.7246 520.634 58.3461 523.708 56.5834C523.986 56.44 524.284 56.2965 524.569 56.2196C525.102 56.0386 525.645 55.9754 526.168 56.0693L526.431 56.1325C526.694 56.1957 526.96 56.3119 527.213 56.4622C527.249 56.4758 527.315 56.4536 527.394 56.3785C527.761 56.0574 528.555 54.8942 529.394 53.6406C529.484 53.4954 529.577 53.3673 529.667 53.2238C529.775 53.0769 529.882 52.9317 529.973 52.7866C531.21 50.9692 532.41 49.3279 532.475 50.1101C531.975 44.9076 534.957 39.5513 539.63 37.2267C544.322 34.9004 550.39 35.7493 554.232 39.2848C556.158 36.6904 559.612 35.3411 562.78 35.9508C565.949 36.5435 568.678 39.0594 569.535 42.1594C574.389 40.3506 580.021 44.1834 581.565 49.128C583.107 54.0932 581.45 59.5263 578.788 63.9825Z" fill="#263238"/>
<path d="M504.727 239.477C505.499 251.205 508.401 262.695 513.289 273.386C523.095 294.421 577.983 287.731 602.033 285.729C603.911 176.163 676.495 511.023 631.766 394.238L653.41 387.524C653.41 387.524 639.982 312.977 638.904 272.207C637.915 234.978 551.989 234.877 551.989 234.877L504.727 239.477Z" fill="#F99D1C"/>
<path opacity="0.4" d="M504.727 239.477C505.499 251.205 508.401 262.695 513.289 273.386C523.095 294.421 577.983 287.731 602.033 285.729C603.911 176.199 676.15 510.056 631.42 393.309L653.349 386.013C653.349 386.013 639.983 312.977 638.906 272.207C637.917 234.978 551.991 234.877 551.991 234.877L504.727 239.477Z" fill="black"/>
<path d="M532.723 236.479C532.723 236.479 531.151 260.433 539.179 277.624C548.983 298.643 615.61 280.4 642.395 285.731C645.362 327.355 684.501 396.083 684.501 396.083L705.753 385.386C705.753 385.386 690.725 321.954 676.661 266.838C671.956 225.513 577.947 232.718 577.385 232.764L532.723 236.479Z" fill="#F99D1C"/>
<path opacity="0.4" d="M532.723 236.478C532.723 236.478 531.151 260.433 539.179 277.624C548.983 298.643 615.61 280.4 642.395 285.73C645.362 327.354 684.501 396.082 684.501 396.082L705.753 385.385C705.753 385.385 690.725 321.954 676.661 266.838C671.674 222.727 563.52 232.359 562.958 232.405L532.723 236.478Z" fill="black"/>
<path d="M658.947 225.495L558.314 223.175L565.364 159.51L665.998 161.829L658.947 225.495Z" fill="#F99D1C"/>
<path d="M657.448 230.456L558.281 228.171C555.468 228.106 553.439 225.778 553.75 222.97L560.758 159.703C561.069 156.895 563.602 154.672 566.415 154.736L665.583 157.021C668.396 157.086 670.425 159.414 670.114 162.222L663.106 225.49C662.794 228.298 660.261 230.521 657.448 230.456Z" fill="#F99D1C"/>
<g opacity="0.5">
<path d="M658.947 225.495L558.314 223.175L565.364 159.51L665.998 161.829L658.947 225.495Z" fill="black"/>
<path opacity="0.9" d="M658.947 225.495L558.314 223.175L565.364 159.51L665.998 161.829L658.947 225.495Z" fill="black"/>
</g>
<path opacity="0.9" d="M658.725 225.74L558.092 223.423L565.142 159.757L665.776 162.076L658.725 225.74Z" fill="white"/>
<path d="M653.467 180.062L634.989 179.636L636.137 169.264L654.616 169.689L653.467 180.062Z" fill="#F99D1C"/>
<path d="M651.202 200.522L632.723 200.096L633.872 189.724L652.349 190.149L651.202 200.522Z" fill="#F99D1C"/>
<path d="M648.935 220.983L630.456 220.557L631.606 210.185L650.083 210.61L648.935 220.983Z" fill="#F99D1C"/>
<path opacity="0.1" d="M644.079 156.42L622.728 229.485L629.341 229.637L650.474 156.567L644.079 156.42Z" fill="white"/>
<path opacity="0.1" d="M654.283 156.655L632.933 229.72L646.049 230.022L667.182 156.952L654.283 156.655Z" fill="white"/>
<path d="M569.771 211.193L569.704 211.784L623.032 213.014L623.098 212.421L569.771 211.193Z" fill="#F99D1C"/>
<path d="M623.848 205.651L570.587 204.425L574.653 167.71L627.915 168.938L623.848 205.651Z" fill="#F99D1C"/>
<path d="M571.713 218.961C570.207 218.927 569.119 217.678 569.286 216.175C569.453 214.671 570.809 213.48 572.316 213.514C573.824 213.549 574.91 214.797 574.743 216.3C574.577 217.805 573.219 218.995 571.713 218.961Z" fill="#F99D1C"/>
<path d="M596.718 209.551L570.087 208.938L570.347 206.591L596.978 207.204L596.718 209.551Z" fill="#F99D1C"/>
<path d="M622.383 218.575L612.094 218.338L612.353 215.991L622.642 216.229L622.383 218.575Z" fill="#F99D1C"/>
<path d="M623.348 210.163L620.996 210.11L621.255 207.762L623.607 207.816L623.348 210.163Z" fill="#F99D1C"/>
<path d="M619.363 210.072L617.011 210.018L617.271 207.671L619.622 207.724L619.363 210.072Z" fill="#F99D1C"/>
<path d="M615.376 209.981L613.024 209.926L613.286 207.579L615.638 207.634L615.376 209.981Z" fill="#F99D1C"/>
<path opacity="0.2" d="M596.718 209.551L570.087 208.938L570.347 206.591L596.978 207.204L596.718 209.551Z" fill="white"/>
<path opacity="0.2" d="M623.098 212.421L569.771 211.193L569.704 211.784L623.032 213.014L623.098 212.421Z" fill="black"/>
<path d="M625.995 229.228L659.456 230.441C659.783 234.354 658.032 235.705 655.902 235.621L645.201 235.205L638.055 234.901L626.946 234.501L575.877 233.228L575.643 228.349L625.995 229.228Z" fill="#F99D1C"/>
<path opacity="0.4" d="M625.995 229.228L659.456 230.441C659.783 234.354 658.032 235.705 655.902 235.621L645.201 235.205L638.055 234.901L626.946 234.501L575.877 233.228L575.643 228.349L625.995 229.228Z" fill="black"/>
<path opacity="0.2" d="M659.456 230.441L659.569 231.804C659.745 233.914 658.032 235.705 655.9 235.622L645.2 235.205L625.324 234.638L625.995 229.23L659.456 230.441Z" fill="black"/>
<path d="M519.219 117.182L551.844 120.003C551.844 120.003 548.187 111.68 536.598 110.847C525.009 110.013 519.219 117.182 519.219 117.182Z" fill="#F99D1C"/>
<path d="M498.177 173.712C500.513 199.328 501.041 225.438 504.724 239.427L512.611 241.191C526.424 244.283 540.79 243.859 554.396 239.96L577.336 233.386C576.207 209.088 576.366 161.631 576.531 138.038C576.591 129.644 570.936 122.28 562.811 120.166C560.534 119.573 558.517 119.086 557.284 118.869C547.559 117.498 537.761 116.676 527.942 116.408C522.786 116.237 517.498 116.335 513.277 116.685L510.86 116.887C507.202 117.191 501.526 121.092 500.534 124.602C496.442 139.046 496.776 158.335 498.177 173.712Z" fill="#F99D1C"/>
<path d="M498.177 173.712C500.513 199.328 501.041 225.438 504.724 239.427L512.611 241.191C526.424 244.283 540.79 243.859 554.396 239.96L577.336 233.386C576.207 209.088 576.366 161.631 576.531 138.038C576.591 129.644 570.936 122.28 562.811 120.166C560.534 119.573 558.517 119.086 557.284 118.869C547.559 117.498 537.761 116.676 527.942 116.408C522.786 116.237 517.498 116.335 513.277 116.685L510.86 116.887C507.202 117.191 501.526 121.092 500.534 124.602C496.442 139.046 496.776 158.335 498.177 173.712Z" fill="#F99D1C"/>
<path opacity="0.7" d="M498.177 173.712C500.513 199.328 501.041 225.438 504.724 239.427L512.611 241.191C526.424 244.283 540.79 243.859 554.396 239.96L577.336 233.386C576.207 209.088 576.366 161.631 576.531 138.038C576.591 129.644 570.936 122.28 562.811 120.166C560.534 119.573 558.517 119.086 557.284 118.869C547.559 117.498 537.761 116.676 527.942 116.408C522.786 116.237 517.498 116.335 513.277 116.685L510.86 116.887C507.202 117.191 501.526 121.092 500.534 124.602C496.442 139.046 496.776 158.335 498.177 173.712Z" fill="white"/>
<path opacity="0.2" d="M541.509 136.943C540.66 145.842 539.314 165.001 544.09 181.071L553.543 181.216C560.094 181.375 566.62 180.385 572.827 178.289C572.827 178.289 577.686 154.114 570.364 139.56C564.106 127.127 542.831 123.086 541.509 136.943Z" fill="black"/>
<path d="M563.431 124.12C564.633 135.118 565.996 146.345 567.534 157.356C568.306 162.88 569.12 168.383 570.061 173.816C571.004 179.249 572.01 184.65 573.281 189.827C573.916 192.416 574.579 194.976 575.337 197.335C575.718 198.541 576.123 199.667 576.533 200.721C576.755 201.218 576.965 201.817 577.168 202.201L577.471 202.847C577.505 202.912 577.573 203.093 577.573 203.093C577.479 202.926 577.365 202.77 577.232 202.632C576.876 202.218 576.743 202.304 576.84 202.333C577.074 202.563 577.337 202.765 577.623 202.931C578.492 203.446 579.401 203.892 580.34 204.265C582.683 205.154 585.071 205.923 587.495 206.565C597.782 209.254 610.261 214.431 621.218 216.395L620.839 226.139C609.117 227.084 584.342 223.932 575.068 220.298C573.291 219.83 571.554 219.22 569.873 218.473C568.85 217.995 567.86 217.447 566.91 216.834C565.103 215.688 563.571 214.157 562.425 212.35L562.03 211.657L561.34 210.41C560.85 209.563 560.551 208.845 560.153 208.046C559.451 206.492 558.804 204.989 558.259 203.499C557.166 200.538 556.269 197.638 555.376 194.719C552.267 183.405 549.823 171.918 548.057 160.319C547.162 154.615 546.397 148.949 545.659 143.202C545.652 143.144 545.644 143.087 545.637 143.029C544.44 133.709 551.253 125.263 560.609 124.385L563.431 124.12Z" fill="#F8A570"/>
<path d="M616.061 223.74C617.325 228.002 631.672 227.966 631.672 227.966L631.122 214.459L618.172 216.073L616.061 223.74Z" fill="#F8A570"/>
<path d="M631.122 214.459L631.672 227.968L640.305 229.758L638.646 220.21L631.122 214.459Z" fill="#F8A570"/>
<path d="M542.26 131.727C540.137 140.142 543.714 165.106 548.582 176.678L578.32 172.292C578.32 172.292 580.482 138.176 573.301 128.591C561.774 113.28 545.415 118.763 542.26 131.727Z" fill="#F99D1C"/>
<path opacity="0.3" d="M542.26 131.727C540.137 140.142 543.714 165.106 548.582 176.678L578.32 172.292C578.32 172.292 580.482 138.176 573.301 128.591C561.774 113.28 545.415 118.763 542.26 131.727Z" fill="white"/>
</g>
<path d="M696.25 272.789H531.02C522.594 272.789 515.764 265.959 515.764 257.533V92.3027C515.764 83.8772 522.594 77.0469 531.02 77.0469H696.25C704.676 77.0469 711.506 83.8772 711.506 92.3027V257.533C711.504 265.959 704.674 272.789 696.25 272.789Z" stroke="#F99D1C" stroke-miterlimit="10"/>
<path d="M604.746 280.933L614.165 273.458L613.103 272.121L603.14 280.029C603.791 280.195 604.326 280.514 604.746 280.933Z" fill="#F99D1C"/>
<path d="M561.269 313.257L505.658 357.39L506.72 358.727L562.292 314.625C561.839 314.254 561.503 313.783 561.269 313.257Z" fill="#F99D1C"/>
<path d="M568.278 309.875L598.657 285.766C598.383 285.198 598.235 284.567 598.226 283.927L567.322 308.452C567.75 308.848 568.072 309.333 568.278 309.875Z" fill="#F99D1C"/>
<path d="M533.908 419.645C533.572 419.645 533.239 419.667 532.902 419.671C532.902 419.662 532.902 419.654 532.902 419.645C532.902 353.838 479.555 300.488 413.745 300.488C358.268 300.488 311.648 338.401 298.377 389.731C248.044 393.009 208.228 434.846 208.228 486.006C208.228 539.304 251.436 582.512 304.734 582.512H533.906C578.882 582.512 615.34 546.053 615.34 501.077C615.342 456.104 578.883 419.645 533.908 419.645Z" fill="#F99D1C"/>
<path opacity="0.3" d="M533.908 419.645C533.572 419.645 533.239 419.667 532.902 419.671C532.902 419.662 532.902 419.654 532.902 419.645C532.902 353.838 479.555 300.488 413.745 300.488C358.268 300.488 311.648 338.401 298.377 389.731C248.044 393.009 208.228 434.846 208.228 486.006C208.228 539.304 251.436 582.512 304.734 582.512H533.906C578.882 582.512 615.34 546.053 615.34 501.077C615.342 456.104 578.883 419.645 533.908 419.645Z" fill="white"/>
<path opacity="0.1" d="M411.786 620.316C524.207 620.316 615.342 616.835 615.342 612.541C615.342 608.248 524.207 604.767 411.786 604.767C299.365 604.767 208.23 608.248 208.23 612.541C208.23 616.835 299.365 620.316 411.786 620.316Z" fill="black"/>
<path opacity="0.2" d="M345.564 407.435C345.564 407.435 334.945 415.223 343.511 435.883C355.058 463.734 448.349 439.808 448.349 439.808C445.096 458.152 450.013 471.93 453.35 490.259L462.131 538.5L452.84 539.536L456.609 553.038H465.651L466.62 564.41C464.415 564.572 462.79 566.542 463.05 568.738L465.101 579.369L467.033 581.55L508.307 575.181L479.425 564.403L469.891 413.194L345.564 407.435Z" fill="black"/>
<path opacity="0.2" d="M489.143 426.142H497.762C497.762 426.142 495.186 431.92 498.445 457.538C501.704 483.155 512.49 515.899 512.49 515.899H504.785L506.848 530H514.37V542.03C512.398 542.279 510.896 543.924 510.828 545.91L510.562 553.617L515.991 557.081L549.362 554.406L553.461 551.77L534.991 543.09L522.504 410.678L482.05 413.74L489.143 426.142Z" fill="black"/>
<path d="M522.688 545.039L537.302 543.447L538.682 509.093L524.055 510.695L522.688 545.039Z" fill="#FF8B7B"/>
<path d="M538.785 537.282L522.275 537.121C521.703 537.06 521.187 537.473 521.126 538.045C521.122 538.079 521.119 538.115 521.119 538.149L520.181 551.2C520.171 552.63 521.308 553.803 522.738 553.839C528.477 553.795 530.883 553.511 538.134 553.069C542.595 552.78 553.241 552.068 559.311 550.925C565.38 549.784 564.065 543.813 561.393 543.757C555.065 543.646 545.371 541.559 541.251 538.257C540.557 537.668 539.691 537.325 538.785 537.282Z" fill="#263238"/>
<path opacity="0.2" d="M524.051 510.715L538.682 509.093L538.016 525.65L523.406 526.759L524.051 510.715Z" fill="black"/>
<path d="M419.681 365.064C419.681 365.064 531.099 359.443 538.498 400.93C544.605 463.795 540.744 518.279 540.744 518.279L520.801 516.663C520.801 516.663 503.95 450.375 505.579 414.984C474.883 411.65 391.306 426.615 378.26 403.767C367.588 385.125 369.566 373.512 369.566 373.512L419.681 365.064Z" fill="#F99D1C"/>
<path opacity="0.5" d="M419.681 365.064C419.681 365.064 531.099 359.443 538.498 400.93C544.605 463.795 540.744 518.279 540.744 518.279L520.801 516.663C520.801 516.663 503.95 450.375 505.579 414.984C474.883 411.65 391.306 426.615 378.26 403.767C367.588 385.125 369.566 373.512 369.566 373.512L419.681 365.064Z" fill="black"/>
<path d="M513.53 523.124L544.867 521.621L547.015 509.861L512.299 511.086L513.53 523.124Z" fill="#F99D1C"/>
<path d="M546.732 539.147C547.203 538.659 547.376 537.953 547.183 537.301C547.104 536.859 546.804 536.49 546.387 536.322C544.575 535.569 540.416 538.399 539.946 538.719C539.869 538.766 539.814 538.843 539.794 538.93C539.753 539.111 539.867 539.293 540.048 539.334C541.326 539.673 542.638 539.863 543.96 539.901C544.947 540 545.933 539.731 546.732 539.147ZM546.158 536.941C546.359 537.031 546.494 537.228 546.503 537.448C546.653 537.866 546.556 538.334 546.25 538.659C545.558 539.334 543.623 539.407 541.002 538.854C542.708 537.784 545.167 536.575 546.158 536.941Z" fill="#F99D1C"/>
<path d="M540.351 539.258C541.82 538.389 544.05 535.369 543.721 533.738C543.596 533.159 543.096 532.737 542.503 532.711C541.946 532.623 541.381 532.807 540.984 533.207C539.5 534.624 539.779 538.852 539.789 539.029C539.797 539.149 539.871 539.256 539.978 539.308C540.028 539.332 540.081 539.345 540.136 539.349L540.351 539.258ZM542.308 533.381C542.815 533.444 542.923 533.687 542.964 533.881C543.183 534.939 541.707 537.241 540.411 538.308C540.388 536.913 540.528 534.5 541.418 533.652C541.618 533.458 541.89 533.354 542.168 533.366C542.25 533.403 542.301 533.424 542.308 533.381Z" fill="#F99D1C"/>
<path d="M478.75 564.676L492.962 564.292L491.84 529.817L477.628 530.203L478.75 564.676Z" fill="#FF8B7B"/>
<path d="M493.189 560.042L476.726 561.115C476.145 561.127 475.682 561.605 475.689 562.186L475.741 575.266C475.828 576.699 477.056 577.792 478.49 577.712C484.2 577.158 486.933 576.723 494.172 576.192C498.628 575.898 507.426 575.708 513.441 574.323C519.457 572.938 517.945 567.059 515.282 567.086C508.958 567.19 500.124 563.67 495.767 560.688C495 560.194 494.095 559.967 493.189 560.042Z" fill="#263238"/>
<path d="M501.263 561.295C501.694 560.767 501.806 560.05 501.559 559.416C501.449 558.982 501.125 558.636 500.7 558.497C498.867 557.874 494.904 561.032 494.46 561.384C494.39 561.437 494.344 561.514 494.33 561.599C494.301 561.783 494.426 561.956 494.61 561.985C495.91 562.217 497.232 562.306 498.551 562.25C499.543 562.287 500.512 561.944 501.263 561.295ZM500.501 559.163C500.71 559.23 500.869 559.402 500.915 559.616C501.079 560.029 501.014 560.499 500.742 560.851C500.165 561.57 498.182 561.777 495.528 561.433C497.152 560.229 499.514 558.844 500.501 559.163Z" fill="#F99D1C"/>
<path d="M494.947 561.967C496.348 560.999 498.327 557.724 497.888 556.226C497.726 555.644 497.183 555.25 496.578 555.275C496.018 555.207 495.461 555.422 495.092 555.851C493.698 557.373 494.32 561.566 494.339 561.75C494.353 561.865 494.426 561.964 494.534 562.008C494.585 562.017 494.638 562.011 494.687 561.993C494.775 562.013 494.867 562.003 494.947 561.967ZM496.469 555.887C496.964 555.916 497.126 556.146 497.145 556.344C497.446 557.378 496.137 559.786 494.927 560.953C494.81 559.593 494.761 557.178 495.596 556.264C495.772 556.054 496.028 555.928 496.303 555.917L496.469 555.887Z" fill="#F99D1C"/>
<path opacity="0.2" d="M476.355 529.877L492.24 527.199L492.387 548.739L478.472 550.375L476.355 529.877Z" fill="black"/>
<path d="M384.313 371.025C384.313 371.025 494.33 379.114 495.83 411.08C503.991 463.307 497.946 532.052 497.946 532.052L471.604 537.566C471.604 537.566 458 473.241 455.996 425.927C429.071 430.467 373.679 438.874 354.679 425.425C337.442 409.952 342.195 378.202 342.195 378.202L384.313 371.025Z" fill="#F99D1C"/>
<path opacity="0.4" d="M384.313 371.025C384.313 371.025 494.33 379.114 495.83 411.08C503.991 463.307 497.946 532.052 497.946 532.052L471.604 537.566C471.604 537.566 458 473.241 455.996 425.927C429.071 430.467 373.679 438.874 354.679 425.425C337.442 409.952 342.195 378.202 342.195 378.202L384.313 371.025Z" fill="black"/>
<path d="M469.052 546.239L501.251 543.499L501.917 529.415L466.62 533.108L469.052 546.239Z" fill="#F99D1C"/>
<path d="M391.929 275.374C392.554 277.881 393.123 280.057 393.803 282.339C394.482 284.619 395.157 286.778 395.919 289.076C397.395 293.494 399.068 297.879 400.91 302.345C404.589 311.592 409.506 320.3 415.525 328.226C417.296 330.44 419.252 332.498 421.37 334.382C423.742 336.51 426.42 338.271 429.314 339.608C434.865 342.082 440.967 343.06 447.014 342.444C452.307 341.904 457.479 340.507 462.324 338.307C464.615 337.291 466.84 336.136 468.991 334.85C470.067 334.218 471.103 333.545 472.109 332.768C473.114 331.993 474.062 331.335 475.218 330.44L469.534 320.991L466.705 321.842L463.732 322.655C461.733 323.164 459.754 323.606 457.726 323.948C454.061 324.629 450.324 324.826 446.609 324.53C443.637 324.327 440.761 323.396 438.233 321.82C437.141 321.095 436.134 320.253 435.227 319.309C434.101 318.084 433.061 316.783 432.113 315.416C429.929 312.216 428.012 308.839 426.383 305.322C424.588 301.689 422.989 297.836 421.469 293.892C419.949 289.948 418.572 285.933 417.189 281.888L415.24 275.777C414.62 273.765 413.945 271.608 413.448 269.855L391.929 275.374Z" fill="#FF8B7B"/>
<path d="M389.76 263.06C398.618 251.003 412.801 254.852 421.293 273.301C425.995 283.122 429.802 293.347 432.666 303.851L400.151 316.488C390.916 299.082 380.643 275.424 389.76 263.06Z" fill="#F99D1C"/>
<path opacity="0.1" d="M389.76 263.06C398.618 251.003 412.801 254.852 421.293 273.301C425.995 283.122 429.802 293.347 432.666 303.851L400.151 316.488C390.916 299.082 380.643 275.424 389.76 263.06Z" fill="black"/>
<path opacity="0.3" d="M404.15 282.26C401.379 280.503 396.182 291.381 394.03 304.082C395.975 308.42 398.057 312.565 400.126 316.432L419.689 308.825C416.051 297.117 410.372 286.22 404.15 282.26Z" fill="black"/>
<path d="M471.049 316.065L478.125 311.901L481.163 327.895C481.163 327.895 469.383 335.528 465.732 329.656L465.964 325.494C466.247 321.774 468.096 318.347 471.049 316.065Z" fill="#FF8B7B"/>
<path d="M487.123 310.819L493.854 323.53L481.104 327.904L478.065 311.911L487.123 310.819Z" fill="#FF8B7B"/>
<path d="M389.278 252.548L372.359 250.732L351.441 253.264C344.909 254.044 339.709 259.102 338.744 265.609C336.836 278.376 336.158 296.411 336.023 311.944C335.85 329.381 338.626 355.064 342.199 378.2L419.694 365.136C413.342 316.658 414.666 287.142 414.702 270.926C414.736 264.391 410.404 258.637 404.116 256.859L389.278 252.548Z" fill="#F99D1C"/>
<path opacity="0.3" d="M345.367 259.619C359.269 256.703 359.612 288.467 354.015 311.901C352.396 318.681 344.348 316.133 341.598 314.468C332.596 309.021 328.342 270.328 345.367 259.619Z" fill="black"/>
<path d="M348.006 302.266C345.379 315.768 339.49 321.771 345.564 327.903C351.637 334.036 390.496 357.894 391.929 356.377C389.131 359.125 386.511 361.423 383.713 364.171C372.012 359.508 360.258 354.977 348.454 350.577C339.844 347.367 326.067 341.726 320.425 334.47C315.32 327.903 319.891 313.935 324.733 298.102C331.186 296.126 348.006 302.266 348.006 302.266Z" fill="#FF8B7B"/>
<path d="M339.762 254.196C353.999 249.509 359.813 260.838 356.088 280.725C354.242 291.454 351.425 301.993 347.676 312.213L317.324 303.714C319.932 284.219 325.201 258.999 339.762 254.196Z" fill="#F99D1C"/>
<path d="M384.54 276.07L385.102 345.374L395.685 354.416L402.04 344.283L388.805 276.07H384.54Z" fill="#263238"/>
<path d="M384.578 276.07H388.805L390.817 272.341L388.076 270.82L385.102 270.55L381.953 272.328L384.578 276.07Z" fill="#263238"/>
<path d="M360.587 253.423C360.169 256.427 361.293 259.484 363.036 261.966C364.78 264.45 367.11 266.45 369.414 268.424C372.342 270.931 375.819 273.604 379.621 272.976C383.134 272.395 385.1 270.551 386.385 266.304C389.572 271.071 389.792 273.493 393.121 273.692C395.28 273.82 397.104 272.185 398.563 270.588C401.139 267.765 402.278 266.154 402.64 262.35C403.229 256.161 398.037 250.608 392.141 248.633C385.813 246.514 380.238 246.142 373.72 245.605C368.273 245.156 361.47 247.076 360.587 253.423Z" fill="#263238"/>
<path d="M374.308 223.352L382.202 231.883L392.935 243.499C392.021 244.802 391.35 246.259 390.954 247.8C389.972 251.2 390.405 254.523 394.122 256.868C395.729 257.553 396.797 265.771 386.387 265.254C379.298 265.097 374.743 262.788 370.47 258.627C368.478 256.133 367.938 254.775 369.807 251.925C375.167 243.866 375.228 232.423 374.308 223.352Z" fill="#FF8B7B"/>
<path opacity="0.2" d="M390.349 240.623L383.548 232.202C383.478 232.463 383.399 232.74 383.314 233.036C383.042 234.264 382.868 235.509 382.791 236.764C382.535 241.055 386.737 246.413 390.735 248.633L391.008 247.762C391.418 246.315 392.021 244.932 392.803 243.647C392.855 243.576 392.918 243.513 392.99 243.46L390.349 240.623Z" fill="black"/>
<path d="M399.784 220.724C406.075 208.471 404.725 201.531 410.773 194.998C414.024 193.555 419.71 199.545 415.93 209.745C412.15 219.945 399.784 220.724 399.784 220.724Z" fill="#263238"/>
<path d="M374.487 207.158C373.771 221.373 372.741 229.652 379.088 237.495C388.682 249.366 406.835 244.469 411.726 230.67C416.136 218.26 416.446 197.111 403.2 190.243C393.49 185.283 381.597 189.133 376.637 198.843C375.319 201.426 374.584 204.263 374.487 207.158Z" fill="#FF8B7B"/>
<path d="M372.818 219.774L380.52 224.348L381.491 211.9L387.797 208.295L395.475 196.766C395.475 196.766 378.8 191.898 373.828 191.241C372.087 191.01 365.99 195.75 365.088 197.743C362.536 203.378 363.872 209.929 367.781 214.724C369.284 216.567 370.97 218.258 372.818 219.774Z" fill="#263238"/>
<path d="M367.53 217.385C367.928 220.542 369.469 223.442 371.86 225.537C374.984 228.2 378.578 225.058 378.878 221.025C379.126 217.421 377.146 212.232 373.448 211.144C369.747 210.056 367.054 213.452 367.53 217.385Z" fill="#FF8B7B"/>
<path d="M396.025 214.962C395.847 216.127 396.308 217.201 397.079 217.336C397.849 217.471 398.52 216.658 398.775 215.495C399.029 214.332 398.491 213.256 397.719 213.106C396.947 212.955 396.199 213.782 396.025 214.962Z" fill="#263238"/>
<path d="M409.195 217.407C409.006 218.591 409.482 219.662 410.251 219.797C411.019 219.932 411.767 219.105 411.947 217.956C412.126 216.805 411.648 215.72 410.893 215.582C410.14 215.445 409.371 216.243 409.195 217.407Z" fill="#263238"/>
<path d="M404.836 217.489C405.345 220.806 406.288 224.043 407.641 227.112C405.555 228.304 402.78 226.796 402.78 226.796L404.836 217.489Z" fill="#FF5652"/>
<path d="M400.703 233.478C397.955 233.062 395.499 231.535 393.909 229.256C393.804 229.092 393.852 228.877 394.013 228.771C394.182 228.677 394.394 228.73 394.5 228.891C396.267 231.347 399.079 232.84 402.104 232.93C402.298 232.922 402.462 233.074 402.469 233.268C402.476 233.463 402.324 233.627 402.129 233.634C402.114 233.634 402.097 233.634 402.081 233.632C401.62 233.613 401.159 233.562 400.703 233.478Z" fill="#263238"/>
<path d="M394.079 210.341C393.967 210.309 393.862 210.246 393.784 210.159C393.528 209.87 393.55 209.429 393.835 209.17C395.446 207.636 397.716 207.009 399.885 207.496C400.254 207.591 400.476 207.967 400.38 208.336C400.378 208.345 400.375 208.353 400.373 208.362C400.261 208.731 399.875 208.941 399.504 208.835C397.799 208.486 396.032 208.994 394.771 210.193C394.588 210.374 394.318 210.43 394.079 210.341Z" fill="#263238"/>
<path d="M410.437 209.826C410.389 209.716 410.369 209.597 410.379 209.477C410.473 209.103 410.85 208.873 411.224 208.961C413.404 209.409 415.214 210.922 416.041 212.987C416.166 213.348 415.974 213.742 415.614 213.868C415.252 213.993 414.859 213.804 414.732 213.441C414.051 211.834 412.62 210.668 410.908 210.321C410.676 210.248 410.498 210.061 410.437 209.826Z" fill="#263238"/>
<path d="M415.335 377.795L504.382 366.054C505.303 365.933 505.955 365.08 505.834 364.16C505.713 363.239 504.86 362.587 503.94 362.708L414.893 374.449C413.972 374.57 413.32 375.422 413.441 376.343C413.563 377.263 414.415 377.916 415.335 377.795Z" fill="#F99D1C"/>
<path opacity="0.5" d="M415.335 377.795L504.382 366.054C505.303 365.933 505.955 365.08 505.834 364.16C505.713 363.239 504.86 362.587 503.94 362.708L414.893 374.449C413.972 374.57 413.32 375.422 413.441 376.343C413.563 377.263 414.415 377.916 415.335 377.795Z" fill="black"/>
<path d="M371.447 377.335L414.652 377.82C415.581 377.83 416.348 377.079 416.359 376.151C416.369 375.224 415.617 374.457 414.69 374.445L371.483 373.958C370.555 373.948 369.786 374.699 369.778 375.627C369.768 376.558 370.518 377.325 371.447 377.335Z" fill="#F99D1C"/>
<path opacity="0.5" d="M371.447 377.335L414.652 377.82C415.581 377.83 416.348 377.079 416.359 376.151C416.369 375.224 415.617 374.457 414.69 374.445L371.483 373.958C370.555 373.948 369.786 374.699 369.778 375.627C369.768 376.558 370.518 377.325 371.447 377.335Z" fill="white"/>
<path d="M417.346 375.829L369.78 375.52C369.78 375.52 368.178 374.579 371.375 373.961C374.572 373.342 415.858 367.841 415.858 367.841L417.346 375.829Z" fill="#F99D1C"/>
<path d="M417.346 375.829L370.907 375.372C370.907 375.372 369.305 374.429 372.502 373.812C375.7 373.194 415.856 367.843 415.856 367.843L417.346 375.829Z" fill="#F99D1C"/>
<path opacity="0.2" d="M417.346 375.829L370.907 375.372C370.907 375.372 369.305 374.429 372.502 373.812C375.7 373.194 415.856 367.843 415.856 367.843L417.346 375.829Z" fill="white"/>
<path d="M417.322 374.129L500.355 363.18C503.284 362.794 505.576 360.053 505.446 357.09L503.581 314.56C503.451 311.597 500.947 309.488 498.018 309.874L414.985 320.82C412.054 321.206 409.764 323.948 409.894 326.911L411.759 369.44C411.887 372.407 414.391 374.515 417.322 374.129Z" fill="#F99D1C"/>
<path opacity="0.4" d="M417.322 374.129L500.355 363.18C503.284 362.794 505.576 360.053 505.446 357.09L503.581 314.56C503.451 311.597 500.947 309.488 498.018 309.874L414.985 320.82C412.054 321.206 409.764 323.948 409.894 326.911L411.759 369.44C411.887 372.407 414.391 374.515 417.322 374.129Z" fill="black"/>
<path d="M419.74 373.627L502.773 362.678C505.702 362.292 507.994 359.551 507.865 356.588L505.999 314.059C505.87 311.095 503.366 308.986 500.437 309.372L417.404 320.32C414.473 320.706 412.182 323.447 412.312 326.411L414.177 368.94C414.305 371.903 416.809 374.013 419.74 373.627Z" fill="#F99D1C"/>
<path opacity="0.7" d="M419.74 373.627L502.773 362.678C505.702 362.292 507.994 359.551 507.865 356.588L505.999 314.059C505.87 311.095 503.366 308.986 500.437 309.372L417.404 320.32C414.473 320.706 412.182 323.447 412.312 326.411L414.177 368.94C414.305 371.903 416.809 374.013 419.74 373.627Z" fill="white"/>
<path d="M468.053 344.061C467.769 348.109 464.259 351.39 460.211 351.39C456.163 351.39 453.111 348.109 453.395 344.061C453.678 340.013 457.188 336.732 461.236 336.732C465.284 336.732 468.336 340.013 468.053 344.061Z" fill="#F99D1C"/>
<path d="M396.858 355.648L403.946 356.538L396.665 371.767C396.665 371.767 381.619 369.077 383.483 362.415L386.711 359.787C389.469 357.501 393.034 355.018 396.858 355.648Z" fill="#FF8B7B"/>
<path d="M411.503 364.911L405.878 372.797L396.664 371.751L403.946 356.538L411.503 364.911Z" fill="#FF8B7B"/>
<path d="M364.364 196.414C363.101 194.071 361.822 191.682 361.32 189.068C360.818 186.455 361.202 183.534 362.96 181.536C364.698 179.56 367.409 178.817 369.961 178.171C378.666 175.963 387.37 173.753 396.076 171.544C399.675 170.63 403.502 169.722 407.041 170.846C413.258 172.822 417.151 175.505 418.991 181.765C420.202 185.89 420.017 195.33 417.144 198.529C414.953 200.968 411.32 201.339 408.044 201.465C393.707 202.02 379.31 201.052 365.177 198.585L364.364 196.414Z" fill="#F99D1C"/>
<path d="M379.628 200.382C379.519 201.284 379.737 199.479 379.628 200.382C383.746 194.787 392.911 190.088 396.998 189.533C403.706 188.623 410.808 190.233 416.195 194.329C421.583 198.425 425.085 205.048 424.982 211.815C424.958 213.414 424.343 215.424 422.752 215.559C421.307 215.682 420.555 212.591 419.693 211.424C416.808 207.525 410.83 207.679 406.471 209.807C404.187 210.922 401.919 212.933 399.47 212.253C397.801 211.792 379.628 200.382 379.628 200.382Z" fill="#263238"/>
<path d="M358.56 284.553H380.28V290.251L371.245 294.954L359.175 291.374L358.56 284.553Z" fill="#263238"/>
<path d="M396.795 284.553H415.132V290.251L407.504 294.954L397.314 291.374L396.795 284.553Z" fill="#263238"/>
<path d="M483.695 249.532L483.609 249.566L483.524 249.532L483.609 249.515L483.695 249.532Z" fill="#F0F0F0"/>
</svg>
