<svg width="500" height="500" viewBox="0 0 500 500" fill="none" xmlns="http://www.w3.org/2000/svg">
<path d="M352.33 62.5674V120.066H360.401V134.014L374.349 120.066H450.889V62.5674H352.33Z" fill="#EBEBEB"/>
<path d="M420.242 91.3165C420.242 93.8955 422.333 95.9855 424.912 95.9855C427.491 95.9855 429.582 93.8955 429.582 91.3165C429.582 88.7375 427.491 86.6465 424.912 86.6465C422.333 86.6475 420.242 88.7385 420.242 91.3165Z" fill="white"/>
<path d="M396.938 91.3165C396.938 93.8955 399.029 95.9855 401.608 95.9855C404.187 95.9855 406.277 93.8955 406.277 91.3165C406.277 88.7375 404.187 86.6465 401.608 86.6465C399.029 86.6475 396.938 88.7385 396.938 91.3165Z" fill="white"/>
<path d="M373.635 91.3165C373.635 93.8955 375.726 95.9855 378.304 95.9855C380.883 95.9855 382.974 93.8955 382.974 91.3165C382.974 88.7375 380.883 86.6465 378.304 86.6465C375.726 86.6475 373.635 88.7385 373.635 91.3165Z" fill="white"/>
<path d="M186.992 244.729V325.168H175.701V344.68L156.189 325.168H49.11V244.729H186.992Z" fill="white"/>
<path d="M186.992 244.729C187.059 267.598 187.565 302.567 187.59 325.169L187.593 325.764L186.992 325.767L175.701 325.82L176.352 325.169L176.444 344.681L176.452 346.473L175.175 345.206L155.585 325.772C132.031 326.562 74.23 325.878 48.129 326.149L48.131 325.168L48.257 244.728L48.258 243.87L49.11 243.874C83.491 244.042 152.632 244.42 186.992 244.729ZM186.992 244.729C152.632 245.043 83.458 245.422 49.11 245.582L49.963 244.729L50.089 325.169L49.11 324.19C76.004 324.194 129.661 324.271 156.545 324.317L156.792 324.567L176.226 344.157L174.958 344.682L175.05 325.17L175.053 324.516L175.701 324.519L186.992 324.572L186.394 325.17C186.536 302.717 186.802 267.431 186.992 244.729Z" fill="#EBEBEB"/>
<path d="M91.9851 284.948C91.9851 288.556 89.0601 291.481 85.4521 291.481C81.8441 291.481 78.9191 288.556 78.9191 284.948C78.9191 281.34 81.8441 278.415 85.4521 278.415C89.0611 278.416 91.9851 281.341 91.9851 284.948Z" fill="#EBEBEB"/>
<path d="M124.586 284.948C124.586 288.556 121.661 291.481 118.053 291.481C114.445 291.481 111.52 288.556 111.52 284.948C111.52 281.34 114.445 278.415 118.053 278.415C121.661 278.416 124.586 281.341 124.586 284.948Z" fill="#EBEBEB"/>
<path d="M157.187 284.948C157.187 288.556 154.262 291.481 150.655 291.481C147.047 291.481 144.122 288.556 144.122 284.948C144.122 281.34 147.047 278.415 150.655 278.415C154.263 278.416 157.187 281.341 157.187 284.948Z" fill="#EBEBEB"/>
<path d="M67.352 92.5576L71.734 99.0876L79.298 101.238L74.442 107.424L74.735 115.282L67.352 112.575L59.968 115.282L60.261 107.424L55.405 101.238L62.969 99.0876L67.352 92.5576Z" fill="#EBEBEB"/>
<path d="M101.138 92.5576L105.52 99.0876L113.084 101.238L108.228 107.424L108.522 115.282L101.138 112.575L93.755 115.282L94.048 107.424L89.191 101.238L96.756 99.0876L101.138 92.5576Z" fill="#EBEBEB"/>
<path d="M134.924 92.5576L139.307 99.0876L146.871 101.238L142.015 107.424L142.308 115.282L134.924 112.575L127.541 115.282L127.834 107.424L122.978 101.238L130.543 99.0876L134.924 92.5576Z" fill="#EBEBEB"/>
<path d="M168.711 92.5576L173.094 99.0876L180.658 101.238L175.802 107.424L176.094 115.282L168.711 112.575L161.328 115.282L161.62 107.424L156.764 101.238L164.329 99.0876L168.711 92.5576Z" fill="#EBEBEB"/>
<path d="M202.498 92.5576L206.879 99.0876L214.445 101.238L209.589 107.424L209.881 115.282L202.498 112.575L195.114 115.282L195.407 107.424L190.551 101.238L198.115 99.0876L202.498 92.5576Z" stroke="#EBEBEB" stroke-miterlimit="10"/>
<path d="M202.498 112.575V92.5576L198.115 99.0876L190.551 101.238L195.407 107.424L195.114 115.282L202.498 112.575Z" fill="#EBEBEB"/>
<path fill-rule="evenodd" clip-rule="evenodd" d="M379.365 245.177C377.405 243.955 375.697 242.175 373.076 242.434C372.072 242.537 372.291 241.705 372.282 241.158C372.236 231.301 372.205 221.454 372.164 211.604C372.161 210.887 372.203 210.298 372.983 209.902C380.493 206.083 383.733 198.606 388.32 192.212C393.227 185.387 394.893 178.002 393.704 169.841C393.382 167.625 394.413 166.628 396.409 166.167C398.813 165.611 401.209 166.268 402.038 167.916C404.078 172.007 405.834 176.26 406.378 180.813C406.824 184.548 405.497 188.191 405.042 191.888C404.708 194.594 404.087 197.27 403.583 200.011C404.244 200.489 405.011 200.237 405.719 200.245C414.041 200.23 422.363 200.199 430.687 200.17C434.195 200.158 435.915 201.159 436.41 203.486C437.019 206.384 435.495 209.337 432.81 210.714C432.189 211.03 431.064 210.75 430.99 211.725C430.92 212.718 432.077 212.612 432.653 213.011C435.672 215.068 435.128 219.331 431.65 221.808C430.814 222.399 429.187 222.132 429.15 223.363C429.134 224.343 430.656 224.327 431.346 225.016C433.786 227.41 432.593 231.902 428.965 233.726C428.499 233.958 427.922 234.003 427.505 234.295C427.093 234.575 426.688 234.886 427.491 235.452C431.104 238.016 431.039 241.6 427.419 244.226C427.064 244.483 426.701 244.748 426.337 245.008C425.021 245.98 423.464 245.972 421.958 245.981C408.907 246.051 395.856 246.085 382.806 246.121C381.581 246.125 380.344 246.091 379.365 245.177Z" fill="#EBEBEB"/>
<path fill-rule="evenodd" clip-rule="evenodd" d="M342.198 227.926C342.177 221.669 342.185 215.404 342.113 209.149C342.1 207.875 342.228 207.25 343.788 207.262C351.426 207.33 359.053 207.303 366.687 207.192C368.185 207.172 368.419 207.686 368.414 209.017C368.414 221.613 368.445 234.209 368.549 246.806C368.564 248.408 368.128 248.863 366.52 248.842C359.114 248.783 351.708 248.789 344.309 248.931C342.466 248.967 342.21 248.321 342.224 246.708C342.297 240.448 342.218 234.19 342.198 227.926Z" fill="#EBEBEB"/>
<path fill-rule="evenodd" clip-rule="evenodd" d="M234.808 328.845C236.293 329.777 237.585 331.133 239.575 330.943C240.337 330.867 240.169 331.499 240.174 331.913C240.184 339.396 240.183 346.87 240.189 354.346C240.189 354.89 240.156 355.337 239.563 355.636C233.852 358.516 231.375 364.183 227.876 369.025C224.134 374.193 222.85 379.795 223.733 385.992C223.972 387.675 223.187 388.429 221.67 388.774C219.844 389.19 218.027 388.685 217.402 387.432C215.864 384.321 214.542 381.088 214.14 377.632C213.811 374.795 214.827 372.034 215.182 369.228C215.442 367.174 215.921 365.145 216.31 363.066C215.81 362.701 215.227 362.891 214.689 362.883C208.372 362.873 202.055 362.876 195.737 362.876C193.074 362.876 191.771 362.112 191.402 360.345C190.947 358.143 192.111 355.906 194.153 354.868C194.625 354.63 195.479 354.845 195.537 354.106C195.592 353.352 194.714 353.43 194.278 353.125C191.991 351.556 192.415 348.321 195.062 346.45C195.698 346.004 196.933 346.21 196.963 345.276C196.978 344.532 195.822 344.54 195.3 344.016C193.454 342.192 194.371 338.786 197.129 337.41C197.483 337.235 197.922 337.202 198.239 336.982C198.553 336.77 198.861 336.535 198.253 336.104C195.517 334.149 195.575 331.428 198.33 329.444C198.6 329.249 198.876 329.05 199.153 328.853C200.154 328.119 201.336 328.129 202.479 328.126C212.386 328.106 222.292 328.113 232.198 328.119C233.128 328.12 234.067 328.149 234.808 328.845Z" fill="#EBEBEB"/>
<path fill-rule="evenodd" clip-rule="evenodd" d="M262.977 342.034C262.977 346.783 262.955 351.539 262.994 356.287C263.001 357.254 262.902 357.728 261.718 357.715C255.92 357.644 250.131 357.645 244.336 357.71C243.199 357.721 243.023 357.331 243.029 356.321C243.061 346.759 243.069 337.199 243.022 327.637C243.015 326.421 243.346 326.077 244.567 326.097C250.189 326.16 255.81 326.175 261.427 326.086C262.826 326.063 263.019 326.554 263.004 327.779C262.933 332.529 262.977 337.279 262.977 342.034Z" fill="#EBEBEB"/>
<path d="M43.604 452.996C175.834 452.384 324.166 452.379 456.396 452.996C324.166 453.613 175.833 453.608 43.604 452.996Z" fill="#772710"/>
<path d="M316.233 95.7178L321.308 103.045L329.845 105.607L324.445 112.698L324.645 121.608L316.233 118.664L307.821 121.608L308.022 112.698L302.622 105.607L311.158 103.045L316.233 95.7178Z" fill="#FFC727"/>
<path d="M141.147 220.474L146.222 227.801L154.758 230.363L149.358 237.454L149.559 246.365L141.147 243.42L132.734 246.365L132.935 237.454L127.535 230.363L136.072 227.801L141.147 220.474Z" fill="#FFC727"/>
<path d="M202.951 301.058L205.488 304.721L209.756 306.003L207.056 309.548L207.157 314.003L202.951 312.531L198.744 314.003L198.845 309.548L196.145 306.003L200.413 304.721L202.951 301.058Z" fill="#FFC727"/>
<path d="M365.659 210.224L368.197 213.888L372.465 215.169L369.765 218.715L369.865 223.17L365.659 221.698L361.453 223.17L361.553 218.715L358.853 215.169L363.122 213.888L365.659 210.224Z" fill="#FFC727"/>
<path d="M286.984 80.4502L289.521 84.1142L293.789 85.3952L291.089 88.9402L291.19 93.3962L286.984 91.9232L282.777 93.3962L282.878 88.9402L280.178 85.3952L284.446 84.1142L286.984 80.4502Z" fill="#FFC727"/>
<path d="M80.436 356.634C80.436 356.634 58.33 395.728 58.316 395.756C54.765 403.64 51.792 410.615 50.591 414.367C50.582 414.386 50.572 414.405 50.573 414.428C50.118 415.843 49.92 416.787 50.058 417.125C50.068 417.153 50.068 417.176 50.082 417.196C51.712 419.842 113.89 450.06 116.413 450.383C118.941 450.72 120.058 443.541 118.58 440.443C117.084 437.336 98.462 415.125 98.462 415.125L120.169 375.875L80.436 356.634Z" fill="#EB9481"/>
<path d="M115.418 450.157C112.899 449.829 51.711 419.839 50.085 417.199C50.069 417.173 50.063 417.15 50.058 417.127C49.917 416.788 50.124 415.839 50.569 414.431C50.576 414.4 50.578 414.39 50.594 414.371C51.796 410.619 54.77 403.64 58.314 395.752C58.316 395.742 62.039 388.919 63.523 386.548L103.069 406.989L98.466 415.124C98.466 415.124 116.099 437.111 117.586 440.211C119.072 443.313 117.947 450.487 115.418 450.157Z" fill="#EBEBEB"/>
<path d="M116.554 449.312C114.014 448.927 52.0641 417.012 50.4801 414.299C49.8591 413.278 53.9841 403.98 59.2891 392.889C59.3461 392.774 59.4021 392.658 59.4581 392.543L99.6561 412.686L99.2911 413.356C99.2911 413.356 117.54 436.178 118.969 439.346C120.383 442.497 119.089 449.708 116.554 449.312Z" fill="#FFC727"/>
<path d="M117.09 446.549C106.779 440.913 64.6601 419.153 54.0401 414.365C53.9531 414.326 53.9241 414.383 54.0061 414.431C64.1041 420.241 106.398 441.658 117.003 446.721C117.226 446.827 117.308 446.668 117.09 446.549Z" fill="white"/>
<path d="M102.587 415.207C98.873 412.323 93.522 410.365 88.873 411.675C88.693 411.725 88.768 411.981 88.922 412.007C93.635 412.818 97.844 413.948 102.303 415.717C102.618 415.842 102.854 415.414 102.587 415.207Z" fill="#772710"/>
<path d="M104.633 418.523C100.919 415.639 95.568 413.681 90.919 414.991C90.739 415.041 90.814 415.297 90.968 415.323C95.681 416.134 99.889 417.264 104.349 419.033C104.663 419.158 104.899 418.729 104.633 418.523Z" fill="#772710"/>
<path d="M106.678 421.839C102.964 418.955 97.6131 416.996 92.9641 418.307C92.7841 418.358 92.8591 418.613 93.0131 418.639C97.7261 419.45 101.934 420.58 106.394 422.349C106.709 422.474 106.944 422.045 106.678 421.839Z" fill="#772710"/>
<path d="M66.113 404.75C62.779 400.191 55.687 405.365 59.027 409.932C62.361 414.492 69.453 409.318 66.113 404.75Z" fill="white"/>
<path opacity="0.1" d="M102.017 416.779L106.469 444.596C112.077 447.385 115.951 449.22 116.549 449.312C119.084 449.708 120.382 442.497 118.973 439.343C117.888 436.95 107.158 423.27 102.017 416.779Z" fill="black"/>
<path d="M118.644 447.578C119.533 448.577 117.375 452.177 116.421 452.063C115.467 451.949 48.074 416.854 47.058 416.004C46.042 415.155 48.587 411.254 50.029 411.729C51.47 412.205 118.644 447.578 118.644 447.578Z" fill="#772710"/>
<path d="M63.428 382.895L107.985 406.686C107.985 406.686 164.227 326.535 165.352 305.475C166.906 276.391 142.073 184.06 142.073 184.06L102.464 183.791C102.464 183.791 118.566 278.747 117.257 294.946C116.572 303.422 63.428 382.895 63.428 382.895Z" fill="#772710"/>
<path d="M111.874 397.476C109.58 395.823 88.459 383.585 72.377 375.769C72.269 375.717 72.197 375.868 72.294 375.932C77.172 379.153 108.696 396.423 111.756 397.648C111.856 397.69 111.978 397.551 111.874 397.476Z" fill="#772710"/>
<path d="M122.756 274.658C120.916 260.764 118.892 246.889 116.583 233.064C114.264 219.177 111.819 205.297 108.915 191.52C108.56 189.838 108.189 188.159 107.822 186.479C107.765 186.22 107.37 186.295 107.417 186.557C109.858 200.227 112.368 213.885 114.614 227.589C116.859 241.292 118.954 255.02 120.835 268.778C121.3 272.185 121.753 275.593 122.194 279.003C122.649 282.524 123.164 286.058 123.205 289.614C123.244 293.03 122.709 296.355 121.507 299.556C120.327 302.699 118.647 305.616 116.943 308.498C109.778 320.621 77.684 373.601 76.851 375.141C76.796 375.242 76.936 375.347 77.002 375.246C84.703 363.295 108.594 325.126 115.862 312.807C119.14 307.251 122.897 301.623 123.967 295.138C125.079 288.396 123.642 281.347 122.756 274.658Z" fill="#772710"/>
<path d="M111.343 382.895C111.343 382.895 110.897 428.086 110.896 428.117C111.135 436.76 111.499 444.334 112.053 448.235C112.053 448.256 112.053 448.277 112.063 448.298C112.27 449.77 112.504 450.706 112.775 450.95C112.796 450.971 112.806 450.992 112.827 451.003C115.448 452.674 184.579 452.779 186.99 451.97C189.412 451.172 187.289 444.224 184.61 442.079C181.909 439.934 155.47 428.057 155.47 428.057L155.489 382.9L111.343 382.895Z" fill="#EB9481"/>
<path d="M110.988 418.84C110.988 418.84 110.897 428.086 110.896 428.118C111.135 436.761 111.499 444.335 112.053 448.236C112.053 448.257 112.053 448.278 112.063 448.299C112.355 449.751 112.609 450.708 112.775 450.951C112.796 450.972 112.806 450.993 112.827 451.004C115.448 452.675 184.579 452.78 186.99 451.971C189.412 451.173 187.289 444.225 184.61 442.08C181.909 439.935 155.47 428.058 155.47 428.058L155.474 418.638L110.988 418.84Z" fill="#EBEBEB"/>
<path d="M187.024 451.885C184.576 452.663 114.899 451.437 112.278 449.704C111.27 449.063 110.857 438.9 110.711 426.606C110.711 426.477 110.711 426.349 110.71 426.221L155.671 426.51L155.64 427.273C155.64 427.273 182.1 439.671 184.784 441.881C187.445 444.08 189.473 451.119 187.024 451.885Z" fill="#FFC727"/>
<path d="M186.283 449.17C174.543 448.675 127.143 447.786 115.5 448.189C115.405 448.192 115.404 448.257 115.499 448.263C127.125 449.008 174.53 449.512 186.28 449.362C186.528 449.359 186.531 449.181 186.283 449.17Z" fill="white"/>
<path d="M159.414 427.472C154.807 426.528 149.142 427.138 145.552 430.369C145.413 430.494 145.593 430.69 145.743 430.646C150.328 429.289 154.603 428.441 159.385 428.056C159.723 428.029 159.745 427.54 159.414 427.472Z" fill="#772710"/>
<path d="M162.715 429.543C158.108 428.599 152.443 429.209 148.853 432.44C148.714 432.565 148.894 432.761 149.044 432.716C153.63 431.359 157.904 430.511 162.686 430.126C163.024 430.099 163.045 429.61 162.715 429.543Z" fill="#772710"/>
<path d="M166.016 431.611C161.409 430.667 155.743 431.277 152.154 434.508C152.015 434.633 152.195 434.829 152.345 434.784C156.93 433.427 161.205 432.579 165.987 432.194C166.324 432.167 166.346 431.679 166.016 431.611Z" fill="#772710"/>
<path d="M188.131 449.405C189.37 449.908 189.027 454.091 188.121 454.411C187.215 454.731 111.25 453.059 109.963 452.747C108.676 452.435 109.233 447.81 110.737 447.599C112.24 447.388 188.131 449.405 188.131 449.405Z" fill="#772710"/>
<path d="M122.076 434.225C117.069 431.61 112.997 439.387 118.013 442.006C123.02 444.621 127.092 436.844 122.076 434.225Z" fill="white"/>
<path d="M141.574 183.971C141.574 183.971 141.573 183.981 141.559 184.012C141.296 184.829 127.06 223.837 125.72 224.459C124.202 225.158 157.167 280.531 159.117 306.255C160.364 322.708 157.919 415.816 157.919 415.816H109.725C109.725 415.816 112.041 332.108 113.143 305.585C113.57 295.3 80.053 244.093 79.642 212.206C79.512 202.155 86.734 183.791 86.734 183.791L141.574 183.971Z" fill="#772710"/>
<path d="M113.419 304.867C113.419 304.441 113.084 304.305 113.051 304.74C111.962 319.094 111.709 333.37 111.023 347.748C110.339 362.083 110.728 365.54 110.089 379.877C109.727 387.991 110.07 396.125 109.882 404.245C109.879 404.371 110.068 404.387 110.081 404.26C111.581 389.952 113.409 312.995 113.419 304.867Z" fill="#772710"/>
<path d="M159.117 306.822C159.01 303.286 158.778 299.739 158.143 296.255C157.522 292.847 156.442 289.548 155.167 286.333C152.504 279.619 149.355 273.072 146.347 266.507C143.3 259.857 140.191 253.236 136.977 246.665C135.17 242.971 133.353 239.283 131.523 235.601C129.671 231.876 127.676 228.218 125.737 224.538C125.66 224.392 125.436 224.5 125.506 224.65C128.595 231.282 131.643 237.932 134.732 244.565C137.82 251.197 140.854 257.856 143.888 264.512C146.873 271.059 149.864 277.612 152.677 284.236C154.025 287.411 155.284 290.63 156.115 293.984C156.966 297.422 157.327 300.952 157.527 304.482C157.993 312.714 158.222 320.971 159.03 329.18C159.04 329.283 159.208 329.272 159.211 329.17C159.458 321.737 159.342 314.255 159.117 306.822Z" fill="#772710"/>
<path d="M154.429 406.291C151.625 405.926 130.274 405.19 112.409 405.952C112.289 405.957 112.298 406.125 112.413 406.135C118.236 406.653 151.131 406.874 154.405 406.499C154.514 406.486 154.556 406.307 154.429 406.291Z" fill="#772710"/>
<path d="M132.382 222.293C127.226 223.497 122.17 225.438 117.312 227.518C117.122 227.599 117.212 227.891 117.416 227.828C122.475 226.244 127.619 224.759 132.584 222.898C132.974 222.752 132.778 222.201 132.382 222.293Z" fill="#772710"/>
<path d="M137.242 189.256C137.246 189.087 136.956 189.02 136.938 189.201C136.388 194.957 135.502 199.98 134.466 205.307C133.985 207.78 130.564 221.366 126.339 219.917C125.632 219.675 125.335 218.923 125.333 217.819C125.331 216.492 125.99 214.932 126.341 213.648C127.117 210.81 127.8 207.953 128.346 205.062C129.367 199.665 129.948 194.223 129.842 188.728C129.838 188.548 129.58 188.535 129.561 188.715C128.795 196.252 127.827 203.755 125.935 211.104C125.026 214.636 122.666 219.852 126.361 220.788C130.126 221.742 133.524 212.948 134.244 210.522C136.256 203.749 137.072 196.299 137.242 189.256Z" fill="#772710"/>
<path d="M126.417 220.299C125.931 221.185 125.518 222.117 125.151 223.058C124.866 223.789 124.5 224.573 124.506 225.367C124.507 225.521 124.707 225.556 124.799 225.462C125.372 224.87 125.677 224.012 126.039 223.278C126.459 222.428 126.897 221.585 127.292 220.723C127.554 220.151 126.717 219.752 126.417 220.299Z" fill="#772710"/>
<path d="M118.354 319.03C118.601 312.18 119.362 304.994 117.115 298.382C116.001 295.103 114.308 292.067 112.719 289.003C111.048 285.782 109.41 282.543 107.8 279.291C101.361 266.285 95.294 253.073 89.874 239.609C87.264 233.125 84.93 226.47 83.997 219.511C83.021 212.232 83.716 204.784 85.343 197.65C85.749 195.867 86.182 194.092 86.669 192.329C86.705 192.2 86.512 192.127 86.471 192.257C84.302 199.017 82.809 206.042 82.712 213.164C82.619 220.025 84.122 226.687 86.339 233.145C88.648 239.872 91.543 246.412 94.391 252.923C97.328 259.635 100.376 266.299 103.546 272.905C106.7 279.477 110.063 285.939 113.39 292.424C115.001 295.562 116.468 298.775 117.09 302.272C117.723 305.831 117.622 309.46 117.487 313.056C116.919 328.214 115.612 378.658 115.42 393.777C115.396 395.696 115.372 397.616 115.352 399.535C115.35 399.704 115.606 399.728 115.617 399.556C116.577 384.472 117.809 334.142 118.354 319.03Z" fill="#772710"/>
<path d="M107.543 193.788C107.536 193.68 107.375 193.702 107.362 193.798C106.794 197.969 106.469 202.296 104.455 206.08C102.607 209.553 99.383 211.791 95.87 213.358C93.839 214.264 91.726 214.978 89.614 215.665C89.462 215.714 89.496 215.952 89.663 215.917C93.649 215.089 97.701 214.16 101.166 211.922C104.876 209.525 106.783 205.69 107.393 201.396C107.751 198.872 107.712 196.323 107.543 193.788Z" fill="#772710"/>
<path d="M136 127.733C144.185 143.373 169.916 165.974 178.122 167.949C188.236 170.383 210.695 153.438 219.406 143.456C223.005 139.332 208.001 121.331 201.537 122.174C197.982 122.637 179.773 140.93 176.763 139.672C169.508 136.641 159.434 130.449 145.042 122.122C137.207 117.589 130.91 118.007 136 127.733Z" fill="#EB9481"/>
<path d="M193.783 128.203C193.783 128.203 197.862 120.926 200.359 118.125C202.856 115.324 216.004 108.308 217.68 111.062C219.845 114.617 213.052 120.162 209.371 122.444C209.371 122.444 214.386 130.664 210.372 135.698C206.358 140.732 193.783 128.203 193.783 128.203Z" fill="#EB9481"/>
<path d="M216.651 146.141C219.429 144.554 231.517 136.158 234.359 133.068C237.2 129.979 244.733 120.497 242.588 118.08C240.443 115.664 238.016 118.264 238.016 118.264C238.016 118.264 240.563 113.756 238.182 111.521C235.801 109.286 232.159 113.454 232.159 113.454C232.159 113.454 234.437 108.634 231.903 106.574C229.369 104.514 226.408 109.319 226.408 109.319C226.408 109.319 228.696 105.009 225.894 104.191C222.524 103.206 219.203 111.628 215.811 114.803C215.041 115.524 199.155 128.305 199.155 128.305L216.651 146.141Z" fill="#EB9481"/>
<path d="M226.669 108.912C224.213 115.1 222.067 117.382 216.771 121.242C216.667 121.317 216.756 121.488 216.872 121.419C222.403 118.111 225.506 115.637 226.975 109.015C227.047 108.692 226.786 108.618 226.669 108.912Z" fill="#772710"/>
<path d="M232.344 112.959C229.232 119.163 226.927 121.659 221.677 126.11C221.603 126.173 221.702 126.305 221.782 126.248C227.297 122.312 230.337 119.773 232.633 113.165C232.737 112.866 232.487 112.675 232.344 112.959Z" fill="#772710"/>
<path d="M237.741 118.482C234.294 124.271 231.885 127.116 226.233 130.783C226.1 130.87 226.213 131.072 226.355 130.998C232.481 127.82 235.514 124.291 237.905 118.605C238.069 118.218 237.958 118.118 237.741 118.482Z" fill="#772710"/>
<path d="M217.955 112.235C217.59 116.901 212.564 119.584 209.158 122.064C208.899 122.252 208.96 122.528 209.143 122.697C211.015 126.283 212.611 131.885 210.634 135.669C210.576 135.78 210.725 135.877 210.799 135.774C213.47 132.003 212.351 126.371 210.049 122.575C213.582 120.086 218.504 117.175 218 112.237C217.997 112.208 217.957 112.205 217.955 112.235Z" fill="#772710"/>
<path d="M164.206 131.299L153.992 154.909C153.992 154.909 136.204 132.91 132.799 124.964C128.967 116.021 134.377 116.017 142.993 119.379C151.608 122.741 164.206 131.299 164.206 131.299Z" fill="#D75B08"/>
<path d="M157.75 129.431C157.43 129.411 157.15 129.341 156.9 129.191C156.4 128.891 156.1 128.361 156.11 127.781C156.1 127.031 155.61 126.311 154.92 126.051C154.59 125.911 154.19 125.911 153.88 125.951C153.56 125.991 153.23 126.021 152.9 126.081C153.23 126.131 153.56 126.161 153.88 126.201C154.22 126.221 154.49 126.281 154.75 126.421C155.26 126.701 155.59 127.231 155.59 127.791C155.57 128.531 156.04 129.271 156.72 129.551C157.04 129.711 157.43 129.731 157.75 129.691C158.08 129.641 158.41 129.621 158.73 129.561C158.41 129.501 158.08 129.471 157.75 129.431ZM132.72 123.991C132.68 123.661 132.65 123.341 132.59 123.011C132.53 123.341 132.51 123.661 132.47 123.991C132.47 124.031 132.46 124.071 132.45 124.111C132.53 124.311 132.61 124.511 132.7 124.731C132.76 124.481 132.75 124.211 132.72 123.991ZM148.91 138.291C148.66 138.511 148.42 138.651 148.13 138.721C147.57 138.861 146.98 138.701 146.58 138.291C146.04 137.761 145.18 137.601 144.52 137.901C144.18 138.041 143.9 138.321 143.71 138.571C143.51 138.831 143.3 139.071 143.11 139.351C143.38 139.161 143.63 138.951 143.89 138.751C144.14 138.521 144.37 138.371 144.66 138.281C145.21 138.121 145.82 138.271 146.22 138.661C146.73 139.191 147.58 139.391 148.26 139.111C148.6 138.991 148.89 138.731 149.09 138.471C149.29 138.211 149.5 137.961 149.69 137.691C149.42 137.881 149.17 138.091 148.91 138.291Z" fill="white"/>
<path d="M159.577 130.284C157.869 133.114 153.944 142.324 153.28 143.84C152.93 144.639 151.673 147.889 151.318 148.683C151.272 148.785 151.438 148.836 151.483 148.735C152.161 147.219 152.999 145.77 153.691 144.256C154.399 142.707 158.715 133.518 159.694 130.338C159.715 130.269 159.616 130.22 159.577 130.284Z" fill="#772710"/>
<path opacity="0.1" d="M132.802 124.959C136.201 132.907 153.992 154.905 153.992 154.905L159.253 142.739L134.532 117.313C131.522 117.468 130.519 119.625 132.802 124.959Z" fill="black"/>
<path d="M80.214 194.226C80.215 194.22 148.34 207.42 148.339 207.426C148.078 208.761 151.258 160.411 146.282 126.87C144.81 116.948 133.675 112.262 123.271 121.027C101.355 139.488 80.045 195.092 80.214 194.226Z" fill="#D75B08"/>
<path d="M94.33 163.151C94.22 163.371 94.11 163.581 94.01 163.791C94.08 163.721 94.15 163.641 94.21 163.571C94.4 163.311 94.6201 163.061 94.8001 162.791C94.6401 162.901 94.48 163.031 94.33 163.151ZM147.69 194.121C147.16 193.591 146.3 193.441 145.63 193.741C145.29 193.871 145.01 194.151 144.82 194.401C144.62 194.661 144.41 194.911 144.22 195.181C144.49 194.991 144.74 194.781 145 194.581C145.26 194.361 145.48 194.201 145.77 194.121C146.32 193.961 146.94 194.101 147.33 194.501C147.7 194.881 148.25 195.091 148.78 195.081C148.78 194.921 148.79 194.761 148.79 194.601C148.38 194.591 147.99 194.421 147.69 194.121ZM107.74 197.741C107.49 197.961 107.25 198.101 106.96 198.181C106.4 198.321 105.81 198.151 105.41 197.741C104.87 197.211 104.01 197.061 103.34 197.361C103.01 197.491 102.73 197.771 102.54 198.021C102.42 198.171 102.3 198.321 102.18 198.481L102.32 198.501C102.33 198.511 102.33 198.511 102.33 198.501C102.46 198.401 102.59 198.301 102.72 198.201C102.97 197.981 103.2 197.821 103.48 197.741C104.04 197.581 104.65 197.721 105.05 198.121C105.56 198.641 106.41 198.851 107.09 198.561C107.43 198.441 107.72 198.181 107.92 197.921C108.12 197.661 108.33 197.421 108.52 197.141C108.25 197.331 108 197.541 107.74 197.741ZM125.6 162.561C125.35 162.781 125.11 162.921 124.83 162.991C124.26 163.141 123.67 162.971 123.27 162.561C122.73 162.031 121.87 161.871 121.21 162.181C120.87 162.311 120.59 162.591 120.4 162.841C120.2 163.101 119.99 163.351 119.8 163.621C120.07 163.431 120.32 163.221 120.58 163.021C120.83 162.791 121.06 162.641 121.35 162.561C121.9 162.391 122.52 162.541 122.91 162.931C123.42 163.461 124.27 163.661 124.95 163.381C125.29 163.261 125.59 163.001 125.78 162.741C125.98 162.481 126.19 162.231 126.38 161.961C126.11 162.151 125.86 162.361 125.6 162.561ZM147.67 138.761C147.26 138.751 146.87 138.591 146.58 138.291C146.04 137.761 145.18 137.601 144.52 137.901C144.18 138.041 143.9 138.321 143.71 138.571C143.51 138.831 143.3 139.071 143.11 139.351C143.38 139.161 143.63 138.951 143.89 138.751C144.14 138.521 144.37 138.371 144.66 138.281C145.21 138.121 145.82 138.271 146.22 138.661C146.6 139.051 147.17 139.271 147.71 139.231C147.71 139.071 147.69 138.921 147.67 138.761ZM148.82 157.721C148.19 157.821 147.6 158.251 147.36 158.831C147.21 159.161 147.19 159.551 147.23 159.871C147.27 160.191 147.3 160.521 147.36 160.841C147.42 160.521 147.44 160.191 147.48 159.871C147.51 159.541 147.58 159.261 147.73 159.011C147.97 158.601 148.38 158.321 148.84 158.241C148.83 158.071 148.82 157.901 148.82 157.721ZM108.84 150.171C108.8 149.841 108.77 149.511 108.71 149.191C108.65 149.511 108.63 149.841 108.58 150.171C108.56 150.501 108.51 150.771 108.37 151.031C108.09 151.541 107.55 151.871 107 151.871C106.26 151.861 105.51 152.321 105.23 153.001C105.08 153.331 105.06 153.721 105.1 154.041C105.14 154.371 105.17 154.691 105.23 155.021C105.29 154.691 105.31 154.371 105.36 154.041C105.38 153.711 105.45 153.441 105.6 153.181C105.9 152.691 106.43 152.381 107.01 152.391C107.76 152.391 108.48 151.891 108.74 151.201C108.88 150.871 108.88 150.481 108.84 150.171ZM93.38 183.321C93.34 183.001 93.31 182.671 93.25 182.341C93.19 182.671 93.17 183.001 93.13 183.321C93.11 183.661 93.0501 183.931 92.9101 184.191C92.6301 184.701 92.1 185.031 91.54 185.031C90.8 185.011 90.06 185.481 89.78 186.161C89.62 186.481 89.6 186.871 89.64 187.201C89.69 187.521 89.71 187.851 89.77 188.171C89.83 187.851 89.85 187.521 89.9 187.201C89.92 186.871 89.99 186.591 90.14 186.341C90.44 185.841 90.9701 185.541 91.5501 185.551C92.3001 185.541 93.02 185.051 93.28 184.361C93.42 184.031 93.42 183.631 93.38 183.321ZM124.96 181.271C124.92 180.951 124.89 180.621 124.83 180.301C124.77 180.621 124.75 180.951 124.7 181.271C124.68 181.611 124.63 181.881 124.49 182.141C124.21 182.651 123.67 182.981 123.12 182.981C122.38 182.971 121.64 183.431 121.35 184.111C121.2 184.431 121.18 184.821 121.22 185.151C121.26 185.471 121.29 185.801 121.35 186.121C121.41 185.801 121.43 185.471 121.48 185.151C121.5 184.821 121.57 184.541 121.72 184.291C122.02 183.791 122.55 183.491 123.13 183.501C123.88 183.491 124.6 183.001 124.86 182.311C125 181.981 125 181.581 124.96 181.271ZM132.72 123.991C132.68 123.661 132.65 123.341 132.59 123.011C132.53 123.341 132.51 123.661 132.47 123.991C132.44 124.331 132.39 124.601 132.25 124.861C131.97 125.361 131.43 125.701 130.88 125.691C130.14 125.681 129.4 126.141 129.11 126.821C128.96 127.151 128.94 127.541 128.98 127.861C129.02 128.191 129.05 128.511 129.11 128.841C129.17 128.511 129.19 128.191 129.24 127.861C129.26 127.531 129.33 127.261 129.48 127.011C129.78 126.511 130.31 126.201 130.89 126.221C131.64 126.211 132.36 125.711 132.62 125.031C132.76 124.701 132.76 124.301 132.72 123.991ZM113.28 135.801C113.03 136.031 112.8 136.181 112.52 136.261C111.96 136.431 111.35 136.281 110.96 135.891C110.84 135.761 110.69 135.651 110.53 135.571C110.44 135.711 110.34 135.851 110.23 135.991C110.36 136.061 110.48 136.151 110.59 136.261C111.13 136.791 111.99 136.951 112.66 136.641C112.99 136.511 113.27 136.231 113.46 135.981C113.66 135.721 113.88 135.471 114.06 135.201C113.79 135.391 113.54 135.601 113.28 135.801ZM142.91 174.631C142.58 174.611 142.31 174.541 142.05 174.391C141.56 174.091 141.25 173.551 141.26 172.981C141.26 172.231 140.76 171.511 140.07 171.251C139.74 171.111 139.35 171.111 139.04 171.151C138.71 171.191 138.38 171.221 138.06 171.271C138.38 171.331 138.71 171.361 139.04 171.401C139.37 171.421 139.64 171.481 139.9 171.621C140.41 171.891 140.74 172.431 140.74 172.991C140.73 173.721 141.19 174.471 141.87 174.751C142.2 174.911 142.59 174.931 142.91 174.891C143.24 174.841 143.56 174.821 143.89 174.761C143.56 174.701 143.24 174.671 142.91 174.631ZM125.12 202.201C125.12 201.441 124.62 200.731 123.93 200.471C123.6 200.321 123.21 200.321 122.9 200.371C122.57 200.411 122.24 200.431 121.92 200.491C122.24 200.551 122.57 200.581 122.9 200.621C123.23 200.641 123.5 200.691 123.76 200.841C124.27 201.111 124.6 201.651 124.6 202.211C124.6 202.421 124.63 202.641 124.71 202.841L125.31 202.961C125.18 202.731 125.12 202.471 125.12 202.201ZM107.23 176.521C106.9 176.501 106.63 176.431 106.37 176.281C105.87 175.981 105.57 175.451 105.58 174.871C105.58 174.121 105.08 173.401 104.39 173.141C104.06 173.001 103.66 173.001 103.35 173.041C103.03 173.081 102.7 173.111 102.38 173.171C102.7 173.221 103.03 173.251 103.35 173.291C103.69 173.311 103.96 173.371 104.22 173.511C104.73 173.791 105.06 174.321 105.06 174.881C105.05 175.621 105.51 176.361 106.19 176.641C106.52 176.801 106.91 176.821 107.23 176.781C107.55 176.731 107.88 176.711 108.2 176.651C107.88 176.591 107.55 176.561 107.23 176.521ZM131.25 147.761C130.93 147.741 130.65 147.671 130.4 147.511C129.9 147.221 129.6 146.681 129.61 146.111C129.6 145.351 129.1 144.641 128.42 144.381C128.09 144.231 127.69 144.231 127.38 144.271C127.05 144.321 126.73 144.341 126.4 144.401C126.73 144.461 127.05 144.491 127.38 144.531C127.72 144.551 127.99 144.601 128.25 144.751C128.75 145.021 129.09 145.561 129.09 146.121C129.07 146.851 129.54 147.601 130.21 147.881C130.54 148.031 130.93 148.061 131.25 148.011C131.58 147.971 131.91 147.941 132.23 147.881C131.91 147.831 131.58 147.801 131.25 147.761Z" fill="white"/>
<path d="M141.746 129.023C138.428 129.746 131.612 125.732 129.339 120.969C129.185 120.642 129.857 117.328 130.483 113.264C130.853 110.796 131.207 108.039 131.349 105.5C131.375 104.979 147.057 110.256 147.057 110.256C147.057 110.256 145.195 115.491 144.976 119.919C144.962 120.289 144.979 120.635 145.027 120.967C145.03 121.015 145.04 121.074 145.041 121.141C145.253 123.138 145.296 128.249 141.746 129.023Z" fill="#EB9481"/>
<path d="M145.032 120.966C145.031 121.017 145.04 121.079 145.038 121.14C144.537 121.18 143.995 121.178 143.404 121.134C134.043 120.405 132.223 108.535 131.912 105.536C134.719 106.099 147.058 110.255 147.058 110.255C147.058 110.255 145.195 115.495 144.974 119.923C144.966 120.29 144.978 120.638 145.032 120.966Z" fill="#772710"/>
<path d="M129.495 85.5691C127.635 91.1812 130.229 107.584 134.163 111.322C139.866 116.74 149.398 117.473 154.05 110.574C158.56 103.886 154.801 82.5691 150.389 79.1521C143.89 74.1201 132.244 77.2792 129.495 85.5691Z" fill="#EB9481"/>
<path d="M145.194 95.726C145.179 95.685 145.115 95.792 145.124 95.837C145.329 96.937 145.377 98.232 144.433 98.752C144.404 98.768 144.415 98.823 144.452 98.813C145.646 98.453 145.563 96.735 145.194 95.726Z" fill="#772710"/>
<path d="M144.029 94.7224C142.23 94.8594 142.637 98.4484 144.304 98.3204C145.944 98.1954 145.537 94.6074 144.029 94.7224Z" fill="#772710"/>
<path d="M151.648 95.1782C151.652 95.1342 151.741 95.2202 151.745 95.2662C151.836 96.3812 152.128 97.6432 153.175 97.8992C153.208 97.9072 153.211 97.9632 153.173 97.9622C151.926 97.9282 151.555 96.2482 151.648 95.1782Z" fill="#772710"/>
<path d="M152.509 93.9044C154.281 93.5664 154.828 97.1354 153.186 97.4484C151.57 97.7574 151.023 94.1884 152.509 93.9044Z" fill="#772710"/>
<path d="M142.427 93.2426C142.902 93.0646 143.31 92.8206 143.761 92.5956C144.27 92.3416 144.702 92.1916 144.996 91.6766C145.153 91.3996 145.024 90.9506 144.77 90.7726C144.178 90.3566 143.477 90.5126 142.852 90.7936C142.173 91.0976 141.728 91.5066 141.395 92.1696C141.071 92.8126 141.801 93.4786 142.427 93.2426Z" fill="#772710"/>
<path d="M153.691 91.9406C153.184 91.9156 152.721 91.8086 152.223 91.7326C151.66 91.6466 151.204 91.6356 150.766 91.2346C150.531 91.0196 150.517 90.5516 150.705 90.3036C151.142 89.7276 151.857 89.6616 152.538 89.7376C153.277 89.8196 153.826 90.0726 154.346 90.6026C154.851 91.1166 154.359 91.9736 153.691 91.9406Z" fill="#772710"/>
<path d="M145.336 106.159C145.632 106.389 145.938 106.717 146.345 106.705C146.736 106.694 147.169 106.468 147.508 106.29C147.542 106.273 147.582 106.306 147.563 106.342C147.323 106.801 146.746 107.137 146.221 107.105C145.708 107.074 145.41 106.667 145.235 106.221C145.21 106.159 145.293 106.126 145.336 106.159Z" fill="#772710"/>
<path d="M146.127 102.698C146.858 103.592 147.833 104.016 148.844 104.095C149.296 104.133 149.762 104.096 150.212 104.003C150.301 103.991 150.39 103.971 150.469 103.944C150.549 103.925 150.621 103.907 150.709 103.879C150.837 103.845 150.896 103.73 150.904 103.605L150.903 103.597C150.898 103.556 150.893 103.523 150.88 103.484C150.88 103.484 150.88 103.484 150.879 103.476L150.866 103.379C150.793 102.521 150.562 101.229 150.562 101.229C150.892 101.35 152.568 101.887 152.492 101.442C151.851 97.7664 151.139 93.6784 149.724 90.1554C149.683 90.0374 149.5 90.0864 149.524 90.2074C150 93.7644 151.099 97.2144 151.634 100.779C151.103 100.644 150.233 100.38 149.786 100.44C149.668 100.489 150.276 102.929 150.279 103.317C150.279 103.317 150.281 103.333 150.276 103.359C148.859 103.706 147.726 103.394 146.221 102.587C146.129 102.532 146.05 102.617 146.127 102.698Z" fill="#772710"/>
<path d="M149.969 103.798C149.969 103.798 149.251 104.987 148.161 105.495C147.76 105.683 147.318 105.785 146.837 105.704C145.85 105.542 145.742 104.66 145.847 103.887C145.932 103.251 146.169 102.688 146.169 102.688C146.169 102.688 147.7 103.872 149.969 103.798Z" fill="#772710"/>
<path d="M148.161 105.496C147.76 105.684 147.318 105.786 146.837 105.705C145.85 105.543 145.742 104.661 145.847 103.888C146.89 103.896 147.978 104.501 148.161 105.496Z" fill="#FF9ABB"/>
<path d="M134.761 94.728C135.817 91.526 133.943 86.197 135.525 84.75C138.951 81.619 146.065 87.508 150.915 87.497C155.616 87.486 157.162 84.45 156.281 80.643C155.4 76.835 152.138 74.3 146.856 73.556C141.391 72.787 136.435 75.028 133.745 76.784C133.745 76.784 134.916 74.87 134.467 74.281C134.018 73.693 131.731 75.543 131.034 76.33C130.326 77.129 129.903 78.605 129.903 78.605C129.903 78.605 129.043 78.357 127.755 78.401C126.56 78.442 125.062 79.391 124.979 79.672C124.896 79.954 126.609 80.158 127.809 80.208C127.809 80.208 125.598 83.197 125.667 85.738C125.736 88.279 129.793 100.319 130.744 100.441C131.967 100.599 134.332 96.029 134.761 94.728Z" fill="#772710"/>
<path d="M128.271 79.8957C128.313 79.8707 128.37 79.9287 128.33 79.9637C127.195 80.9607 126.278 82.1187 125.818 83.5797C125.283 85.2787 125.414 87.1047 125.811 88.8177C126.583 92.1497 128.239 95.1647 129.684 98.2337C129.726 98.3237 129.575 98.3977 129.527 98.3107C127.789 95.1577 126.02 91.7317 125.345 88.1677C124.769 85.1287 125.445 81.6217 128.271 79.8957Z" fill="#772710"/>
<path d="M135.329 83.5178C136.707 83.3138 138.244 83.4318 139.596 83.7608C140.928 84.0858 142.071 84.9028 143.267 85.5398C145.949 86.9688 148.888 88.0688 151.973 87.8528C152.013 87.8498 152.015 87.9088 151.976 87.9138C149.158 88.2918 146.392 87.4758 143.877 86.2488C142.608 85.6298 141.408 84.7398 140.072 84.2778C138.554 83.7528 136.926 83.7888 135.343 83.7698C135.179 83.7688 135.168 83.5418 135.329 83.5178Z" fill="#772710"/>
<path d="M136.633 75.4237C138.515 74.4417 140.568 73.7907 142.648 73.3807C144.643 72.9867 146.707 72.8067 148.727 73.1187C152.214 73.6567 155.436 75.8487 156.282 79.4187C156.711 81.2277 156.537 83.2187 155.618 84.8547C155.556 84.9647 155.392 84.8807 155.443 84.7657C156.849 81.6227 156.256 77.8297 153.579 75.5437C150.704 73.0887 146.691 72.9317 143.132 73.5307C140.892 73.9077 138.753 74.6147 136.645 75.4477C136.63 75.4517 136.619 75.4297 136.633 75.4237Z" fill="#772710"/>
<path d="M133.304 99.1625C133.304 99.1625 129.63 93.8655 127.228 95.1735C124.826 96.4815 127.574 104.15 130.384 105.209C133.194 106.267 134.225 103.685 134.225 103.685L133.304 99.1625Z" fill="#EB9481"/>
<path d="M128.07 97.3517C128.025 97.3477 128.016 97.4107 128.055 97.4267C130.025 98.2337 131.057 100.068 131.777 101.968C131.193 101.235 130.395 100.832 129.415 101.527C129.364 101.563 129.413 101.644 129.468 101.633C130.277 101.463 130.86 101.605 131.403 102.255C131.788 102.715 132.05 103.296 132.325 103.826C132.417 104.003 132.736 103.91 132.669 103.706C132.664 103.691 132.659 103.676 132.653 103.66C132.712 101.144 130.77 97.6157 128.07 97.3517Z" fill="#772710"/>
<path d="M257.165 77.471L299.885 139.148L357.414 151.87L371.744 160.718L326.288 220.406L327.979 295.414L257.165 270.627L186.351 295.414L172.021 286.566L188.042 220.406L142.586 160.718L214.445 139.148L242.835 68.624L257.165 77.471Z" fill="#FFC727"/>
<path opacity="0.1" d="M257.165 77.471L299.885 139.148L357.414 151.87L371.744 160.718L326.288 220.406L327.979 295.414L257.165 270.627L186.351 295.414L172.021 286.566L188.042 220.406L142.586 160.718L214.445 139.148L242.835 68.624L257.165 77.471Z" fill="black"/>
<path d="M242.835 68.624L285.555 130.3L357.414 151.87L311.958 211.559L313.649 286.566L242.835 261.779L172.021 286.566L173.712 211.559L128.256 151.87L200.115 130.3L242.835 68.624Z" fill="#FFC727"/>
<g opacity="0.2">
<path d="M172.943 245.75L173.713 211.56L163.863 198.62L263.713 98.7695L285.553 130.3L287.733 130.96L172.943 245.75Z" fill="white"/>
<path d="M348.893 149.31L232.973 265.23L199.723 276.87L332.273 144.32L348.893 149.31Z" fill="white"/>
<path d="M165.693 140.63L139.583 166.74L130.243 154.48L134.823 149.9L165.693 140.63Z" fill="white"/>
<path d="M260.243 93.76L160.193 193.81L159.273 192.6L259.373 92.5L260.243 93.76Z" fill="white"/>
<path d="M312.903 253.29L288.443 277.75L286.873 277.2L312.853 251.22L312.903 253.29Z" fill="white"/>
</g>
<path d="M119.341 132.74C116.857 149.26 110.687 183.409 117.6 193.68C126.671 207.158 156.992 216.331 164.936 219.058C168.397 220.246 177.654 197.703 175.745 194.287C173.836 190.871 142.369 177.984 140.236 175.981C138.103 173.978 135.358 146.919 132.589 133.01C129.097 115.466 121.443 118.756 119.341 132.74Z" fill="#EB9481"/>
<path d="M185.186 202.341C183.949 200.944 184.674 200.285 187.938 200.878C191.242 201.471 203.618 206.59 205.037 202.108C206.47 197.613 188.836 190.656 183.325 190.085C177.814 189.5 168.699 190.52 168.699 190.52C171.857 192.564 179.043 198.252 185.186 202.341Z" fill="#EB9481"/>
<path d="M156.288 215.281C165.393 220.712 176.396 228.029 188.357 228.1C190.703 228.114 192.06 226.946 192.06 226.946C197.42 227.073 199.09 224.579 199.09 224.579C204.119 223.168 205.476 220.385 205.476 220.385C205.476 220.385 211.771 220.465 212.451 216.669C213.227 212.414 204.234 213.133 199.047 210.505C187.162 204.483 171.953 192.599 168.698 190.521L156.288 215.281Z" fill="#EB9481"/>
<path d="M182.158 212.947C185.691 214.649 189.117 216.414 192.862 217.63C196.971 218.963 201.149 219.557 205.387 220.268C205.519 220.29 205.502 220.476 205.368 220.475C197.492 220.403 188.628 217.452 182.078 213.107C181.919 213.001 181.98 212.861 182.158 212.947Z" fill="#772710"/>
<path d="M177.48 219.592C181.01 221.058 187.229 223.595 199.1 224.453C199.139 224.456 199.146 224.523 199.103 224.525C191.322 224.993 184.275 223.312 177.41 219.76C177.198 219.65 177.246 219.494 177.48 219.592Z" fill="#772710"/>
<path d="M175.034 223.21C181.13 225.474 185.261 226.13 192.037 226.916C192.075 226.921 192.078 226.989 192.035 226.988C184.24 226.903 181.422 225.989 174.926 223.409C174.703 223.32 174.796 223.121 175.034 223.21Z" fill="#772710"/>
<path d="M137.16 152.023L112.937 160.08C112.937 160.08 117.45 132.37 121.077 124.596C125.159 115.846 128.74 119.847 131.951 128.445C135.161 137.042 137.16 152.023 137.16 152.023Z" fill="#D75B08"/>
<path d="M131.25 147.76C130.93 147.74 130.65 147.67 130.4 147.51C129.9 147.22 129.6 146.68 129.61 146.11C129.6 145.35 129.1 144.64 128.42 144.38C128.09 144.23 127.69 144.23 127.38 144.27C127.05 144.32 126.73 144.34 126.4 144.4C126.73 144.46 127.05 144.49 127.38 144.53C127.72 144.55 127.99 144.6 128.25 144.75C128.75 145.02 129.09 145.56 129.09 146.12C129.07 146.85 129.54 147.6 130.21 147.88C130.54 148.03 130.93 148.06 131.25 148.01C131.58 147.97 131.91 147.94 132.23 147.88C131.91 147.83 131.58 147.8 131.25 147.76ZM130.84 125.69C130.11 125.7 129.4 126.16 129.11 126.82C128.96 127.15 128.94 127.54 128.98 127.86C129.02 128.19 129.05 128.51 129.11 128.84C129.17 128.51 129.19 128.19 129.24 127.86C129.26 127.53 129.33 127.26 129.48 127.01C129.78 126.51 130.31 126.2 130.89 126.22C130.95 126.22 131 126.22 131.06 126.2C130.98 126.03 130.91 125.86 130.84 125.69Z" fill="white"/>
<path d="M134.851 147.927C131.627 148.535 122.218 151.722 120.657 152.233C119.834 152.503 116.599 153.722 115.776 153.984C115.671 154.018 115.742 154.174 115.847 154.141C117.417 153.641 119.043 153.302 120.621 152.813C122.235 152.312 131.888 149.429 134.889 148.05C134.954 148.019 134.924 147.913 134.851 147.927Z" fill="#772710"/>
<path d="M117.878 135.421C117.898 135.303 117.73 135.284 117.7 135.393C117.052 137.69 116.463 140.004 115.911 142.326C115.899 141.075 116.04 139.844 116.257 138.597C116.267 138.542 116.185 138.53 116.172 138.583C115.834 139.976 115.748 141.45 115.779 142.889C115.398 144.509 115.031 146.132 114.684 147.758C113.801 151.896 112.866 156.036 112.222 160.22C112.188 160.443 112.411 160.611 112.617 160.534C113.449 160.226 114.269 159.899 115.079 159.536C115.163 159.498 115.137 159.351 115.037 159.371C114.315 159.514 113.606 159.695 112.896 159.879C113.856 155.905 114.612 151.88 115.458 147.881C116.332 143.742 117.171 139.592 117.878 135.421Z" fill="#772710"/>
<path d="M135.738 141.159C135.647 139.815 135.553 138.471 135.416 137.129C135.413 137.101 135.372 137.107 135.373 137.134C135.401 138.125 135.453 139.115 135.512 140.104C135.084 138.172 134.621 136.249 134.073 134.358C134.065 134.33 134.02 134.342 134.024 134.371C134.427 137.337 134.993 140.281 135.466 143.238C135.93 146.139 136.443 149.028 136.959 151.92C136.436 152.189 135.909 152.446 135.377 152.696C135.275 152.744 135.335 152.885 135.441 152.856C136.061 152.681 136.68 152.509 137.307 152.362C137.455 152.327 137.578 152.215 137.557 152.048C137.096 148.414 136.497 144.766 135.738 141.159Z" fill="#772710"/>
<path d="M212.864 452.527C215.307 453.413 287.7 454.84 290.425 453.177C290.743 453.008 291.922 429.058 291.922 429.058C291.835 428.718 293.045 426.409 294.89 423.203C300.052 414.195 310.142 398.063 310.142 398.063L267.178 385.071L249.527 420.426L245.029 429.447C245.029 429.447 235.161 433.305 226.553 437.152C226.541 437.163 226.529 437.163 226.529 437.175C221.226 439.534 216.614 441.697 215.537 442.504C212.77 444.631 210.42 451.664 212.864 452.527Z" fill="#FFC4C0"/>
<path d="M212.864 452.527C215.307 453.413 287.7 454.84 290.425 453.177C290.743 453.008 291.922 429.058 291.922 429.058C291.835 428.718 293.045 426.409 294.89 423.203L249.528 420.426L245.03 429.447C245.03 429.447 235.162 433.305 226.554 437.152C226.542 437.163 226.53 437.163 226.53 437.175C221.227 439.534 216.615 441.697 215.538 442.504C212.77 444.631 210.42 451.664 212.864 452.527Z" fill="white"/>
<path d="M212.56 452.797C215.078 453.688 287.564 454.932 290.359 453.232C291.422 452.593 292.701 441.435 291.92 429.059L245.187 428.312C245.187 428.312 218.123 440.274 215.258 442.467C212.408 444.662 210.043 451.907 212.56 452.797Z" fill="#FFC727"/>
<path opacity="0.1" d="M290.356 453.229C289.336 453.846 279.037 454.079 266.241 454.079L290.777 429.042L290.786 429.033L291.922 429.06C292.7 441.435 291.421 452.593 290.356 453.229Z" fill="black"/>
<path d="M213.649 449.916C225.805 449.826 274.843 450.61 286.866 451.445C286.964 451.452 286.963 451.518 286.865 451.521C274.818 451.873 225.788 450.692 213.645 450.115C213.39 450.103 213.393 449.917 213.649 449.916Z" fill="#772710"/>
<path d="M219.965 439.941C222.848 439.873 225.641 441.29 227.183 443.033C228.664 444.708 229.916 447.049 229.787 449.567C229.783 449.639 229.65 449.639 229.64 449.564C229.028 444.797 224.774 440.546 219.961 440.094C219.865 440.084 219.866 439.944 219.965 439.941Z" fill="#772710"/>
<path d="M241.354 429.466C246.219 429.482 251.828 431.295 254.782 435.325C254.896 435.481 254.673 435.641 254.53 435.565C250.172 433.223 246.022 431.463 241.261 430.064C240.924 429.965 241.006 429.465 241.354 429.466Z" fill="#772710"/>
<path d="M237.575 430.866C242.44 430.882 248.048 432.695 251.003 436.725C251.117 436.881 250.894 437.041 250.751 436.964C246.393 434.622 242.243 432.862 237.481 431.464C237.145 431.364 237.226 430.865 237.575 430.866Z" fill="#772710"/>
<path d="M233.795 432.265C238.66 432.281 244.269 434.094 247.223 438.124C247.338 438.28 247.114 438.44 246.971 438.364C242.614 436.022 238.463 434.262 233.701 432.863C233.366 432.764 233.447 432.264 233.795 432.265Z" fill="#772710"/>
<path d="M230.016 433.664C234.881 433.68 240.49 435.493 243.444 439.523C243.559 439.679 243.335 439.839 243.192 439.762C238.834 437.42 234.684 435.66 229.922 434.261C229.586 434.163 229.667 433.663 230.016 433.664Z" fill="#772710"/>
<path d="M283.969 439.851C289.425 439.96 289.265 448.44 283.799 448.331C278.343 448.221 278.504 439.741 283.969 439.851Z" fill="#772710"/>
<path d="M236.587 423.534C239.153 426.965 243.115 429.166 246.537 431.62C246.892 431.875 247.308 431.589 247.418 431.242C247.498 431.249 247.577 431.209 247.572 431.105C247.372 426.908 245.765 422.068 243.366 418.593C241.884 416.447 238.817 414.399 236.32 416.399C233.96 418.29 235.088 421.531 236.587 423.534ZM236.431 419.501C237.005 414.218 241.71 418.365 242.739 419.989C243.4 421.033 243.947 422.177 244.459 423.3C245.531 425.654 246.249 428.115 247.076 430.553C245.469 429.244 243.765 428.085 242.111 426.837C240.14 425.35 236.114 422.414 236.431 419.501Z" fill="#772710"/>
<path d="M264.897 428.3C264.57 425.118 260.959 424.369 258.39 424.818C254.231 425.545 249.653 427.796 246.522 430.598C246.445 430.667 246.472 430.752 246.533 430.803C246.363 431.125 246.452 431.622 246.882 431.696C251.032 432.413 255.379 433.693 259.625 433.115C262.103 432.778 265.205 431.31 264.897 428.3ZM253.395 431.496C251.345 431.193 249.324 430.792 247.264 430.564C249.582 429.443 251.84 428.228 254.269 427.341C255.428 426.918 256.627 426.505 257.835 426.244C259.715 425.838 265.97 426.282 262.608 430.397C260.755 432.667 255.838 431.857 253.395 431.496Z" fill="#772710"/>
<path d="M298.177 423.039L249.956 415.731C249.956 415.731 273.136 369.534 287.484 344.464C295.462 330.525 317.286 329.843 327.901 346.543C342.082 368.854 353.085 389.76 359.391 401.35L370.33 402.286L367.97 420.156L331.618 428.298C317.694 429.965 307.92 405.174 307.693 405.594C305.93 408.85 298.177 423.039 298.177 423.039Z" fill="#772710"/>
<path d="M307.437 405.703C308.809 402.895 309.878 399.914 311.097 397.036C312.276 394.252 313.463 391.471 314.633 388.684C316.998 383.05 319.448 377.444 321.743 371.782C323.031 368.603 324.213 365.385 325.416 362.173C325.445 362.096 325.564 362.13 325.54 362.21C324.61 365.245 323.64 368.268 322.624 371.276C322.894 370.757 323.162 370.238 323.444 369.733C324.218 368.349 325.017 366.981 325.82 365.613C325.851 365.56 325.929 365.609 325.901 365.663C325.161 367.037 324.421 368.408 323.653 369.766C323.271 370.441 322.853 371.109 322.449 371.784C319.588 380.205 316.346 388.491 312.448 396.494C310.915 399.641 309.119 402.654 307.585 405.795C307.535 405.893 307.388 405.802 307.437 405.703Z" fill="#772710"/>
<path d="M297.1 414.466C299.424 410.879 304.961 400.02 306.945 396.266C310.956 388.673 314.627 380.925 318.097 373.072C320.058 368.635 321.892 364.158 323.708 359.661C323.72 359.631 323.768 359.644 323.758 359.676C321.027 367.778 317.773 375.714 314.242 383.497C310.706 391.291 299.3 412.287 297.246 414.557C297.172 414.639 297.039 414.56 297.1 414.466Z" fill="#772710"/>
<path d="M327.035 365.658C331.19 373.078 335.436 380.447 339.609 387.856C341.718 391.601 343.826 395.346 345.912 399.103C346.894 400.871 347.847 402.66 348.865 404.407C349.829 406.059 350.979 407.428 352.676 408.36C354.543 409.386 356.692 409.876 358.722 410.471C361.067 411.157 363.397 411.895 365.754 412.542C365.861 412.571 365.811 412.736 365.704 412.707C363.603 412.145 361.482 411.662 359.37 411.141C357.453 410.668 355.482 410.269 353.623 409.591C351.94 408.977 350.484 408.063 349.361 406.649C348.158 405.133 347.302 403.356 346.377 401.666C342.208 394.045 338.083 386.4 333.986 378.74C331.657 374.386 329.349 370.02 326.995 365.679C326.984 365.655 327.022 365.634 327.035 365.658Z" fill="#772710"/>
<path d="M299.273 416.273C296.384 415.747 293.424 415.496 290.512 415.122C287.59 414.746 284.669 414.369 281.748 413.987C275.921 413.226 256.086 410.066 254.588 409.57C254.493 409.539 254.526 409.384 254.621 409.381C256.04 409.337 269.03 411.067 271.944 411.495C277.771 412.353 283.559 413.386 289.365 414.365C291.023 414.645 292.675 414.96 294.331 415.253C295.983 415.546 297.637 415.902 299.301 416.116C299.401 416.13 299.374 416.291 299.273 416.273Z" fill="#772710"/>
<path d="M267.057 463.434C267.979 461.004 314.14 405.223 317.17 404.242C317.518 404.111 336.427 418.846 336.427 418.846C337.186 419.955 374.619 413.73 374.619 413.73L373.044 458.493L305.538 454.119C305.538 454.119 296.178 459.088 287.64 463.096C287.625 463.097 287.619 463.105 287.611 463.099C282.356 465.583 277.709 467.667 276.398 467.949C272.979 468.667 266.119 465.851 267.057 463.434Z" fill="#FFC4C0"/>
<path d="M276.396 467.947C277.713 467.67 282.355 465.585 287.607 463.096C287.617 463.107 287.629 463.097 287.639 463.097C296.172 459.089 305.534 454.115 305.534 454.115L320.558 455.092L345.752 418.127C340.545 418.817 336.668 419.199 336.424 418.843C336.424 418.843 317.522 404.109 317.171 404.244C314.141 405.223 267.983 461.003 267.058 463.432C266.122 465.85 272.978 468.672 276.396 467.947Z" fill="white"/>
<path d="M266.655 463.493C267.623 461.004 313.98 405.265 317.091 404.256C318.269 403.867 327.559 410.179 336.427 418.846L306.497 454.746C306.497 454.746 279.772 467.449 276.241 468.189C272.72 468.917 265.687 465.982 266.655 463.493Z" fill="#FFC727"/>
<path d="M269.549 464.548C277.549 455.395 308.953 417.724 316.166 408.068C316.225 407.99 316.174 407.947 316.107 408.019C307.979 416.918 276.882 454.842 269.395 464.421C269.238 464.623 269.38 464.742 269.549 464.548Z" fill="#772710"/>
<path d="M281.228 466.271C283.161 464.13 283.91 461.089 283.595 458.783C283.292 456.568 282.335 454.092 280.343 452.546C280.286 452.502 280.199 452.603 280.25 452.659C283.463 456.234 283.908 462.231 281.111 466.173C281.055 466.254 281.162 466.345 281.228 466.271Z" fill="#772710"/>
<path d="M303.123 456.898C306.285 453.201 308.571 447.768 307.445 442.9C307.401 442.711 307.134 442.776 307.099 442.935C306.03 447.765 304.656 452.059 302.609 456.58C302.465 456.898 302.896 457.163 303.123 456.898Z" fill="#772710"/>
<path d="M299.596 458.849C302.759 455.152 305.044 449.719 303.918 444.851C303.875 444.662 303.607 444.727 303.572 444.886C302.503 449.716 301.129 454.01 299.081 458.531C298.938 458.849 299.37 459.113 299.596 458.849Z" fill="#772710"/>
<path d="M296.07 460.8C299.232 457.103 301.518 451.67 300.392 446.802C300.349 446.613 300.081 446.678 300.046 446.837C298.977 451.667 297.603 455.96 295.556 460.482C295.412 460.8 295.843 461.065 296.07 460.8Z" fill="#772710"/>
<path d="M292.543 462.751C295.705 459.054 297.991 453.621 296.865 448.753C296.822 448.564 296.554 448.629 296.519 448.788C295.45 453.618 294.076 457.912 292.029 462.433C291.885 462.751 292.317 463.016 292.543 462.751Z" fill="#772710"/>
<path d="M323.061 417.83C326.538 413.624 320.008 408.213 316.525 412.425C313.047 416.631 319.578 422.043 323.061 417.83Z" fill="#772710"/>
<path d="M309.741 469.239C312.885 468.652 313.335 464.991 312.675 462.468C311.608 458.382 308.988 454.006 305.938 451.116C305.862 451.045 305.781 451.079 305.734 451.144C305.399 451.001 304.911 451.13 304.873 451.566C304.5 455.76 303.582 460.198 304.508 464.382C305.048 466.824 306.767 469.795 309.741 469.239ZM305.609 458.04C305.742 455.973 305.976 453.924 306.033 451.853C307.341 454.071 308.738 456.22 309.822 458.569C310.339 459.69 310.849 460.851 311.208 462.033C311.768 463.873 311.84 470.144 307.462 467.131C305.048 465.471 305.45 460.504 305.609 458.04Z" fill="#772710"/>
<path d="M312.28 440.673C309.072 443.513 307.205 447.643 305.04 451.255C304.816 451.63 305.134 452.021 305.489 452.102C305.489 452.182 305.535 452.258 305.638 452.244C309.804 451.699 314.496 449.7 317.762 447.022C319.778 445.368 321.567 442.143 319.369 439.82C317.289 437.623 314.153 439.015 312.28 440.673ZM316.286 440.185C321.599 440.323 317.853 445.352 316.319 446.512C315.333 447.257 314.238 447.896 313.161 448.499C310.904 449.761 308.509 450.679 306.148 451.704C307.32 449.995 308.335 448.201 309.443 446.45C310.762 444.363 313.357 440.109 316.286 440.185Z" fill="#772710"/>
<path d="M362.862 399.81C362.862 399.81 410.754 394.653 429.701 399.757C456.125 406.875 459.154 438.619 438.804 450.702C413.021 466.011 323.573 457.478 323.573 457.478L348.54 415.392C348.54 415.392 386.012 408.408 419.6 411.117L351.829 419.503L362.862 399.81Z" fill="#772710"/>
<path d="M346.807 418.225C346.84 418.17 346.851 418.059 346.868 417.997C346.884 417.935 346.901 417.873 346.918 417.811C346.957 417.666 346.999 417.523 347.042 417.38C347.132 417.081 347.243 416.799 347.36 416.512C347.477 416.226 347.603 415.947 347.736 415.67C347.874 415.384 348.052 415.156 348.222 414.895C348.24 414.868 348.266 414.865 348.289 414.848C348.303 414.836 348.317 414.826 348.333 414.817C348.355 414.808 348.372 414.795 348.394 414.792C348.415 414.784 348.432 414.771 348.456 414.767C352.572 414.109 380.484 410.947 384.629 410.609C388.807 410.268 392.994 410.023 397.179 409.819C405.525 409.412 413.904 409.395 422.24 409.915C423.022 409.964 423.801 410.032 424.581 410.096C424.749 410.042 424.928 410.017 425.101 409.979C425.506 409.89 425.909 409.799 426.317 409.73C427.076 409.604 427.841 409.515 428.604 409.42C430.194 409.223 431.786 409.108 433.37 408.852C433.466 408.837 433.497 408.997 433.4 409.016C431.804 409.333 430.23 409.769 428.633 410.079C428.173 410.168 427.712 410.257 427.251 410.338C430.303 410.648 433.346 411.041 436.387 411.478C436.482 411.492 436.478 411.656 436.38 411.645C432.237 411.195 428.051 410.98 423.887 410.876C419.751 410.773 415.617 410.694 411.478 410.774C403.108 410.938 394.732 411.399 386.376 411.996C381.688 412.331 353.225 415.643 348.529 415.655C348.508 415.655 348.491 415.645 348.472 415.642C348.429 415.759 348.385 415.875 348.327 415.989C348.187 416.264 348.045 416.535 347.895 416.803C347.749 417.062 347.607 417.316 347.443 417.562C347.362 417.684 347.281 417.805 347.197 417.926C347.156 417.986 347.114 418.046 347.072 418.107C347.037 418.158 346.962 418.235 346.942 418.296C346.904 418.413 346.746 418.329 346.807 418.225Z" fill="#772710"/>
<path d="M336.4 454.854C337.875 452.434 339.156 449.838 340.518 447.335C341.885 444.825 343.253 442.314 344.624 439.807C347.359 434.805 357.126 418.005 358.069 416.841C358.129 416.767 358.24 416.859 358.208 416.947C357.726 418.258 351.601 429.397 350.195 431.879C347.382 436.842 344.444 441.7 341.541 446.595C340.712 447.993 339.857 449.371 339.018 450.761C338.181 452.148 337.292 453.512 336.514 454.942C336.468 455.029 336.349 454.939 336.4 454.854Z" fill="#772710"/>
<path d="M359.589 421.454C362.079 420.911 364.619 420.597 367.128 420.187C369.644 419.776 372.16 419.368 374.677 418.967C379.712 418.165 384.752 417.403 389.797 416.693C399.86 415.278 409.951 414.177 420.075 413.552C425.79 413.199 431.51 413.05 437.229 412.838C437.35 412.834 437.338 413.046 437.215 413.047C427.042 413.108 416.84 414.182 406.72 415.335C396.697 416.476 386.693 417.774 376.697 419.184C373.875 419.582 371.054 419.989 368.233 420.401C365.369 420.819 362.498 421.364 359.622 421.639C359.516 421.648 359.478 421.478 359.589 421.454Z" fill="#772710"/>
<path d="M381.727 332.002C383.553 336.66 386.154 340.899 387.61 345.728C388.937 350.153 389.538 354.879 388.832 359.483C386.241 376.384 364.23 386.524 348.771 381.277C341.377 378.763 334.945 372.765 332.982 365.07C330.58 355.639 335.613 346.579 338.665 337.972C340.419 333.04 341.136 328.167 341.147 322.959C341.151 318.486 340.876 313.935 341.783 309.519C342.43 306.37 344.581 297.21 356.185 293.553C364.515 290.927 372.948 295.477 376.832 303.392C381.345 312.587 378.123 322.758 381.727 332.002Z" fill="#772710"/>
<path d="M342.038 333.378C338.438 341.089 333.709 348.964 332.324 357.47C331.176 364.526 333.08 372.158 339.217 376.353C339.27 376.389 339.331 376.314 339.279 376.274C332.831 371.278 332.03 362.642 333.839 355.212C335.693 347.601 340.148 340.98 342.402 333.534C342.474 333.295 342.149 333.141 342.038 333.378Z" fill="#772710"/>
<path d="M340.41 332.929C337.683 343.042 329.363 351.005 328.828 361.766C328.822 361.894 329.019 361.926 329.027 361.796C329.728 351.051 338.985 343.425 340.609 332.959C340.629 332.828 340.442 332.807 340.41 332.929Z" fill="#772710"/>
<path d="M382.311 331.834C380.52 327.999 379.535 324.153 379.149 319.946C379.129 319.732 378.779 319.715 378.764 319.938C377.792 334.784 394.795 345.914 390.27 361.265C390.238 361.373 390.396 361.446 390.434 361.335C392.608 355.002 390.92 348.666 388.075 342.826C386.264 339.106 384.064 335.585 382.311 331.834Z" fill="#772710"/>
<path d="M378.869 317.74C378.833 317.458 378.423 317.54 378.441 317.813C378.792 323.328 380.691 328.771 383.66 333.418C385.137 335.73 386.95 337.8 388.381 340.144C389.948 342.711 391.154 345.466 392.474 348.162C392.508 348.231 392.603 348.182 392.579 348.113C390.866 343.001 388.185 338.932 385.115 334.579C381.538 329.508 379.652 323.862 378.869 317.74Z" fill="#772710"/>
<path d="M346.002 345.091C323.372 360.309 305.039 374.848 303.072 384.998C300.348 399.051 308.863 403.397 312.761 403.624C323.373 404.242 347.618 368.363 355.123 352.258C362.411 336.62 350.985 341.741 346.002 345.091Z" fill="#FFC727"/>
<path opacity="0.1" d="M355.125 352.26C347.615 368.36 323.375 404.24 312.765 403.62C310.055 403.47 305.135 401.33 303.275 395.34L357.195 342.9C357.875 344.39 357.455 347.27 355.125 352.26Z" fill="black"/>
<path d="M398.264 399.753C398.264 399.753 371.26 403.295 358.174 403.156C346.435 403.031 334.912 397.326 334.912 397.326L340.237 377.746C340.237 377.746 334.927 370.969 339.045 363.629C341.975 358.406 351.151 347.236 356.031 341.999C367.034 330.191 376.267 336.888 378.977 340.644C389.324 354.985 398.264 399.753 398.264 399.753Z" fill="#FFC727"/>
<path d="M356.664 376.198C354.186 376.159 351.686 376.214 349.214 376.591C347.984 376.778 346.768 377.029 345.549 377.309C344.941 377.449 344.334 377.565 343.724 377.678C343.097 377.794 342.428 377.891 341.798 377.831C341.741 377.826 341.73 377.922 341.786 377.931C342.394 378.031 342.975 378.125 343.594 378.132C344.182 378.139 344.776 378.075 345.362 377.992C346.611 377.815 347.854 377.573 349.101 377.382C351.618 376.996 354.134 376.611 356.663 376.431C356.78 376.422 356.781 376.199 356.664 376.198Z" fill="#772710"/>
<path d="M362.38 379.464C360.405 378.965 358.375 378.567 356.354 378.327C355.337 378.206 354.321 378.153 353.295 378.13C352.806 378.119 352.316 378.118 351.826 378.124C351.287 378.13 350.745 378.218 350.207 378.216C350.151 378.216 350.137 378.314 350.195 378.316C350.702 378.336 351.206 378.451 351.71 378.504C352.217 378.557 352.724 378.606 353.231 378.659C354.246 378.765 355.259 378.884 356.275 378.979C358.309 379.17 360.332 379.383 362.357 379.653C362.467 379.668 362.483 379.489 362.38 379.464Z" fill="#772710"/>
<path d="M380.964 344.282C399.306 360.194 412.403 382.409 411.837 396.892C411.278 411.196 406.366 409.565 404.957 409.404C396.348 408.418 377.949 367.644 372.547 351.126C367.184 334.729 376.428 340.347 380.964 344.282Z" fill="#FFC727"/>
<path d="M394.022 397.68C393.109 395.829 392.166 393.998 391.283 392.136L388.572 386.583C386.785 382.872 384.967 379.177 383.239 375.439C381.438 371.736 379.724 367.992 378.019 364.246C377.161 362.375 376.323 360.495 375.517 358.601C374.674 356.721 373.917 354.808 373.142 352.894C374.266 356.868 375.756 360.73 377.313 364.551C378.877 368.373 380.603 372.122 382.336 375.867C384.143 379.577 385.951 383.285 387.889 386.929C389.828 390.57 391.818 394.189 394.022 397.68Z" fill="#772710"/>
<path d="M374.926 357.785C374.608 357.094 374.224 356.479 373.841 355.86C373.639 355.557 373.451 355.248 373.236 354.951C373.025 354.652 372.826 354.345 372.581 354.05C372.697 354.806 373.026 355.497 373.42 356.129C373.829 356.752 374.305 357.339 374.926 357.785Z" fill="#772710"/>
<path d="M358.29 350.388C358.29 350.388 370.638 340.529 377.096 340.764L382.567 345.641C382.567 345.641 384.366 346.235 384.925 345.096C386.307 342.279 386.596 335.458 380.738 331.018C375.374 326.952 364.343 327.758 356.999 329.677C349.947 331.52 346.054 335.661 348.207 340.263C350.36 344.865 358.29 350.388 358.29 350.388Z" fill="#FFC727"/>
<path opacity="0.1" d="M357.587 348.226C357.587 348.226 351.874 342.309 351.046 338.88C350.218 335.451 357.078 332.199 361.506 330.927C368.36 328.958 373.024 329.408 376.854 333.072C380.685 336.735 357.587 348.226 357.587 348.226Z" fill="black"/>
<path d="M367.552 338.06C367.439 339.257 362.299 345.321 356.963 345.797C355.225 345.949 354.604 338.721 354.604 338.721L354.352 338.045L350.833 328.573L361.303 319.642L362.829 318.441C362.829 318.441 363.621 321.096 364.574 324.411C364.619 324.565 364.664 324.718 364.71 324.883C364.769 325.069 364.827 325.244 364.874 325.42C365.023 325.913 365.173 326.418 365.311 326.924C365.418 327.308 365.524 327.682 365.622 328.089C365.73 328.496 365.827 328.892 365.936 329.299C366.92 333.331 367.592 337.553 367.552 338.06Z" fill="#FFC4C0"/>
<path d="M364.574 324.411C362.837 332.569 357.059 336.587 354.353 338.045L350.834 328.573L361.304 319.642L362.83 318.441C362.83 318.441 363.621 321.095 364.574 324.411Z" fill="#772710"/>
<path d="M340.045 308.194C333.141 324.528 342.145 330.507 345.669 331.992C348.868 333.34 359.931 337.523 368.485 321.989C377.039 306.456 371.627 298.082 364.474 294.613C357.321 291.143 346.948 291.86 340.045 308.194Z" fill="#FFC4C0"/>
<path d="M344.03 307.203C344.433 307.317 344.824 307.354 345.234 307.426C345.697 307.506 346.058 307.618 346.505 307.418C346.746 307.311 346.879 306.949 346.797 306.706C346.606 306.14 346.064 305.9 345.51 305.781C344.909 305.651 344.413 305.705 343.867 305.983C343.338 306.252 343.498 307.052 344.03 307.203Z" fill="#772710"/>
<path d="M355.56 311.112C355.194 310.909 354.89 310.66 354.548 310.422C354.163 310.153 353.828 309.978 353.65 309.521C353.555 309.276 353.715 308.924 353.944 308.809C354.478 308.541 355.032 308.753 355.509 309.058C356.027 309.389 356.341 309.776 356.533 310.359C356.72 310.924 356.043 311.38 355.56 311.112Z" fill="#772710"/>
<path d="M351.845 313.271C351.872 313.232 351.908 313.361 351.887 313.406C351.366 314.496 350.953 315.832 351.792 316.638C351.818 316.663 351.79 316.717 351.756 316.696C350.611 315.988 351.177 314.22 351.845 313.271Z" fill="#772710"/>
<path d="M353.339 312.55C355.176 313.196 353.749 316.823 352.046 316.225C350.372 315.636 351.799 312.009 353.339 312.55Z" fill="#772710"/>
<path d="M353.976 313.023C354.212 313.352 354.38 313.837 354.747 314.025C355.172 314.243 355.655 313.994 356.088 313.743C356.133 313.717 356.151 313.761 356.133 313.809C355.87 314.508 355.322 315.116 354.536 314.926C353.819 314.753 353.574 313.946 353.675 313.179C353.693 313.036 353.881 312.889 353.976 313.023Z" fill="#772710"/>
<path d="M345.407 310.481C345.415 310.435 345.298 310.5 345.282 310.547C344.884 311.688 344.237 312.927 343.074 312.909C343.038 312.908 343.019 312.966 343.059 312.976C344.369 313.28 345.213 311.625 345.407 310.481Z" fill="#772710"/>
<path d="M344.853 308.916C343.093 308.081 341.553 311.662 343.183 312.435C344.787 313.196 346.328 309.616 344.853 308.916Z" fill="#772710"/>
<path d="M344.005 308.832C343.64 308.9 343.212 309.124 342.864 309.001C342.461 308.858 342.338 308.346 342.248 307.867C342.238 307.817 342.198 307.835 342.176 307.882C341.863 308.558 341.783 309.368 342.383 309.783C342.931 310.161 343.624 309.763 344.08 309.151C344.166 309.038 344.152 308.804 344.005 308.832Z" fill="#772710"/>
<path d="M348.274 322.312C347.924 322.515 347.548 322.82 347.114 322.748C346.698 322.678 346.268 322.373 345.932 322.133C345.899 322.11 345.851 322.139 345.866 322.18C346.055 322.706 346.623 323.151 347.189 323.194C347.742 323.237 348.121 322.846 348.373 322.394C348.409 322.331 348.325 322.283 348.274 322.312Z" fill="#772710"/>
<path d="M344.781 316.626C344.781 316.626 343.998 318.27 343.741 319.081C343.717 319.157 343.902 319.255 344.172 319.359C344.184 319.367 344.19 319.375 344.204 319.37C345.565 320.047 347.163 320.01 348.404 319.117C348.485 319.056 348.409 318.939 348.319 318.967C347.001 319.413 345.756 319.241 344.479 318.86C344.493 318.617 345.913 316.09 345.788 316.039C345.356 315.861 344.388 315.885 343.815 315.872C345.346 312.401 347.42 309.203 348.892 305.724C348.943 305.599 348.771 305.502 348.697 305.604C346.285 308.801 344.436 312.758 342.764 316.302C342.55 316.741 344.413 316.661 344.781 316.626Z" fill="#772710"/>
<path d="M344.349 319.085C344.349 319.085 344.721 320.424 345.634 321.206C345.97 321.495 346.368 321.712 346.853 321.763C347.848 321.873 348.188 321.052 348.295 320.279C348.385 319.644 348.307 319.038 348.307 319.038C348.307 319.038 346.514 319.766 344.349 319.085Z" fill="#772710"/>
<path d="M345.634 321.206C345.97 321.495 346.368 321.712 346.853 321.763C347.848 321.873 348.188 321.052 348.295 320.279C347.289 320.007 346.078 320.296 345.634 321.206Z" fill="#FF9ABB"/>
<path d="M367.093 321.372C363.951 320.955 365.005 313.783 365.005 313.783C365.005 313.783 352.625 308.175 354.304 297.334C354.304 297.334 349.524 303.056 341.935 304.312C341.935 304.312 347.107 291.717 356.869 291.885C356.869 291.885 367.904 290.973 372.455 301.702C377.119 312.697 369.202 321.651 367.093 321.372Z" fill="#772710"/>
<path d="M354.464 296.541C353.866 298.105 353.667 299.819 353.774 301.51C353.881 303.201 354.308 304.896 355.098 306.415C355.265 306.81 355.53 307.151 355.742 307.521L356.079 308.065C356.206 308.236 356.341 308.401 356.476 308.565C356.75 308.891 357.01 309.229 357.294 309.544C357.598 309.84 357.91 310.128 358.223 310.413C358.38 310.554 358.531 310.703 358.694 310.837L359.207 311.208L360.231 311.945C360.956 312.369 361.702 312.755 362.445 313.126C361.786 312.605 361.088 312.161 360.447 311.642L359.512 310.837L359.046 310.437C358.9 310.294 358.766 310.138 358.627 309.989C358.351 309.687 358.074 309.389 357.79 309.098C357.531 308.786 357.298 308.452 357.051 308.131L356.683 307.647L356.372 307.126C356.177 306.773 355.928 306.447 355.776 306.072C355.012 304.644 354.592 303.058 354.353 301.452C354.238 300.645 354.201 299.826 354.222 299.005C354.226 298.183 354.316 297.362 354.464 296.541Z" fill="#772710"/>
<path d="M365.076 320.145C365.076 320.145 370.464 316.072 372.428 318.159C374.392 320.246 369.151 326.982 366.007 327.118C362.864 327.253 362.681 324.346 362.681 324.346L365.076 320.145Z" fill="#FFC4C0"/>
<path d="M370.878 320.052C370.925 320.062 370.913 320.129 370.869 320.132C368.644 320.292 367.018 321.78 365.68 323.436C366.501 322.898 367.426 322.757 368.176 323.769C368.215 323.822 368.14 323.887 368.089 323.857C367.339 323.423 366.713 323.375 365.96 323.844C365.426 324.176 364.976 324.668 364.529 325.107C364.38 325.253 364.093 325.056 364.225 324.875C364.235 324.862 364.246 324.848 364.256 324.835C365.017 322.31 368.103 319.432 370.878 320.052Z" fill="#772710"/>
<path d="M357.587 348.226C357.587 348.226 367.967 334.585 377.951 333.269L377.096 340.765C377.096 340.765 368.782 340.896 358.29 350.389L357.587 348.226Z" fill="#FFC727"/>
<path d="M379.786 340.907C377.959 340.676 376.143 341.077 374.428 341.614C367.581 343.219 360.594 348.844 360.594 348.844L358.582 350.687L358.356 350.894L358.105 350.765C354.756 348.938 351.393 344.702 350.764 343.869C353.317 346.509 357.549 349.573 358.472 350.012L357.995 350.089L360.009 348.186C360.705 347.578 368.363 342.554 374.285 341.124C374.732 340.998 375.193 340.921 375.647 340.831C376.109 340.774 376.568 340.705 377.032 340.685C377.957 340.624 378.899 340.655 379.786 340.907Z" fill="#772710"/>
<path d="M382.567 345.641C381.539 344.959 380.6 344.176 379.682 343.37C378.775 342.551 377.891 341.708 377.096 340.764C378.125 341.445 379.064 342.228 379.981 343.035C380.887 343.855 381.771 344.698 382.567 345.641Z" fill="#772710"/>
<path d="M360.949 346.64C360.949 346.64 362.081 350.424 362.639 355.984C362.86 358.185 362.637 366.158 360.164 366.066C357.691 365.974 361.279 360.556 361.65 356.33C362.026 352.04 360.665 349.139 360.319 346.654L360.949 346.64Z" fill="#772710"/>
<path d="M354.057 346.535C354.057 346.535 352.71 349.881 351.737 354.89C351.352 356.873 350.886 364.142 353.143 364.266C355.399 364.39 352.591 359.162 352.608 355.288C352.625 351.356 354.106 348.831 354.629 346.6L354.057 346.535Z" fill="#772710"/>
<path d="M306.834 364.558C307.547 357.802 309.145 348.359 311.486 346.316C313.943 344.172 322.883 336.982 325.499 335.981C328.115 334.98 339.766 330.112 341.973 331.296C343.74 332.244 341.832 336.873 336.289 339.239C331.417 341.319 328.935 343.193 327.544 343.848C326.125 344.517 322.815 349.285 323.825 351.317C324.42 352.514 328.002 353.827 330.168 352.762C332.334 351.697 332.738 347.328 335.183 345.194C337.629 343.061 342.067 343.168 342.361 344.356C342.656 345.544 341.211 346.15 339.074 350.289C337.701 352.951 337.804 359.229 334.643 363.833C333.054 366.147 330.353 372.257 330.353 372.257L306.834 364.558Z" fill="#FFC4C0"/>
<path d="M337.469 343.264C338.239 343.063 339.076 342.8 339.633 342.199C339.869 341.945 340.047 341.631 340.103 341.286C340.133 341.104 340.131 340.906 340.102 340.724C340.074 340.555 340.018 340.297 339.869 340.195C339.824 340.164 339.889 340.108 339.913 340.152C339.966 340.25 340.059 340.324 340.124 340.413C340.179 340.489 340.222 340.575 340.258 340.662C340.332 340.837 340.367 341.017 340.37 341.207C340.375 341.62 340.221 342.016 339.968 342.339C339.367 343.106 338.408 343.334 337.476 343.33C337.438 343.33 337.433 343.274 337.469 343.264Z" fill="#772710"/>
<path d="M311.487 346.315C313.514 342.889 318.788 336.659 324.138 334.403C327.754 332.878 340.558 338.604 340.269 341.025C339.98 343.446 337.829 343.524 334.628 343.249C333.462 343.149 327.248 341.144 326.243 342.467C324.799 344.368 323.094 350.76 323.094 350.76L311.487 346.315Z" fill="#FFC4C0"/>
<path d="M339.927 340.095C338.285 337.567 334.818 336.303 331.377 335.328C331.323 335.313 331.296 335.395 331.35 335.41C332.226 335.659 337.859 338.031 339.891 340.138C339.913 340.161 339.943 340.12 339.927 340.095Z" fill="#772710"/>
<path d="M311.487 346.315C313.514 342.889 318.788 336.659 324.138 334.403C327.754 332.878 337.982 340.406 337.694 342.827C337.405 345.249 334.318 345.541 330.861 344.463C329.744 344.115 325.954 341.628 324.949 342.95C323.505 344.851 319.987 349.569 319.987 349.569L311.487 346.315Z" fill="#FFC4C0"/>
<path d="M322.008 346.653C322.334 346.113 322.446 345.923 322.782 345.387C323.117 344.854 323.46 344.325 323.832 343.819C324.154 343.381 324.464 342.898 324.923 342.591C325.363 342.296 325.905 342.213 326.425 342.244C327.614 342.315 328.709 343.033 329.734 343.577C330.877 344.184 333.241 345.153 335.018 344.906C335.507 344.838 335.989 344.74 336.414 344.478C336.69 344.308 337.062 344.095 337.235 343.778C337.965 342.441 336.95 340.974 335.927 339.946C334.021 338.03 331.498 336.678 329.057 335.578C328.457 335.308 327.851 335.053 327.245 334.799C326.554 334.509 325.837 334.232 325.062 334.251C323.822 334.282 321.834 335.608 321.215 336.009C321.168 336.039 321.13 335.963 321.176 335.932C321.922 335.432 323.759 333.825 325.762 333.861C326.495 333.874 327.191 334.227 327.866 334.493C328.572 334.771 329.271 335.072 329.961 335.389C331.304 336.006 332.615 336.698 333.846 337.519C335.009 338.294 336.252 339.203 337.06 340.363C337.76 341.368 338.007 342.823 337.394 343.923C336.877 344.85 335.718 345.107 335.186 345.193C334.655 345.279 334.144 345.286 333.608 345.23C333.052 345.172 331.012 344.652 330.148 344.34C329.05 343.944 328.05 343.245 326.922 342.944C326.383 342.801 325.798 342.812 325.308 343.103C324.853 343.373 324.483 343.855 324.136 344.245C323.35 345.129 322.83 345.703 322.195 346.706C322.04 346.949 321.872 346.879 322.008 346.653Z" fill="#772710"/>
<path d="M309.996 349.295C310.729 347.673 311.838 341.048 313.042 338.989C314.246 336.93 319.818 329.76 322.537 329.973C325.954 330.241 322.608 336.491 320.907 339.076C319.206 341.661 319.649 345.944 319.649 345.944L309.996 349.295Z" fill="#FFC4C0"/>
<path d="M323.254 334.806C322.647 335.626 322.115 336.532 321.592 337.408C321.097 338.239 320.52 339.065 320.152 339.963C319.783 340.864 319.639 341.822 319.58 342.788C319.551 343.264 319.551 343.735 319.564 344.211C319.578 344.73 319.641 345.251 319.646 345.769C319.647 345.824 319.732 345.829 319.732 345.774C319.741 344.836 319.877 343.868 320.008 342.94C320.145 341.974 320.401 341.006 320.769 340.102C321.506 338.293 322.619 336.665 323.372 334.864C323.404 334.791 323.297 334.748 323.254 334.806Z" fill="#772710"/>
<path d="M319.714 346.663C319.554 348.3 320.095 349.933 320.742 351.418C321.077 352.166 321.463 352.892 321.904 353.589C322.349 354.288 322.872 354.946 323.38 355.55C324.4 356.773 325.307 358.03 325.985 359.442C326.666 360.849 327.112 362.38 327.44 363.963C327.48 362.352 327.269 360.697 326.679 359.148C326.116 357.589 325.169 356.18 324.15 354.928C323.103 353.696 322.241 352.454 321.469 351.056C320.734 349.668 319.968 348.259 319.714 346.663Z" fill="#772710"/>
<path d="M313.877 403.005C320.471 401.823 324.328 390.543 331.057 370.712C332.238 367.232 313.998 346.936 311.777 350.178C308.98 354.262 301.935 376.634 301.354 382.673C300.211 394.578 306.177 404.385 313.877 403.005Z" fill="#FFC4C0"/>
<path d="M327.529 381.769L305.256 361.922C305.256 361.922 299.956 380.06 300.847 387.527C301.738 394.993 304.719 403.421 313.761 403.502C320.529 403.562 327.529 381.769 327.529 381.769Z" fill="#FFC727"/>
<path d="M321.239 396.446C321.964 395.318 322.603 394.145 323.223 392.963C323.851 391.785 324.414 390.575 324.965 389.359C325.501 388.137 326.016 386.903 326.455 385.639C326.897 384.378 327.314 383.097 327.529 381.769C327.016 383.006 326.472 384.213 325.92 385.423L324.28 389.055C323.748 390.273 323.205 391.486 322.703 392.72C322.193 393.949 321.686 395.182 321.239 396.446Z" fill="#772710"/>
<path d="M323.082 385.588C321.996 384.495 320.812 383.488 319.664 382.46C318.514 381.431 317.354 380.414 316.181 379.411C313.835 377.407 311.479 375.416 309.097 373.455C308.445 372.919 307.792 372.384 307.131 371.859C306.423 371.297 305.644 370.823 304.944 370.257C304.889 370.213 304.822 370.295 304.874 370.341C305.44 370.843 305.938 371.427 306.495 371.942C307.073 372.475 307.662 372.996 308.255 373.513C309.418 374.527 310.584 375.537 311.756 376.541C314.098 378.548 316.453 380.545 318.859 382.474C320.219 383.564 321.559 384.703 322.981 385.711C323.065 385.77 323.154 385.661 323.082 385.588Z" fill="#772710"/>
<path d="M351.436 347.023L360.451 374.95C360.809 375.763 360.435 376.468 359.616 376.521L344.963 377.481C344.145 377.535 343.189 376.917 342.832 376.104L333.817 348.177C333.459 347.362 333.833 346.659 334.651 346.606L349.303 345.646C350.122 345.592 351.077 346.208 351.436 347.023Z" fill="#772710"/>
<path d="M349.696 347.121L358.71 375.048C359.068 375.861 358.694 376.566 357.875 376.619L343.222 377.579C342.404 377.633 341.448 377.015 341.09 376.202L332.075 348.275C331.716 347.46 332.091 346.757 332.909 346.703L347.561 345.743C348.382 345.69 349.337 346.306 349.696 347.121Z" fill="#D75B08"/>
<path d="M345.763 348.682C345.823 349.368 346.428 349.876 347.115 349.816C347.801 349.756 348.309 349.15 348.249 348.464C348.189 347.778 347.584 347.27 346.897 347.33C346.211 347.39 345.703 347.996 345.763 348.682Z" fill="#772710"/>
<path d="M407.025 409.244C400.627 410.124 392.653 405.152 371.972 390.055C369.11 387.966 378.421 363.804 381.591 365.878C385.585 368.49 400.517 379.493 401.507 380.435C409.86 388.385 411.365 408.648 407.025 409.244Z" fill="#FFC4C0"/>
<path d="M388.977 373.187C388.977 373.187 383.087 364.922 378.649 361.538C372.706 357.006 365.709 355.541 362.74 355.104C356.542 354.191 340.925 356.271 340.739 360.873C340.571 365.039 356.427 362.108 356.427 362.108C356.427 362.108 339.768 362.429 340.487 367.483C341.207 372.537 359.419 368.087 359.419 368.087C359.419 368.087 342.31 368.801 343.876 373.895C345.06 377.745 361.782 374.644 361.782 374.644C361.782 374.644 347.08 375.359 348.127 379.371C349.284 383.804 364.899 381.91 364.899 381.91C369.276 391.659 375.553 394.405 380.114 395.919C381.218 396.283 388.977 373.187 388.977 373.187Z" fill="#FFC4C0"/>
<path d="M362.181 361.627C360.223 361.594 358.241 361.547 356.286 361.688C354.331 361.829 352.38 362.039 350.448 362.361C345.708 363.152 342.863 364.388 343.047 364.331C347.399 362.977 354.388 362.364 356.343 362.223C358.293 362.082 360.237 361.843 362.188 361.701C362.238 361.697 362.228 361.627 362.181 361.627Z" fill="#772710"/>
<path d="M362.819 368.675C360.316 368.741 357.83 368.715 355.33 368.891C352.842 369.067 350.497 369.451 348.028 369.798C347.838 369.825 347.915 369.918 348.107 369.899C350.588 369.651 352.901 369.614 355.385 369.395C357.86 369.178 360.346 368.862 362.826 368.734C362.864 368.732 362.857 368.674 362.819 368.675Z" fill="#772710"/>
<path d="M364.454 374.626C360.625 374.531 356.782 375.142 353.028 375.833C352.841 375.867 352.953 375.977 353.147 375.953C356.938 375.48 359.908 375.082 364.452 374.76C364.522 374.754 364.535 374.628 364.454 374.626Z" fill="#772710"/>
<path d="M388.977 369.901L380.827 399.596C380.827 399.596 402.691 412.469 407.522 409.065C412.353 405.661 409.192 388.512 403.725 381.973C401.447 379.248 388.977 369.901 388.977 369.901Z" fill="#FFC727"/>
<path d="M388.706 370.891L389.027 369.915L388.947 369.943C391.011 371.63 393.084 373.301 395.127 375.006C397.183 376.693 399.22 378.404 401.165 380.202C402.132 381.1 403.115 382 403.941 383.001C404.774 384.011 405.493 385.113 406.144 386.254C407.424 388.553 408.273 391.091 408.78 393.707C408.57 391.047 407.854 388.406 406.643 385.991C406.051 384.777 405.307 383.637 404.466 382.575C403.611 381.505 402.635 380.585 401.668 379.656C399.685 377.854 397.612 376.169 395.506 374.529C393.378 372.918 391.226 371.341 389.007 369.86L388.942 369.817L388.926 369.888L388.706 370.891Z" fill="#772710"/>
<path d="M393.768 377.272C393.269 378.73 392.891 380.238 392.479 381.722C392.066 383.209 391.668 384.7 391.289 386.196C390.532 389.187 389.791 392.181 389.089 395.186C388.897 396.008 388.707 396.83 388.529 397.656C388.339 398.54 388.259 399.448 388.062 400.327C388.047 400.396 388.15 400.42 388.168 400.352C388.367 399.622 388.67 398.917 388.885 398.189C389.107 397.435 389.313 396.676 389.514 395.915C389.907 394.423 390.296 392.93 390.677 391.435C391.438 388.446 392.185 385.451 392.848 382.438C393.222 380.736 393.65 379.03 393.923 377.309C393.939 377.207 393.801 377.176 393.768 377.272Z" fill="#772710"/>
<path d="M381.553 396.955C381.494 397.885 381.348 398.792 381.15 399.685L381.003 399.312C382.654 400.205 384.214 401.22 385.716 402.389C384.781 402.158 383.911 401.765 383.075 401.334C382.238 400.899 381.431 400.417 380.654 399.882L380.434 399.73L380.507 399.509C380.791 398.64 381.129 397.785 381.553 396.955Z" fill="#772710"/>
<path d="M375.054 273.333V295.822H379.49V303.488L387.156 295.822H452.088V273.333H375.054Z" fill="white"/>
<path d="M375.054 273.333C375.116 280.915 375.315 288.41 375.353 295.822L375.054 295.523L379.49 295.496L379.814 295.494L379.816 295.822L379.862 303.488L379.228 303.225L386.855 295.52L386.979 295.395H387.157L452.089 295.332L451.599 295.822L451.638 273.333L452.089 273.784C429.902 273.755 397.593 273.512 375.054 273.333ZM375.054 273.333C397.811 273.207 429.632 272.856 452.088 272.882H452.539L452.54 273.333L452.579 295.822L452.58 296.312H452.089L387.157 296.249L387.459 296.124L379.754 303.751L379.114 304.384L379.119 303.488L379.165 295.822L379.49 296.147L375.054 296.12L374.753 296.118L374.754 295.821C374.793 288.241 374.992 280.744 375.054 273.333Z" fill="#772710"/>
<path d="M386.538 279.297L388.291 281.909L391.318 282.769L389.375 285.243L389.492 288.387L386.538 287.304L383.584 288.387L383.702 285.243L381.759 282.769L384.785 281.909L386.538 279.297Z" fill="#FFC727"/>
<path d="M400.055 279.297L401.808 281.909L404.834 282.769L402.891 285.243L403.008 288.387L400.055 287.304L397.101 288.387L397.218 285.243L395.275 282.769L398.301 281.909L400.055 279.297Z" fill="#FFC727"/>
<path d="M413.571 279.297L415.324 281.909L418.35 282.769L416.408 285.243L416.525 288.387L413.571 287.304L410.617 288.387L410.735 285.243L408.792 282.769L411.818 281.909L413.571 279.297Z" fill="#FFC727"/>
<path d="M427.087 279.297L428.841 281.909L431.867 282.769L429.924 285.243L430.041 288.387L427.087 287.304L424.133 288.387L424.251 285.243L422.308 282.769L425.334 281.909L427.087 279.297Z" fill="#FFC727"/>
<path d="M440.604 287.304V279.297L438.85 281.909L435.824 282.769L437.767 285.243L437.65 288.387L440.604 287.304Z" fill="#FFC727"/>
<path d="M440.604 279.297L442.438 281.855C443.14 281.949 444.505 282.393 445.429 282.612L445.664 282.673L445.514 282.871L443.61 285.376L443.655 285.236L443.79 288.379L443.805 288.723L443.479 288.606L440.519 287.54H440.691L437.731 288.606L437.404 288.724L437.419 288.38L437.554 285.237L437.6 285.377L435.696 282.872L435.545 282.673L435.781 282.611C436.701 282.395 438.071 281.945 438.771 281.855C438.769 281.854 440.604 279.297 440.604 279.297ZM440.604 279.297L438.932 281.964C437.952 282.348 436.881 282.596 435.87 282.928L435.955 282.668L437.936 285.112C437.992 285.172 437.986 285.178 437.982 285.252L437.883 288.396L437.571 288.169L440.519 287.07C440.608 287.032 440.606 287.035 440.691 287.07L443.638 288.17L443.327 288.396L443.228 285.252C443.222 285.173 443.223 285.169 443.274 285.112L445.255 282.668L445.339 282.927C444.327 282.596 443.257 282.346 442.277 281.963C442.276 281.963 440.604 279.297 440.604 279.297Z" fill="#772710"/>
<path d="M160.027 38.5732V76.8532H164.463V84.5192L172.129 76.8532H250.299V38.5732H160.027Z" fill="white"/>
<path d="M160.027 38.573L160.183 57.777C160.257 64.161 160.299 70.506 160.307 76.852L160.027 76.572L164.463 76.556L164.758 76.555L164.759 76.853L164.787 84.519L164.233 84.29L171.871 76.596L171.977 76.49C184.996 76.457 218.157 76.378 230.756 76.359L250.298 76.406L249.851 76.853L249.935 38.574L250.298 38.937C227.795 38.917 182.527 38.713 160.027 38.573ZM160.027 38.573C182.52 38.436 227.805 38.233 250.298 38.21L250.66 38.209L250.661 38.573L250.745 76.852L250.746 77.298L250.298 77.299C228.497 77.408 194.184 77.253 172.129 77.216L172.387 77.109L164.693 84.746L164.136 85.299L164.139 84.517L164.167 76.851L164.463 77.147L160.027 77.131L159.746 77.13C159.696 65.877 159.995 49.965 160.027 38.573Z" fill="#772710"/>
<path d="M191.063 57.7643C191.063 63.7843 186.183 68.6653 180.163 68.6653C174.143 68.6653 169.262 63.7853 169.262 57.7643C169.262 51.7433 174.142 46.8633 180.163 46.8633C186.183 46.8633 191.063 51.7433 191.063 57.7643Z" fill="#EBEBEB"/>
<path d="M180.304 59.6168C182.198 59.6168 183.734 58.0812 183.734 56.1868C183.734 54.2925 182.198 52.7568 180.304 52.7568C178.41 52.7568 176.874 54.2925 176.874 56.1868C176.874 58.0812 178.41 59.6168 180.304 59.6168Z" fill="white"/>
<path d="M174.377 65.6477V67.0627C175.357 67.6717 176.445 68.1367 177.628 68.4237C180.686 69.1707 183.753 68.5967 186.232 67.0577V65.6477C186.232 62.3827 183.58 59.7207 180.305 59.7207C177.029 59.7207 174.377 62.3827 174.377 65.6477Z" fill="white"/>
<path d="M239.658 51.1357H198.779V51.7577H239.658V51.1357Z" fill="#EBEBEB"/>
<path d="M239.658 55.375H198.779V55.997H239.658V55.375Z" fill="#EBEBEB"/>
<path d="M239.658 59.6143H198.779V60.2363H239.658V59.6143Z" fill="#EBEBEB"/>
<path d="M219.04 63.8545H198.779V64.4765H219.04V63.8545Z" fill="#EBEBEB"/>
</svg>
