<svg width="500" height="500" viewBox="0 0 500 500" fill="none" xmlns="http://www.w3.org/2000/svg">
<path d="M500 382.398H0V382.648H500V382.398Z" fill="#EBEBEB"/>
<path d="M85.581 391.922H52.459V392.172H85.581V391.922Z" fill="#EBEBEB"/>
<path d="M226.556 389.208H171.14V389.458H226.556V389.208Z" fill="#EBEBEB"/>
<path d="M110.192 397.861H91V398.111H110.192V397.861Z" fill="#EBEBEB"/>
<path d="M428.653 391.797H385.46V392.047H428.653V391.797Z" fill="#EBEBEB"/>
<path d="M443.889 391.797H437.556V392.047H443.889V391.797Z" fill="#EBEBEB"/>
<path d="M324.051 395.307H277.213V395.557H324.051V395.307Z" fill="#EBEBEB"/>
<path d="M237.014 337.8H43.915C40.768 337.8 38.207 335.239 38.207 332.092V60.6601C38.207 57.5131 40.768 54.9521 43.915 54.9521H237.014C240.16 54.9521 242.721 57.5131 242.721 60.6601V332.092C242.721 335.239 240.16 337.8 237.014 337.8ZM43.915 55.2031C40.905 55.2031 38.457 57.6511 38.457 60.6611V332.093C38.457 335.103 40.905 337.551 43.915 337.551H237.014C240.023 337.551 242.471 335.103 242.471 332.093V60.6601C242.471 57.6511 240.023 55.2021 237.014 55.2021L43.915 55.2031Z" fill="#EBEBEB"/>
<path d="M453.31 337.8H260.212C257.065 337.8 254.505 335.239 254.505 332.092V60.6601C254.505 57.5131 257.066 54.9521 260.212 54.9521H453.31C456.458 54.9521 459.018 57.5131 459.018 60.6601V332.092C459.019 335.239 456.458 337.8 453.31 337.8ZM260.212 55.2031C257.203 55.2031 254.755 57.6511 254.755 60.6611V332.093C254.755 335.103 257.203 337.551 260.212 337.551H453.31C456.32 337.551 458.768 335.103 458.768 332.093V60.6601C458.768 57.6511 456.32 55.2021 453.31 55.2021L260.212 55.2031Z" fill="#EBEBEB"/>
<path d="M297.841 74.3936H104.783V212.986H297.841V74.3936Z" fill="#FAFAFA"/>
<path d="M286.854 212.986L237.75 74.3936H200.899L250.003 212.986H286.854Z" fill="white"/>
<path d="M187.763 212.986L138.658 74.3936H125.217L174.322 212.986H187.763Z" fill="white"/>
<path d="M95.578 69.6279H307.046C307.518 69.6279 307.904 70.0139 307.904 70.4859C307.904 70.9579 307.518 71.3439 307.046 71.3439H95.578C95.106 71.3439 94.72 70.9579 94.72 70.4859C94.72 70.0139 95.106 69.6279 95.578 69.6279Z" fill="#E0E0E0"/>
<path d="M202.456 74.0957H200.168V213.284H202.456V74.0957Z" fill="#F0F0F0"/>
<path d="M200.168 74.0957H199.024V213.284H200.168V74.0957Z" fill="#E0E0E0"/>
<path d="M103.449 142.546V144.834H299.175V142.546H103.449Z" fill="#F0F0F0"/>
<path d="M103.449 212.032V75.3466V73.0586H105.736H296.887H299.175V75.3466V212.032V214.32H296.887H105.736H103.449V212.032ZM296.887 212.032V75.3466H105.736V212.032H296.887Z" fill="#F0F0F0"/>
<path d="M103.449 73.0586H102.305V214.32H103.449V73.0586Z" fill="#E0E0E0"/>
<path opacity="0.5" d="M131.83 67.5312V230.288H90.51L98.088 67.5312H131.83Z" fill="#EBEBEB"/>
<path opacity="0.5" d="M269.651 67.5312V230.288H310.971L303.393 67.5312H269.651Z" fill="#EBEBEB"/>
<path d="M77.6831 249.789H61.9241V377.619H77.6831V249.789Z" fill="#F0F0F0"/>
<path d="M238.576 377.619H64.9501V382.399H238.576V377.619Z" fill="#F0F0F0"/>
<path d="M77.6838 377.619H241.603L241.603 249.789H77.6838L77.6838 377.619Z" fill="#F5F5F5"/>
<path d="M76.048 245.618H59.941V249.789H76.048V245.618Z" fill="#F0F0F0"/>
<path d="M76.0484 249.789L243.585 249.789V245.618L76.0484 245.618V249.789Z" fill="#FAFAFA"/>
<path d="M235.936 321.726H83.3501V258.545H235.936V321.726ZM84.4081 320.667H234.877V259.603H84.4081V320.667Z" fill="#E0E0E0"/>
<path d="M235.936 368.862H83.3501V328.051H235.936V368.862ZM84.4081 367.804H234.877V329.11H84.4081V367.804Z" fill="#E0E0E0"/>
<path d="M213.98 262.467H105.305C104.536 262.467 103.907 261.838 103.907 261.069V260.471C103.907 259.702 104.536 259.073 105.305 259.073H213.98C214.749 259.073 215.378 259.702 215.378 260.471V261.069C215.378 261.838 214.749 262.467 213.98 262.467Z" fill="#E0E0E0"/>
<path d="M213.98 331.974H105.305C104.536 331.974 103.907 331.345 103.907 330.576V329.979C103.907 329.21 104.536 328.581 105.305 328.581H213.98C214.749 328.581 215.378 329.21 215.378 329.979V330.576C215.378 331.345 214.749 331.974 213.98 331.974Z" fill="#E0E0E0"/>
<path d="M347.859 376.265H439.536L439.536 96.5486H347.859V376.265Z" fill="#F0F0F0"/>
<path d="M347.859 96.5479H344.95V376.264H347.859V96.5479Z" fill="#E0E0E0"/>
<path d="M362.733 365.595H424.662L424.662 107.219H362.733V365.595Z" fill="#FAFAFA"/>
<path d="M250 427.561C357.082 427.561 443.889 422.492 443.889 416.238C443.889 409.985 357.082 404.915 250 404.915C142.918 404.915 56.111 409.985 56.111 416.238C56.111 422.492 142.918 427.561 250 427.561Z" fill="#F5F5F5"/>
<path d="M143.356 407.533L151.185 404.563L146.392 385.641L138.562 388.611L143.356 407.533Z" fill="#B55B52"/>
<path d="M84.527 407.685H92.901L94.155 388.293H85.781L84.527 407.685Z" fill="#B55B52"/>
<path d="M93.739 406.715H83.529C83.187 406.715 82.902 406.953 82.844 407.287L81.56 414.73C81.427 415.502 82.07 416.233 82.86 416.219C86.142 416.163 88.529 415.97 92.666 415.97C95.211 415.97 102.9 416.234 106.415 416.234C109.853 416.234 110.216 412.759 108.762 412.444C102.24 411.033 97.281 409.086 95.123 407.229C94.734 406.895 94.239 406.715 93.739 406.715Z" fill="#263238"/>
<path d="M150.787 403.677L142.237 406.92C141.917 407.041 141.724 407.369 141.773 407.708L142.866 415.254C142.979 416.036 143.787 416.512 144.521 416.22C147.586 414.998 150.187 413.447 154.089 412.046C158.652 410.408 163.181 408.656 166.874 406.304C169.773 404.457 168.552 400.961 167.185 401.509C160.962 404.007 159.436 404.828 152.905 403.573C152.194 403.436 151.462 403.421 150.787 403.677Z" fill="#263238"/>
<path d="M128.697 152.492C131.333 157.148 134.109 161.948 136.907 166.592C139.703 171.257 142.578 175.867 145.626 180.189C146.365 181.284 147.183 182.331 147.92 183.344C148.225 183.797 148.355 183.927 148.57 184.098C148.788 184.258 149.299 184.403 150.089 184.336C150.87 184.281 151.861 184.053 152.886 183.672C154.958 182.916 157.175 181.676 159.344 180.289C160.422 179.58 161.517 178.85 162.589 178.073C163.645 177.306 164.74 176.448 165.716 175.695L170.412 179.876C169.512 181.186 168.633 182.299 167.664 183.449C166.709 184.586 165.715 185.705 164.635 186.76C163.565 187.828 162.429 188.858 161.197 189.831C159.969 190.809 158.652 191.747 157.166 192.573C155.68 193.396 154.042 194.163 152.083 194.642C150.146 195.106 147.784 195.286 145.328 194.622C142.862 193.993 140.639 192.417 139.165 190.731C138.161 189.567 137.181 188.481 136.265 187.331C132.552 182.782 129.276 178.074 126.167 173.283C123.075 168.458 120.218 163.628 117.514 158.495L128.697 152.492Z" fill="#B65B52"/>
<path d="M113.844 152.877C111.586 160.558 127.481 181.499 127.481 181.499L143.508 171.186C143.508 171.186 138.798 160.502 132.402 152.354C125.836 143.989 116.322 144.447 113.844 152.877Z" fill="#F99D1C"/>
<path opacity="0.2" d="M113.844 152.877C111.586 160.558 127.481 181.499 127.481 181.499L143.508 171.186C143.508 171.186 138.798 160.502 132.402 152.354C125.836 143.989 116.322 144.447 113.844 152.877Z" fill="black"/>
<path opacity="0.2" d="M123.614 161.894C126.911 163.302 131.762 171.241 134.286 177.125L127.484 181.496C127.484 181.496 121.36 173.432 117.26 165.472C119.409 163.115 121.871 161.154 123.614 161.894Z" fill="black"/>
<path d="M164.73 178.306L167.666 170.083L176 174.06C176 174.06 174.27 181.394 168.172 181.382L164.73 178.306Z" fill="#B55B52"/>
<path d="M175.083 164.667L178.609 168.565L176.001 174.061L167.667 170.083L175.083 164.667Z" fill="#B55B52"/>
<path opacity="0.2" d="M146.391 385.647L148.864 395.4L141.031 398.371L138.559 388.618L146.391 385.647Z" fill="black"/>
<path opacity="0.2" d="M85.7791 388.298H94.1571L93.5061 398.294H85.1281L85.7791 388.298Z" fill="black"/>
<path d="M76.5171 149.48C85.5371 181.289 84.0611 215.04 84.6241 221.897C91.1871 221.662 115.908 220.73 129.384 220.22C136.987 172.805 123.333 146.415 123.333 146.415C123.333 146.415 120.461 145.857 116.555 145.456C115.33 145.331 114.009 145.22 112.633 145.148C111.873 145.102 111.101 145.078 110.318 145.062C105.265 144.979 97.0131 145.782 91.3281 146.477C90.1381 146.625 88.9251 146.804 87.7541 146.995C86.6661 147.181 85.5991 147.378 84.5941 147.579C80.0351 148.488 76.5171 149.48 76.5171 149.48Z" fill="#F99D1C"/>
<path opacity="0.2" d="M76.5171 149.48C85.5371 181.289 84.0611 215.04 84.6241 221.897C91.1871 221.662 115.908 220.73 129.384 220.22C136.987 172.805 123.333 146.415 123.333 146.415C123.333 146.415 120.461 145.857 116.555 145.456C115.33 145.331 114.009 145.22 112.633 145.148C111.873 145.102 111.101 145.078 110.318 145.062C105.265 144.979 97.0131 145.782 91.3281 146.477C90.1381 146.625 88.9251 146.804 87.7541 146.995C86.6661 147.181 85.5991 147.378 84.5941 147.579C80.0351 148.488 76.5171 149.48 76.5171 149.48Z" fill="black"/>
<path opacity="0.2" d="M86.0461 163.126C86.8491 166.203 85.9311 180.246 82.7181 183.709C82.2801 179.213 81.6961 174.518 80.9241 169.719L86.0461 163.126Z" fill="black"/>
<path d="M91.6211 124.955C93.2731 130.975 95.3021 142.08 91.3311 146.474C94.8971 149.527 99.5211 153.018 106.795 152.733C114.068 152.448 112.43 147.553 110.318 145.062C103.385 143.942 103.184 138.874 104.018 134.039L91.6211 124.955Z" fill="#B55B52"/>
<path d="M106.98 151.697L108.301 152.591L103.481 153.994L104.723 151.763L106.98 151.697Z" fill="#F99D1C"/>
<path d="M108.799 151.229L108.301 152.592L113.141 153.995L112.814 151.406L108.799 151.229Z" fill="#F99D1C"/>
<path d="M88.437 146.013L90.342 145.057C90.961 144.746 91.7 144.805 92.256 145.218C94.256 146.704 99.577 150.21 106.98 151.698C103.155 153.524 104.101 158.421 104.101 158.421C104.101 158.421 91.951 154.414 88.05 147.16C87.827 146.745 88.016 146.225 88.437 146.013Z" fill="white"/>
<path d="M112.442 144.752L109.649 144.332C109.325 144.283 109.104 144.645 109.293 144.913C110.269 146.296 111.888 149.355 108.8 151.23C112.625 153.056 113.815 157.524 113.815 157.524C113.815 157.524 118.794 152.15 112.989 145.062C112.853 144.896 112.654 144.784 112.442 144.752Z" fill="white"/>
<path opacity="0.2" d="M96.675 128.663L104.012 134.035C103.811 135.18 103.674 136.335 103.677 137.449C101.046 137.267 97.259 134.676 96.78 131.971C96.541 130.622 96.501 129.312 96.675 128.663Z" fill="black"/>
<path d="M112.867 112.611C112.532 115.516 109.743 118.022 107.937 118.648L105.69 105.989C110.741 102.429 113.338 108.527 112.867 112.611Z" fill="#263238"/>
<path d="M89.0911 116.101C90.5471 124.283 90.9831 129.146 95.6321 132.896C102.625 138.537 112.362 133.591 113.381 125.139C114.298 117.531 111.763 105.428 103.319 103.078C95.0001 100.763 87.6351 107.919 89.0911 116.101Z" fill="#B55B52"/>
<path d="M90.6461 121.618C94.4361 123.632 96.1051 119.105 96.1381 117.271C96.1891 114.347 94.9231 111.142 93.4151 109.968C100.731 109.925 115.206 109.606 111.555 102.637C107.904 95.667 100.592 96.464 95.0801 100.275C92.1671 102.289 82.7471 100.536 85.0821 105.969C80.1701 108.578 84.4301 118.315 90.6461 121.618Z" fill="#263238"/>
<path d="M85.885 105.52C85.885 105.52 84.272 105.67 82.274 104.292C82.85 106.88 85.47 106.94 85.47 106.94L85.885 105.52Z" fill="#263238"/>
<path d="M86.0141 122.831C87.0021 124.842 88.8271 126.209 90.5791 126.776C93.2151 127.628 93.8191 125.211 93.1791 122.666C92.6031 120.375 91.3621 117.256 88.6721 117.512C86.0221 117.764 84.8841 120.531 86.0141 122.831Z" fill="#B55B52"/>
<path d="M139.134 308.75C135.731 283.42 129.383 220.223 129.383 220.223L99.959 221.327C99.959 221.327 113.837 284.482 118.86 310.088C123.883 335.694 137.852 397.501 137.852 397.501L151.112 392.479C151.112 392.479 142.676 335.087 139.134 308.75Z" fill="#263238"/>
<path opacity="0.2" d="M110.945 238.354C109.109 238.813 106.209 239.94 104.404 241.703C107.179 254.472 110.81 271.278 113.929 286.092C116.057 273.259 116.12 249.047 110.945 238.354Z" fill="black"/>
<path d="M113.507 220.819C113.507 220.819 107.264 289.375 104.404 313.744C101.272 340.43 97.3621 396.358 97.3621 396.358H82.0251C82.0251 396.358 81.3891 346.893 83.3831 320.771C85.6541 291.016 84.6271 221.905 84.6271 221.905L113.507 220.819Z" fill="#263238"/>
<path d="M99.4001 396.69H81.3401L80.9601 391.294L101.124 390.943L99.4001 396.69Z" fill="#F99D1C"/>
<path d="M152.894 392.156L137.095 398.148L135.159 393.043L152.718 386.077L152.894 392.156Z" fill="#F99D1C"/>
<path d="M101.856 116.964C101.933 117.635 102.351 118.138 102.79 118.087C103.229 118.037 103.521 117.452 103.444 116.781C103.367 116.11 102.949 115.607 102.51 115.658C102.071 115.708 101.778 116.293 101.856 116.964Z" fill="#263238"/>
<path d="M109.44 116.09C109.517 116.761 109.936 117.264 110.374 117.213C110.813 117.163 111.105 116.578 111.028 115.907C110.951 115.236 110.532 114.733 110.094 114.784C109.656 114.835 109.363 115.419 109.44 116.09Z" fill="#263238"/>
<path d="M107.067 116.702C107.067 116.702 109.039 120.397 110.934 122.071C109.875 123.316 107.798 123.042 107.798 123.042L107.067 116.702Z" fill="#A02724"/>
<path d="M105.176 125.163C102.584 125.113 101.196 123.478 101.132 123.401C101.062 123.317 101.074 123.192 101.158 123.122C101.242 123.052 101.367 123.064 101.437 123.147C101.453 123.166 103.074 125.064 106.01 124.726C106.119 124.714 106.217 124.792 106.23 124.9C106.243 125.009 106.164 125.107 106.056 125.12C105.749 125.156 105.456 125.169 105.176 125.163Z" fill="#263238"/>
<path d="M99.235 114.784C99.169 114.783 99.102 114.765 99.041 114.729C98.852 114.618 98.79 114.375 98.901 114.186C100.016 112.296 101.844 112.193 101.922 112.19C102.141 112.18 102.326 112.35 102.336 112.569C102.346 112.787 102.177 112.972 101.959 112.983C101.899 112.986 100.474 113.081 99.584 114.59C99.509 114.717 99.373 114.787 99.235 114.784Z" fill="#263238"/>
<path d="M112.407 113.105C112.279 113.102 112.154 113.038 112.08 112.921C111.139 111.444 109.712 111.397 109.652 111.396C109.434 111.391 109.259 111.211 109.263 110.993C109.266 110.775 109.444 110.6 109.663 110.603C109.742 110.606 111.571 110.644 112.75 112.495C112.868 112.68 112.813 112.925 112.629 113.043C112.559 113.087 112.482 113.106 112.407 113.105Z" fill="#263238"/>
<path d="M96.581 408.178C95.807 408.178 94.963 408.017 94.375 407.877C94.296 407.858 94.234 407.795 94.218 407.716C94.201 407.637 94.233 407.558 94.299 407.516C94.595 407.325 97.214 405.666 98.163 406.142C98.31 406.216 98.494 406.373 98.531 406.703C98.581 407.147 98.46 407.499 98.173 407.751C97.809 408.07 97.218 408.178 96.581 408.178ZM94.936 407.599C96.372 407.884 97.463 407.832 97.902 407.448C98.095 407.279 98.171 407.044 98.136 406.728C98.119 406.574 98.054 406.522 97.999 406.495C97.505 406.248 96.002 406.964 94.936 407.599Z" fill="#F99D1C"/>
<path d="M94.421 407.884C94.383 407.884 94.345 407.873 94.311 407.852C94.248 407.812 94.21 407.743 94.212 407.67C94.215 407.568 94.295 405.152 95.229 404.356C95.472 404.149 95.752 404.063 96.061 404.101C96.538 404.159 96.677 404.452 96.718 404.621C96.942 405.555 95.357 407.389 94.514 407.86C94.486 407.876 94.454 407.884 94.421 407.884ZM95.943 404.49C95.78 404.49 95.633 404.547 95.496 404.664C94.897 405.174 94.7 406.582 94.637 407.288C95.466 406.634 96.464 405.248 96.332 404.696C96.32 404.646 96.292 404.528 96.033 404.496C96.003 404.492 95.973 404.49 95.943 404.49Z" fill="#F99D1C"/>
<path d="M151.967 404.468C151.893 404.47 151.824 404.431 151.787 404.365C151.746 404.291 151.757 404.2 151.813 404.137C152.099 403.818 154.641 401.029 155.793 401.198C156.015 401.231 156.186 401.361 156.286 401.575C156.454 401.934 156.452 402.282 156.281 402.609C155.711 403.695 153.35 404.238 151.993 404.465C151.985 404.467 151.976 404.468 151.967 404.468ZM155.658 401.587C154.99 401.607 153.53 402.905 152.513 403.967C154.351 403.599 155.611 403.035 155.931 402.425C156.044 402.211 156.043 401.988 155.928 401.744C155.884 401.65 155.826 401.604 155.736 401.591C155.712 401.587 155.686 401.586 155.658 401.587Z" fill="#F99D1C"/>
<path d="M151.967 404.467C151.948 404.468 151.929 404.466 151.91 404.46C151.842 404.442 151.788 404.389 151.77 404.321C151.745 404.228 151.156 402.039 151.842 400.844C152.051 400.479 152.357 400.241 152.75 400.136C153.28 399.994 153.525 400.197 153.637 400.392C154.116 401.223 152.886 403.626 152.102 404.409C152.065 404.445 152.017 404.466 151.967 404.467ZM153.056 400.486C153.002 400.488 152.935 400.497 152.852 400.519C152.561 400.597 152.343 400.768 152.186 401.041C151.735 401.827 151.935 403.194 152.068 403.847C152.813 402.902 153.581 401.088 153.293 400.59C153.276 400.56 153.23 400.481 153.056 400.486Z" fill="#F99D1C"/>
<path d="M85.724 161.317C83.212 166.493 80.652 171.834 78.17 177.093C76.939 179.738 75.704 182.376 74.538 185.025L72.803 188.996L71.974 190.982L71.766 191.479L71.621 191.848C71.519 192.084 71.453 192.324 71.364 192.562C70.769 194.471 70.608 196.478 71.036 198.644C71.427 200.809 72.378 203.08 73.673 205.297C74.972 207.514 76.606 209.683 78.435 211.742C79.343 212.779 80.297 213.798 81.298 214.774C81.798 215.262 82.308 215.742 82.827 216.208C83.324 216.674 83.889 217.173 84.332 217.557L80.996 222.886C79.445 222.098 78.151 221.324 76.803 220.432C75.474 219.557 74.171 218.632 72.909 217.633C70.399 215.623 68.025 213.346 65.922 210.677C63.83 208.012 61.992 204.919 60.87 201.316C59.763 197.735 59.48 193.599 60.386 189.739C60.507 189.264 60.614 188.779 60.761 188.313L61.147 187.073L61.856 184.869C62.348 183.416 62.836 181.955 63.376 180.528C64.426 177.654 65.525 174.816 66.707 172.02C69.044 166.395 71.573 160.971 74.431 155.523L85.724 161.317Z" fill="#B65B52"/>
<path d="M76.5191 149.481C68.8791 151.874 61.3661 177.779 61.3661 177.779L79.0431 185.516C79.0431 185.516 84.7621 172.997 88.0501 163.186C91.6311 152.5 85.7741 146.583 76.5191 149.481Z" fill="#F99D1C"/>
<path opacity="0.2" d="M76.5191 149.481C68.8791 151.874 61.3661 177.779 61.3661 177.779L79.0431 185.516C79.0431 185.516 84.7621 172.997 88.0501 163.186C91.6311 152.5 85.7741 146.583 76.5191 149.481Z" fill="black"/>
<path d="M82.463 215.915L89.774 220.261L82.663 227.34C82.663 227.34 76.487 222.59 78.329 218.867L82.463 215.915Z" fill="#B55B52"/>
<path d="M94.6551 227.191L87.3221 232.328L82.6631 227.34L89.7741 220.261L94.6551 227.191Z" fill="#B55B52"/>
<path d="M448.378 214.033L448.029 218.854L449.027 218.926L449.376 214.105L448.378 214.033Z" fill="#F99D1C"/>
<path d="M449.731 195.816L448.718 209.79L449.716 209.862L450.729 195.889L449.731 195.816Z" fill="#F99D1C"/>
<path d="M422.324 352.96H177.387C169.903 352.96 164.218 346.837 164.755 339.352L177.714 158.555C178.25 151.071 184.813 144.947 192.297 144.947H437.234C444.718 144.947 450.403 151.07 449.866 158.555L436.907 339.352C436.37 346.837 429.808 352.96 422.324 352.96Z" fill="#F99D1C"/>
<path d="M365.348 416.238H285.844L271.673 317.995H351.177L365.348 416.238Z" fill="#F99D1C"/>
<path d="M352.724 410.385H266.721L265.013 416.239H351.016L352.724 410.385Z" fill="#F99D1C"/>
<path d="M355.374 365.29L277.884 361.056L271.673 317.995H348.552L355.374 365.29Z" fill="#263238"/>
<path d="M419.559 352.96H174.622C167.138 352.96 161.453 346.837 161.99 339.352L174.949 158.555C175.485 151.071 182.048 144.947 189.532 144.947H434.469C441.953 144.947 447.638 151.07 447.101 158.555L434.142 339.352C433.605 346.837 427.043 352.96 419.559 352.96Z" fill="#263238"/>
<path d="M446.503 160.332L439.058 264.046L440.011 264.114L447.456 160.401L446.503 160.332Z" fill="white"/>
<path d="M438.414 273.064L435.839 308.976L436.793 309.044L439.367 273.133L438.414 273.064Z" fill="white"/>
<path d="M419.041 349.577H175.625C169.799 349.577 165.375 344.811 165.792 338.985L178.699 158.923C179.117 153.097 184.225 148.331 190.05 148.331H433.466C439.292 148.331 443.716 153.097 443.299 158.923L430.392 338.985C429.974 344.81 424.866 349.577 419.041 349.577Z" fill="white"/>
<path opacity="0.2" d="M419.041 349.577H175.625C169.799 349.577 165.375 344.811 165.792 338.985L178.699 158.923C179.117 153.097 184.225 148.331 190.05 148.331H433.466C439.292 148.331 443.716 153.097 443.299 158.923L430.392 338.985C429.974 344.81 424.866 349.577 419.041 349.577Z" fill="#F99D1C"/>
<path opacity="0.5" d="M238.063 341.596H181.215C178.401 341.596 176.263 339.293 176.465 336.479L189.012 161.43C189.214 158.616 191.681 156.313 194.496 156.313H251.343C254.157 156.313 256.295 158.616 256.094 161.43L243.547 336.479C243.345 339.293 240.877 341.596 238.063 341.596Z" fill="white"/>
<path opacity="0.4" d="M235.862 180.989H206.44C203.905 180.989 201.979 178.915 202.161 176.379L202.484 171.868C202.666 169.333 204.889 167.259 207.424 167.259H236.846C239.381 167.259 241.307 169.333 241.125 171.868L240.802 176.379C240.62 178.915 238.397 180.989 235.862 180.989Z" fill="#F99D1C"/>
<path d="M217.155 251.798H172.238C167.815 251.798 164.455 248.179 164.773 243.756L167.993 198.839C168.31 194.416 172.188 190.797 176.611 190.797H221.528C225.951 190.797 229.311 194.416 228.993 198.839L225.773 243.756C225.456 248.179 221.578 251.798 217.155 251.798Z" fill="#F99D1C"/>
<path d="M223.595 214.971C221.909 214.971 220.431 216.35 220.31 218.036L219.843 224.558C219.722 226.244 221.003 227.623 222.688 227.623H227.248C227.668 227.623 228.033 227.283 228.063 226.863L228.861 215.732C228.891 215.312 228.575 214.972 228.155 214.972H223.595V214.971Z" fill="white"/>
<path d="M206.264 202.227H177.951C177.275 202.227 176.762 201.674 176.81 200.998C176.858 200.322 177.451 199.769 178.127 199.769H206.44C207.116 199.769 207.629 200.322 207.581 200.998C207.532 201.675 206.939 202.227 206.264 202.227Z" fill="white"/>
<path d="M205.815 208.481H177.502C176.826 208.481 176.313 207.928 176.361 207.252C176.409 206.576 177.002 206.023 177.678 206.023H205.991C206.667 206.023 207.18 206.576 207.132 207.252C207.084 207.929 206.491 208.481 205.815 208.481Z" fill="white"/>
<path d="M195.584 214.738H177.054C176.378 214.738 175.865 214.185 175.913 213.509C175.961 212.833 176.554 212.28 177.23 212.28H195.76C196.436 212.28 196.949 212.833 196.901 213.509C196.852 214.185 196.26 214.738 195.584 214.738Z" fill="white"/>
<path opacity="0.5" d="M206.337 244.54H178.945C176.054 244.54 173.858 242.175 174.065 239.283L175.096 224.892C175.303 222.001 177.838 219.635 180.73 219.635H208.122C211.013 219.635 213.209 222.001 213.002 224.892L211.971 239.283C211.764 242.175 209.229 244.54 206.337 244.54Z" fill="white"/>
<path opacity="0.4" d="M231.911 268.621H197.829C196.575 268.621 195.623 267.595 195.713 266.342C195.803 265.088 196.902 264.063 198.156 264.063H232.238C233.492 264.063 234.444 265.089 234.354 266.342C234.264 267.595 233.165 268.621 231.911 268.621Z" fill="#F99D1C"/>
<path opacity="0.8" d="M225.042 277.568H203.415C202.161 277.568 201.209 276.542 201.299 275.289C201.389 274.035 202.488 273.01 203.742 273.01H225.369C226.623 273.01 227.575 274.036 227.485 275.289C227.395 276.543 226.296 277.568 225.042 277.568Z" fill="white"/>
<path opacity="0.4" d="M230.141 293.308H196.059C194.805 293.308 193.853 292.282 193.943 291.029C194.033 289.775 195.132 288.75 196.386 288.75H230.468C231.722 288.75 232.674 289.776 232.584 291.029C232.494 292.283 231.395 293.308 230.141 293.308Z" fill="#F99D1C"/>
<path opacity="0.8" d="M223.273 302.254H201.646C200.392 302.254 199.44 301.228 199.53 299.975C199.62 298.721 200.719 297.696 201.973 297.696H223.6C224.854 297.696 225.806 298.722 225.716 299.975C225.625 301.229 224.526 302.254 223.273 302.254Z" fill="white"/>
<path opacity="0.4" d="M228.372 317.995H194.29C193.036 317.995 192.084 316.969 192.174 315.716C192.264 314.462 193.363 313.438 194.617 313.438H228.699C229.953 313.438 230.905 314.463 230.815 315.716C230.725 316.97 229.626 317.995 228.372 317.995Z" fill="#F99D1C"/>
<path opacity="0.8" d="M221.503 326.942H199.876C198.622 326.942 197.67 325.916 197.76 324.663C197.85 323.409 198.949 322.384 200.203 322.384H221.83C223.084 322.384 224.036 323.41 223.946 324.663C223.856 325.917 222.757 326.942 221.503 326.942Z" fill="white"/>
<path opacity="0.5" d="M421.682 290.267C423.16 288.013 426.546 288.966 426.359 291.576L423.08 337.327C422.911 339.684 421.132 341.599 419.111 341.599H254.275C252.254 341.599 250.749 339.684 250.918 337.327L252.866 310.145C253.129 306.479 256.859 303.839 260.289 304.908C269.58 307.804 277.54 306.103 284.938 302.435C300.762 294.579 314.001 277.721 332.193 277.721C332.89 277.721 333.577 277.739 334.245 277.783C361.305 279.416 369.549 313.027 390.513 313.027C396.709 313.027 402.365 310.353 407.289 306.54C413.322 301.874 418.247 295.506 421.682 290.267Z" fill="#F99D1C"/>
<path opacity="0.5" d="M425.102 309.116L423.08 337.326C422.911 339.683 421.132 341.598 419.111 341.598H254.275C252.254 341.598 250.749 339.683 250.918 337.326L254.936 281.268C255.211 277.428 260.243 275.813 262.28 278.92C267.539 286.943 275.632 297.306 284.938 302.434C288.505 304.394 292.241 305.585 296.072 305.585C309.391 305.585 320.718 289.786 334.245 277.781C342.54 270.42 351.66 264.479 362.57 264.479C385.343 264.479 388.701 301.48 407.289 306.538C410.873 307.518 415.019 307.306 419.983 305.408C422.643 304.394 425.302 306.336 425.102 309.116Z" fill="#F99D1C"/>
<g opacity="0.8">
<path d="M425.91 298.18C425.819 298.18 425.74 298.14 425.67 298.08C425.64 298.05 425.61 298.01 425.6 297.97C425.58 297.93 425.57 297.88 425.57 297.84C425.57 297.74 425.61 297.66 425.671 297.6C425.791 297.47 426.021 297.46 426.151 297.6C426.221 297.661 426.252 297.75 426.252 297.84C426.252 297.88 426.242 297.93 426.231 297.97C426.211 298.01 426.181 298.05 426.151 298.08C426.09 298.14 426 298.18 425.91 298.18Z" fill="white"/>
<path d="M265.64 321.61C265.451 321.61 265.3 321.461 265.3 321.27C265.3 321.09 265.45 320.94 265.64 320.94V320.93C265.831 320.93 265.98 321.09 265.98 321.27C265.98 321.46 265.831 321.621 265.64 321.621C265.64 321.621 265.64 321.621 265.64 321.61ZM262.21 321.421C262.21 321.421 262.21 321.421 262.22 321.421C262.031 321.411 261.89 321.241 261.91 321.051C261.93 320.861 262.099 320.731 262.29 320.751C262.479 320.771 262.609 320.941 262.59 321.121C262.569 321.301 262.42 321.431 262.25 321.431C262.24 321.431 262.229 321.431 262.21 321.421ZM268.68 321.121C268.66 320.931 268.79 320.761 268.98 320.741C269.17 320.72 269.34 320.85 269.36 321.041C269.381 321.23 269.251 321.4 269.06 321.421C269.05 321.421 269.031 321.421 269.02 321.421C268.85 321.421 268.7 321.291 268.68 321.121ZM258.83 320.9C258.649 320.86 258.53 320.68 258.559 320.491C258.599 320.31 258.78 320.19 258.969 320.22C259.149 320.26 259.269 320.44 259.24 320.63C259.2 320.79 259.059 320.9 258.899 320.9C258.88 320.9 258.85 320.9 258.83 320.9ZM272.02 320.561C271.97 320.371 272.081 320.191 272.27 320.141C272.451 320.101 272.63 320.211 272.68 320.391C272.73 320.571 272.61 320.761 272.43 320.811C272.43 320.811 272.43 320.811 272.43 320.801C272.4 320.811 272.37 320.811 272.35 320.811C272.19 320.811 272.05 320.711 272.02 320.561ZM381.39 320.701C381.201 320.701 381.05 320.551 381.05 320.36C381.05 320.17 381.21 320.02 381.39 320.02C381.581 320.02 381.73 320.17 381.73 320.36C381.729 320.551 381.58 320.701 381.39 320.701ZM384.44 320.221C384.42 320.031 384.56 319.861 384.741 319.851C384.93 319.821 385.1 319.961 385.121 320.151C385.141 320.341 385.001 320.511 384.811 320.531C384.801 320.531 384.791 320.531 384.782 320.531C384.609 320.53 384.46 320.4 384.44 320.221ZM377.97 320.491C377.79 320.47 377.65 320.301 377.68 320.11C377.701 319.92 377.87 319.791 378.06 319.81C378.25 319.84 378.38 320.01 378.36 320.19C378.331 320.371 378.19 320.5 378.02 320.5C378 320.501 377.99 320.501 377.97 320.491ZM255.51 320.081C255.33 320.03 255.22 319.841 255.27 319.661C255.331 319.48 255.51 319.371 255.701 319.421C255.881 319.481 255.98 319.661 255.931 319.851C255.891 320.001 255.751 320.091 255.601 320.091C255.569 320.091 255.54 320.091 255.51 320.081ZM387.8 319.751C387.76 319.561 387.88 319.381 388.07 319.351C388.251 319.311 388.43 319.431 388.47 319.621C388.51 319.801 388.39 319.98 388.2 320.02C388.179 320.02 388.16 320.03 388.139 320.03C387.979 320.03 387.83 319.911 387.8 319.751ZM374.609 319.871C374.419 319.831 374.309 319.65 374.359 319.461C374.399 319.28 374.58 319.171 374.769 319.211C374.95 319.251 375.059 319.441 375.019 319.621C374.979 319.78 374.839 319.881 374.689 319.881C374.66 319.881 374.63 319.881 374.609 319.871ZM275.26 319.591C275.19 319.411 275.281 319.211 275.46 319.151C275.63 319.082 275.83 319.171 275.899 319.341C275.96 319.521 275.879 319.721 275.7 319.78C275.66 319.801 275.62 319.81 275.58 319.81C275.44 319.811 275.31 319.721 275.26 319.591ZM391.109 319.001C391.059 318.811 391.16 318.621 391.349 318.57C391.53 318.52 391.719 318.631 391.769 318.81C391.819 318.991 391.709 319.18 391.53 319.23C391.5 319.241 391.469 319.251 391.439 319.251C391.29 319.251 391.149 319.15 391.109 319.001ZM371.33 318.881C371.149 318.82 371.059 318.621 371.12 318.451C371.189 318.27 371.38 318.18 371.56 318.241C371.741 318.31 371.831 318.501 371.77 318.68C371.72 318.82 371.581 318.9 371.44 318.9C371.399 318.9 371.359 318.9 371.33 318.881ZM278.37 318.241C278.28 318.081 278.35 317.871 278.519 317.78C278.689 317.701 278.889 317.77 278.979 317.94C279.059 318.1 279 318.31 278.83 318.39C278.78 318.42 278.729 318.43 278.67 318.43C278.55 318.431 278.43 318.36 278.37 318.241ZM394.359 318.001C394.29 317.82 394.389 317.631 394.559 317.57L394.569 317.56C394.74 317.5 394.939 317.6 395 317.77C395.06 317.951 394.97 318.15 394.79 318.21C394.75 318.22 394.72 318.23 394.68 318.23C394.54 318.23 394.41 318.141 394.359 318.001ZM368.17 317.581C368 317.511 367.92 317.301 368 317.131C368.08 316.961 368.28 316.891 368.45 316.961C368.63 317.041 368.7 317.241 368.62 317.421C368.56 317.541 368.439 317.621 368.31 317.621C368.26 317.621 368.21 317.61 368.17 317.581ZM397.53 316.801C397.46 316.631 397.54 316.431 397.719 316.361C397.889 316.281 398.089 316.361 398.159 316.542C398.239 316.712 398.159 316.912 397.978 316.992C397.938 317.012 397.888 317.012 397.848 317.012C397.71 317.011 397.59 316.931 397.53 316.801ZM281.33 316.601C281.229 316.441 281.28 316.221 281.439 316.121C281.599 316.02 281.809 316.07 281.91 316.23C282.01 316.39 281.96 316.6 281.8 316.701C281.75 316.741 281.68 316.761 281.62 316.761C281.51 316.761 281.399 316.701 281.33 316.601ZM365.12 316.051C364.95 315.961 364.89 315.751 364.979 315.581C365.069 315.421 365.28 315.36 365.45 315.451C365.609 315.541 365.67 315.741 365.58 315.911C365.519 316.02 365.399 316.091 365.28 316.091C365.229 316.091 365.17 316.07 365.12 316.051ZM400.64 315.431C400.56 315.261 400.63 315.061 400.8 314.981C400.97 314.901 401.18 314.971 401.26 315.141C401.34 315.311 401.26 315.511 401.09 315.591C401.09 315.591 401.09 315.591 401.1 315.601C401.05 315.621 401 315.631 400.951 315.631C400.819 315.631 400.7 315.561 400.64 315.431ZM284.149 314.721C284.04 314.561 284.08 314.351 284.229 314.242C284.379 314.132 284.599 314.162 284.709 314.311C284.818 314.461 284.779 314.681 284.629 314.791C284.568 314.831 284.499 314.86 284.429 314.86C284.319 314.86 284.22 314.811 284.149 314.721ZM362.17 314.341C362.17 314.341 362.17 314.341 362.17 314.331C362.01 314.241 361.96 314.03 362.06 313.871C362.15 313.701 362.36 313.65 362.52 313.751C362.69 313.851 362.741 314.061 362.64 314.221C362.57 314.331 362.46 314.391 362.35 314.391C362.29 314.391 362.22 314.371 362.17 314.341ZM403.68 313.911C403.59 313.751 403.65 313.541 403.82 313.451C403.98 313.36 404.19 313.43 404.281 313.591C404.371 313.761 404.31 313.961 404.14 314.061C404.09 314.082 404.031 314.101 403.98 314.101C403.859 314.101 403.74 314.03 403.68 313.911ZM286.87 312.671C286.75 312.521 286.769 312.311 286.92 312.191C287.069 312.071 287.28 312.101 287.4 312.242C287.52 312.391 287.491 312.611 287.35 312.731C287.281 312.781 287.21 312.801 287.13 312.801C287.03 312.801 286.93 312.761 286.87 312.671ZM359.29 312.521C359.29 312.521 359.29 312.521 359.29 312.511C359.13 312.411 359.09 312.201 359.19 312.041C359.3 311.881 359.51 311.841 359.67 311.941C359.819 312.041 359.87 312.261 359.77 312.412C359.701 312.521 359.59 312.571 359.48 312.571C359.41 312.57 359.35 312.551 359.29 312.521ZM406.649 312.271C406.549 312.101 406.609 311.901 406.769 311.801C406.929 311.711 407.139 311.761 407.24 311.921C407.33 312.081 407.28 312.291 407.12 312.391C407.06 312.421 407 312.441 406.939 312.441C406.83 312.441 406.71 312.381 406.649 312.271ZM356.46 310.631C356.31 310.521 356.26 310.311 356.37 310.151C356.479 310.002 356.689 309.962 356.85 310.061C357 310.171 357.04 310.381 356.94 310.541C356.871 310.641 356.76 310.691 356.65 310.691C356.59 310.691 356.52 310.671 356.46 310.631ZM409.55 310.511C409.45 310.351 409.5 310.141 409.66 310.031C409.819 309.931 410.03 309.981 410.13 310.141C410.23 310.301 410.18 310.511 410.02 310.611C409.97 310.651 409.911 310.671 409.84 310.671C409.729 310.671 409.62 310.61 409.55 310.511ZM289.5 310.53C289.38 310.39 289.399 310.171 289.54 310.051C289.69 309.931 289.91 309.951 290.03 310.091C290.149 310.241 290.13 310.451 289.979 310.57C289.919 310.631 289.839 310.65 289.759 310.65C289.67 310.65 289.569 310.61 289.5 310.53ZM412.399 308.65C412.29 308.491 412.33 308.28 412.479 308.17C412.639 308.06 412.849 308.1 412.959 308.26C413.059 308.41 413.029 308.63 412.869 308.73C412.809 308.77 412.739 308.791 412.679 308.791C412.569 308.791 412.46 308.741 412.399 308.65ZM353.649 308.73C353.49 308.621 353.45 308.411 353.559 308.26C353.66 308.1 353.869 308.06 354.03 308.16C354.189 308.269 354.229 308.479 354.12 308.639C354.06 308.74 353.95 308.789 353.84 308.789C353.78 308.791 353.71 308.771 353.649 308.73ZM292.109 308.351C291.979 308.211 292 307.992 292.149 307.871C292.29 307.751 292.509 307.77 292.629 307.911C292.749 308.06 292.729 308.27 292.589 308.39C292.519 308.451 292.449 308.47 292.369 308.47C292.27 308.471 292.17 308.431 292.109 308.351ZM350.83 306.851C350.67 306.742 350.62 306.531 350.729 306.381C350.83 306.221 351.049 306.171 351.2 306.28C351.359 306.381 351.399 306.591 351.3 306.751C351.24 306.851 351.13 306.9 351.02 306.9C350.95 306.9 350.89 306.891 350.83 306.851ZM415.18 306.691C415.06 306.541 415.1 306.332 415.25 306.221C415.399 306.111 415.62 306.141 415.729 306.291C415.839 306.441 415.799 306.661 415.649 306.77C415.589 306.81 415.519 306.831 415.45 306.831C415.35 306.831 415.24 306.791 415.18 306.691ZM294.72 306.181C294.6 306.041 294.62 305.821 294.77 305.702C294.92 305.582 295.13 305.611 295.25 305.752C295.37 305.901 295.35 306.122 295.2 306.231C295.139 306.292 295.059 306.311 294.979 306.311C294.89 306.311 294.79 306.271 294.72 306.181ZM347.979 305.021C347.819 304.921 347.769 304.711 347.87 304.551C347.97 304.391 348.18 304.341 348.34 304.441C348.5 304.541 348.55 304.751 348.45 304.912C348.38 305.021 348.269 305.082 348.16 305.082C348.1 305.081 348.03 305.061 347.979 305.021ZM417.899 304.661C417.78 304.511 417.809 304.291 417.96 304.181C418.109 304.061 418.319 304.091 418.44 304.242C418.55 304.391 418.52 304.601 418.38 304.721C418.38 304.721 418.38 304.721 418.37 304.721C418.31 304.771 418.24 304.791 418.17 304.791C418.06 304.791 417.96 304.741 417.899 304.661ZM297.38 304.081C297.27 303.931 297.3 303.711 297.45 303.601C297.599 303.492 297.809 303.521 297.929 303.671C298.039 303.82 298.009 304.03 297.859 304.151C297.799 304.191 297.729 304.221 297.66 304.221C297.55 304.221 297.45 304.171 297.38 304.081ZM345.069 303.291C344.91 303.201 344.849 302.991 344.95 302.82C345.04 302.661 345.25 302.6 345.41 302.701C345.58 302.791 345.639 303.001 345.54 303.161C345.479 303.27 345.359 303.341 345.24 303.341C345.19 303.341 345.13 303.32 345.069 303.291ZM420.55 302.541C420.43 302.4 420.45 302.181 420.6 302.061C420.75 301.941 420.96 301.961 421.08 302.111C421.2 302.252 421.18 302.471 421.04 302.591C420.97 302.641 420.89 302.671 420.819 302.671C420.72 302.671 420.62 302.631 420.55 302.541ZM300.14 302.101C300.031 301.941 300.07 301.731 300.23 301.621C300.39 301.52 300.6 301.561 300.71 301.721C300.81 301.871 300.77 302.091 300.609 302.191C300.549 302.231 300.49 302.251 300.419 302.251C300.31 302.251 300.2 302.191 300.14 302.101ZM342.1 301.681C341.94 301.601 341.87 301.391 341.96 301.221C342.04 301.051 342.25 300.992 342.42 301.071C342.58 301.162 342.65 301.372 342.569 301.542C342.509 301.651 342.38 301.722 342.259 301.722C342.21 301.721 342.149 301.711 342.1 301.681ZM423.149 300.351C423.03 300.211 423.04 299.992 423.179 299.871H423.189C423.33 299.751 423.539 299.761 423.669 299.9C423.789 300.041 423.769 300.26 423.629 300.38C423.568 300.44 423.489 300.47 423.409 300.47C423.31 300.471 423.22 300.431 423.149 300.351ZM303.01 300.291C302.91 300.131 302.97 299.921 303.14 299.82C303.3 299.73 303.51 299.791 303.6 299.951C303.69 300.121 303.64 300.32 303.47 300.421C303.47 300.421 303.47 300.421 303.48 300.421C303.42 300.451 303.36 300.461 303.31 300.461C303.19 300.461 303.069 300.4 303.01 300.291ZM339.06 300.23C338.89 300.15 338.81 299.951 338.89 299.78C338.96 299.61 339.17 299.53 339.34 299.61C339.51 299.68 339.59 299.881 339.51 300.06C339.46 300.18 339.33 300.26 339.2 300.26C339.149 300.261 339.109 300.251 339.06 300.23ZM335.94 298.961C335.76 298.9 335.67 298.701 335.741 298.521C335.801 298.351 336.001 298.261 336.18 298.321C336.35 298.391 336.44 298.582 336.38 298.761C336.33 298.901 336.2 298.981 336.06 298.981C336.02 298.98 335.979 298.98 335.94 298.961ZM306.01 298.721C305.94 298.551 306.01 298.341 306.18 298.271C306.35 298.191 306.56 298.261 306.64 298.441C306.71 298.611 306.64 298.811 306.46 298.891C306.42 298.912 306.37 298.921 306.319 298.921C306.19 298.921 306.069 298.851 306.01 298.721ZM332.74 297.911C332.559 297.85 332.46 297.671 332.51 297.48C332.56 297.3 332.76 297.201 332.94 297.251C333.121 297.301 333.22 297.491 333.17 297.681C333.12 297.821 332.99 297.921 332.84 297.921C332.81 297.921 332.78 297.921 332.74 297.911ZM309.149 297.441C309.089 297.261 309.189 297.071 309.37 297.011C309.55 296.951 309.74 297.051 309.8 297.231C309.86 297.412 309.76 297.601 309.58 297.662C309.55 297.672 309.51 297.682 309.47 297.682C309.33 297.681 309.2 297.591 309.149 297.441ZM329.479 297.081C329.299 297.041 329.179 296.86 329.219 296.681C329.259 296.492 329.439 296.371 329.629 296.421C329.809 296.451 329.929 296.631 329.889 296.82C329.859 296.98 329.709 297.091 329.549 297.091C329.53 297.091 329.51 297.091 329.479 297.081ZM312.399 296.511C312.359 296.321 312.479 296.141 312.669 296.101C312.849 296.061 313.029 296.181 313.068 296.361C313.108 296.551 312.999 296.731 312.808 296.771C312.788 296.771 312.758 296.781 312.739 296.781C312.58 296.78 312.44 296.671 312.399 296.511ZM326.17 296.501C325.99 296.471 325.85 296.301 325.88 296.11C325.9 295.92 326.08 295.791 326.26 295.82H326.27C326.451 295.841 326.581 296.02 326.56 296.211C326.531 296.371 326.39 296.501 326.22 296.501C326.2 296.501 326.19 296.501 326.17 296.501ZM315.74 295.931C315.719 295.742 315.859 295.581 316.04 295.561C316.229 295.531 316.399 295.671 316.42 295.861C316.44 296.051 316.3 296.212 316.11 296.242C316.1 296.242 316.09 296.242 316.081 296.242C315.91 296.241 315.76 296.11 315.74 295.931ZM322.819 296.15C322.819 296.15 322.819 296.15 322.83 296.15C322.639 296.14 322.49 295.98 322.51 295.791C322.52 295.601 322.68 295.461 322.87 295.471C323.06 295.481 323.2 295.651 323.189 295.841C323.179 296.021 323.03 296.161 322.849 296.161C322.84 296.161 322.83 296.15 322.819 296.15ZM319.12 295.711C319.109 295.521 319.269 295.371 319.46 295.371C319.64 295.36 319.8 295.52 319.8 295.711C319.8 295.9 319.65 296.051 319.46 296.051C319.27 296.051 319.12 295.9 319.12 295.711Z" fill="white"/>
<path d="M252.25 319.01C252.21 319.01 252.16 319 252.12 318.98C252.08 318.96 252.04 318.94 252.01 318.9C251.98 318.871 251.95 318.84 251.94 318.791C251.92 318.751 251.911 318.711 251.911 318.661C251.911 318.57 251.951 318.491 252.011 318.421C252.041 318.391 252.081 318.361 252.121 318.351C252.201 318.311 252.301 318.311 252.381 318.351C252.431 318.361 252.461 318.391 252.491 318.421C252.56 318.491 252.591 318.57 252.591 318.661C252.591 318.711 252.591 318.751 252.571 318.791C252.551 318.841 252.532 318.871 252.492 318.9C252.462 318.94 252.422 318.961 252.382 318.98C252.34 319 252.3 319.01 252.25 319.01Z" fill="white"/>
</g>
<path d="M307.085 216.607L304.75 214.091C300.605 217.959 295.089 220.349 289.186 220.349C279.297 220.349 271.458 213.631 269.673 204.509L266.171 205.429L262.971 206.27C263.912 211.052 266.113 215.408 269.359 218.905C279.509 229.838 297.5 229.838 309.217 218.905L307.085 216.607Z" fill="white"/>
<path d="M312.075 179.047L309.019 181.899L306.909 183.868C310.5 187.729 312.514 193.074 312.091 198.976C311.668 204.878 308.895 210.224 304.75 214.091L306.579 216.061L309.219 218.905C314.883 213.619 318.367 206.451 318.903 198.976C319.437 191.508 316.982 184.332 312.075 179.047Z" fill="#263238"/>
<path d="M312.075 179.047C301.925 168.121 283.933 168.121 272.217 179.047C264.602 186.16 261.068 196.558 262.971 206.27L266.929 205.23L269.672 204.509C269.331 202.746 269.214 200.885 269.351 198.976C270.197 187.178 280.451 177.609 292.249 177.609C298.151 177.609 303.318 179.999 306.909 183.867L309.613 181.344L312.075 179.047Z" fill="#F99D1C"/>
<path d="M340.796 216.608L343.492 214.092C339.902 210.224 337.894 204.879 338.317 198.977C339.026 189.088 346.34 180.768 355.637 178.329L354.963 174.893L354.347 171.754C349.473 173.038 344.937 175.551 341.189 179.048C329.472 189.982 328.182 207.973 338.332 218.906L340.796 216.608Z" fill="white"/>
<path d="M378.192 218.905L375.545 216.053L373.717 214.084C369.579 217.952 364.062 220.349 358.16 220.349C352.258 220.349 347.084 217.959 343.493 214.091L341.382 216.061L338.335 218.905C343.242 224.191 350.197 227.16 357.672 227.16C365.138 227.161 372.527 224.191 378.192 218.905Z" fill="#263238"/>
<path d="M378.192 218.905C389.901 207.971 391.191 189.98 381.049 179.047C374.445 171.942 364.247 169.153 354.348 171.753L355.109 175.637L355.637 178.329C357.434 177.862 359.312 177.611 361.222 177.611C373.02 177.611 381.903 187.179 381.057 198.977C380.634 204.88 377.861 210.218 373.716 214.085L376.058 216.608L378.192 218.905Z" fill="#F99D1C"/>
<path opacity="0.3" d="M425.422 173.305C425.994 173.305 426.515 173.526 426.889 173.928C427.265 174.332 427.45 174.872 427.408 175.448L426.172 192.697C426.084 193.927 424.971 194.966 423.743 194.966H406.494C405.922 194.966 405.401 194.744 405.027 194.343C404.651 193.939 404.467 193.399 404.508 192.823L405.744 175.574C405.832 174.344 406.945 173.305 408.173 173.305H425.422ZM425.422 172.423H408.173C406.475 172.423 404.985 173.813 404.863 175.511L403.627 192.76C403.505 194.459 404.795 195.848 406.494 195.848H423.743C425.442 195.848 426.931 194.458 427.053 192.76L428.289 175.511C428.411 173.813 427.121 172.423 425.422 172.423Z" fill="#F99D1C"/>
<path opacity="0.3" d="M423.295 202.987C423.867 202.987 424.388 203.209 424.762 203.61C425.138 204.014 425.322 204.553 425.281 205.129L424.045 222.378C423.957 223.608 422.844 224.647 421.616 224.647H404.367C403.795 224.647 403.274 224.426 402.9 224.024C402.524 223.62 402.34 223.081 402.381 222.505L403.617 205.256C403.705 204.026 404.818 202.987 406.046 202.987H423.295ZM423.295 202.104H406.046C404.348 202.104 402.858 203.494 402.737 205.192L401.5 222.441C401.378 224.14 402.668 225.529 404.367 225.529H421.616C423.314 225.529 424.804 224.139 424.926 222.441L426.162 205.192C426.284 203.494 424.993 202.104 423.295 202.104Z" fill="#F99D1C"/>
<path d="M398.042 298.429C398.526 298.429 398.965 298.614 399.278 298.95C399.592 299.287 399.746 299.742 399.711 300.23C399.635 301.292 398.71 302.157 397.648 302.157C397.164 302.157 396.725 301.972 396.412 301.637C396.098 301.299 395.944 300.845 395.979 300.357C396.056 299.293 396.981 298.429 398.042 298.429ZM398.042 297.546C396.525 297.546 395.208 298.775 395.099 300.292C394.99 301.809 396.132 303.038 397.648 303.038C399.164 303.038 400.482 301.809 400.591 300.292C400.7 298.776 399.559 297.546 398.042 297.546Z" fill="#F99D1C"/>
<path d="M398.262 297.561L397.822 297.53L397.886 296.65L398.325 296.682L398.262 297.561Z" fill="#F99D1C"/>
<path d="M398.454 294.876L398.014 294.845L398.144 293.039L398.584 293.07L398.454 294.876ZM398.713 291.265L398.274 291.234L398.404 289.427L398.844 289.458L398.713 291.265ZM398.972 287.652L398.532 287.621L398.662 285.815L399.101 285.846L398.972 287.652ZM399.23 284.041L398.79 284.01L398.92 282.203L399.36 282.234L399.23 284.041ZM399.489 280.429L399.05 280.398L399.18 278.592L399.619 278.623L399.489 280.429ZM399.749 276.817L399.31 276.786L399.439 274.979L399.878 275.01L399.749 276.817ZM400.008 273.205L399.569 273.174L399.698 271.368L400.137 271.399L400.008 273.205ZM400.267 269.594L399.827 269.563L399.956 267.756L400.395 267.787L400.267 269.594ZM400.525 265.981L400.086 265.95L400.216 264.144L400.656 264.175L400.525 265.981ZM400.784 262.37L400.344 262.339L400.474 260.532L400.913 260.563L400.784 262.37ZM401.043 258.758L400.603 258.727L400.733 256.921L401.173 256.952L401.043 258.758Z" fill="#F99D1C"/>
<path d="M400.918 254.224L400.855 255.104L401.295 255.135L401.358 254.255L400.918 254.224Z" fill="#F99D1C"/>
<path d="M419.784 254.729H261.436C260.543 254.729 259.723 254.377 259.128 253.738C258.531 253.097 258.239 252.252 258.304 251.355L259.085 240.454C259.215 238.632 260.804 237.148 262.627 237.148H420.976C421.869 237.148 422.689 237.499 423.283 238.137C423.88 238.778 424.173 239.624 424.108 240.522L423.327 251.423C423.196 253.245 421.606 254.729 419.784 254.729ZM262.628 238.105C261.296 238.105 260.135 239.189 260.039 240.522L259.258 251.423C259.213 252.052 259.416 252.643 259.829 253.086C260.24 253.528 260.811 253.772 261.436 253.772H419.784C421.116 253.772 422.277 252.688 422.374 251.355L423.155 240.454C423.2 239.825 422.997 239.233 422.583 238.79C422.172 238.349 421.602 238.105 420.977 238.105H262.628Z" fill="#F99D1C"/>
<path opacity="0.8" fill-rule="evenodd" clip-rule="evenodd" d="M416.384 244.176H266.281C265.465 244.176 264.846 243.509 264.904 242.693C264.962 241.877 265.678 241.21 266.494 241.21H416.598C417.414 241.21 418.033 241.877 417.975 242.693C417.916 243.508 417.2 244.176 416.384 244.176Z" fill="white"/>
<path opacity="0.8" fill-rule="evenodd" clip-rule="evenodd" d="M391.369 250.431H265.832C265.016 250.431 264.397 249.763 264.455 248.948C264.513 248.132 265.229 247.465 266.045 247.465H391.581C392.397 247.465 393.016 248.133 392.958 248.948C392.9 249.763 392.185 250.431 391.369 250.431Z" fill="white"/>
</svg>
