<svg width="1080" height="1080" viewBox="0 0 1080 1080" fill="none" xmlns="http://www.w3.org/2000/svg">
<path d="M642.761 541.323L432.813 428.755C425.854 435.078 411.943 431.917 411.943 419.901V95.4896C411.943 43 454.943 0 507.432 0H983.615C1036.1 0 1079.74 43 1079.74 95.4896V459.745C1079.74 512.865 1036.74 555.865 983.615 555.865H930.495V651.99C930.495 662.74 917.219 668.427 909.63 661.474L794.537 555.865H655.412C646.557 555.865 642.13 548.276 642.761 541.323Z" fill="#B33C0A"/>
<path fill-rule="evenodd" clip-rule="evenodd" d="M162.151 1071.89C155.193 1071.89 149.505 1066.2 149.505 1059.24V963.12H96.3801C43.2603 963.12 0.260254 920.12 0.260254 867V502.744C0.260254 450.255 43.2603 407.255 96.3801 407.255H571.937C625.057 407.255 668.057 450.255 668.057 502.744V867C668.057 920.12 625.057 963.12 571.937 963.12H285.463L170.37 1068.73C167.844 1070.62 165.312 1071.89 162.151 1071.89Z" fill="#FEEBC7"/>
<path fill-rule="evenodd" clip-rule="evenodd" d="M931.761 192.875H559.287C542.844 192.875 542.844 167.583 559.287 167.583H931.761C948.203 167.583 948.203 192.875 931.761 192.875Z" fill="#FCD58B"/>
<path fill-rule="evenodd" clip-rule="evenodd" d="M931.761 290.266H559.287C542.844 290.266 542.844 264.969 559.287 264.969H931.761C948.203 264.969 948.203 290.266 931.761 290.266Z" fill="#FCD58B"/>
<path fill-rule="evenodd" clip-rule="evenodd" d="M931.761 388.281H559.287C542.844 388.281 542.844 362.989 559.287 362.989H931.761C948.203 362.989 948.203 388.281 931.761 388.281Z" fill="#FCD58B"/>
<mask id="mask0_4166_8465" style="mask-type:luminance" maskUnits="userSpaceOnUse" x="123" y="507" width="378" height="357">
<path d="M123 507H500.333V864H123V507Z" fill="white"/>
</mask>
<g mask="url(#mask0_4166_8465)">
<path d="M499.516 642.89H357.432L311.672 507.005L267.807 642.89H123.818L237.766 729.182L196.766 864.114L311.672 780.677L427.047 864.114L383.656 729.182L499.516 642.89Z" fill="#F37E0D"/>
</g>
</svg>
