<svg width="1080" height="1080" viewBox="0 0 1080 1080" fill="none" xmlns="http://www.w3.org/2000/svg">
<g clip-path="url(#clip0_4102_587)">
<path d="M242.953 0H836.417C903.479 0 964.219 27.2031 1008.51 71.4948C1052.16 115.151 1080 176.521 1080 242.953V836.417C1080 903.479 1052.16 964.219 1008.51 1008.51C964.219 1052.16 903.479 1080 836.417 1080H242.953C176.521 1080 115.151 1052.16 71.4948 1008.51C27.2031 964.219 0 903.479 0 836.417V242.953C0 176.521 27.2031 115.151 71.4948 71.4948C115.151 27.2031 176.521 0 242.953 0ZM836.417 96.1667H242.953C202.458 96.1667 165.766 112.62 139.193 139.193C112.62 165.766 96.1667 202.458 96.1667 242.953V836.417C96.1667 876.906 112.62 913.604 139.193 940.177C165.766 967.38 202.458 983.833 242.953 983.833H836.417C876.906 983.833 913.604 967.38 940.177 940.177C967.38 913.604 983.833 876.906 983.833 836.417V242.953C983.833 202.458 967.38 165.766 940.177 139.193C913.604 112.62 876.906 96.1667 836.417 96.1667Z" fill="white"/>
<path d="M842.74 188.542C856.026 188.542 868.682 193.604 876.906 202.458C885.766 211.318 891.458 223.339 891.458 236.625C891.458 249.912 885.766 262.568 876.906 270.792C868.682 279.651 856.026 285.344 842.74 285.344C829.453 285.344 817.432 279.651 808.578 270.792C799.719 262.568 794.656 249.912 794.656 236.625C794.656 223.339 799.719 211.318 808.578 202.458C817.432 193.604 829.453 188.542 842.74 188.542Z" fill="white"/>
<path d="M539.682 277.75C612.443 277.75 677.609 307.484 725.062 354.307C772.516 401.755 802.25 467.557 802.25 539.682C802.25 612.443 772.516 677.609 725.062 725.062C677.609 772.516 612.443 802.25 539.682 802.25C467.557 802.25 401.755 772.516 354.307 725.062C307.484 677.609 277.75 612.443 277.75 539.682C277.75 467.557 307.484 401.755 354.307 354.307C401.755 307.484 467.557 277.75 539.682 277.75ZM656.729 423.271C626.995 393.531 585.24 374.552 539.682 374.552C494.13 374.552 453.005 393.531 423.271 423.271C393.531 453.005 374.552 494.13 374.552 539.682C374.552 585.24 393.531 626.995 423.271 656.729C453.005 686.469 494.13 704.818 539.682 704.818C585.24 704.818 626.995 686.469 656.729 656.729C686.469 626.995 704.818 585.24 704.818 539.682C704.818 494.13 686.469 453.005 656.729 423.271Z" fill="white"/>
</g>
<defs>
<clipPath id="clip0_4102_587">
<rect width="1080" height="1080" fill="white"/>
</clipPath>
</defs>
</svg>
