<svg width="1080" height="1080" viewBox="0 0 1080 1080" fill="none" xmlns="http://www.w3.org/2000/svg">
<path fill-rule="evenodd" clip-rule="evenodd" d="M895.823 77.1562C919.87 77.1562 939.458 96.8073 939.458 120.859V924.391C939.458 948.443 919.87 968.036 895.823 968.036H223.422C199.375 968.036 179.724 948.443 179.724 924.391V120.859C179.724 96.8073 199.375 77.1562 223.422 77.1562H895.823Z" fill="#D75B08"/>
<path fill-rule="evenodd" clip-rule="evenodd" d="M895.823 77.1562C919.87 77.1562 939.458 96.8073 939.458 120.859V924.391C939.458 948.443 919.87 968.036 895.823 968.036H842.99V77.1562H895.823Z" fill="#B33C0A"/>
<path fill-rule="evenodd" clip-rule="evenodd" d="M858.984 137.942H260.208C249.354 137.942 240.5 146.797 240.5 157.651V887.541C240.5 898.453 249.354 907.307 260.208 907.307H858.984C869.891 907.307 878.745 898.453 878.745 887.541V157.651C878.745 146.797 869.891 137.942 858.984 137.942Z" fill="#ECEFF1"/>
<path fill-rule="evenodd" clip-rule="evenodd" d="M858.984 137.942H842.99V907.307H858.984C869.891 907.307 878.745 898.453 878.745 887.541V157.651C878.745 146.797 869.891 137.942 858.984 137.942Z" fill="#D1D1D6"/>
<path fill-rule="evenodd" clip-rule="evenodd" d="M411.229 57.4476H487.479C495.307 24.8851 524.609 0.661133 559.625 0.661133C594.578 0.661133 623.938 24.8851 631.766 57.4476H707.958C718.87 57.4476 727.719 66.3018 727.719 77.1559V151.255C727.719 162.109 718.87 170.963 707.958 170.963H411.229C400.375 170.963 391.521 162.109 391.521 151.255V77.1559C391.521 66.3018 400.375 57.4476 411.229 57.4476Z" fill="#E3A76F"/>
<path fill-rule="evenodd" clip-rule="evenodd" d="M559.625 81.3857C570.417 81.3857 579.271 72.5889 579.271 61.7868C579.271 50.9378 570.417 42.1357 559.625 42.1357C548.828 42.1357 539.974 50.9378 539.974 61.7868C539.974 72.5889 548.828 81.3857 559.625 81.3857Z" fill="#ECEFF1"/>
<path fill-rule="evenodd" clip-rule="evenodd" d="M707.958 57.4482C718.87 57.4482 727.719 66.3024 727.719 77.1566V151.256C727.719 162.11 718.87 170.964 707.958 170.964H411.229C400.375 170.964 391.521 162.11 391.521 151.256H688.255C699.104 151.256 707.958 142.344 707.958 131.49V57.4482Z" fill="#C48958"/>
<path fill-rule="evenodd" clip-rule="evenodd" d="M350.229 258.062H459.385C467.266 258.062 473.667 264.516 473.667 272.344V381.516C473.667 389.401 467.266 395.797 459.385 395.797H350.229C342.349 395.797 335.953 389.401 335.953 381.516V272.344C335.953 264.516 342.349 258.062 350.229 258.062Z" fill="#8AC9FE"/>
<path fill-rule="evenodd" clip-rule="evenodd" d="M436.312 258.062H459.385C467.266 258.062 473.667 264.516 473.667 272.344V381.516C473.667 389.401 467.266 395.797 459.385 395.797H436.312C444.135 395.797 450.589 389.401 450.589 381.516V272.344C450.589 264.516 444.135 258.062 436.312 258.062Z" fill="#60B7FF"/>
<path fill-rule="evenodd" clip-rule="evenodd" d="M350.229 479.167H459.385C467.266 479.167 473.667 485.625 473.667 493.448V602.683C473.667 610.506 467.266 616.907 459.385 616.907H350.229C342.349 616.907 335.953 610.506 335.953 602.683V493.448C335.953 485.625 342.349 479.167 350.229 479.167Z" fill="#FFE177"/>
<path fill-rule="evenodd" clip-rule="evenodd" d="M436.312 479.167H459.385C467.266 479.167 473.667 485.625 473.667 493.448V602.683C473.667 610.506 467.266 616.907 459.385 616.907H436.312C444.135 616.907 450.589 610.506 450.589 602.683V493.448C450.589 485.625 444.135 479.167 436.312 479.167Z" fill="#FFD064"/>
<path fill-rule="evenodd" clip-rule="evenodd" d="M350.229 688.136H459.385C467.266 688.136 473.667 694.594 473.667 702.417V811.651C473.667 819.479 467.266 825.875 459.385 825.875H350.229C342.349 825.875 335.953 819.479 335.953 811.651V702.417C335.953 694.594 342.349 688.136 350.229 688.136Z" fill="#FCD58B"/>
<path fill-rule="evenodd" clip-rule="evenodd" d="M436.312 688.136H459.385C467.266 688.136 473.667 694.594 473.667 702.417V811.651C473.667 819.479 467.266 825.875 459.385 825.875H436.312C444.135 825.875 450.589 819.479 450.589 811.651V702.417C450.589 694.594 444.135 688.136 436.312 688.136Z" fill="#C48958"/>
<path fill-rule="evenodd" clip-rule="evenodd" d="M571.734 313.662C561.807 313.662 553.755 305.605 553.755 295.683C553.755 285.756 561.807 277.698 571.734 277.698H750.151C760.073 277.698 768.13 285.756 768.13 295.683C768.13 305.605 760.073 313.662 750.151 313.662H571.734ZM571.734 381.662C561.807 381.662 553.755 373.605 553.755 363.683C553.755 353.756 561.807 345.698 571.734 345.698H660.943C670.865 345.698 678.917 353.756 678.917 363.683C678.917 373.605 670.865 381.662 660.943 381.662H571.734ZM571.734 504.391C561.807 504.391 553.755 496.334 553.755 486.412C553.755 476.485 561.807 468.428 571.734 468.428H750.151C760.073 468.428 768.13 476.485 768.13 486.412C768.13 496.334 760.073 504.391 750.151 504.391H571.734ZM571.734 572.386C561.807 572.386 553.755 564.329 553.755 554.407C553.755 544.485 561.807 536.428 571.734 536.428H660.943C670.865 536.428 678.917 544.485 678.917 554.407C678.917 564.329 670.865 572.386 660.943 572.386H571.734ZM571.734 738.24C561.807 738.24 553.755 730.183 553.755 720.256C553.755 710.334 561.807 702.276 571.734 702.276H750.151C760.073 702.276 768.13 710.334 768.13 720.256C768.13 730.183 760.073 738.24 750.151 738.24H571.734ZM571.734 806.235C561.807 806.235 553.755 798.178 553.755 788.256C553.755 778.329 561.807 770.276 571.734 770.276H660.943C670.865 770.276 678.917 778.329 678.917 788.256C678.917 798.178 670.865 806.235 660.943 806.235H571.734ZM378.818 324.584C371.813 317.563 371.818 306.167 378.839 299.157C385.859 292.141 397.255 292.151 404.266 299.172L428.854 323.808L505.427 254.287C512.771 247.615 524.151 248.162 530.818 255.511C537.49 262.86 536.938 274.24 529.594 280.912L440.328 361.959C433.224 368.407 422.302 368.141 415.521 361.349L378.818 324.584ZM378.833 536.881C371.818 529.865 371.818 518.469 378.833 511.454C385.849 504.438 397.24 504.438 404.255 511.454L428.849 536.053L505.432 466.568C512.781 459.901 524.156 460.454 530.823 467.803C537.49 475.151 536.938 486.537 529.589 493.204L440.323 574.193C433.219 580.636 422.313 580.37 415.531 573.589L378.833 536.881ZM378.818 749.105C371.813 742.079 371.818 730.688 378.839 723.678C385.859 716.662 397.255 716.672 404.266 723.693L428.859 748.329L505.432 678.855C512.781 672.188 524.156 672.74 530.823 680.094C537.49 687.443 536.938 698.823 529.589 705.49L440.323 786.48C433.214 792.928 422.302 792.657 415.521 785.87L378.818 749.105Z" fill="#F37E0D"/>
<path fill-rule="evenodd" clip-rule="evenodd" d="M293.599 661.021C283.057 642.745 264.099 631.797 243.016 631.797C221.896 631.797 202.969 642.745 192.396 661.021L10.6354 975.922C0.0937397 994.193 0.0937397 1016.07 10.6354 1034.34C21.1823 1052.64 40.1354 1063.56 61.2239 1063.56H424.771C445.885 1063.56 464.818 1052.64 475.359 1034.34C485.932 1016.07 485.932 994.193 475.359 975.922L293.599 661.021Z" fill="#FFE177"/>
<path fill-rule="evenodd" clip-rule="evenodd" d="M293.599 661.021C283.057 642.745 264.099 631.797 243.016 631.797C238.786 631.797 234.693 632.234 230.719 633.078C246.734 636.458 260.562 646.375 269.01 661.021L450.802 975.922C461.344 994.193 461.344 1016.07 450.802 1034.34C440.224 1052.64 421.297 1063.56 400.182 1063.56H424.771C445.885 1063.56 464.818 1052.64 475.359 1034.34C485.932 1016.07 485.932 994.193 475.359 975.922L293.599 661.021Z" fill="#FFD064"/>
<path fill-rule="evenodd" clip-rule="evenodd" d="M243.016 972.261C258.375 972.261 270.854 984.714 270.854 1000.11C270.854 1015.47 258.375 1027.95 243.016 1027.95C227.62 1027.95 215.172 1015.47 215.172 1000.11C215.172 984.714 227.62 972.261 243.016 972.261ZM243.016 922.573C231.312 922.573 221.708 913.313 221.302 901.61L215.797 749.479C215.578 743.344 217.609 737.995 221.865 733.584C226.12 729.172 231.375 726.948 237.505 726.948H248.49C254.62 726.948 259.875 729.172 264.13 733.584C268.385 737.995 270.448 743.344 270.198 749.479L264.724 901.61C264.286 913.282 254.714 922.573 243.016 922.573Z" fill="#FE646F"/>
<path fill-rule="evenodd" clip-rule="evenodd" d="M693.344 734.078L992.964 434.407C1009.21 418.151 1035.71 418.151 1051.94 434.381L1063.74 446.193C1079.99 462.443 1079.97 488.927 1063.72 505.177L764.104 804.854L674.26 828.938C672.818 829.323 671.375 828.938 670.323 827.881C669.271 826.828 668.88 825.386 669.271 823.948L693.344 734.078Z" fill="#E3A76F"/>
<path fill-rule="evenodd" clip-rule="evenodd" d="M1047.45 430.489C1049.01 431.682 1050.52 432.963 1051.94 434.38L1063.74 446.192C1079.99 462.442 1079.97 488.927 1063.72 505.177L764.104 804.854L674.26 828.937C671.24 829.76 668.443 826.968 669.271 823.948L674.786 803.229L743.943 784.687L1043.56 485.015C1058.39 470.182 1059.7 446.812 1047.45 430.489Z" fill="#C48958"/>
<path fill-rule="evenodd" clip-rule="evenodd" d="M669.271 823.948L693.344 734.078L764.104 804.854L674.26 828.938C671.24 829.76 668.443 826.969 669.271 823.948Z" fill="#D75B08"/>
<path fill-rule="evenodd" clip-rule="evenodd" d="M669.271 823.948L674.786 803.229L743.943 784.688L764.104 804.854L674.26 828.938C672.818 829.323 671.375 828.938 670.323 827.88C669.271 826.828 668.88 825.385 669.271 823.948Z" fill="#B33C0A"/>
<path fill-rule="evenodd" clip-rule="evenodd" d="M968.198 459.172L992.964 434.407C1009.21 418.151 1035.71 418.151 1051.94 434.381L1063.74 446.193C1079.99 462.443 1079.97 488.927 1063.72 505.177L1038.96 529.948L968.198 459.172Z" fill="#D75B08"/>
<path fill-rule="evenodd" clip-rule="evenodd" d="M1047.45 430.489C1049.01 431.682 1050.52 432.963 1051.94 434.38L1063.74 446.192C1079.99 462.442 1079.97 488.927 1063.72 505.177L1038.96 529.948L1018.8 509.781L1043.56 485.015C1058.39 470.182 1059.7 446.812 1047.45 430.489Z" fill="#B33C0A"/>
</svg>
