<svg width="402" height="392" viewBox="0 0 402 392" fill="none" xmlns="http://www.w3.org/2000/svg">
<mask id="mask0_4166_8526" style="mask-type:luminance" maskUnits="userSpaceOnUse" x="0" y="0" width="402" height="392">
<path d="M0 0H402V391.95H0V0Z" fill="white"/>
</mask>
<g mask="url(#mask0_4166_8526)">
<path d="M50.322 0L45.2989 10.05L98.0362 40.2C98.0362 65.325 87.992 85.425 65.3892 97.9875L12.6519 67.8375L10.1413 72.8625C22.698 110.55 47.8114 135.675 98.0362 135.675C110.593 135.675 148.263 173.363 168.353 193.463L208.534 153.263C188.444 133.163 143.24 87.9375 143.24 75.375C143.24 30.15 130.683 0 50.322 0ZM364.235 12.5625L314.008 47.7375L308.987 67.8375L163.33 213.563L143.24 201L133.196 211.05C133.196 241.2 98.0362 256.275 82.9689 256.275L0.0952148 339.188C0.0952148 364.312 27.7191 391.95 52.8325 391.95L135.706 309.038C135.706 293.963 150.773 258.788 180.91 258.788L190.954 248.738L178.399 228.638L324.055 82.9125L344.145 77.8875L379.302 27.6375L364.235 12.5625ZM238.67 183.413L198.49 223.613C228.624 253.763 268.805 293.963 268.805 306.525C268.805 351.75 281.361 381.9 361.725 381.9L366.746 371.85L314.008 341.7C314.008 316.575 324.055 296.475 346.655 283.913L399.393 314.062L401.905 309.038C389.349 271.35 364.235 246.225 314.008 246.225C301.452 246.225 268.805 213.563 238.67 183.413Z" fill="white"/>
<path fill-rule="evenodd" clip-rule="evenodd" d="M178.304 228.638L163.235 213.563L143.145 201L133.1 211.05C133.1 241.2 97.941 256.275 82.8737 256.275L0 339.188C0 364.312 27.6239 391.95 52.7373 391.95L135.611 309.038C135.611 293.962 150.678 258.788 180.815 258.788L190.859 248.738L178.304 228.638ZM198.404 223.622C198.504 223.722 198.603 223.822 198.703 223.922L198.404 223.622Z" fill="#F99D1C"/>
</g>
</svg>
