<svg width="33" height="33" viewBox="0 0 33 33" fill="none" xmlns="http://www.w3.org/2000/svg">
<g clip-path="url(#clip0_4407_3403)">
<mask id="mask0_4407_3403" style="mask-type:luminance" maskUnits="userSpaceOnUse" x="0" y="0" width="33" height="33">
<path d="M0 0H33V32.175H0V0Z" fill="white"/>
</mask>
<g mask="url(#mask0_4407_3403)">
<path d="M4.1309 0L3.71856 0.825L8.04774 3.3C8.04774 5.3625 7.22322 7.0125 5.36777 8.04375L1.03859 5.56875L0.832494 5.98125C1.86327 9.075 3.92481 11.1375 8.04774 11.1375C9.07852 11.1375 12.1708 14.2313 13.82 15.8813L17.1184 12.5813C15.4692 10.9313 11.7585 7.21875 11.7585 6.1875C11.7585 2.475 10.7277 0 4.1309 0ZM29.8999 1.03125L25.7768 3.91875L25.3646 5.56875L13.4077 17.5312L11.7585 16.5L10.934 17.325C10.934 19.8 8.04774 21.0375 6.81088 21.0375L0.0078125 27.8438C0.0078125 29.9062 2.27545 32.175 4.33699 32.175L11.1401 25.3687C11.1401 24.1313 12.3769 21.2437 14.8508 21.2437L15.6753 20.4188L14.6447 18.7688L26.6015 6.80625L28.2507 6.39375L31.1368 2.26875L29.8999 1.03125ZM19.5923 15.0563L16.2939 18.3563C18.7677 20.8312 22.0661 24.1313 22.0661 25.1625C22.0661 28.875 23.0968 31.35 29.6938 31.35L30.106 30.525L25.7768 28.05C25.7768 25.9875 26.6015 24.3375 28.4568 23.3062L32.786 25.7812L32.9922 25.3687C31.9614 22.275 29.8999 20.2125 25.7768 20.2125C24.746 20.2125 22.0661 17.5312 19.5923 15.0563Z" fill="#1E3F8A"/>
</g>
<path fill-rule="evenodd" clip-rule="evenodd" d="M14.6369 18.7688L13.3999 17.5312L11.7507 16.5L10.9262 17.325C10.9262 19.8 8.03993 21.0375 6.80307 21.0375L0 27.8438C0 29.9062 2.26764 32.175 4.32918 32.175L11.1322 25.3687C11.1322 24.1313 12.3691 21.2437 14.843 21.2437L15.6675 20.4188L14.6369 18.7688ZM16.2869 18.357C16.2951 18.3652 16.3033 18.3734 16.3115 18.3816L16.2869 18.357Z" fill="#F99D1C"/>
</g>
<defs>
<clipPath id="clip0_4407_3403">
<rect width="33" height="33" fill="white"/>
</clipPath>
</defs>
</svg>
