<svg xmlns="http://www.w3.org/2000/svg" xmlns:xlink="http://www.w3.org/1999/xlink" width="1080" zoomAndPan="magnify" viewBox="0 0 810 809.999993" height="1080" preserveAspectRatio="xMidYMid meet" version="1.2"><defs><clipPath id="4dac9d0dba"><path d="M 321.003906 211.296875 L 489 211.296875 L 489 404.796875 L 321.003906 404.796875 Z M 321.003906 211.296875 "/></clipPath></defs><g id="37ef42cb30"><rect x="0" width="810" y="0" height="809.999993" style="fill:#ffffff;fill-opacity:1;stroke:none;"/><rect x="0" width="810" y="0" height="809.999993" style="fill:#ffffff;fill-opacity:1;stroke:none;"/><g clip-rule="nonzero" clip-path="url(#4dac9d0dba)"><path style=" stroke:none;fill-rule:nonzero;fill:#000000;fill-opacity:1;" d="M 485.71875 211.296875 L 337.203125 211.296875 C 336.777344 211.296875 336.363281 211.378906 335.96875 211.542969 C 335.574219 211.707031 335.222656 211.941406 334.921875 212.242188 C 334.617188 212.546875 334.386719 212.894531 334.222656 213.289062 C 334.058594 213.683594 333.976562 214.097656 333.976562 214.523438 L 333.976562 224.199219 L 324.289062 224.199219 C 323.863281 224.199219 323.449219 224.28125 323.054688 224.445312 C 322.660156 224.609375 322.308594 224.839844 322.007812 225.144531 C 321.703125 225.445312 321.472656 225.792969 321.308594 226.1875 C 321.144531 226.585938 321.0625 226.996094 321.0625 227.421875 L 321.0625 401.574219 C 321.0625 402 321.144531 402.414062 321.308594 402.808594 C 321.472656 403.203125 321.703125 403.550781 322.007812 403.855469 C 322.308594 404.15625 322.660156 404.390625 323.054688 404.554688 C 323.449219 404.714844 323.863281 404.796875 324.289062 404.796875 L 472.804688 404.796875 C 473.230469 404.796875 473.644531 404.714844 474.039062 404.554688 C 474.433594 404.390625 474.785156 404.15625 475.085938 403.855469 C 475.390625 403.550781 475.621094 403.203125 475.785156 402.808594 C 475.949219 402.414062 476.03125 402 476.03125 401.574219 L 476.03125 391.898438 L 485.71875 391.898438 C 486.144531 391.898438 486.558594 391.816406 486.953125 391.652344 C 487.347656 391.488281 487.699219 391.257812 488 390.953125 C 488.304688 390.652344 488.535156 390.300781 488.699219 389.90625 C 488.863281 389.511719 488.945312 389.101562 488.945312 388.671875 L 488.945312 214.523438 C 488.945312 214.097656 488.863281 213.683594 488.699219 213.289062 C 488.535156 212.894531 488.304688 212.546875 488 212.242188 C 487.699219 211.941406 487.347656 211.707031 486.953125 211.542969 C 486.558594 211.378906 486.144531 211.296875 485.71875 211.296875 Z M 337.203125 240.324219 C 337.203125 239.894531 337.285156 239.484375 337.449219 239.089844 C 337.613281 238.695312 337.847656 238.34375 338.148438 238.042969 C 338.453125 237.742188 338.800781 237.507812 339.199219 237.34375 C 339.59375 237.179688 340.003906 237.097656 340.433594 237.097656 L 351.734375 237.097656 C 352.476562 237.097656 353.210938 237.171875 353.9375 237.316406 C 354.664062 237.460938 355.371094 237.675781 356.058594 237.957031 C 356.742188 238.242188 357.394531 238.589844 358.011719 239 C 358.628906 239.414062 359.199219 239.878906 359.722656 240.40625 C 360.246094 240.929688 360.714844 241.5 361.128906 242.113281 C 361.539062 242.730469 361.890625 243.382812 362.171875 244.066406 C 362.457031 244.75 362.671875 245.457031 362.816406 246.183594 C 362.960938 246.910156 363.03125 247.644531 363.03125 248.386719 C 363.03125 249.128906 362.960938 249.859375 362.816406 250.589844 C 362.671875 251.316406 362.457031 252.019531 362.171875 252.707031 C 361.890625 253.390625 361.539062 254.039062 361.128906 254.65625 C 360.714844 255.273438 360.246094 255.84375 359.722656 256.367188 C 359.199219 256.890625 358.628906 257.359375 358.011719 257.769531 C 357.394531 258.183594 356.742188 258.53125 356.058594 258.8125 C 355.371094 259.097656 354.664062 259.3125 353.9375 259.457031 C 353.210938 259.601562 352.476562 259.671875 351.734375 259.671875 L 343.660156 259.671875 L 343.660156 272.574219 C 343.660156 273 343.578125 273.414062 343.414062 273.808594 C 343.253906 274.203125 343.019531 274.550781 342.714844 274.855469 C 342.414062 275.15625 342.0625 275.390625 341.667969 275.554688 C 341.273438 275.714844 340.859375 275.796875 340.433594 275.796875 C 340.003906 275.796875 339.59375 275.714844 339.199219 275.554688 C 338.800781 275.390625 338.453125 275.15625 338.148438 274.855469 C 337.847656 274.550781 337.613281 274.203125 337.449219 273.808594 C 337.285156 273.414062 337.203125 273 337.203125 272.574219 Z M 469.574219 398.347656 L 327.519531 398.347656 L 327.519531 288.699219 L 469.574219 288.699219 Z M 369.488281 272.574219 L 369.488281 240.324219 C 369.488281 239.96875 369.546875 239.625 369.660156 239.292969 C 369.773438 238.957031 369.9375 238.648438 370.152344 238.367188 C 370.367188 238.085938 370.621094 237.847656 370.914062 237.652344 C 371.207031 237.453125 371.523438 237.308594 371.863281 237.214844 C 372.207031 237.121094 372.554688 237.085938 372.90625 237.105469 C 373.257812 237.125 373.597656 237.203125 373.925781 237.335938 C 374.253906 237.464844 374.554688 237.648438 374.820312 237.878906 C 375.089844 238.109375 375.316406 238.375 375.496094 238.679688 L 388.859375 260.929688 L 388.859375 240.324219 C 388.859375 239.894531 388.941406 239.484375 389.105469 239.089844 C 389.269531 238.695312 389.503906 238.34375 389.808594 238.042969 C 390.109375 237.742188 390.457031 237.507812 390.855469 237.34375 C 391.25 237.179688 391.660156 237.097656 392.089844 237.097656 C 392.519531 237.097656 392.929688 237.179688 393.324219 237.34375 C 393.722656 237.507812 394.070312 237.742188 394.371094 238.042969 C 394.675781 238.34375 394.910156 238.695312 395.074219 239.089844 C 395.238281 239.484375 395.316406 239.894531 395.316406 240.324219 L 395.316406 272.574219 C 395.316406 272.925781 395.261719 273.269531 395.148438 273.605469 C 395.035156 273.941406 394.871094 274.246094 394.65625 274.527344 C 394.441406 274.808594 394.1875 275.046875 393.894531 275.246094 C 393.601562 275.445312 393.285156 275.589844 392.945312 275.683594 C 392.601562 275.777344 392.253906 275.8125 391.902344 275.792969 C 391.550781 275.773438 391.207031 275.695312 390.878906 275.5625 C 390.554688 275.429688 390.253906 275.25 389.988281 275.019531 C 389.71875 274.789062 389.492188 274.523438 389.3125 274.21875 L 375.945312 251.964844 L 375.945312 272.574219 C 375.945312 273 375.863281 273.414062 375.703125 273.808594 C 375.539062 274.203125 375.304688 274.550781 375 274.855469 C 374.699219 275.15625 374.347656 275.390625 373.953125 275.554688 C 373.558594 275.714844 373.148438 275.796875 372.71875 275.796875 C 372.289062 275.796875 371.878906 275.714844 371.484375 275.554688 C 371.085938 275.390625 370.738281 275.15625 370.433594 274.855469 C 370.132812 274.550781 369.898438 274.203125 369.734375 273.808594 C 369.570312 273.414062 369.488281 273 369.488281 272.574219 Z M 414.691406 269.347656 C 415.113281 269.347656 415.535156 269.308594 415.949219 269.222656 C 416.363281 269.140625 416.769531 269.019531 417.160156 268.859375 C 417.550781 268.695312 417.925781 268.496094 418.277344 268.261719 C 418.628906 268.027344 418.957031 267.757812 419.253906 267.460938 C 419.554688 267.160156 419.824219 266.835938 420.058594 266.480469 C 420.292969 266.128906 420.492188 265.757812 420.65625 265.367188 C 420.816406 264.976562 420.941406 264.570312 421.023438 264.15625 C 421.105469 263.742188 421.148438 263.320312 421.148438 262.898438 L 421.148438 259.671875 L 417.917969 259.671875 C 417.488281 259.671875 417.078125 259.589844 416.683594 259.429688 C 416.285156 259.265625 415.9375 259.03125 415.636719 258.730469 C 415.332031 258.425781 415.097656 258.078125 414.933594 257.683594 C 414.769531 257.289062 414.691406 256.875 414.691406 256.449219 C 414.691406 256.019531 414.769531 255.609375 414.933594 255.214844 C 415.097656 254.820312 415.332031 254.46875 415.636719 254.167969 C 415.9375 253.867188 416.285156 253.632812 416.683594 253.46875 C 417.078125 253.304688 417.488281 253.222656 417.917969 253.222656 L 424.375 253.222656 C 424.804688 253.222656 425.214844 253.304688 425.609375 253.46875 C 426.007812 253.632812 426.355469 253.867188 426.65625 254.167969 C 426.960938 254.46875 427.195312 254.820312 427.359375 255.214844 C 427.523438 255.609375 427.605469 256.019531 427.605469 256.449219 L 427.605469 262.898438 C 427.605469 263.746094 427.519531 264.585938 427.355469 265.414062 C 427.191406 266.246094 426.945312 267.050781 426.621094 267.835938 C 426.296875 268.617188 425.898438 269.359375 425.425781 270.066406 C 424.957031 270.769531 424.421875 271.421875 423.820312 272.019531 C 423.222656 272.617188 422.570312 273.152344 421.863281 273.625 C 421.160156 274.09375 420.414062 274.492188 419.632812 274.816406 C 418.847656 275.140625 418.039062 275.386719 417.210938 275.550781 C 416.378906 275.714844 415.539062 275.796875 414.691406 275.796875 C 413.839844 275.796875 413 275.714844 412.171875 275.550781 C 411.339844 275.386719 410.53125 275.140625 409.746094 274.816406 C 408.964844 274.492188 408.21875 274.09375 407.515625 273.625 C 406.808594 273.152344 406.15625 272.617188 405.558594 272.019531 C 404.957031 271.421875 404.421875 270.769531 403.953125 270.066406 C 403.480469 269.359375 403.082031 268.617188 402.757812 267.835938 C 402.433594 267.050781 402.1875 266.246094 402.023438 265.414062 C 401.859375 264.585938 401.773438 263.746094 401.773438 262.898438 L 401.773438 250 C 401.773438 249.152344 401.859375 248.3125 402.023438 247.480469 C 402.1875 246.652344 402.433594 245.84375 402.757812 245.0625 C 403.082031 244.28125 403.480469 243.535156 403.953125 242.832031 C 404.421875 242.128906 404.957031 241.476562 405.558594 240.875 C 406.15625 240.277344 406.808594 239.742188 407.515625 239.273438 C 408.21875 238.800781 408.964844 238.40625 409.746094 238.082031 C 410.53125 237.757812 411.339844 237.511719 412.171875 237.347656 C 413 237.179688 413.839844 237.097656 414.691406 237.097656 C 416.523438 237.105469 418.277344 237.484375 419.953125 238.230469 C 421.628906 238.976562 423.082031 240.027344 424.3125 241.386719 C 424.597656 241.707031 424.8125 242.066406 424.957031 242.472656 C 425.097656 242.875 425.160156 243.292969 425.136719 243.71875 C 425.113281 244.148438 425.007812 244.554688 424.824219 244.941406 C 424.640625 245.328125 424.386719 245.664062 424.070312 245.949219 C 423.75 246.238281 423.386719 246.453125 422.984375 246.59375 C 422.578125 246.738281 422.164062 246.796875 421.734375 246.773438 C 421.304688 246.753906 420.898438 246.648438 420.511719 246.464844 C 420.125 246.28125 419.785156 246.027344 419.5 245.710938 C 418.890625 245.019531 418.167969 244.488281 417.328125 244.109375 C 416.488281 243.734375 415.609375 243.546875 414.691406 243.546875 C 414.265625 243.546875 413.84375 243.589844 413.429688 243.671875 C 413.015625 243.753906 412.609375 243.878906 412.21875 244.039062 C 411.828125 244.203125 411.453125 244.398438 411.101562 244.636719 C 410.75 244.871094 410.421875 245.136719 410.125 245.4375 C 409.824219 245.738281 409.554688 246.0625 409.320312 246.414062 C 409.085938 246.765625 408.886719 247.140625 408.722656 247.53125 C 408.5625 247.921875 408.4375 248.324219 408.355469 248.738281 C 408.273438 249.15625 408.234375 249.574219 408.234375 250 L 408.234375 262.898438 C 408.234375 263.320312 408.273438 263.742188 408.355469 264.15625 C 408.4375 264.570312 408.5625 264.976562 408.722656 265.367188 C 408.886719 265.757812 409.085938 266.128906 409.320312 266.480469 C 409.554688 266.835938 409.824219 267.160156 410.125 267.460938 C 410.421875 267.757812 410.75 268.027344 411.101562 268.261719 C 411.453125 268.496094 411.828125 268.695312 412.21875 268.859375 C 412.609375 269.019531 413.015625 269.140625 413.429688 269.222656 C 413.84375 269.308594 414.265625 269.347656 414.691406 269.347656 Z M 443.746094 253.222656 L 443.746094 235.195312 L 465.023438 256.449219 L 446.976562 256.449219 C 446.546875 256.449219 446.136719 256.367188 445.738281 256.203125 C 445.34375 256.039062 444.996094 255.804688 444.691406 255.503906 C 444.390625 255.203125 444.15625 254.851562 443.992188 254.457031 C 443.828125 254.0625 443.746094 253.652344 443.746094 253.222656 Z M 482.488281 385.449219 L 476.03125 385.449219 L 476.03125 259.671875 C 476.027344 258.785156 475.714844 258.023438 475.09375 257.382812 L 442.808594 225.132812 C 442.171875 224.515625 441.40625 224.203125 440.519531 224.199219 L 340.433594 224.199219 L 340.433594 217.75 L 482.488281 217.75 Z M 482.488281 385.449219 "/></g><path style=" stroke:none;fill-rule:nonzero;fill:#000000;fill-opacity:1;" d="M 356.574219 248.386719 C 356.574219 248.703125 356.542969 249.019531 356.484375 249.328125 C 356.421875 249.640625 356.328125 249.945312 356.207031 250.238281 C 356.085938 250.53125 355.9375 250.808594 355.757812 251.074219 C 355.582031 251.335938 355.382812 251.582031 355.15625 251.804688 C 354.933594 252.03125 354.6875 252.230469 354.421875 252.410156 C 354.160156 252.585938 353.878906 252.734375 353.585938 252.855469 C 353.292969 252.976562 352.988281 253.070312 352.675781 253.128906 C 352.367188 253.191406 352.050781 253.222656 351.734375 253.222656 L 343.660156 253.222656 L 343.660156 243.546875 L 351.734375 243.546875 C 352.050781 243.546875 352.367188 243.578125 352.675781 243.640625 C 352.988281 243.703125 353.292969 243.796875 353.585938 243.917969 C 353.878906 244.039062 354.160156 244.1875 354.421875 244.363281 C 354.6875 244.539062 354.933594 244.742188 355.15625 244.964844 C 355.382812 245.191406 355.582031 245.433594 355.757812 245.699219 C 355.9375 245.960938 356.085938 246.242188 356.207031 246.535156 C 356.328125 246.828125 356.421875 247.128906 356.484375 247.441406 C 356.542969 247.753906 356.574219 248.066406 356.574219 248.386719 Z M 356.574219 248.386719 "/><path style=" stroke:none;fill-rule:nonzero;fill:#000000;fill-opacity:1;" d="M 355.605469 298.375 L 369.167969 298.375 C 369.464844 298.375 369.753906 298.429688 370.03125 298.546875 C 370.308594 298.660156 370.554688 298.824219 370.765625 299.035156 C 370.976562 299.246094 371.140625 299.492188 371.253906 299.765625 C 371.371094 300.042969 371.425781 300.332031 371.425781 300.632812 L 371.425781 314.175781 C 371.425781 314.476562 371.371094 314.761719 371.253906 315.039062 C 371.140625 315.316406 370.976562 315.5625 370.765625 315.773438 C 370.554688 315.984375 370.308594 316.148438 370.03125 316.261719 C 369.753906 316.375 369.464844 316.433594 369.167969 316.433594 L 355.605469 316.433594 C 355.308594 316.433594 355.019531 316.375 354.742188 316.261719 C 354.464844 316.148438 354.222656 315.984375 354.007812 315.773438 C 353.796875 315.5625 353.632812 315.316406 353.519531 315.039062 C 353.40625 314.761719 353.347656 314.476562 353.347656 314.175781 L 353.347656 300.632812 C 353.347656 300.332031 353.40625 300.042969 353.519531 299.765625 C 353.632812 299.492188 353.796875 299.246094 354.007812 299.035156 C 354.222656 298.824219 354.464844 298.660156 354.742188 298.546875 C 355.019531 298.429688 355.308594 298.375 355.605469 298.375 Z M 355.605469 298.375 "/><path style=" stroke:none;fill-rule:nonzero;fill:#000000;fill-opacity:1;" d="M 391.765625 298.375 L 405.328125 298.375 C 405.625 298.375 405.914062 298.429688 406.191406 298.546875 C 406.46875 298.660156 406.714844 298.824219 406.925781 299.035156 C 407.136719 299.246094 407.300781 299.492188 407.414062 299.765625 C 407.53125 300.042969 407.585938 300.332031 407.585938 300.632812 L 407.585938 314.175781 C 407.585938 314.476562 407.53125 314.761719 407.414062 315.039062 C 407.300781 315.316406 407.136719 315.5625 406.925781 315.773438 C 406.714844 315.984375 406.46875 316.148438 406.191406 316.261719 C 405.914062 316.375 405.625 316.433594 405.328125 316.433594 L 391.765625 316.433594 C 391.46875 316.433594 391.179688 316.375 390.902344 316.261719 C 390.625 316.148438 390.378906 315.984375 390.167969 315.773438 C 389.957031 315.5625 389.792969 315.316406 389.679688 315.039062 C 389.5625 314.761719 389.507812 314.476562 389.507812 314.175781 L 389.507812 300.632812 C 389.507812 300.332031 389.5625 300.042969 389.679688 299.765625 C 389.792969 299.492188 389.957031 299.246094 390.167969 299.035156 C 390.378906 298.824219 390.625 298.660156 390.902344 298.546875 C 391.179688 298.429688 391.46875 298.375 391.765625 298.375 Z M 391.765625 298.375 "/><path style=" stroke:none;fill-rule:nonzero;fill:#000000;fill-opacity:1;" d="M 427.925781 298.375 L 441.488281 298.375 C 441.785156 298.375 442.074219 298.429688 442.351562 298.546875 C 442.628906 298.660156 442.871094 298.824219 443.085938 299.035156 C 443.296875 299.246094 443.460938 299.492188 443.574219 299.765625 C 443.6875 300.042969 443.746094 300.332031 443.746094 300.632812 L 443.746094 314.175781 C 443.746094 314.476562 443.6875 314.761719 443.574219 315.039062 C 443.460938 315.316406 443.296875 315.5625 443.085938 315.773438 C 442.871094 315.984375 442.628906 316.148438 442.351562 316.261719 C 442.074219 316.375 441.785156 316.433594 441.488281 316.433594 L 427.925781 316.433594 C 427.625 316.433594 427.339844 316.375 427.0625 316.261719 C 426.785156 316.148438 426.539062 315.984375 426.328125 315.773438 C 426.117188 315.5625 425.953125 315.316406 425.839844 315.039062 C 425.722656 314.761719 425.667969 314.476562 425.667969 314.175781 L 425.667969 300.632812 C 425.667969 300.332031 425.722656 300.042969 425.839844 299.765625 C 425.953125 299.492188 426.117188 299.246094 426.328125 299.035156 C 426.539062 298.824219 426.785156 298.660156 427.0625 298.546875 C 427.339844 298.429688 427.625 298.375 427.925781 298.375 Z M 427.925781 298.375 "/><path style=" stroke:none;fill-rule:nonzero;fill:#000000;fill-opacity:1;" d="M 373.6875 316.433594 L 387.246094 316.433594 C 387.546875 316.433594 387.835938 316.492188 388.113281 316.605469 C 388.386719 316.71875 388.632812 316.882812 388.84375 317.09375 C 389.058594 317.304688 389.21875 317.550781 389.335938 317.828125 C 389.449219 318.105469 389.507812 318.390625 389.507812 318.691406 L 389.507812 332.234375 C 389.507812 332.535156 389.449219 332.824219 389.335938 333.101562 C 389.21875 333.375 389.058594 333.621094 388.84375 333.832031 C 388.632812 334.042969 388.386719 334.207031 388.113281 334.320312 C 387.835938 334.4375 387.546875 334.492188 387.246094 334.492188 L 373.6875 334.492188 C 373.386719 334.492188 373.097656 334.4375 372.820312 334.320312 C 372.546875 334.207031 372.300781 334.042969 372.089844 333.832031 C 371.878906 333.621094 371.714844 333.375 371.597656 333.101562 C 371.484375 332.824219 371.425781 332.535156 371.425781 332.234375 L 371.425781 318.691406 C 371.425781 318.390625 371.484375 318.105469 371.597656 317.828125 C 371.714844 317.550781 371.878906 317.304688 372.089844 317.09375 C 372.300781 316.882812 372.546875 316.71875 372.820312 316.605469 C 373.097656 316.492188 373.386719 316.433594 373.6875 316.433594 Z M 373.6875 316.433594 "/><path style=" stroke:none;fill-rule:nonzero;fill:#000000;fill-opacity:1;" d="M 409.847656 316.433594 L 423.40625 316.433594 C 423.707031 316.433594 423.996094 316.492188 424.269531 316.605469 C 424.546875 316.71875 424.792969 316.882812 425.003906 317.09375 C 425.214844 317.304688 425.378906 317.550781 425.496094 317.828125 C 425.609375 318.105469 425.667969 318.390625 425.667969 318.691406 L 425.667969 332.234375 C 425.667969 332.535156 425.609375 332.824219 425.496094 333.101562 C 425.378906 333.375 425.214844 333.621094 425.003906 333.832031 C 424.792969 334.042969 424.546875 334.207031 424.269531 334.320312 C 423.996094 334.4375 423.707031 334.492188 423.40625 334.492188 L 409.847656 334.492188 C 409.546875 334.492188 409.257812 334.4375 408.980469 334.320312 C 408.703125 334.207031 408.460938 334.042969 408.25 333.832031 C 408.035156 333.621094 407.875 333.375 407.757812 333.101562 C 407.644531 332.824219 407.585938 332.535156 407.585938 332.234375 L 407.585938 318.691406 C 407.585938 318.390625 407.644531 318.105469 407.757812 317.828125 C 407.875 317.550781 408.035156 317.304688 408.25 317.09375 C 408.460938 316.882812 408.703125 316.71875 408.980469 316.605469 C 409.257812 316.492188 409.546875 316.433594 409.847656 316.433594 Z M 409.847656 316.433594 "/><path style=" stroke:none;fill-rule:nonzero;fill:#000000;fill-opacity:1;" d="M 355.605469 334.492188 L 369.167969 334.492188 C 369.464844 334.492188 369.753906 334.550781 370.03125 334.664062 C 370.308594 334.78125 370.554688 334.941406 370.765625 335.15625 C 370.976562 335.367188 371.140625 335.609375 371.253906 335.886719 C 371.371094 336.164062 371.425781 336.453125 371.425781 336.75 L 371.425781 350.296875 C 371.425781 350.59375 371.371094 350.882812 371.253906 351.160156 C 371.140625 351.4375 370.976562 351.679688 370.765625 351.890625 C 370.554688 352.105469 370.308594 352.265625 370.03125 352.382812 C 369.753906 352.496094 369.464844 352.554688 369.167969 352.554688 L 355.605469 352.554688 C 355.308594 352.554688 355.019531 352.496094 354.742188 352.382812 C 354.464844 352.265625 354.222656 352.105469 354.007812 351.890625 C 353.796875 351.679688 353.632812 351.4375 353.519531 351.160156 C 353.40625 350.882812 353.347656 350.59375 353.347656 350.296875 L 353.347656 336.75 C 353.347656 336.453125 353.40625 336.164062 353.519531 335.886719 C 353.632812 335.609375 353.796875 335.367188 354.007812 335.15625 C 354.222656 334.941406 354.464844 334.78125 354.742188 334.664062 C 355.019531 334.550781 355.308594 334.492188 355.605469 334.492188 Z M 355.605469 334.492188 "/><path style=" stroke:none;fill-rule:nonzero;fill:#000000;fill-opacity:1;" d="M 391.765625 334.492188 L 405.328125 334.492188 C 405.625 334.492188 405.914062 334.550781 406.191406 334.664062 C 406.46875 334.78125 406.714844 334.941406 406.925781 335.15625 C 407.136719 335.367188 407.300781 335.609375 407.414062 335.886719 C 407.53125 336.164062 407.585938 336.453125 407.585938 336.75 L 407.585938 350.296875 C 407.585938 350.59375 407.53125 350.882812 407.414062 351.160156 C 407.300781 351.4375 407.136719 351.679688 406.925781 351.890625 C 406.714844 352.105469 406.46875 352.265625 406.191406 352.382812 C 405.914062 352.496094 405.625 352.554688 405.328125 352.554688 L 391.765625 352.554688 C 391.46875 352.554688 391.179688 352.496094 390.902344 352.382812 C 390.625 352.265625 390.378906 352.105469 390.167969 351.890625 C 389.957031 351.679688 389.792969 351.4375 389.679688 351.160156 C 389.5625 350.882812 389.507812 350.59375 389.507812 350.296875 L 389.507812 336.75 C 389.507812 336.453125 389.5625 336.164062 389.679688 335.886719 C 389.792969 335.609375 389.957031 335.367188 390.167969 335.15625 C 390.378906 334.941406 390.625 334.78125 390.902344 334.664062 C 391.179688 334.550781 391.46875 334.492188 391.765625 334.492188 Z M 391.765625 334.492188 "/><path style=" stroke:none;fill-rule:nonzero;fill:#000000;fill-opacity:1;" d="M 427.925781 334.492188 L 441.488281 334.492188 C 441.785156 334.492188 442.074219 334.550781 442.351562 334.664062 C 442.628906 334.78125 442.871094 334.941406 443.085938 335.15625 C 443.296875 335.367188 443.460938 335.609375 443.574219 335.886719 C 443.6875 336.164062 443.746094 336.453125 443.746094 336.75 L 443.746094 350.296875 C 443.746094 350.59375 443.6875 350.882812 443.574219 351.160156 C 443.460938 351.4375 443.296875 351.679688 443.085938 351.890625 C 442.871094 352.105469 442.628906 352.265625 442.351562 352.382812 C 442.074219 352.496094 441.785156 352.554688 441.488281 352.554688 L 427.925781 352.554688 C 427.625 352.554688 427.339844 352.496094 427.0625 352.382812 C 426.785156 352.265625 426.539062 352.105469 426.328125 351.890625 C 426.117188 351.679688 425.953125 351.4375 425.839844 351.160156 C 425.722656 350.882812 425.667969 350.59375 425.667969 350.296875 L 425.667969 336.75 C 425.667969 336.453125 425.722656 336.164062 425.839844 335.886719 C 425.953125 335.609375 426.117188 335.367188 426.328125 335.15625 C 426.539062 334.941406 426.785156 334.78125 427.0625 334.664062 C 427.339844 334.550781 427.625 334.492188 427.925781 334.492188 Z M 427.925781 334.492188 "/><path style=" stroke:none;fill-rule:nonzero;fill:#000000;fill-opacity:1;" d="M 373.6875 352.554688 L 387.246094 352.554688 C 387.546875 352.554688 387.835938 352.609375 388.113281 352.726562 C 388.386719 352.839844 388.632812 353.003906 388.84375 353.214844 C 389.058594 353.425781 389.21875 353.671875 389.335938 353.945312 C 389.449219 354.222656 389.507812 354.511719 389.507812 354.8125 L 389.507812 368.355469 C 389.507812 368.65625 389.449219 368.941406 389.335938 369.21875 C 389.21875 369.496094 389.058594 369.742188 388.84375 369.953125 C 388.632812 370.164062 388.386719 370.328125 388.113281 370.441406 C 387.835938 370.554688 387.546875 370.613281 387.246094 370.613281 L 373.6875 370.613281 C 373.386719 370.613281 373.097656 370.554688 372.820312 370.441406 C 372.546875 370.328125 372.300781 370.164062 372.089844 369.953125 C 371.878906 369.742188 371.714844 369.496094 371.597656 369.21875 C 371.484375 368.941406 371.425781 368.65625 371.425781 368.355469 L 371.425781 354.8125 C 371.425781 354.511719 371.484375 354.222656 371.597656 353.945312 C 371.714844 353.671875 371.878906 353.425781 372.089844 353.214844 C 372.300781 353.003906 372.546875 352.839844 372.820312 352.726562 C 373.097656 352.609375 373.386719 352.554688 373.6875 352.554688 Z M 373.6875 352.554688 "/><path style=" stroke:none;fill-rule:nonzero;fill:#000000;fill-opacity:1;" d="M 409.847656 352.554688 L 423.40625 352.554688 C 423.707031 352.554688 423.996094 352.609375 424.269531 352.726562 C 424.546875 352.839844 424.792969 353.003906 425.003906 353.214844 C 425.214844 353.425781 425.378906 353.671875 425.496094 353.945312 C 425.609375 354.222656 425.667969 354.511719 425.667969 354.8125 L 425.667969 368.355469 C 425.667969 368.65625 425.609375 368.941406 425.496094 369.21875 C 425.378906 369.496094 425.214844 369.742188 425.003906 369.953125 C 424.792969 370.164062 424.546875 370.328125 424.269531 370.441406 C 423.996094 370.554688 423.707031 370.613281 423.40625 370.613281 L 409.847656 370.613281 C 409.546875 370.613281 409.257812 370.554688 408.980469 370.441406 C 408.703125 370.328125 408.460938 370.164062 408.25 369.953125 C 408.035156 369.742188 407.875 369.496094 407.757812 369.21875 C 407.644531 368.941406 407.585938 368.65625 407.585938 368.355469 L 407.585938 354.8125 C 407.585938 354.511719 407.644531 354.222656 407.757812 353.945312 C 407.875 353.671875 408.035156 353.425781 408.25 353.214844 C 408.460938 353.003906 408.703125 352.839844 408.980469 352.726562 C 409.257812 352.609375 409.546875 352.554688 409.847656 352.554688 Z M 409.847656 352.554688 "/><path style=" stroke:none;fill-rule:nonzero;fill:#000000;fill-opacity:1;" d="M 355.605469 370.613281 L 369.167969 370.613281 C 369.464844 370.613281 369.753906 370.671875 370.03125 370.785156 C 370.308594 370.898438 370.554688 371.0625 370.765625 371.273438 C 370.976562 371.488281 371.140625 371.730469 371.253906 372.007812 C 371.371094 372.285156 371.425781 372.570312 371.425781 372.871094 L 371.425781 386.414062 C 371.425781 386.714844 371.371094 387.003906 371.253906 387.28125 C 371.140625 387.554688 370.976562 387.800781 370.765625 388.011719 C 370.554688 388.222656 370.308594 388.386719 370.03125 388.5 C 369.753906 388.617188 369.464844 388.671875 369.167969 388.671875 L 355.605469 388.671875 C 355.308594 388.671875 355.019531 388.617188 354.742188 388.5 C 354.464844 388.386719 354.222656 388.222656 354.007812 388.011719 C 353.796875 387.800781 353.632812 387.554688 353.519531 387.28125 C 353.40625 387.003906 353.347656 386.714844 353.347656 386.414062 L 353.347656 372.871094 C 353.347656 372.570312 353.40625 372.285156 353.519531 372.007812 C 353.632812 371.730469 353.796875 371.488281 354.007812 371.273438 C 354.222656 371.0625 354.464844 370.898438 354.742188 370.785156 C 355.019531 370.671875 355.308594 370.613281 355.605469 370.613281 Z M 355.605469 370.613281 "/><path style=" stroke:none;fill-rule:nonzero;fill:#000000;fill-opacity:1;" d="M 391.765625 370.613281 L 405.328125 370.613281 C 405.625 370.613281 405.914062 370.671875 406.191406 370.785156 C 406.46875 370.898438 406.714844 371.0625 406.925781 371.273438 C 407.136719 371.488281 407.300781 371.730469 407.414062 372.007812 C 407.53125 372.285156 407.585938 372.570312 407.585938 372.871094 L 407.585938 386.414062 C 407.585938 386.714844 407.53125 387.003906 407.414062 387.28125 C 407.300781 387.554688 407.136719 387.800781 406.925781 388.011719 C 406.714844 388.222656 406.46875 388.386719 406.191406 388.5 C 405.914062 388.617188 405.625 388.671875 405.328125 388.671875 L 391.765625 388.671875 C 391.46875 388.671875 391.179688 388.617188 390.902344 388.5 C 390.625 388.386719 390.378906 388.222656 390.167969 388.011719 C 389.957031 387.800781 389.792969 387.554688 389.679688 387.28125 C 389.5625 387.003906 389.507812 386.714844 389.507812 386.414062 L 389.507812 372.871094 C 389.507812 372.570312 389.5625 372.285156 389.679688 372.007812 C 389.792969 371.730469 389.957031 371.488281 390.167969 371.273438 C 390.378906 371.0625 390.625 370.898438 390.902344 370.785156 C 391.179688 370.671875 391.46875 370.613281 391.765625 370.613281 Z M 391.765625 370.613281 "/><path style=" stroke:none;fill-rule:nonzero;fill:#000000;fill-opacity:1;" d="M 427.925781 370.613281 L 441.488281 370.613281 C 441.785156 370.613281 442.074219 370.671875 442.351562 370.785156 C 442.628906 370.898438 442.871094 371.0625 443.085938 371.273438 C 443.296875 371.488281 443.460938 371.730469 443.574219 372.007812 C 443.6875 372.285156 443.746094 372.570312 443.746094 372.871094 L 443.746094 386.414062 C 443.746094 386.714844 443.6875 387.003906 443.574219 387.28125 C 443.460938 387.554688 443.296875 387.800781 443.085938 388.011719 C 442.871094 388.222656 442.628906 388.386719 442.351562 388.5 C 442.074219 388.617188 441.785156 388.671875 441.488281 388.671875 L 427.925781 388.671875 C 427.625 388.671875 427.339844 388.617188 427.0625 388.5 C 426.785156 388.386719 426.539062 388.222656 426.328125 388.011719 C 426.117188 387.800781 425.953125 387.554688 425.839844 387.28125 C 425.722656 387.003906 425.667969 386.714844 425.667969 386.414062 L 425.667969 372.871094 C 425.667969 372.570312 425.722656 372.285156 425.839844 372.007812 C 425.953125 371.730469 426.117188 371.488281 426.328125 371.273438 C 426.539062 371.0625 426.785156 370.898438 427.0625 370.785156 C 427.339844 370.671875 427.625 370.613281 427.925781 370.613281 Z M 427.925781 370.613281 "/><g style="fill:#000000;fill-opacity:1;"><g transform="translate(191.852075, 469.428244)"><path style="stroke:none" d="M 8.359375 0.359375 C 6.296875 0.359375 4.875 -0.0703125 4.09375 -0.9375 C 3.3125 -1.8125 2.921875 -3.207031 2.921875 -5.125 L 2.921875 -25.671875 L 0.71875 -25.671875 L 0.71875 -31.65625 L 2.921875 -31.65625 L 2.921875 -38.625 L 10.5625 -38.625 L 10.5625 -31.65625 L 12.8125 -31.65625 L 12.8125 -25.671875 L 10.5625 -25.671875 L 10.5625 -7.1875 C 10.5625 -6.625 10.609375 -6.207031 10.703125 -5.9375 C 10.796875 -5.664062 11.035156 -5.53125 11.421875 -5.53125 C 11.722656 -5.53125 12.007812 -5.546875 12.28125 -5.578125 C 12.550781 -5.609375 12.726562 -5.625 12.8125 -5.625 L 12.8125 -0.21875 C 12.363281 -0.101562 11.710938 0.0195312 10.859375 0.15625 C 10.003906 0.289062 9.171875 0.359375 8.359375 0.359375 Z M 8.359375 0.359375 "/></g></g><g style="fill:#000000;fill-opacity:1;"><g transform="translate(205.569899, 469.428244)"><path style="stroke:none" d="M 1.53125 -35.125 L 1.53125 -40.609375 L 9.40625 -40.609375 L 9.40625 -35.125 Z M 1.53125 0 L 1.53125 -32.921875 L 9.40625 -32.921875 L 9.40625 0 Z M 1.53125 0 "/></g></g><g style="fill:#000000;fill-opacity:1;"><g transform="translate(216.499181, 469.428244)"><path style="stroke:none" d="M 8.046875 0.359375 C 6.128906 0.359375 4.679688 -0.0976562 3.703125 -1.015625 C 2.734375 -1.929688 2.085938 -3.144531 1.765625 -4.65625 C 1.453125 -6.164062 1.296875 -8.109375 1.296875 -10.484375 L 1.390625 -25.3125 C 1.390625 -27.65625 1.984375 -29.566406 3.171875 -31.046875 C 4.359375 -32.535156 6.03125 -33.28125 8.1875 -33.28125 C 10.3125 -33.28125 11.898438 -32.570312 12.953125 -31.15625 L 12.953125 -38.859375 L 20.828125 -38.859375 L 20.828125 0 L 12.953125 0 L 12.953125 -3.5 C 12.503906 -2.21875 11.894531 -1.253906 11.125 -0.609375 C 10.363281 0.0351562 9.335938 0.359375 8.046875 0.359375 Z M 11.0625 -5.796875 C 11.84375 -5.796875 12.351562 -6.175781 12.59375 -6.9375 C 12.832031 -7.707031 12.953125 -8.738281 12.953125 -10.03125 L 12.953125 -23.78125 C 12.953125 -24.75 12.816406 -25.5625 12.546875 -26.21875 C 12.273438 -26.875 11.796875 -27.203125 11.109375 -27.203125 C 10.328125 -27.203125 9.804688 -26.894531 9.546875 -26.28125 C 9.296875 -25.664062 9.171875 -24.832031 9.171875 -23.78125 L 9.171875 -9.9375 C 9.171875 -7.175781 9.800781 -5.796875 11.0625 -5.796875 Z M 11.0625 -5.796875 "/></g></g><g style="fill:#000000;fill-opacity:1;"><g transform="translate(238.89747, 469.428244)"><path style="stroke:none" d="M 7.5625 0.359375 C 5.007812 0.359375 3.257812 -0.484375 2.3125 -2.171875 C 1.375 -3.867188 0.90625 -6.289062 0.90625 -9.4375 C 0.90625 -12.019531 1.238281 -14 1.90625 -15.375 C 2.582031 -16.757812 3.519531 -17.769531 4.71875 -18.40625 C 5.914062 -19.050781 7.742188 -19.765625 10.203125 -20.546875 L 12.359375 -21.265625 L 12.359375 -24.640625 C 12.359375 -25.515625 12.1875 -26.179688 11.84375 -26.640625 C 11.5 -27.109375 11.085938 -27.34375 10.609375 -27.34375 C 10.191406 -27.34375 9.820312 -27.144531 9.5 -26.75 C 9.1875 -26.363281 9.03125 -25.84375 9.03125 -25.1875 L 9.03125 -23.203125 L 1.390625 -23.203125 L 1.390625 -24.28125 C 1.390625 -27.519531 2.144531 -29.828125 3.65625 -31.203125 C 5.175781 -32.585938 7.644531 -33.28125 11.0625 -33.28125 C 13.789062 -33.28125 16.007812 -32.566406 17.71875 -31.140625 C 19.425781 -29.710938 20.28125 -27.695312 20.28125 -25.09375 L 20.28125 0 L 12.453125 0 L 12.453125 -3.90625 C 12.066406 -2.5625 11.445312 -1.515625 10.59375 -0.765625 C 9.738281 -0.015625 8.726562 0.359375 7.5625 0.359375 Z M 10.65625 -5.75 C 11.257812 -5.75 11.6875 -5.992188 11.9375 -6.484375 C 12.195312 -6.984375 12.328125 -7.59375 12.328125 -8.3125 L 12.328125 -17.5 C 11.148438 -17.039062 10.285156 -16.46875 9.734375 -15.78125 C 9.179688 -15.09375 8.90625 -14.132812 8.90625 -12.90625 L 8.90625 -8.671875 C 8.90625 -6.722656 9.488281 -5.75 10.65625 -5.75 Z M 10.65625 -5.75 "/></g></g><g style="fill:#000000;fill-opacity:1;"><g transform="translate(260.621111, 469.428244)"><path style="stroke:none" d="M 1.578125 0 L 1.578125 -38.859375 L 9.359375 -38.859375 L 9.359375 -21.578125 L 13.125 -32.921875 L 21.265625 -32.921875 L 16.328125 -18.609375 L 22.625 0 L 14.25 0 L 9.359375 -15.515625 L 9.359375 0 Z M 1.578125 0 "/></g></g><g style="fill:#000000;fill-opacity:1;"><g transform="translate(282.704567, 469.428244)"><path style="stroke:none" d=""/></g></g><g style="fill:#000000;fill-opacity:1;"><g transform="translate(293.229063, 469.428244)"><path style="stroke:none" d="M 7.5625 0.359375 C 5.007812 0.359375 3.257812 -0.484375 2.3125 -2.171875 C 1.375 -3.867188 0.90625 -6.289062 0.90625 -9.4375 C 0.90625 -12.019531 1.238281 -14 1.90625 -15.375 C 2.582031 -16.757812 3.519531 -17.769531 4.71875 -18.40625 C 5.914062 -19.050781 7.742188 -19.765625 10.203125 -20.546875 L 12.359375 -21.265625 L 12.359375 -24.640625 C 12.359375 -25.515625 12.1875 -26.179688 11.84375 -26.640625 C 11.5 -27.109375 11.085938 -27.34375 10.609375 -27.34375 C 10.191406 -27.34375 9.820312 -27.144531 9.5 -26.75 C 9.1875 -26.363281 9.03125 -25.84375 9.03125 -25.1875 L 9.03125 -23.203125 L 1.390625 -23.203125 L 1.390625 -24.28125 C 1.390625 -27.519531 2.144531 -29.828125 3.65625 -31.203125 C 5.175781 -32.585938 7.644531 -33.28125 11.0625 -33.28125 C 13.789062 -33.28125 16.007812 -32.566406 17.71875 -31.140625 C 19.425781 -29.710938 20.28125 -27.695312 20.28125 -25.09375 L 20.28125 0 L 12.453125 0 L 12.453125 -3.90625 C 12.066406 -2.5625 11.445312 -1.515625 10.59375 -0.765625 C 9.738281 -0.015625 8.726562 0.359375 7.5625 0.359375 Z M 10.65625 -5.75 C 11.257812 -5.75 11.6875 -5.992188 11.9375 -6.484375 C 12.195312 -6.984375 12.328125 -7.59375 12.328125 -8.3125 L 12.328125 -17.5 C 11.148438 -17.039062 10.285156 -16.46875 9.734375 -15.78125 C 9.179688 -15.09375 8.90625 -14.132812 8.90625 -12.90625 L 8.90625 -8.671875 C 8.90625 -6.722656 9.488281 -5.75 10.65625 -5.75 Z M 10.65625 -5.75 "/></g></g><g style="fill:#000000;fill-opacity:1;"><g transform="translate(314.952704, 469.428244)"><path style="stroke:none" d="M 8.046875 0.359375 C 6.128906 0.359375 4.679688 -0.0976562 3.703125 -1.015625 C 2.734375 -1.929688 2.085938 -3.144531 1.765625 -4.65625 C 1.453125 -6.164062 1.296875 -8.109375 1.296875 -10.484375 L 1.390625 -25.3125 C 1.390625 -27.65625 1.984375 -29.566406 3.171875 -31.046875 C 4.359375 -32.535156 6.03125 -33.28125 8.1875 -33.28125 C 10.3125 -33.28125 11.898438 -32.570312 12.953125 -31.15625 L 12.953125 -38.859375 L 20.828125 -38.859375 L 20.828125 0 L 12.953125 0 L 12.953125 -3.5 C 12.503906 -2.21875 11.894531 -1.253906 11.125 -0.609375 C 10.363281 0.0351562 9.335938 0.359375 8.046875 0.359375 Z M 11.0625 -5.796875 C 11.84375 -5.796875 12.351562 -6.175781 12.59375 -6.9375 C 12.832031 -7.707031 12.953125 -8.738281 12.953125 -10.03125 L 12.953125 -23.78125 C 12.953125 -24.75 12.816406 -25.5625 12.546875 -26.21875 C 12.273438 -26.875 11.796875 -27.203125 11.109375 -27.203125 C 10.328125 -27.203125 9.804688 -26.894531 9.546875 -26.28125 C 9.296875 -25.664062 9.171875 -24.832031 9.171875 -23.78125 L 9.171875 -9.9375 C 9.171875 -7.175781 9.800781 -5.796875 11.0625 -5.796875 Z M 11.0625 -5.796875 "/></g></g><g style="fill:#000000;fill-opacity:1;"><g transform="translate(337.350993, 469.428244)"><path style="stroke:none" d="M 7.5625 0.359375 C 5.007812 0.359375 3.257812 -0.484375 2.3125 -2.171875 C 1.375 -3.867188 0.90625 -6.289062 0.90625 -9.4375 C 0.90625 -12.019531 1.238281 -14 1.90625 -15.375 C 2.582031 -16.757812 3.519531 -17.769531 4.71875 -18.40625 C 5.914062 -19.050781 7.742188 -19.765625 10.203125 -20.546875 L 12.359375 -21.265625 L 12.359375 -24.640625 C 12.359375 -25.515625 12.1875 -26.179688 11.84375 -26.640625 C 11.5 -27.109375 11.085938 -27.34375 10.609375 -27.34375 C 10.191406 -27.34375 9.820312 -27.144531 9.5 -26.75 C 9.1875 -26.363281 9.03125 -25.84375 9.03125 -25.1875 L 9.03125 -23.203125 L 1.390625 -23.203125 L 1.390625 -24.28125 C 1.390625 -27.519531 2.144531 -29.828125 3.65625 -31.203125 C 5.175781 -32.585938 7.644531 -33.28125 11.0625 -33.28125 C 13.789062 -33.28125 16.007812 -32.566406 17.71875 -31.140625 C 19.425781 -29.710938 20.28125 -27.695312 20.28125 -25.09375 L 20.28125 0 L 12.453125 0 L 12.453125 -3.90625 C 12.066406 -2.5625 11.445312 -1.515625 10.59375 -0.765625 C 9.738281 -0.015625 8.726562 0.359375 7.5625 0.359375 Z M 10.65625 -5.75 C 11.257812 -5.75 11.6875 -5.992188 11.9375 -6.484375 C 12.195312 -6.984375 12.328125 -7.59375 12.328125 -8.3125 L 12.328125 -17.5 C 11.148438 -17.039062 10.285156 -16.46875 9.734375 -15.78125 C 9.179688 -15.09375 8.90625 -14.132812 8.90625 -12.90625 L 8.90625 -8.671875 C 8.90625 -6.722656 9.488281 -5.75 10.65625 -5.75 Z M 10.65625 -5.75 "/></g></g><g style="fill:#000000;fill-opacity:1;"><g transform="translate(359.074635, 469.428244)"><path style="stroke:none" d=""/></g></g><g style="fill:#000000;fill-opacity:1;"><g transform="translate(369.599131, 469.428244)"><path style="stroke:none" d="M 2.296875 -25.5 L 0.90625 -25.5 L 0.9375 -31.484375 L 2.296875 -31.484375 L 2.296875 -33.734375 C 2.296875 -37.265625 4.0625 -39.03125 7.59375 -39.03125 C 9.28125 -39.03125 10.628906 -38.820312 11.640625 -38.40625 L 11.640625 -33.546875 C 11.347656 -33.640625 11.109375 -33.6875 10.921875 -33.6875 C 10.503906 -33.6875 10.234375 -33.535156 10.109375 -33.234375 C 9.992188 -32.929688 9.9375 -32.484375 9.9375 -31.890625 L 9.9375 -31.484375 L 11.640625 -31.484375 L 11.640625 -25.40625 L 10.125 -25.40625 L 10.125 0 L 2.296875 0 Z M 2.296875 -25.5 "/></g></g><g style="fill:#000000;fill-opacity:1;"><g transform="translate(382.192542, 469.428244)"><path style="stroke:none" d="M 11.15625 0.359375 C 4.582031 0.359375 1.296875 -3.039062 1.296875 -9.84375 L 1.296875 -23.0625 C 1.296875 -26.1875 2.171875 -28.671875 3.921875 -30.515625 C 5.679688 -32.359375 8.09375 -33.28125 11.15625 -33.28125 C 14.207031 -33.28125 16.609375 -32.359375 18.359375 -30.515625 C 20.117188 -28.671875 21 -26.1875 21 -23.0625 L 21 -9.84375 C 21 -3.039062 17.71875 0.359375 11.15625 0.359375 Z M 11.15625 -5.71875 C 11.78125 -5.71875 12.242188 -5.941406 12.546875 -6.390625 C 12.847656 -6.835938 13 -7.453125 13 -8.234375 L 13 -24.328125 C 13 -26.242188 12.382812 -27.203125 11.15625 -27.203125 C 9.925781 -27.203125 9.3125 -26.242188 9.3125 -24.328125 L 9.3125 -8.234375 C 9.3125 -7.453125 9.457031 -6.835938 9.75 -6.390625 C 10.050781 -5.941406 10.519531 -5.71875 11.15625 -5.71875 Z M 11.15625 -5.71875 "/></g></g><g style="fill:#000000;fill-opacity:1;"><g transform="translate(404.545851, 469.428244)"><path style="stroke:none" d="M 8.359375 0.359375 C 6.296875 0.359375 4.875 -0.0703125 4.09375 -0.9375 C 3.3125 -1.8125 2.921875 -3.207031 2.921875 -5.125 L 2.921875 -25.671875 L 0.71875 -25.671875 L 0.71875 -31.65625 L 2.921875 -31.65625 L 2.921875 -38.625 L 10.5625 -38.625 L 10.5625 -31.65625 L 12.8125 -31.65625 L 12.8125 -25.671875 L 10.5625 -25.671875 L 10.5625 -7.1875 C 10.5625 -6.625 10.609375 -6.207031 10.703125 -5.9375 C 10.796875 -5.664062 11.035156 -5.53125 11.421875 -5.53125 C 11.722656 -5.53125 12.007812 -5.546875 12.28125 -5.578125 C 12.550781 -5.609375 12.726562 -5.625 12.8125 -5.625 L 12.8125 -0.21875 C 12.363281 -0.101562 11.710938 0.0195312 10.859375 0.15625 C 10.003906 0.289062 9.171875 0.359375 8.359375 0.359375 Z M 8.359375 0.359375 "/></g></g><g style="fill:#000000;fill-opacity:1;"><g transform="translate(418.263676, 469.428244)"><path style="stroke:none" d="M 11.15625 0.359375 C 4.582031 0.359375 1.296875 -3.039062 1.296875 -9.84375 L 1.296875 -23.0625 C 1.296875 -26.1875 2.171875 -28.671875 3.921875 -30.515625 C 5.679688 -32.359375 8.09375 -33.28125 11.15625 -33.28125 C 14.207031 -33.28125 16.609375 -32.359375 18.359375 -30.515625 C 20.117188 -28.671875 21 -26.1875 21 -23.0625 L 21 -9.84375 C 21 -3.039062 17.71875 0.359375 11.15625 0.359375 Z M 11.15625 -5.71875 C 11.78125 -5.71875 12.242188 -5.941406 12.546875 -6.390625 C 12.847656 -6.835938 13 -7.453125 13 -8.234375 L 13 -24.328125 C 13 -26.242188 12.382812 -27.203125 11.15625 -27.203125 C 9.925781 -27.203125 9.3125 -26.242188 9.3125 -24.328125 L 9.3125 -8.234375 C 9.3125 -7.453125 9.457031 -6.835938 9.75 -6.390625 C 10.050781 -5.941406 10.519531 -5.71875 11.15625 -5.71875 Z M 11.15625 -5.71875 "/></g></g><g style="fill:#000000;fill-opacity:1;"><g transform="translate(440.616985, 469.428244)"><path style="stroke:none" d=""/></g></g><g style="fill:#000000;fill-opacity:1;"><g transform="translate(451.141471, 469.428244)"><path style="stroke:none" d="M 8.359375 0.359375 C 6.296875 0.359375 4.875 -0.0703125 4.09375 -0.9375 C 3.3125 -1.8125 2.921875 -3.207031 2.921875 -5.125 L 2.921875 -25.671875 L 0.71875 -25.671875 L 0.71875 -31.65625 L 2.921875 -31.65625 L 2.921875 -38.625 L 10.5625 -38.625 L 10.5625 -31.65625 L 12.8125 -31.65625 L 12.8125 -25.671875 L 10.5625 -25.671875 L 10.5625 -7.1875 C 10.5625 -6.625 10.609375 -6.207031 10.703125 -5.9375 C 10.796875 -5.664062 11.035156 -5.53125 11.421875 -5.53125 C 11.722656 -5.53125 12.007812 -5.546875 12.28125 -5.578125 C 12.550781 -5.609375 12.726562 -5.625 12.8125 -5.625 L 12.8125 -0.21875 C 12.363281 -0.101562 11.710938 0.0195312 10.859375 0.15625 C 10.003906 0.289062 9.171875 0.359375 8.359375 0.359375 Z M 8.359375 0.359375 "/></g><g transform="translate(464.859316, 469.428244)"><path style="stroke:none" d="M 10.796875 0.359375 C 7.410156 0.359375 4.976562 -0.566406 3.5 -2.421875 C 2.03125 -4.285156 1.296875 -7.0625 1.296875 -10.75 L 1.296875 -23.96875 C 1.296875 -27 2.164062 -29.304688 3.90625 -30.890625 C 5.644531 -32.484375 8.078125 -33.28125 11.203125 -33.28125 C 17.523438 -33.28125 20.6875 -30.175781 20.6875 -23.96875 L 20.6875 -21.578125 C 20.6875 -19.179688 20.65625 -17.234375 20.59375 -15.734375 L 9.171875 -15.734375 L 9.171875 -9.359375 C 9.171875 -8.210938 9.289062 -7.316406 9.53125 -6.671875 C 9.769531 -6.035156 10.28125 -5.71875 11.0625 -5.71875 C 11.664062 -5.71875 12.09375 -5.894531 12.34375 -6.25 C 12.59375 -6.613281 12.738281 -7.023438 12.78125 -7.484375 C 12.832031 -7.953125 12.859375 -8.632812 12.859375 -9.53125 L 12.859375 -12.71875 L 20.6875 -12.71875 L 20.6875 -10.84375 C 20.6875 -7 19.941406 -4.171875 18.453125 -2.359375 C 16.972656 -0.546875 14.421875 0.359375 10.796875 0.359375 Z M 12.859375 -19.65625 L 12.859375 -23.875 C 12.859375 -26.25 12.273438 -27.4375 11.109375 -27.4375 C 9.785156 -27.4375 9.125 -26.25 9.125 -23.875 L 9.125 -19.65625 Z M 12.859375 -19.65625 "/></g></g><g style="fill:#000000;fill-opacity:1;"><g transform="translate(486.80782, 469.428244)"><path style="stroke:none" d="M 1.578125 -32.921875 L 9.4375 -32.921875 L 9.4375 -29.28125 C 9.832031 -30.5625 10.515625 -31.554688 11.484375 -32.265625 C 12.460938 -32.972656 13.671875 -33.328125 15.109375 -33.328125 L 15.109375 -26.75 C 14.003906 -26.75 12.78125 -26.59375 11.4375 -26.28125 C 10.101562 -25.96875 9.4375 -25.601562 9.4375 -25.1875 L 9.4375 0 L 1.578125 0 Z M 1.578125 -32.921875 "/></g></g><g style="fill:#000000;fill-opacity:1;"><g transform="translate(502.279726, 469.428244)"><path style="stroke:none" d="M 1.578125 0 L 1.578125 -38.859375 L 9.578125 -38.859375 L 9.578125 0 Z M 1.578125 0 "/></g></g><g style="fill:#000000;fill-opacity:1;"><g transform="translate(513.4339, 469.428244)"><path style="stroke:none" d="M 7.5625 0.359375 C 5.007812 0.359375 3.257812 -0.484375 2.3125 -2.171875 C 1.375 -3.867188 0.90625 -6.289062 0.90625 -9.4375 C 0.90625 -12.019531 1.238281 -14 1.90625 -15.375 C 2.582031 -16.757812 3.519531 -17.769531 4.71875 -18.40625 C 5.914062 -19.050781 7.742188 -19.765625 10.203125 -20.546875 L 12.359375 -21.265625 L 12.359375 -24.640625 C 12.359375 -25.515625 12.1875 -26.179688 11.84375 -26.640625 C 11.5 -27.109375 11.085938 -27.34375 10.609375 -27.34375 C 10.191406 -27.34375 9.820312 -27.144531 9.5 -26.75 C 9.1875 -26.363281 9.03125 -25.84375 9.03125 -25.1875 L 9.03125 -23.203125 L 1.390625 -23.203125 L 1.390625 -24.28125 C 1.390625 -27.519531 2.144531 -29.828125 3.65625 -31.203125 C 5.175781 -32.585938 7.644531 -33.28125 11.0625 -33.28125 C 13.789062 -33.28125 16.007812 -32.566406 17.71875 -31.140625 C 19.425781 -29.710938 20.28125 -27.695312 20.28125 -25.09375 L 20.28125 0 L 12.453125 0 L 12.453125 -3.90625 C 12.066406 -2.5625 11.445312 -1.515625 10.59375 -0.765625 C 9.738281 -0.015625 8.726562 0.359375 7.5625 0.359375 Z M 10.65625 -5.75 C 11.257812 -5.75 11.6875 -5.992188 11.9375 -6.484375 C 12.195312 -6.984375 12.328125 -7.59375 12.328125 -8.3125 L 12.328125 -17.5 C 11.148438 -17.039062 10.285156 -16.46875 9.734375 -15.78125 C 9.179688 -15.09375 8.90625 -14.132812 8.90625 -12.90625 L 8.90625 -8.671875 C 8.90625 -6.722656 9.488281 -5.75 10.65625 -5.75 Z M 10.65625 -5.75 "/></g></g><g style="fill:#000000;fill-opacity:1;"><g transform="translate(535.157562, 469.428244)"><path style="stroke:none" d="M 1.578125 -32.921875 L 9.265625 -32.921875 L 9.265625 -29.09375 C 9.617188 -30.5 10.226562 -31.546875 11.09375 -32.234375 C 11.96875 -32.929688 13.203125 -33.28125 14.796875 -33.28125 C 16.085938 -33.28125 17.203125 -32.984375 18.140625 -32.390625 C 19.085938 -31.804688 19.753906 -31.007812 20.140625 -30 C 20.804688 -31.132812 21.539062 -31.960938 22.34375 -32.484375 C 23.15625 -33.015625 24.28125 -33.28125 25.71875 -33.28125 C 28.300781 -33.28125 30.09375 -32.492188 31.09375 -30.921875 C 32.101562 -29.347656 32.609375 -27.0625 32.609375 -24.0625 L 32.515625 0 L 24.59375 0 L 24.59375 -24.1875 C 24.59375 -26.320312 24.054688 -27.390625 22.984375 -27.390625 C 22.234375 -27.390625 21.691406 -27.019531 21.359375 -26.28125 C 21.023438 -25.550781 20.859375 -24.675781 20.859375 -23.65625 L 20.859375 0 L 13 0 L 13 -24.1875 C 13 -25.125 12.898438 -25.875 12.703125 -26.4375 C 12.503906 -27.007812 12.09375 -27.296875 11.46875 -27.296875 C 10.65625 -27.296875 10.082031 -26.894531 9.75 -26.09375 C 9.425781 -25.300781 9.265625 -24.351562 9.265625 -23.25 L 9.265625 0 L 1.578125 0 Z M 1.578125 -32.921875 "/></g></g><g style="fill:#000000;fill-opacity:1;"><g transform="translate(569.249732, 469.428244)"><path style="stroke:none" d="M 1.578125 -32.921875 L 9.578125 -32.921875 L 9.578125 -31.15625 C 10.710938 -32.570312 12.285156 -33.28125 14.296875 -33.28125 C 16.847656 -33.28125 18.625 -32.425781 19.625 -30.71875 C 20.632812 -29.007812 21.140625 -26.640625 21.140625 -23.609375 L 21.140625 -11.421875 C 21.140625 -8.847656 20.988281 -6.742188 20.6875 -5.109375 C 20.382812 -3.472656 19.722656 -2.148438 18.703125 -1.140625 C 17.679688 -0.140625 16.140625 0.359375 14.078125 0.359375 C 12.097656 0.359375 10.597656 -0.191406 9.578125 -1.296875 L 9.578125 6.5625 L 1.578125 6.5625 Z M 11.46875 -5.75 C 12.1875 -5.75 12.648438 -6.078125 12.859375 -6.734375 C 13.066406 -7.398438 13.171875 -8.363281 13.171875 -9.625 L 13.171875 -23.609375 C 13.171875 -24.742188 13.066406 -25.609375 12.859375 -26.203125 C 12.648438 -26.804688 12.171875 -27.109375 11.421875 -27.109375 C 10.191406 -27.109375 9.578125 -25.972656 9.578125 -23.703125 L 9.578125 -9.265625 C 9.578125 -8.148438 9.703125 -7.285156 9.953125 -6.671875 C 10.210938 -6.054688 10.71875 -5.75 11.46875 -5.75 Z M 11.46875 -5.75 "/></g></g><g style="fill:#000000;fill-opacity:1;"><g transform="translate(591.737963, 469.428244)"><path style="stroke:none" d="M 1.53125 -35.125 L 1.53125 -40.609375 L 9.40625 -40.609375 L 9.40625 -35.125 Z M 1.53125 0 L 1.53125 -32.921875 L 9.40625 -32.921875 L 9.40625 0 Z M 1.53125 0 "/></g></g><g style="fill:#000000;fill-opacity:1;"><g transform="translate(602.667254, 469.428244)"><path style="stroke:none" d="M 1.578125 -32.921875 L 9.4375 -32.921875 L 9.4375 -29.28125 C 9.832031 -30.5625 10.515625 -31.554688 11.484375 -32.265625 C 12.460938 -32.972656 13.671875 -33.328125 15.109375 -33.328125 L 15.109375 -26.75 C 14.003906 -26.75 12.78125 -26.59375 11.4375 -26.28125 C 10.101562 -25.96875 9.4375 -25.601562 9.4375 -25.1875 L 9.4375 0 L 1.578125 0 Z M 1.578125 -32.921875 "/></g></g></g></svg>