<svg width="673" height="1061" viewBox="0 0 673 1061" fill="none" xmlns="http://www.w3.org/2000/svg">
<path d="M413.017 453.353L426.018 480.853L450.518 501.853L510.518 517.853L547.516 517.353L544.518 601.353L525.518 648.353L501.018 740.853L370.018 701.853L375.518 687.853L378 676.5L376.5 673.5L375.518 670.853L368.018 663.853L352.018 665.353L377.518 571.853L404.018 513.853L413.017 453.353Z" fill="#D75B08"/>
<path d="M389.598 521.192L384.395 539.931L369.546 568.806C367.968 571.874 369.171 575.64 372.239 577.213C372.624 577.411 373.015 577.567 373.416 577.676C373.577 577.723 373.739 577.739 373.9 577.77L373.729 578.395L374.062 577.801C376.671 578.239 379.374 576.999 380.645 574.52L423.911 490.421C424.286 489.687 424.494 488.916 424.567 488.14L426.947 483.916L427.197 483.989L347.275 316.411L305.479 344.817L389.598 521.192Z" fill="#FACEA8"/>
<path fill-rule="evenodd" clip-rule="evenodd" d="M454.166 586.129L442.858 626.468L369.713 605.958L365.499 620.989L438.645 641.504L429.937 672.572L356.786 652.056L352.572 667.093L353.291 667.291L363.791 667.27C368.989 667.265 373.577 669.843 376.405 673.775L425.723 687.603L418 716.5L427.817 720.619L436.244 690.551L509.39 711.067L513.603 696.03L440.457 675.52L449.166 644.452L522.317 664.963L526.53 649.931L453.379 629.421L464.692 589.077C478.749 582.609 498.431 546.593 509.15 525.166C510.176 523.114 511.53 521.327 513.062 519.76L448.911 501.958C449.374 504.036 449.593 506.197 449.411 508.411C447.431 532.291 445.52 573.291 454.166 586.129ZM497.656 763.207C497.655 763.21 497.654 763.213 497.652 763.217C497.639 763.255 497.626 763.294 497.614 763.333C497.627 763.291 497.642 763.249 497.656 763.207Z" fill="#FACEA8"/>
<path d="M397.91 721.354C395.082 717.422 403.108 721.349 397.91 721.354L426.786 717.562L416.265 714.609L369.733 701.562L369.812 743.005C369.838 756.073 359.228 766.719 346.161 766.745L319.577 766.797L252.416 1008.88C246.713 1029.43 258.754 1050.7 279.291 1056.4C299.832 1062.1 321.108 1050.08 326.806 1029.53L399.15 768.766C401.176 774.214 404.447 779.297 409.01 783.511L516.442 882.771L550.452 1027.49C554.593 1045.11 570.296 1057 587.645 1057C590.541 1057 593.489 1056.67 596.431 1055.98C616.989 1051.15 629.744 1030.56 624.911 1009.99L588.223 853.87C586.483 846.443 582.551 839.703 576.947 834.526L496.582 760.276C496.702 759.912 496.843 759.557 496.947 759.182L499.254 750.854L504.004 752.188C507.327 753.12 510.77 751.182 511.702 747.859C512.634 744.537 510.697 741.094 507.374 740.161L506.749 739.984L426.786 717.562L397.91 721.354C411.967 714.886 382.172 743.354 397.91 721.354C393.999 726.761 352.915 788.198 397.91 721.354C396.91 718.854 395.41 728.854 397.91 721.354C395.931 745.235 389.264 708.516 397.91 721.354Z" fill="#1E47AF"/>
<path d="M538.017 619.136C537.814 621.912 539.475 624.376 541.933 625.36C542.137 625.438 542.334 625.532 542.548 625.589C542.949 625.704 543.366 625.777 543.798 625.808C545.308 625.917 546.72 625.454 547.866 624.631C548.704 639.662 547.793 658.943 543.881 683.433C542.262 693.594 547.038 703.709 555.913 708.917C559.829 711.214 564.194 712.35 568.543 712.35C574.038 712.35 579.506 710.537 584.017 706.98L662.522 645.042C673.35 636.501 675.204 620.792 666.663 609.959C658.116 599.126 642.413 597.282 631.584 605.818L598.053 632.271C597.631 598.563 590.538 572.141 576.824 553.381C570.173 544.282 562.959 538.396 556.59 534.573L557.225 525.688C557.475 522.251 554.892 519.251 551.444 519.016C548.824 518.829 546.48 520.287 545.392 522.511C545.053 523.209 544.829 523.975 544.772 524.797L538.017 619.136Z" fill="#FACEA8"/>
<path d="M434.576 392.286C439.483 385.421 450.03 378.374 472.754 378.374C507.212 378.374 558.655 395.39 575.91 418.155C580.259 423.89 581.884 429.181 582.191 433.676L582.326 433.713L583.149 433.947L583.608 434.072C588.941 435.567 594.467 432.463 595.962 427.129C597.451 421.801 594.353 416.27 589.019 414.77L587.691 414.4C593.946 389.645 587.373 364.52 572.04 346.218L570.389 352.108C569.207 356.322 564.832 358.786 560.618 357.603C556.405 356.421 553.941 352.041 555.123 347.827L559.019 333.937C553.722 329.999 547.863 326.692 541.498 324.187L536.347 342.562C535.79 344.551 534.504 346.129 532.873 347.14C531.056 348.27 528.8 348.681 526.576 348.062C524.347 347.437 522.634 345.911 521.665 343.999C520.795 342.286 520.519 340.27 521.076 338.28L526.228 319.905C519.488 318.739 512.764 318.52 506.196 319.124L502.3 333.015C501.118 337.228 496.743 339.697 492.524 338.51C488.311 337.327 485.852 332.947 487.035 328.733L488.686 322.853C466.076 330.515 447.405 348.556 439.884 372.952L438.55 372.582C433.222 371.088 427.696 374.202 426.201 379.53C424.707 384.864 427.811 390.39 433.139 391.879L433.597 392.01L434.425 392.239L434.576 392.286Z" fill="#FFC107"/>
<path d="M487.307 488.15C524.666 498.624 563.432 476.827 573.906 439.468C584.38 402.109 449.104 364.176 438.63 401.536C428.156 438.9 449.953 477.676 487.307 488.15ZM452.255 430.76C452.255 430.76 501.224 449.025 536.244 434.374C536.244 434.374 492.13 496.405 452.255 430.76Z" fill="#FACEA8"/>
<path d="M67.1033 497.379L509.791 196.536C544.473 217.984 589.968 218.442 625.76 193.89C661.583 169.359 677.588 126.749 670.093 86.6607L615.556 124.036C596.036 137.437 569.343 132.447 555.968 112.911C542.588 93.369 547.567 66.7023 567.083 53.2961L621.614 15.9263C586.926 -5.52683 541.463 -5.95392 505.635 18.5982C469.822 43.1346 453.827 85.7075 461.327 125.807L18.645 426.645C-0.881077 440.015 -5.87587 466.728 7.50434 486.239C20.9106 505.78 47.5825 510.765 67.1033 497.379ZM26.2596 459.452C27.9158 450.166 36.7804 443.978 46.0668 445.635C55.3481 447.286 61.5356 456.155 59.8793 465.442C58.2283 474.723 49.3637 480.911 40.0773 479.26C30.796 477.603 24.6085 468.739 26.2596 459.452Z" fill="#64748B"/>
<path d="M314.827 629.249L299.4 630.322L301.979 667.39L317.479 667.358L314.827 629.249Z" fill="#F99D1C"/>
<path d="M338.275 638.666L322.848 639.739L324.77 667.348L340.27 667.317L338.275 638.666Z" fill="#F99D1C"/>
<path d="M293.635 695.484L293.723 743.208C293.739 751.979 300.869 759.077 309.64 759.062L346.182 758.994C354.952 758.979 362.051 751.854 362.036 743.077L361.947 695.354L293.635 695.484ZM355.619 711.114C354.265 714.301 350.577 715.786 347.39 714.432C344.202 713.077 342.718 709.39 344.077 706.202C345.432 703.015 349.114 701.531 352.301 702.885C355.489 704.244 356.979 707.926 355.619 711.114Z" fill="#F99D1C"/>
<path d="M293.719 690.681L363.833 690.546C368.089 690.541 371.563 687.051 371.552 682.796C371.547 678.546 368.057 675.072 363.807 675.077L293.688 675.213C289.438 675.218 285.964 678.707 285.969 682.957V682.963C285.979 687.213 289.464 690.687 293.719 690.681Z" fill="#F99D1C"/>
<g clip-path="url(#clip0_2_210)">
<mask id="mask0_2_210" style="mask-type:luminance" maskUnits="userSpaceOnUse" x="487" y="578" width="37" height="36">
<path d="M496.93 578L523.622 587.93L513.941 613.955L487.248 604.025L496.93 578Z" fill="white"/>
</mask>
<g mask="url(#mask0_2_210)">
<path d="M500.273 579.243L499.691 579.786L502.448 583.091C501.827 584.759 500.664 585.846 498.853 586.122L496.096 582.817L495.805 583.089C495.708 585.901 496.755 588.19 500.089 589.43C500.923 589.74 502.494 593.173 503.331 595.004L506.992 593.327C506.154 591.497 504.27 587.377 504.58 586.543C505.697 583.54 505.608 581.228 500.273 579.243ZM520.806 587.831L516.602 588.926L515.772 590.137L502.501 596.215L501.477 594.884L500.562 595.304C499.817 597.306 497.111 597.438 496.11 597.066L488.559 600.524C487.939 602.192 489.09 604.71 490.758 605.33L498.309 601.872C498.681 600.871 500.55 598.908 502.551 599.652L503.466 599.233L503.129 597.588L516.4 591.51L517.858 591.672L521.434 589.204L520.806 587.831ZM508.248 596.074L504.587 597.751C505.844 600.497 507.518 604.159 507.208 604.993C506.091 607.996 506.18 610.308 511.516 612.293L512.098 611.749L509.341 608.445C509.961 606.777 511.125 605.69 512.936 605.414L515.693 608.719L515.984 608.447C516.081 605.635 515.034 603.346 511.699 602.105C510.865 601.795 509.504 598.82 508.248 596.074Z" fill="#1E3F8A"/>
</g>
<path fill-rule="evenodd" clip-rule="evenodd" d="M503.121 597.586L502.493 596.212L501.47 594.882L500.554 595.301C499.81 597.303 497.103 597.436 496.102 597.063L488.552 600.522C487.931 602.19 489.082 604.707 490.75 605.328L498.301 601.869C498.673 600.868 500.542 598.905 502.543 599.649L503.459 599.23L503.121 597.586ZM504.58 597.749C504.584 597.758 504.588 597.767 504.592 597.776L504.58 597.749Z" fill="#F99D1C"/>
</g>
<path d="M469.277 615.553C468.471 615.315 467.866 614.929 467.46 614.396C467.057 613.857 466.941 613.225 467.113 612.499L469.167 613.106C469.115 613.354 469.134 613.552 469.226 613.7C469.317 613.848 469.462 613.951 469.658 614.009C469.835 614.062 469.992 614.062 470.128 614.009C470.273 613.953 470.369 613.846 470.415 613.688C470.475 613.485 470.427 613.3 470.27 613.132C470.113 612.965 469.842 612.75 469.456 612.486C469.049 612.202 468.725 611.949 468.484 611.729C468.251 611.503 468.07 611.225 467.939 610.895C467.818 610.56 467.822 610.173 467.951 609.734C468.083 609.288 468.306 608.941 468.622 608.693C468.94 608.437 469.319 608.286 469.761 608.238C470.202 608.191 470.672 608.241 471.169 608.388C471.975 608.626 472.561 609.005 472.927 609.527C473.301 610.043 473.404 610.647 473.236 611.338L471.143 610.719C471.198 610.508 471.179 610.331 471.086 610.19C470.999 610.05 470.86 609.952 470.67 609.896C470.526 609.854 470.396 609.861 470.279 609.919C470.162 609.977 470.08 610.085 470.034 610.242C469.995 610.373 470.01 610.502 470.08 610.63C470.157 610.752 470.261 610.872 470.39 610.989C470.522 611.099 470.719 611.25 470.983 611.441C471.377 611.722 471.693 611.979 471.93 612.213C472.176 612.442 472.361 612.721 472.484 613.05C472.617 613.374 472.623 613.739 472.503 614.145C472.381 614.557 472.167 614.897 471.86 615.162C471.56 615.43 471.186 615.6 470.737 615.674C470.294 615.75 469.807 615.71 469.277 615.553ZM476.749 610.154L474.703 617.081L472.777 616.512L474.823 609.585L476.749 610.154ZM485.933 612.867L483.886 619.794L481.96 619.225L483.09 615.403L480.653 618.839L479.042 618.363L478.863 614.122L477.725 617.974L475.799 617.405L477.846 610.478L480.175 611.166L480.584 616.18L483.614 612.182L485.933 612.867ZM491.82 617.117C491.696 617.536 491.485 617.891 491.186 618.18C490.895 618.464 490.522 618.653 490.067 618.747C489.621 618.836 489.116 618.797 488.553 618.63L487.599 618.349L486.908 620.687L484.983 620.118L487.029 613.191L489.908 614.042C490.465 614.206 490.908 614.444 491.236 614.754C491.571 615.067 491.786 615.426 491.88 615.831C491.973 616.237 491.954 616.665 491.82 617.117ZM488.819 617.042C489.362 617.203 489.708 617.034 489.855 616.537C490.004 616.032 489.807 615.7 489.263 615.539L488.496 615.313L488.052 616.816L488.819 617.042ZM494.746 617.148L494.412 618.278L496.623 618.932L496.191 620.396L493.98 619.742L493.611 620.99L496.117 621.731L495.661 623.273L491.229 621.964L493.276 615.037L497.708 616.346L497.252 617.889L494.746 617.148ZM498.974 622.65L501.126 623.285L500.69 624.759L496.613 623.554L498.659 616.627L500.585 617.196L498.974 622.65ZM506.936 622.032L506.463 623.634L502.012 622.319L502.485 620.717L506.936 622.032Z" fill="#F99D1C"/>
<path d="M513.958 623.658C513.834 624.077 513.622 624.431 513.323 624.72C513.032 625.005 512.66 625.194 512.205 625.287C511.758 625.376 511.253 625.337 510.69 625.171L509.737 624.889L509.046 627.228L507.12 626.659L509.167 619.732L512.046 620.582C512.602 620.747 513.045 620.984 513.374 621.295C513.709 621.608 513.923 621.967 514.017 622.372C514.111 622.777 514.091 623.206 513.958 623.658ZM510.956 623.583C511.5 623.744 511.845 623.575 511.992 623.077C512.141 622.573 511.944 622.24 511.4 622.08L510.634 621.853L510.19 623.356L510.956 623.583ZM516.668 629.555C516.019 629.363 515.468 629.036 515.013 628.574C514.56 628.106 514.253 627.555 514.09 626.923C513.937 626.287 513.96 625.628 514.162 624.947C514.363 624.265 514.7 623.703 515.173 623.258C515.655 622.81 516.212 622.515 516.845 622.374C517.477 622.233 518.118 622.259 518.767 622.45C519.422 622.644 519.973 622.971 520.421 623.431C520.876 623.893 521.18 624.442 521.334 625.079C521.49 625.709 521.467 626.364 521.266 627.046C521.064 627.727 520.726 628.293 520.251 628.744C519.778 629.188 519.224 629.484 518.59 629.631C517.957 629.772 517.316 629.746 516.668 629.555ZM517.196 627.766C517.687 627.911 518.121 627.865 518.498 627.627C518.881 627.392 519.152 627.005 519.31 626.468C519.473 625.918 519.457 625.443 519.261 625.043C519.074 624.639 518.735 624.364 518.244 624.219C517.746 624.072 517.309 624.117 516.932 624.355C516.558 624.586 516.289 624.977 516.127 625.527C515.966 626.071 515.979 626.545 516.166 626.949C516.355 627.347 516.698 627.619 517.196 627.766ZM523.462 629.885L525.614 630.521L525.179 631.994L521.101 630.79L523.148 623.862L525.074 624.431L523.462 629.885Z" fill="#1E3F8A"/>
<defs>
<clipPath id="clip0_2_210">
<rect width="28.4795" height="28.4795" fill="white" transform="translate(496.93 578) rotate(20.4053)"/>
</clipPath>
</defs>
</svg>
