<svg width="1080" height="1080" viewBox="0 0 1080 1080" fill="none" xmlns="http://www.w3.org/2000/svg">
<path d="M421.578 796.13L807.276 410.328C823.672 393.927 846.25 385.37 869.536 385.609C916.354 386.323 963.167 368.729 998.818 333.073C1048.72 283.156 1063.22 210.656 1041.83 147.901L941.307 248.448L855.755 222.541L829.849 136.963L930.375 36.4112C867.635 15.0205 795.391 29.281 745.49 79.4372C710.078 114.859 692.495 161.922 692.729 208.276C692.969 231.573 684.651 254.156 668.255 270.557L281.844 656.594C257.604 680.844 225.047 693.677 190.828 696.057C138.307 699.62 87.2134 726.005 53.7082 775.687C13.0728 835.828 13.5468 916.651 54.8957 976.078C120.724 1071.16 252.375 1079.48 330.088 1001.51C362.167 969.422 379.516 928.057 382.13 886.224C384.271 852.708 397.578 820.14 421.578 796.13ZM238.354 960.39L167.776 960.151L117.87 910.229L117.635 839.63L167.536 789.713L238.12 789.953L288.026 839.87L288.26 910.469L238.354 960.39Z" fill="#CFD8DC"/>
<path d="M421.578 796.131L807.276 410.328C823.672 393.927 846.25 385.61 869.537 385.61C916.354 386.323 963.167 368.729 998.818 333.073C1048.72 283.157 1063.22 210.657 1041.83 147.901L1018.54 171.193C1019.26 217.787 1001.67 264.375 966.021 300.032C930.609 335.453 883.557 353.042 836.745 352.568C813.453 352.328 791.115 360.886 774.479 377.287L388.787 763.089C364.547 787.339 351.474 819.667 349.333 853.657C346.724 895.495 329.375 936.62 297.292 968.948C232.891 1033.36 131.656 1038.59 61.073 984.636C128.563 1071.88 254.516 1077.34 330.089 1001.75C362.167 969.662 379.516 928.537 382.13 886.459C384.271 852.709 397.578 820.141 421.578 796.131Z" fill="#BCC8CC"/>
<path d="M683.937 445.75L441.781 687.974C427.521 702.235 404.469 702.235 390.448 687.974C376.187 673.714 376.187 650.651 390.208 636.391L632.13 394.401C646.391 380.141 669.443 380.141 683.698 394.401C697.958 408.427 697.958 431.724 683.937 445.75Z" fill="#546F7A"/>
<path d="M203.187 1066.88C197.479 1066.88 191.776 1066.65 185.838 1066.17C129.276 1061.18 77.7083 1030.99 44.9166 983.447C0.473905 919.5 -5.34058e-05 833.453 43.4895 768.796C77.2343 718.875 130.703 687.974 189.875 683.692C222.672 681.557 252.141 668.718 273.052 647.802L659.224 261.526C673.005 247.734 680.375 228.718 680.135 208.041C679.896 155.979 699.62 106.776 736.458 70.1662C788.5 18.1089 864.307 0.520372 934.177 24.2912C938.219 25.7183 941.307 29.0464 942.255 33.0829C943.208 37.1245 942.021 41.6454 938.927 44.4943L843.635 139.817L865.5 212.078L937.74 233.713L1033.04 138.39C1035.89 135.536 1040.4 134.114 1044.44 135.062C1048.48 136.015 1052.05 139.104 1053.23 143.145C1077 213.031 1059.42 288.859 1007.37 340.916C970.536 377.765 921.104 397.729 869.302 397.255C848.151 396.781 829.615 404.385 815.828 418.411L430.37 804.687C409.224 825.843 396.391 855.083 394.49 887.171C391.635 933.765 371.911 977.505 338.88 1010.31C302.521 1046.92 253.802 1066.88 203.187 1066.88ZM871.911 39.0256C828.427 39.0256 786.125 56.1454 754.042 88.2339C721.958 120.322 704.615 163.114 704.849 208.515C705.328 235.848 695.344 261.046 676.807 279.588L290.635 665.39C265.448 690.588 230.276 705.802 191.542 708.416C139.974 711.984 93.3958 738.843 63.6875 782.583C25.901 838.682 26.1406 913.557 64.6406 969.182C93.3958 1010.55 138.073 1036.93 187.5 1041.45C237.167 1045.96 285.885 1028.37 321.057 992.953C349.812 964.192 366.922 926.156 369.297 885.75C371.672 847.474 386.885 812.77 412.312 787.338L798.005 401.536C816.542 382.994 841.969 372.77 869.302 373.244C914.927 373.958 957.464 356.369 989.547 324.281C1030.18 283.63 1046.58 226.817 1034.94 171.432L949.385 257.005C946.057 260.098 941.542 261.526 937.026 260.098L851.474 234.187C847.437 233 844.349 229.906 843.161 225.869L817.255 140.291C815.828 136.015 817.016 131.26 820.344 127.932L905.896 42.3537C894.964 40.2183 883.323 39.0256 871.911 39.0256ZM238.354 972.75L167.776 972.51C164.448 972.51 161.359 971.083 158.984 968.947L109.078 919.026C106.703 916.651 105.516 913.557 105.516 910.229L105.276 839.63C105.276 836.302 106.703 833.213 108.838 830.838L158.745 780.916C161.12 778.541 164.214 777.354 167.536 777.354L238.12 777.588C241.448 777.588 244.536 779.015 246.911 781.156L296.818 831.072C299.193 833.453 300.38 836.541 300.38 839.869L300.62 910.468C300.62 913.796 299.193 916.885 297.052 919.265L247.151 969.182C244.771 971.322 241.682 972.75 238.354 972.75ZM173.005 948.026L233.365 948.265L276.141 905.479L275.906 845.099L233.365 802.312L173.005 802.072L130.229 844.859L130.469 905.239L173.005 948.026Z" fill="#263238"/>
<path d="M416.115 710.792C403.521 710.792 391.401 706.042 381.656 696.531C362.646 677.516 362.646 646.615 381.417 627.594L623.339 385.609C642.349 366.594 673.245 366.594 692.495 385.609C711.505 404.625 711.505 435.526 692.255 454.542L450.573 696.771C441.068 706.276 428.469 710.792 416.115 710.792ZM658.271 396.068C652.094 396.068 645.917 398.443 641.162 403.198L399.005 645.188C389.734 654.458 389.734 669.906 399.24 679.177C408.51 688.448 423.958 688.448 433.224 679.177L675.146 437.193C684.412 427.922 684.651 412.469 675.38 403.198C670.63 398.443 664.214 396.068 658.271 396.068Z" fill="#263238"/>
<path d="M710.552 515.875L732.891 538.219C741.208 546.536 741.208 559.849 732.891 568.406L565.115 736.229C556.797 744.547 543.49 744.547 534.937 736.229L512.599 713.885C504.281 705.562 504.281 692.255 512.599 683.693L680.375 515.875C688.927 507.312 702.234 507.312 710.552 515.875Z" fill="#FCB316"/>
<path d="M722.911 578.151L1020.68 876.24C1061.55 917.125 1061.55 983.209 1020.68 1024.09C979.802 1064.98 913.74 1064.98 872.865 1024.09L575.099 726.006L722.911 578.151Z" fill="#FCB316"/>
<path d="M575.573 726.245L723.625 578.391L771.391 626.172L623.099 774.026L575.573 726.245Z" fill="#EDA30F"/>
<path d="M550.146 754.532C541.589 754.532 532.797 751.203 526.38 744.547L504.042 722.203C490.969 709.131 490.969 687.735 504.042 674.662L671.818 506.839C684.891 493.766 706.276 493.766 719.349 506.839L741.688 529.183C754.755 542.261 754.755 563.651 741.688 576.724L573.906 744.547C567.255 751.203 558.698 754.532 550.146 754.532ZM695.583 521.818C693.208 521.818 691.068 522.526 689.401 524.433L521.625 692.256C518.063 695.818 518.063 701.287 521.625 704.849L543.964 727.198C547.531 730.761 552.995 730.761 556.563 727.198L724.339 559.375C727.901 555.808 727.901 550.339 724.339 546.776L702 524.433C700.099 522.766 697.719 521.818 695.583 521.818Z" fill="#263238"/>
<path d="M946.771 1066.88C915.641 1066.88 886.172 1054.76 864.073 1032.65L566.302 734.802C561.552 730.047 561.552 722.203 566.302 717.448L714.12 569.594C718.635 565.078 726.953 565.078 731.469 569.594L1029.23 867.443C1051.33 889.552 1063.69 919.026 1063.69 949.927C1063.69 980.833 1051.57 1010.55 1029.47 1032.65C1007.37 1054.99 978.141 1066.88 946.771 1066.88ZM592.443 726.005L881.422 1015.06C917.542 1051.19 976 1051.19 1011.89 1015.06C1048.01 978.927 1048.01 920.453 1011.89 884.557L722.911 595.505L592.443 726.005Z" fill="#263238"/>
<path d="M948.912 911.896C945.823 911.896 942.729 910.709 940.12 908.328L715.307 683.459C710.552 678.703 710.552 670.86 715.307 666.104C720.057 661.349 727.901 661.349 732.656 666.104L957.464 890.979C962.219 895.729 962.219 903.578 957.464 908.328C955.328 910.709 952 911.896 948.912 911.896Z" fill="#263238"/>
<path d="M896.391 964.427C893.302 964.427 890.213 963.24 887.599 960.865L662.786 735.99C658.036 731.234 658.036 723.391 662.786 718.641C667.542 713.885 675.38 713.885 680.135 718.641L904.948 943.51C909.698 948.266 909.698 956.109 904.948 960.865C902.807 963.24 899.719 964.427 896.391 964.427Z" fill="#263238"/>
<path d="M210.078 108.438L244.537 176.662L632.13 564.125L560.839 635.443L173.479 247.735L105.516 213.032L23.5261 90.3753L87.2136 26.667L210.078 108.438Z" fill="#CFD8DC"/>
<path d="M560.839 647.562C557.51 647.562 554.422 646.135 552.047 644L166.115 257.958L99.8126 223.963C97.9115 223.015 96.2449 221.588 95.297 219.927L13.3074 97.2651C9.97924 92.2756 10.6928 85.8589 14.7345 81.5776L78.422 17.8693C82.4636 13.8328 89.1147 13.1193 94.1095 16.4474L216.969 98.2183C218.87 99.4058 220.057 101.072 221.01 102.973L254.755 169.531L640.922 555.567C645.677 560.322 645.677 568.166 640.922 572.921L569.63 644.234C567.255 646.375 564.167 647.562 560.839 647.562ZM114.068 203.52L179.182 236.802C180.37 237.515 181.323 238.229 182.271 239.177L560.839 618.088L614.547 564.364L235.745 185.458C234.792 184.505 234.078 183.557 233.365 182.364L200.333 116.994L88.6407 42.5933L39.448 92.036L114.068 203.52Z" fill="#263238"/>
</svg>
