<svg width="42" height="42" viewBox="0 0 42 42" fill="none" xmlns="http://www.w3.org/2000/svg">
<g clip-path="url(#clip0_4750_13388)">
<path fill-rule="evenodd" clip-rule="evenodd" d="M20.8906 -0.107422C9.29262 -0.107422 -0.109375 9.29457 -0.109375 20.8926C-0.109375 32.4906 9.29262 41.8926 20.8906 41.8926C32.4886 41.8926 41.8906 32.4906 41.8906 20.8926C41.8906 9.29457 32.4886 -0.107422 20.8906 -0.107422Z" fill="#5E94FF"/>
<path fill-rule="evenodd" clip-rule="evenodd" d="M20.8933 8.50781C16.4327 8.50781 12.8164 12.1239 12.8164 16.5848C12.8164 21.0454 16.4327 24.6617 20.8933 24.6617C25.3542 24.6617 28.9703 21.0454 28.9703 16.5848C28.9703 12.1239 25.3542 8.50781 20.8933 8.50781Z" fill="#ECEFF1"/>
<path fill-rule="evenodd" clip-rule="evenodd" d="M35.717 35.7643L35.3393 35.1441C32.4532 30.168 27.0643 26.8154 20.8905 26.8154C14.71 26.8154 9.31615 30.1753 6.43229 35.1605L6.4173 35.1873L6.08594 35.7862C9.88247 39.5603 15.114 41.8924 20.8905 41.8924C26.6778 41.8924 31.9187 39.5511 35.717 35.7643Z" fill="#ECEFF1"/>
</g>
<defs>
<clipPath id="clip0_4750_13388">
<rect width="42" height="42" fill="white"/>
</clipPath>
</defs>
</svg>
