<svg width="1080" height="1080" viewBox="0 0 1080 1080" fill="none" xmlns="http://www.w3.org/2000/svg">
<path d="M570.922 16.9687L639.458 85.1042C650.464 96.0521 666.484 100.339 681.505 96.3542L774.943 71.6042C798.203 65.4323 822.073 79.2344 828.365 102.438L853.63 195.719C857.708 210.708 869.411 222.417 884.401 226.49L977.688 251.755C1000.92 258.052 1014.69 281.917 1008.52 305.177L983.766 398.615C979.781 413.635 984.073 429.63 995.016 440.667L1063.16 509.198C1080.12 526.255 1080.12 553.802 1063.16 570.891L995.016 639.427C984.073 650.432 979.781 666.458 983.766 681.474L1008.52 774.911C1014.69 798.172 1000.89 822.042 977.688 828.333L884.401 853.599C869.411 857.677 857.708 869.38 853.63 884.37L828.365 977.656C822.073 1000.89 798.203 1014.66 774.943 1008.48L681.505 983.734C666.484 979.755 650.495 984.042 639.458 994.984L570.922 1063.12C553.865 1080.09 526.318 1080.09 509.229 1063.12L440.698 994.984C429.687 984.042 413.667 979.755 398.646 983.734L305.208 1008.48C281.948 1014.66 258.083 1000.85 251.786 977.656L226.521 884.37C222.448 869.38 210.74 857.677 195.75 853.599L102.469 828.333C79.2343 822.042 65.4635 798.172 71.6354 774.911L96.3854 681.474C100.37 666.458 96.0833 650.464 85.1354 639.427L16.9948 570.891C0.031209 553.833 0.031209 526.286 16.9948 509.198L85.1354 440.667C96.0833 429.656 100.37 413.635 96.3854 398.615L71.6354 305.177C65.4635 281.917 79.2656 258.052 102.469 251.755L195.75 226.49C210.74 222.417 222.448 210.708 226.521 195.719L251.786 102.438C258.083 79.2083 281.948 65.4323 305.208 71.6042L398.646 96.3542C413.667 100.339 429.656 96.0521 440.698 85.1042L509.229 16.9687C526.286 0 553.833 0 570.922 16.9687Z" fill="#28A745"/>
<path d="M437.901 748.672C427.349 748.672 416.797 744.656 408.771 736.599L278.359 606.192C262.276 590.109 262.276 564.021 278.359 547.906C294.448 531.791 320.531 531.823 336.62 547.906L437.901 649.187L743.531 343.552C759.62 327.468 785.708 327.468 801.823 343.552C817.906 359.635 817.906 385.724 801.823 401.838L467.057 736.599C459 744.656 448.479 748.672 437.927 748.672H437.901Z" fill="white"/>
</svg>
