<svg width="1080" height="797" viewBox="0 0 1080 797" fill="none" xmlns="http://www.w3.org/2000/svg">
<mask id="mask0_4102_598" style="mask-type:luminance" maskUnits="userSpaceOnUse" x="0" y="0" width="1080" height="797">
<path d="M0 0H1080V797H0V0Z" fill="white"/>
</mask>
<g mask="url(#mask0_4102_598)">
<path d="M180.292 0C81.3177 0 0.4375 80.9375 0.4375 179.969V617.031C0.4375 716.068 81.3177 797 180.292 797H899.708C998.682 797 1079.56 716.068 1079.56 617.031V179.969C1079.56 80.9375 998.682 0 899.708 0H180.292ZM180.292 77.1302H899.708C957.312 77.1302 1002.48 122.328 1002.48 179.969V617.031C1002.48 674.672 957.312 719.875 899.708 719.875H180.292C122.688 719.875 77.5156 674.672 77.5156 617.031V179.969C77.5156 122.328 122.688 77.1302 180.292 77.1302ZM451.276 192.823C449.99 192.786 448.703 192.807 447.422 192.896C446.135 192.984 444.859 193.141 443.589 193.359C442.318 193.573 441.062 193.854 439.823 194.198C438.583 194.542 437.359 194.943 436.161 195.406C434.958 195.875 433.781 196.401 432.635 196.979C431.49 197.562 430.37 198.203 429.286 198.901C428.203 199.594 427.156 200.344 426.146 201.141C425.135 201.943 424.167 202.792 423.245 203.688C422.318 204.583 421.443 205.526 420.615 206.51C419.781 207.495 419.005 208.521 418.276 209.583C417.547 210.646 416.875 211.745 416.255 212.875C415.641 214.005 415.078 215.161 414.578 216.349C414.078 217.536 413.635 218.745 413.255 219.974C412.875 221.208 412.557 222.453 412.302 223.719C412.042 224.979 411.854 226.25 411.724 227.531C411.594 228.818 411.531 230.099 411.531 231.391V565.615C411.526 566.797 411.573 567.979 411.677 569.156C411.776 570.339 411.932 571.51 412.146 572.672C412.354 573.839 412.62 574.99 412.932 576.13C413.25 577.271 413.62 578.396 414.036 579.5C414.458 580.609 414.927 581.693 415.448 582.755C415.964 583.818 416.531 584.854 417.146 585.865C417.76 586.875 418.422 587.859 419.125 588.807C419.833 589.76 420.578 590.677 421.365 591.557C422.156 592.438 422.984 593.281 423.849 594.089C424.719 594.891 425.62 595.656 426.557 596.375C427.495 597.099 428.458 597.776 429.458 598.411C430.458 599.042 431.484 599.63 432.536 600.167C433.594 600.703 434.667 601.193 435.766 601.635C436.865 602.073 437.979 602.458 439.115 602.797C440.245 603.13 441.396 603.417 442.552 603.651C443.714 603.88 444.88 604.057 446.057 604.177C449.943 604.599 453.802 604.432 457.635 603.682C461.469 602.927 465.104 601.62 468.542 599.76L776.865 432.646C778.385 431.823 779.849 430.906 781.245 429.885C782.646 428.865 783.969 427.755 785.219 426.557C786.469 425.359 787.635 424.083 788.714 422.729C789.792 421.375 790.776 419.953 791.661 418.469C792.547 416.979 793.333 415.443 794.01 413.849C794.693 412.255 795.26 410.625 795.724 408.953C796.182 407.286 796.526 405.594 796.76 403.875C796.99 402.156 797.109 400.432 797.109 398.703C797.109 396.969 796.99 395.245 796.76 393.531C796.526 391.812 796.182 390.12 795.724 388.453C795.26 386.781 794.693 385.151 794.01 383.557C793.333 381.964 792.547 380.422 791.661 378.938C790.776 377.448 789.792 376.031 788.714 374.672C787.635 373.318 786.469 372.042 785.219 370.844C783.969 369.646 782.646 368.536 781.245 367.521C779.849 366.5 778.385 365.578 776.865 364.755L468.542 197.646C463.172 194.661 457.417 193.057 451.276 192.823ZM488.615 296.469L677.302 398.5L488.615 500.938V296.469Z" fill="white"/>
</g>
</svg>
