<svg width="30" height="30" viewBox="0 0 30 30" fill="none" xmlns="http://www.w3.org/2000/svg">
<path fill-rule="evenodd" clip-rule="evenodd" d="M1.5625 8.75C1.5625 4.78045 4.78045 1.5625 8.75 1.5625H21.25C25.2195 1.5625 28.4375 4.78045 28.4375 8.75V21.25C28.4375 25.2195 25.2195 28.4375 21.25 28.4375H8.75C4.78045 28.4375 1.5625 25.2195 1.5625 21.25V8.75ZM15.0379 17.5379L20.0381 12.5378L20.1023 12.4666C20.4026 12.0984 20.3813 11.5551 20.0381 11.2119C19.6949 10.8687 19.1516 10.8474 18.7834 11.1477L18.7122 11.2119L14.375 15.5492L12.5382 13.7124L12.4664 13.6474C12.0981 13.3474 11.5555 13.3692 11.2124 13.7124C10.8692 14.0555 10.8474 14.5981 11.1474 14.9664L11.2124 15.0382L13.7121 17.5379C14.0554 17.8812 14.5986 17.9026 14.9668 17.6021L15.0379 17.5379Z" fill="#94A3B8"/>
</svg>
