<svg width="31" height="32" viewBox="0 0 31 32" fill="none" xmlns="http://www.w3.org/2000/svg">
<path d="M8 18.8851L7.25 18.8851L8 18.8851ZM10.7329 22.0834L10.8359 21.3405L10.8359 21.3405L10.7329 22.0834ZM20.9193 22.0834L20.8163 21.3405L20.8162 21.3405L20.9193 22.0834ZM8.46647 17.1872L7.82231 16.8031L8.46647 17.1872ZM9.73914 12.087H10.4891C10.4891 9.13944 12.8786 6.75 15.8261 6.75V6V5.25C12.0501 5.25 8.98914 8.31101 8.98914 12.087H9.73914ZM9.73914 14.1795H10.4891V12.087H9.73914H8.98914V14.1795H9.73914ZM8 18.8851L8.75 18.8851C8.75 18.4037 8.88171 17.9552 9.11062 17.5714L8.46647 17.1872L7.82231 16.8031C7.4587 17.4128 7.25 18.1257 7.25 18.8851L8 18.8851ZM10.7329 22.0834L10.8359 21.3405C9.63629 21.1742 8.75 20.1313 8.75 18.8851L8 18.8851L7.25 18.8851C7.25 20.8448 8.65411 22.5524 10.6299 22.8263L10.7329 22.0834ZM15.8261 22.522V21.772C14.3341 21.772 12.4065 21.5583 10.8359 21.3405L10.7329 22.0834L10.6299 22.8263C12.2127 23.0458 14.2254 23.272 15.8261 23.272V22.522ZM20.9193 22.0834L20.8162 21.3405C19.2457 21.5583 17.3181 21.772 15.8261 21.772V22.522V23.272C17.4268 23.272 19.4395 23.0458 21.0223 22.8263L20.9193 22.0834ZM23.6522 18.8851H22.9022C22.9022 20.1313 22.0159 21.1742 20.8163 21.3405L20.9193 22.0834L21.0223 22.8263C22.9981 22.5524 24.4022 20.8448 24.4022 18.8851H23.6522ZM23.1857 17.1872L22.5416 17.5714C22.7705 17.9552 22.9022 18.4037 22.9022 18.8851H23.6522H24.4022C24.4022 18.1257 24.1935 17.4128 23.8299 16.8031L23.1857 17.1872ZM21.913 12.087H21.163V14.1795H21.913H22.663V12.087H21.913ZM15.8261 6V6.75C18.7736 6.75 21.163 9.13944 21.163 12.087H21.913H22.663C22.663 8.31101 19.602 5.25 15.8261 5.25V6ZM23.1857 17.1872L23.8299 16.8031C23.521 16.2851 23.2404 15.8701 23.0091 15.4066C22.7876 14.9629 22.663 14.567 22.663 14.1795H21.913H21.163C21.163 14.8924 21.3931 15.5278 21.667 16.0766C21.9311 16.6056 22.2869 17.1443 22.5416 17.5714L23.1857 17.1872ZM9.73914 14.1795H8.98914C8.98914 14.567 8.86462 14.9629 8.6431 15.4066C8.41176 15.8701 8.13121 16.2851 7.82231 16.8031L8.46647 17.1872L9.11062 17.5714C9.36531 17.1443 9.7211 16.6056 9.98519 16.0766C10.2591 15.5278 10.4891 14.8923 10.4891 14.1795H9.73914Z" fill="#101C23"/>
<path d="M18 24.834C17.5326 25.5369 16.7335 26.0002 15.8261 26.0002C14.9187 26.0002 14.1195 25.5369 13.6522 24.834" stroke="#101C23" stroke-width="1.5" stroke-linecap="round"/>
</svg>
