<svg width="30" height="30" viewBox="0 0 30 30" fill="none" xmlns="http://www.w3.org/2000/svg">
<path d="M15 5.14681V26.2383M15 5.14681L16.3752 4.63076C19.5045 3.45641 22.9955 3.45641 26.1248 4.63076C26.9554 4.94244 27.5 5.69711 27.5 6.53634V23.8497C27.5 25.002 26.2594 25.79 25.1189 25.362C22.6353 24.43 19.8647 24.43 17.3811 25.362L15.0171 26.2491C15.0089 26.2522 15 26.2466 15 26.2383M15 5.14681L13.6248 4.63076C10.4955 3.45641 7.00453 3.45641 3.87517 4.63076C3.04462 4.94244 2.5 5.69711 2.5 6.53634V23.8497C2.5 25.002 3.74059 25.79 4.88106 25.362C7.36469 24.43 10.1353 24.43 12.6189 25.362L14.9829 26.2491C14.9911 26.2522 15 26.2466 15 26.2383" stroke="#1D57D8" stroke-width="1.875"/>
</svg>
