<svg width="26" height="22" viewBox="0 0 26 22" fill="none" xmlns="http://www.w3.org/2000/svg">
<path opacity="0.9" d="M14.6606 0C8.58 0 3.66667 4.92556 3.66667 11H0L4.76056 15.7606L4.84611 15.9378L9.77778 11H6.11111C6.11111 6.27611 9.94278 2.44444 14.6667 2.44444C19.3906 2.44444 23.2222 6.27611 23.2222 11C23.2222 15.7239 19.3906 19.5556 14.6667 19.5556C12.3017 19.5556 10.1689 18.59 8.62278 17.0439L6.89333 18.7733C8.87944 20.7656 11.6233 22 14.6606 22C20.7411 22 25.6667 17.0744 25.6667 11C25.6667 4.92556 20.7411 0 14.6606 0ZM13.4444 6.11111V12.2222L18.6756 15.3267L19.5556 13.8417L15.2778 11.3056V6.11111H13.4444Z" fill="#1D57D8"/>
</svg>
