<svg width="24" height="25" viewBox="0 0 24 25" fill="none" xmlns="http://www.w3.org/2000/svg">
<path d="M17.7189 10.0273L19.8442 11.177L20.2891 11.4269C21.237 11.9595 21.237 13.3325 20.2891 13.865L14.2525 17.2566C12.8524 18.0432 11.1476 18.0432 9.74754 17.2566L3.71092 13.865C2.76302 13.3325 2.76303 11.9595 3.71093 11.4269L4.15585 11.177L6.16334 10.0273M18.1811 15.1461L20.1129 16.1185C21.1092 16.6201 21.1412 18.0398 20.1685 18.5862L14.2525 21.9101C12.8524 22.6966 11.1476 22.6966 9.74754 21.9101L3.9178 18.6347C2.9284 18.0789 2.98291 16.6278 4.0112 16.1487L6.16334 15.1461M14.2525 12.3112L20.2891 8.91961C21.237 8.38705 21.237 7.01405 20.2891 6.48149L14.2525 3.08993C12.8524 2.30336 11.1476 2.30336 9.74754 3.08993L3.71093 6.48149C2.76303 7.01405 2.76302 8.38705 3.71092 8.91961L9.74754 12.3112C11.1476 13.0977 12.8524 13.0977 14.2525 12.3112Z" stroke="#101C23" stroke-width="1.5"/>
</svg>
