<svg width="24" height="25" viewBox="0 0 24 25" fill="none" xmlns="http://www.w3.org/2000/svg">
<circle cx="3" cy="3" r="3" transform="matrix(-1 0 0 1 15 9.5)" stroke="#101C23" stroke-width="1.5"/>
<path d="M16.4996 5.4375L16.8746 4.78798L16.8746 4.78798L16.4996 5.4375ZM16.4995 19.5621L16.1245 18.9126L16.1245 18.9126L16.4995 19.5621ZM7.4995 19.5621L7.1245 20.2117L7.1245 20.2117L7.4995 19.5621ZM7.4995 5.4375L7.8745 6.08702L7.8745 6.08702L7.4995 5.4375ZM8.92244 3.51508L8.19174 3.34601L8.92244 3.51508ZM9.53865 2.80504L9.35466 2.07796L9.53865 2.80504ZM5.31134 19.2402L5.13916 18.5102L5.31134 19.2402ZM4.40246 19.003L3.83292 19.491L4.40246 19.003ZM9.53873 22.195L9.35475 22.9221L9.53873 22.195ZM8.9225 21.4848L8.19179 21.6538L8.9225 21.4848ZM15.0765 21.4848L15.8072 21.6538L15.0765 21.4848ZM14.4603 22.195L14.2763 21.4679L14.4603 22.195ZM19.5965 19.003L19.0269 18.515L19.5965 19.003ZM18.6876 19.2402L18.5155 19.9702L18.6876 19.2402ZM21.4432 9.20289L22.1513 8.95569L21.4432 9.20289ZM21.093 10.1835L20.6161 9.60469L21.093 10.1835ZM18.6875 5.7595L18.5153 5.02952L18.6875 5.7595ZM19.5962 5.99671L20.1657 5.50871L19.5962 5.99671ZM21.093 14.8165L21.57 14.2376L21.093 14.8165ZM21.4432 15.7971L20.7351 15.5499L21.4432 15.7971ZM15.0766 3.51511L15.8073 3.34603L15.0766 3.51511ZM15.0766 3.51511L14.3459 3.68418C14.5717 4.66005 15.1874 5.54592 16.1246 6.08702L16.4996 5.4375L16.8746 4.78798C16.3122 4.46329 15.9433 3.93381 15.8073 3.34603L15.0766 3.51511ZM16.4996 5.4375L16.1246 6.08702C16.9855 6.58408 17.9633 6.7008 18.8596 6.48949L18.6875 5.7595L18.5153 5.02952C17.9762 5.15663 17.3916 5.0865 16.8746 4.78798L16.4996 5.4375ZM21.4432 9.20289L22.1513 8.95569C21.7057 7.67937 21.0266 6.51337 20.1657 5.50871L19.5962 5.99671L19.0267 6.48471C19.7682 7.35004 20.3522 8.35328 20.7351 9.45008L21.4432 9.20289ZM19.9995 12.5H20.7495C20.7495 11.8006 21.0676 11.1762 21.57 10.7624L21.093 10.1835L20.6161 9.60469C19.7828 10.2913 19.2495 11.3337 19.2495 12.5H19.9995ZM21.093 14.8165L21.57 14.2376C21.0676 13.8238 20.7495 13.1994 20.7495 12.5H19.9995H19.2495C19.2495 13.6663 19.7828 14.7087 20.6161 15.3953L21.093 14.8165ZM19.5965 19.003L20.166 19.491C21.0268 18.4864 21.7057 17.3205 22.1513 16.0443L21.4432 15.7971L20.7351 15.5499C20.3522 16.6466 19.7683 17.6498 19.0269 18.515L19.5965 19.003ZM16.4995 19.5621L16.8745 20.2117C17.3916 19.9131 17.9763 19.843 18.5155 19.9702L18.6876 19.2402L18.8598 18.5102C17.9634 18.2988 16.9855 18.4155 16.1245 18.9126L16.4995 19.5621ZM15.0765 21.4848L15.8072 21.6538C15.9432 21.066 16.3121 20.5364 16.8745 20.2117L16.4995 19.5621L16.1245 18.9126C15.1872 19.4538 14.5716 20.3398 14.3458 21.3158L15.0765 21.4848ZM11.9995 22.5V23.25C12.9112 23.25 13.7974 23.1363 14.6443 22.922L14.4603 22.195L14.2763 21.4679C13.5487 21.652 12.7861 21.75 11.9995 21.75V22.5ZM9.53873 22.195L9.35475 22.9221C10.2016 23.1363 11.0878 23.25 11.9995 23.25V22.5V21.75C11.2129 21.75 10.4503 21.652 9.7227 21.4679L9.53873 22.195ZM7.4995 19.5621L7.1245 20.2117C7.68694 20.5364 8.05582 21.066 8.19179 21.6538L8.9225 21.4848L9.65321 21.3158C9.42747 20.3398 8.81183 19.4538 7.8745 18.9126L7.4995 19.5621ZM5.31134 19.2402L5.48352 19.9702C6.02272 19.843 6.60738 19.9131 7.1245 20.2117L7.4995 19.5621L7.8745 18.9126C7.01346 18.4155 6.03552 18.2988 5.13916 18.5102L5.31134 19.2402ZM2.55576 15.7971L1.84767 16.0443C2.29319 17.3205 2.97218 18.4864 3.83292 19.491L4.40246 19.003L4.97199 18.515C4.23064 17.6498 3.64671 16.6466 3.26385 15.5499L2.55576 15.7971ZM3.99949 12.5H3.24949C3.24949 13.1994 2.9313 13.8238 2.42898 14.2376L2.9059 14.8165L3.38281 15.3953C4.21613 14.7087 4.74949 13.6663 4.74949 12.5H3.99949ZM2.9059 10.1835L2.42898 10.7623C2.9313 11.1762 3.24949 11.8006 3.24949 12.5H3.99949H4.74949C4.74949 11.3337 4.21613 10.2913 3.38281 9.60468L2.9059 10.1835ZM4.40272 5.99667L3.83321 5.50867C2.97234 6.51334 2.29325 7.67934 1.84767 8.95567L2.55576 9.20287L3.26385 9.45007C3.64675 8.35326 4.23077 7.35001 4.97224 6.48468L4.40272 5.99667ZM7.4995 5.4375L7.1245 4.78798C6.60743 5.08651 6.02282 5.15664 5.48365 5.0295L5.31152 5.75948L5.13939 6.48946C6.03568 6.70081 7.01354 6.5841 7.8745 6.08702L7.4995 5.4375ZM8.92244 3.51508L8.19174 3.34601C8.05574 3.93379 7.68688 4.46329 7.1245 4.78798L7.4995 5.4375L7.8745 6.08702C8.81172 5.54591 9.42733 4.66003 9.65313 3.68415L8.92244 3.51508ZM11.9995 2.5V1.75C11.0878 1.75 10.2016 1.86366 9.35466 2.07796L9.53865 2.80504L9.72263 3.53213C10.4502 3.34802 11.2129 3.25 11.9995 3.25V2.5ZM14.4604 2.80508L14.6444 2.078C13.7975 1.86368 12.9112 1.75 11.9995 1.75V2.5V3.25C12.7861 3.25 13.5488 3.34803 14.2764 3.53217L14.4604 2.80508ZM8.92244 3.51508L9.65313 3.68415C9.66874 3.61668 9.69519 3.56909 9.71572 3.54413C9.73334 3.52269 9.73648 3.52862 9.72263 3.53213L9.53865 2.80504L9.35466 2.07796C8.66346 2.25286 8.30656 2.8498 8.19174 3.34601L8.92244 3.51508ZM2.9059 10.1835L3.38281 9.60468C3.32193 9.55451 3.28654 9.50024 3.27234 9.46394C3.2604 9.43341 3.26919 9.43478 3.26385 9.45007L2.55576 9.20287L1.84767 8.95567C1.58166 9.71766 1.99381 10.4038 2.42898 10.7623L2.9059 10.1835ZM5.31134 19.2402L5.13916 18.5102C5.07193 18.5261 5.01766 18.5235 4.9862 18.5162C4.95914 18.5099 4.96286 18.5044 4.97199 18.515L4.40246 19.003L3.83292 19.491C4.29597 20.0314 4.98794 20.0871 5.48352 19.9702L5.31134 19.2402ZM9.53873 22.195L9.7227 21.4679C9.73656 21.4714 9.73342 21.4773 9.71579 21.4559C9.69526 21.4309 9.66881 21.3833 9.65321 21.3158L8.9225 21.4848L8.19179 21.6538C8.30656 22.1501 8.66347 22.7471 9.35475 22.9221L9.53873 22.195ZM15.0765 21.4848L14.3458 21.3158C14.3302 21.3833 14.3038 21.4309 14.2832 21.4559C14.2656 21.4773 14.2625 21.4714 14.2763 21.4679L14.4603 22.195L14.6443 22.922C15.3356 22.7471 15.6925 22.1501 15.8072 21.6538L15.0765 21.4848ZM19.5965 19.003L19.0269 18.515C19.0361 18.5044 19.0398 18.5099 19.0127 18.5162C18.9813 18.5235 18.927 18.5261 18.8598 18.5102L18.6876 19.2402L18.5155 19.9702C19.011 20.0871 19.703 20.0314 20.166 19.491L19.5965 19.003ZM21.4432 9.20289L20.7351 9.45008C20.7297 9.43479 20.7385 9.43343 20.7266 9.46395C20.7124 9.50025 20.677 9.55453 20.6161 9.60469L21.093 10.1835L21.57 10.7624C22.0051 10.4038 22.4173 9.71767 22.1513 8.95569L21.4432 9.20289ZM2.55576 15.7971L3.26385 15.5499C3.26919 15.5652 3.2604 15.5666 3.27234 15.5361C3.28654 15.4998 3.32193 15.4455 3.38281 15.3953L2.9059 14.8165L2.42898 14.2376C1.99381 14.5962 1.58166 15.2823 1.84767 16.0443L2.55576 15.7971ZM18.6875 5.7595L18.8596 6.48949C18.9268 6.47364 18.9811 6.47624 19.0125 6.48357C19.0396 6.48987 19.0358 6.49537 19.0267 6.48471L19.5962 5.99671L20.1657 5.50871C19.7027 4.96835 19.0109 4.91269 18.5153 5.02952L18.6875 5.7595ZM4.40272 5.99667L4.97224 6.48468C4.96311 6.49534 4.95939 6.48984 4.98644 6.48354C5.0179 6.47621 5.07216 6.47361 5.13939 6.48946L5.31152 5.75948L5.48365 5.0295C4.98812 4.91265 4.29623 4.9683 3.83321 5.50867L4.40272 5.99667ZM21.093 14.8165L20.6161 15.3953C20.677 15.4455 20.7124 15.4997 20.7266 15.536C20.7385 15.5666 20.7297 15.5652 20.7351 15.5499L21.4432 15.7971L22.1513 16.0443C22.4173 15.2823 22.0051 14.5962 21.57 14.2376L21.093 14.8165ZM15.0766 3.51511L15.8073 3.34603C15.6925 2.84983 15.3356 2.25292 14.6444 2.078L14.4604 2.80508L14.2764 3.53217C14.2626 3.52866 14.2657 3.52273 14.2834 3.54417C14.3039 3.56913 14.3303 3.61672 14.3459 3.68418L15.0766 3.51511Z" fill="#101C23"/>
</svg>
