<svg width="24" height="24" viewBox="0 0 24 24" fill="none" xmlns="http://www.w3.org/2000/svg">
<path d="M12 1.25C17.9371 1.25 22.75 6.06294 22.75 12C22.75 17.9371 17.9371 22.75 12 22.75C6.06294 22.75 1.25 17.9371 1.25 12C1.25 6.06294 6.06294 1.25 12 1.25ZM11 5.5C10.1716 5.5 9.5 6.17157 9.5 7V13.3994C9.50011 14.068 9.83432 14.6926 10.3906 15.0635L15.168 18.248L15.2998 18.3271C15.9717 18.6827 16.8173 18.4782 17.248 17.832C17.6789 17.1858 17.5418 16.3272 16.9551 15.8438L16.832 15.752L12.5 12.8633V7C12.5 6.17157 11.8284 5.5 11 5.5Z" fill="#256DEB"/>
</svg>
