<svg width="24" height="24" viewBox="0 0 24 24" fill="none" xmlns="http://www.w3.org/2000/svg">
<circle cx="3.40426" cy="3.40426" r="3.40426" transform="matrix(-1 0 0 1 15.617 5)" stroke="#101C23" stroke-width="1.5"/>
<path d="M6.25531 16.8594C6.25531 16.1272 6.71561 15.474 7.40517 15.2277V15.2277C10.5141 14.1174 13.9114 14.1174 17.0203 15.2277V15.2277C17.7099 15.474 18.1702 16.1272 18.1702 16.8594V17.979C18.1702 18.9896 17.2751 19.7659 16.2747 19.6229L15.9412 19.5753C13.4681 19.222 10.9574 19.222 8.48436 19.5753L8.15081 19.6229C7.15038 19.7659 6.25531 18.9896 6.25531 17.979V16.8594Z" stroke="#101C23" stroke-width="1.5"/>
<path d="M17.3191 11.9026C18.7964 11.9026 19.9939 10.7051 19.9939 9.22787C19.9939 7.75064 18.7964 6.5531 17.3191 6.5531" stroke="#101C23" stroke-width="1.5" stroke-linecap="round"/>
<path d="M20.2486 18.0051L20.5107 18.0425C21.2968 18.1548 22 17.5448 22 16.7508V15.8711C22 15.2958 21.6384 14.7826 21.0966 14.5891C20.5561 14.3961 20.0046 14.2458 19.4468 14.1382" stroke="#101C23" stroke-width="1.5" stroke-linecap="round"/>
<path d="M6.68088 11.9026C5.20364 11.9026 4.0061 10.7051 4.0061 9.22787C4.0061 7.75064 5.20364 6.5531 6.68088 6.5531" stroke="#101C23" stroke-width="1.5" stroke-linecap="round"/>
<path d="M3.75137 18.0051L3.48929 18.0425C2.70324 18.1548 1.99997 17.5448 1.99997 16.7508V15.8711C1.99997 15.2958 2.36164 14.7826 2.90344 14.5891C3.44389 14.3961 3.99543 14.2458 4.55316 14.1382" stroke="#101C23" stroke-width="1.5" stroke-linecap="round"/>
</svg>
